<?xml version="1.0" encoding="UTF-8" standalone="no"?>
<!DOCTYPE svg PUBLIC "-//W3C//DTD SVG 1.1//EN"
 "http://www.w3.org/Graphics/SVG/1.1/DTD/svg11.dtd">
<!-- Generated by graphviz version 2.43.0 (0)
 -->
<!-- Title: FastLEDController Pages: 1 -->
<svg width="749pt" height="192pt"
 viewBox="0.00 0.00 749.00 191.50" xmlns="http://www.w3.org/2000/svg" xmlns:xlink="http://www.w3.org/1999/xlink">
<g id="graph0" class="graph" transform="scale(1 1) rotate(0) translate(4 187.5)">
<title>FastLEDController</title>
<polygon fill="white" stroke="transparent" points="-4,4 -4,-187.5 745,-187.5 745,4 -4,4"/>
<!-- Node1 -->
<g id="node1" class="node">
<title>Node1</title>
<g id="a_node1"><a xlink:title=" ">
<polygon fill="#bfbfbf" stroke="black" points="638,-67 638,-86 741,-86 741,-67 638,-67"/>
<text text-anchor="middle" x="689.5" y="-74" font-family="Helvetica,sans-Serif" font-size="10.00">FastLEDController</text>
</a>
</g>
</g>
<!-- Node2 -->
<g id="node2" class="node">
<title>Node2</title>
<g id="a_node2"><a xlink:href="classLEDController.html" target="_top" xlink:title=" ">
<polygon fill="white" stroke="black" points="378.5,-126 378.5,-145 461.5,-145 461.5,-126 378.5,-126"/>
<text text-anchor="middle" x="420" y="-133" font-family="Helvetica,sans-Serif" font-size="10.00">LEDController</text>
</a>
</g>
</g>
<!-- Node2&#45;&gt;Node1 -->
<g id="edge1" class="edge">
<title>Node2&#45;&gt;Node1</title>
<path fill="none" stroke="midnightblue" d="M471.8,-130.89C512.43,-126.42 570.57,-118.25 620,-104.5 636.83,-99.82 655.11,-92.21 668.55,-86.1"/>
<polygon fill="midnightblue" stroke="midnightblue" points="471.18,-127.44 461.61,-131.98 471.92,-134.4 471.18,-127.44"/>
</g>
<!-- Node3 -->
<g id="node3" class="node">
<title>Node3</title>
<g id="a_node3"><a xlink:href="classILEDController.html" target="_top" xlink:title=" ">
<polygon fill="white" stroke="black" points="159.5,-164 159.5,-183 245.5,-183 245.5,-164 159.5,-164"/>
<text text-anchor="middle" x="202.5" y="-171" font-family="Helvetica,sans-Serif" font-size="10.00">ILEDController</text>
</a>
</g>
</g>
<!-- Node3&#45;&gt;Node2 -->
<g id="edge2" class="edge">
<title>Node3&#45;&gt;Node2</title>
<path fill="none" stroke="midnightblue" d="M255.82,-164.27C293.44,-157.64 343.44,-148.82 378.14,-142.7"/>
<polygon fill="midnightblue" stroke="midnightblue" points="254.8,-160.9 245.56,-166.08 256.02,-167.79 254.8,-160.9"/>
</g>
<!-- Node4 -->
<g id="node4" class="node">
<title>Node4</title>
<g id="a_node4"><a xlink:href="structLEDChannel.html" target="_top" xlink:title=" ">
<polygon fill="white" stroke="black" points="165,-126 165,-145 240,-145 240,-126 165,-126"/>
<text text-anchor="middle" x="202.5" y="-133" font-family="Helvetica,sans-Serif" font-size="10.00">LEDChannel</text>
</a>
</g>
</g>
<!-- Node4&#45;&gt;Node2 -->
<g id="edge3" class="edge">
<title>Node4&#45;&gt;Node2</title>
<path fill="none" stroke="#9a32cd" stroke-dasharray="5,2" d="M250.39,-135.5C288.53,-135.5 341.82,-135.5 378.22,-135.5"/>
<polygon fill="#9a32cd" stroke="#9a32cd" points="250.06,-132 240.06,-135.5 250.06,-139 250.06,-132"/>
<text text-anchor="middle" x="308.5" y="-138.5" font-family="Helvetica,sans-Serif" font-size="10.00"> channels</text>
</g>
<!-- Node5 -->
<g id="node5" class="node">
<title>Node5</title>
<g id="a_node5"><a xlink:href="structLEDGroup.html" target="_top" xlink:title=" ">
<polygon fill="white" stroke="black" points="0,-126 0,-145 65,-145 65,-126 0,-126"/>
<text text-anchor="middle" x="32.5" y="-133" font-family="Helvetica,sans-Serif" font-size="10.00">LEDGroup</text>
</a>
</g>
</g>
<!-- Node5&#45;&gt;Node4 -->
<g id="edge4" class="edge">
<title>Node5&#45;&gt;Node4</title>
<path fill="none" stroke="#9a32cd" stroke-dasharray="5,2" d="M75.2,-135.5C102.69,-135.5 138.36,-135.5 164.78,-135.5"/>
<polygon fill="#9a32cd" stroke="#9a32cd" points="75.1,-132 65.1,-135.5 75.1,-139 75.1,-132"/>
<text text-anchor="middle" x="101.5" y="-138.5" font-family="Helvetica,sans-Serif" font-size="10.00"> groups</text>
</g>
<!-- Node6 -->
<g id="node6" class="node">
<title>Node6</title>
<g id="a_node6"><a xlink:href="classTemperatureController.html" target="_top" xlink:title=" ">
<polygon fill="white" stroke="black" points="357,-88 357,-107 483,-107 483,-88 357,-88"/>
<text text-anchor="middle" x="420" y="-95" font-family="Helvetica,sans-Serif" font-size="10.00">TemperatureController</text>
</a>
</g>
</g>
<!-- Node6&#45;&gt;Node1 -->
<g id="edge5" class="edge">
<title>Node6&#45;&gt;Node1</title>
<path fill="none" stroke="#9a32cd" stroke-dasharray="5,2" d="M493.21,-91.83C539,-88.24 597.11,-83.67 637.99,-80.47"/>
<polygon fill="#9a32cd" stroke="#9a32cd" points="492.74,-88.36 483.04,-92.63 493.29,-95.34 492.74,-88.36"/>
<text text-anchor="middle" x="564" y="-92.5" font-family="Helvetica,sans-Serif" font-size="10.00"> temperatureController</text>
</g>
<!-- Node7 -->
<g id="node7" class="node">
<title>Node7</title>
<g id="a_node7"><a xlink:href="classITemperatureController.html" target="_top" xlink:title=" ">
<polygon fill="white" stroke="black" points="138,-88 138,-107 267,-107 267,-88 138,-88"/>
<text text-anchor="middle" x="202.5" y="-95" font-family="Helvetica,sans-Serif" font-size="10.00">ITemperatureController</text>
</a>
</g>
</g>
<!-- Node7&#45;&gt;Node6 -->
<g id="edge6" class="edge">
<title>Node7&#45;&gt;Node6</title>
<path fill="none" stroke="midnightblue" d="M277.42,-97.5C303.29,-97.5 332.05,-97.5 356.87,-97.5"/>
<polygon fill="midnightblue" stroke="midnightblue" points="277.28,-94 267.28,-97.5 277.28,-101 277.28,-94"/>
</g>
<!-- Node8 -->
<g id="node8" class="node">
<title>Node8</title>
<g id="a_node8"><a xlink:href="classFastLEDControllerStorage.html" target="_top" xlink:title=" ">
<polygon fill="white" stroke="black" points="350,-50 350,-69 490,-69 490,-50 350,-50"/>
<text text-anchor="middle" x="420" y="-57" font-family="Helvetica,sans-Serif" font-size="10.00">FastLEDControllerStorage</text>
</a>
</g>
</g>
<!-- Node8&#45;&gt;Node1 -->
<g id="edge7" class="edge">
<title>Node8&#45;&gt;Node1</title>
<path fill="none" stroke="#9a32cd" stroke-dasharray="5,2" d="M500.37,-57.31C536.9,-57.18 580.75,-58.23 620,-62.5 629.17,-63.5 638.93,-65.14 648.13,-66.95"/>
<polygon fill="#9a32cd" stroke="#9a32cd" points="500.24,-53.82 490.27,-57.38 500.29,-60.82 500.24,-53.82"/>
<text text-anchor="middle" x="564" y="-65.5" font-family="Helvetica,sans-Serif" font-size="10.00"> storage</text>
</g>
<!-- Node9 -->
<g id="node9" class="node">
<title>Node9</title>
<g id="a_node9"><a xlink:title=" ">
<polygon fill="white" stroke="#bfbfbf" points="365.5,-0.5 365.5,-30.5 474.5,-30.5 474.5,-0.5 365.5,-0.5"/>
<text text-anchor="start" x="373.5" y="-18.5" font-family="Helvetica,sans-Serif" font-size="10.00">FastLEDController::</text>
<text text-anchor="middle" x="420" y="-7.5" font-family="Helvetica,sans-Serif" font-size="10.00">ChannelData</text>
</a>
</g>
</g>
<!-- Node9&#45;&gt;Node1 -->
<g id="edge8" class="edge">
<title>Node9&#45;&gt;Node1</title>
<path fill="none" stroke="#9a32cd" stroke-dasharray="5,2" d="M484.91,-18.29C524.54,-21.37 576.08,-27.86 620,-41.5 639.39,-47.52 659.9,-58.73 673.37,-66.85"/>
<polygon fill="#9a32cd" stroke="#9a32cd" points="485.08,-14.79 474.85,-17.56 484.57,-21.77 485.08,-14.79"/>
<text text-anchor="middle" x="564" y="-44.5" font-family="Helvetica,sans-Serif" font-size="10.00"> channelData</text>
</g>
</g>
</svg>
