<?xml version="1.0" encoding="UTF-8" standalone="no"?>
<!DOCTYPE svg PUBLIC "-//W3C//DTD SVG 1.1//EN"
 "http://www.w3.org/Graphics/SVG/1.1/DTD/svg11.dtd">
<!-- Generated by graphviz version 2.40.1 (20161225.0304)
 -->
<!-- Title: SimpleFanController Pages: 1 -->
<svg width="377pt" height="162pt"
 viewBox="0.00 0.00 377.00 162.00" xmlns="http://www.w3.org/2000/svg" xmlns:xlink="http://www.w3.org/1999/xlink">
<g id="graph0" class="graph" transform="scale(1 1) rotate(0) translate(4 158)">
<title>SimpleFanController</title>
<polygon fill="#ffffff" stroke="transparent" points="-4,4 -4,-158 373,-158 373,4 -4,4"/>
<!-- Node3 -->
<g id="node1" class="node">
<title>Node3</title>
<polygon fill="#bfbfbf" stroke="#000000" points="156.5,-.5 156.5,-19.5 261.5,-19.5 261.5,-.5 156.5,-.5"/>
<text text-anchor="middle" x="209" y="-7.5" font-family="Helvetica,sans-Serif" font-size="10.00" fill="#000000">SimpleFanController</text>
</g>
<!-- Node4 -->
<g id="node2" class="node">
<title>Node4</title>
<g id="a_node2"><a xlink:href="classFanController.html" target="_top" xlink:title="FanController">
<polygon fill="#ffffff" stroke="#000000" points="2.5,-67.5 2.5,-86.5 77.5,-86.5 77.5,-67.5 2.5,-67.5"/>
<text text-anchor="middle" x="40" y="-74.5" font-family="Helvetica,sans-Serif" font-size="10.00" fill="#000000">FanController</text>
</a>
</g>
</g>
<!-- Node4&#45;&gt;Node3 -->
<g id="edge1" class="edge">
<title>Node4&#45;&gt;Node3</title>
<path fill="none" stroke="#191970" d="M73.8489,-63.5806C106.6995,-50.557 155.7369,-31.1162 184.8313,-19.5817"/>
<polygon fill="#191970" stroke="#191970" points="72.2198,-60.4614 64.2136,-67.4005 74.7996,-66.9687 72.2198,-60.4614"/>
</g>
<!-- Node5 -->
<g id="node3" class="node">
<title>Node5</title>
<g id="a_node3"><a xlink:href="classIFanController.html" target="_top" xlink:title="IFanController">
<polygon fill="#ffffff" stroke="#000000" points="0,-134.5 0,-153.5 78,-153.5 78,-134.5 0,-134.5"/>
<text text-anchor="middle" x="39" y="-141.5" font-family="Helvetica,sans-Serif" font-size="10.00" fill="#000000">IFanController</text>
</a>
</g>
</g>
<!-- Node5&#45;&gt;Node4 -->
<g id="edge2" class="edge">
<title>Node5&#45;&gt;Node4</title>
<path fill="none" stroke="#191970" d="M39.2969,-124.1079C39.4819,-111.714 39.7115,-96.3263 39.857,-86.5817"/>
<polygon fill="#191970" stroke="#191970" points="35.793,-124.3494 39.1433,-134.4005 42.7922,-124.4539 35.793,-124.3494"/>
</g>
<!-- Node6 -->
<g id="node4" class="node">
<title>Node6</title>
<g id="a_node4"><a xlink:href="classTemperatureController.html" target="_top" xlink:title="TemperatureController">
<polygon fill="#ffffff" stroke="#000000" points="96.5,-67.5 96.5,-86.5 209.5,-86.5 209.5,-67.5 96.5,-67.5"/>
<text text-anchor="middle" x="153" y="-74.5" font-family="Helvetica,sans-Serif" font-size="10.00" fill="#000000">TemperatureController</text>
</a>
</g>
</g>
<!-- Node6&#45;&gt;Node3 -->
<g id="edge3" class="edge">
<title>Node6&#45;&gt;Node3</title>
<path fill="none" stroke="#9a32cd" stroke-dasharray="5,2" d="M146.9014,-57.0728C146.0545,-50.5688 146.466,-43.589 150,-38 155.2718,-29.6628 163.7745,-23.7585 172.7033,-19.5963"/>
<polygon fill="#9a32cd" stroke="#9a32cd" points="143.5786,-58.2501 149.1856,-67.2396 150.4083,-56.7156 143.5786,-58.2501"/>
<text text-anchor="middle" x="198.5" y="-41" font-family="Helvetica,sans-Serif" font-size="10.00" fill="#000000"> temperatureController</text>
</g>
<!-- Node7 -->
<g id="node5" class="node">
<title>Node7</title>
<g id="a_node5"><a xlink:href="classITemperatureController.html" target="_top" xlink:title="ITemperatureController">
<polygon fill="#ffffff" stroke="#000000" points="96,-134.5 96,-153.5 212,-153.5 212,-134.5 96,-134.5"/>
<text text-anchor="middle" x="154" y="-141.5" font-family="Helvetica,sans-Serif" font-size="10.00" fill="#000000">ITemperatureController</text>
</a>
</g>
</g>
<!-- Node7&#45;&gt;Node6 -->
<g id="edge4" class="edge">
<title>Node7&#45;&gt;Node6</title>
<path fill="none" stroke="#191970" d="M153.7031,-124.1079C153.5181,-111.714 153.2885,-96.3263 153.143,-86.5817"/>
<polygon fill="#191970" stroke="#191970" points="150.2078,-124.4539 153.8567,-134.4005 157.207,-124.3494 150.2078,-124.4539"/>
</g>
<!-- Node8 -->
<g id="node6" class="node">
<title>Node8</title>
<g id="a_node6"><a xlink:href="structFanData.html" target="_top" xlink:title="FanData">
<polygon fill="#ffffff" stroke="#000000" points="239,-67.5 239,-86.5 293,-86.5 293,-67.5 239,-67.5"/>
<text text-anchor="middle" x="266" y="-74.5" font-family="Helvetica,sans-Serif" font-size="10.00" fill="#000000">FanData</text>
</a>
</g>
</g>
<!-- Node8&#45;&gt;Node3 -->
<g id="edge5" class="edge">
<title>Node8&#45;&gt;Node3</title>
<path fill="none" stroke="#9a32cd" stroke-dasharray="5,2" d="M258.78,-57.6004C255.7544,-50.9675 251.8085,-43.7724 247,-38 241.0207,-30.8222 232.8312,-24.4846 225.5857,-19.6623"/>
<polygon fill="#9a32cd" stroke="#9a32cd" points="255.7212,-59.3639 262.7684,-67.2751 262.1928,-56.6959 255.7212,-59.3639"/>
<text text-anchor="middle" x="273" y="-41" font-family="Helvetica,sans-Serif" font-size="10.00" fill="#000000"> fanData</text>
</g>
<!-- Node9 -->
<g id="node7" class="node">
<title>Node9</title>
<g id="a_node7"><a xlink:href="structFanCurve.html" target="_top" xlink:title="FanCurve">
<polygon fill="#ffffff" stroke="#000000" points="236.5,-134.5 236.5,-153.5 295.5,-153.5 295.5,-134.5 236.5,-134.5"/>
<text text-anchor="middle" x="266" y="-141.5" font-family="Helvetica,sans-Serif" font-size="10.00" fill="#000000">FanCurve</text>
</a>
</g>
</g>
<!-- Node9&#45;&gt;Node8 -->
<g id="edge6" class="edge">
<title>Node9&#45;&gt;Node8</title>
<path fill="none" stroke="#9a32cd" stroke-dasharray="5,2" d="M266,-124.1079C266,-111.714 266,-96.3263 266,-86.5817"/>
<polygon fill="#9a32cd" stroke="#9a32cd" points="262.5001,-124.4005 266,-134.4005 269.5001,-124.4006 262.5001,-124.4005"/>
<text text-anchor="middle" x="287.5" y="-108" font-family="Helvetica,sans-Serif" font-size="10.00" fill="#000000"> fanCurve</text>
</g>
<!-- Node10 -->
<g id="node8" class="node">
<title>Node10</title>
<g id="a_node8"><a xlink:href="classPWMFan.html" target="_top" xlink:title="PWMFan">
<polygon fill="#ffffff" stroke="#000000" points="311,-67.5 311,-86.5 369,-86.5 369,-67.5 311,-67.5"/>
<text text-anchor="middle" x="340" y="-74.5" font-family="Helvetica,sans-Serif" font-size="10.00" fill="#000000">PWMFan</text>
</a>
</g>
</g>
<!-- Node10&#45;&gt;Node3 -->
<g id="edge7" class="edge">
<title>Node10&#45;&gt;Node3</title>
<path fill="none" stroke="#9a32cd" stroke-dasharray="5,2" d="M324.3467,-60.2254C316.4566,-52.5713 306.3744,-43.9166 296,-38 281.9411,-29.9821 265.274,-23.9084 250.3089,-19.5025"/>
<polygon fill="#9a32cd" stroke="#9a32cd" points="321.9199,-62.7492 331.4357,-67.4076 326.9019,-57.8318 321.9199,-62.7492"/>
<text text-anchor="middle" x="321" y="-41" font-family="Helvetica,sans-Serif" font-size="10.00" fill="#000000"> fans</text>
</g>
</g>
</svg>
