<?xml version="1.0" encoding="UTF-8" standalone="no"?>
<!DOCTYPE svg PUBLIC "-//W3C//DTD SVG 1.1//EN"
 "http://www.w3.org/Graphics/SVG/1.1/DTD/svg11.dtd">
<!-- Generated by graphviz version 2.43.0 (0)
 -->
<!-- Title: SimpleFanController Pages: 1 -->
<svg width="403pt" height="162pt"
 viewBox="0.00 0.00 403.00 162.00" xmlns="http://www.w3.org/2000/svg" xmlns:xlink="http://www.w3.org/1999/xlink">
<g id="graph0" class="graph" transform="scale(1 1) rotate(0) translate(4 158)">
<title>SimpleFanController</title>
<polygon fill="white" stroke="transparent" points="-4,4 -4,-158 399,-158 399,4 -4,4"/>
<!-- Node1 -->
<g id="node1" class="node">
<title>Node1</title>
<g id="a_node1"><a xlink:title=" ">
<polygon fill="#bfbfbf" stroke="black" points="169.5,-0.5 169.5,-19.5 284.5,-19.5 284.5,-0.5 169.5,-0.5"/>
<text text-anchor="middle" x="227" y="-7.5" font-family="Helvetica,sans-Serif" font-size="10.00">SimpleFanController</text>
</a>
</g>
</g>
<!-- Node2 -->
<g id="node2" class="node">
<title>Node2</title>
<g id="a_node2"><a xlink:href="classFanController.html" target="_top" xlink:title=" ">
<polygon fill="white" stroke="black" points="2.5,-67.5 2.5,-86.5 83.5,-86.5 83.5,-67.5 2.5,-67.5"/>
<text text-anchor="middle" x="43" y="-74.5" font-family="Helvetica,sans-Serif" font-size="10.00">FanController</text>
</a>
</g>
</g>
<!-- Node2&#45;&gt;Node1 -->
<g id="edge1" class="edge">
<title>Node2&#45;&gt;Node1</title>
<path fill="none" stroke="midnightblue" d="M77.15,-63.94C113.65,-51.04 170.6,-30.92 202.76,-19.56"/>
<polygon fill="midnightblue" stroke="midnightblue" points="75.7,-60.74 67.43,-67.37 78.03,-67.34 75.7,-60.74"/>
</g>
<!-- Node3 -->
<g id="node3" class="node">
<title>Node3</title>
<g id="a_node3"><a xlink:href="classIFanController.html" target="_top" xlink:title=" ">
<polygon fill="white" stroke="black" points="0,-134.5 0,-153.5 84,-153.5 84,-134.5 0,-134.5"/>
<text text-anchor="middle" x="42" y="-141.5" font-family="Helvetica,sans-Serif" font-size="10.00">IFanController</text>
</a>
</g>
</g>
<!-- Node3&#45;&gt;Node2 -->
<g id="edge2" class="edge">
<title>Node3&#45;&gt;Node2</title>
<path fill="none" stroke="midnightblue" d="M42.29,-124.04C42.48,-111.67 42.72,-96.12 42.87,-86.63"/>
<polygon fill="midnightblue" stroke="midnightblue" points="38.79,-124.18 42.13,-134.23 45.79,-124.29 38.79,-124.18"/>
</g>
<!-- Node4 -->
<g id="node4" class="node">
<title>Node4</title>
<g id="a_node4"><a xlink:href="classTemperatureController.html" target="_top" xlink:title=" ">
<polygon fill="white" stroke="black" points="103,-67.5 103,-86.5 229,-86.5 229,-67.5 103,-67.5"/>
<text text-anchor="middle" x="166" y="-74.5" font-family="Helvetica,sans-Serif" font-size="10.00">TemperatureController</text>
</a>
</g>
</g>
<!-- Node4&#45;&gt;Node1 -->
<g id="edge3" class="edge">
<title>Node4&#45;&gt;Node1</title>
<path fill="none" stroke="#9a32cd" stroke-dasharray="5,2" d="M158.71,-57.74C157.24,-51.05 157.15,-43.73 161,-38 166.73,-29.47 175.68,-23.63 185.16,-19.64"/>
<polygon fill="#9a32cd" stroke="#9a32cd" points="155.42,-58.93 161.79,-67.39 162.09,-56.8 155.42,-58.93"/>
<text text-anchor="middle" x="217" y="-41" font-family="Helvetica,sans-Serif" font-size="10.00"> temperatureController</text>
</g>
<!-- Node5 -->
<g id="node5" class="node">
<title>Node5</title>
<g id="a_node5"><a xlink:href="classITemperatureController.html" target="_top" xlink:title=" ">
<polygon fill="white" stroke="black" points="102.5,-134.5 102.5,-153.5 231.5,-153.5 231.5,-134.5 102.5,-134.5"/>
<text text-anchor="middle" x="167" y="-141.5" font-family="Helvetica,sans-Serif" font-size="10.00">ITemperatureController</text>
</a>
</g>
</g>
<!-- Node5&#45;&gt;Node4 -->
<g id="edge4" class="edge">
<title>Node5&#45;&gt;Node4</title>
<path fill="none" stroke="midnightblue" d="M166.71,-124.04C166.52,-111.67 166.28,-96.12 166.13,-86.63"/>
<polygon fill="midnightblue" stroke="midnightblue" points="163.21,-124.29 166.87,-134.23 170.21,-124.18 163.21,-124.29"/>
</g>
<!-- Node6 -->
<g id="node6" class="node">
<title>Node6</title>
<g id="a_node6"><a xlink:href="structFanData.html" target="_top" xlink:title=" ">
<polygon fill="white" stroke="black" points="263,-67.5 263,-86.5 319,-86.5 319,-67.5 263,-67.5"/>
<text text-anchor="middle" x="291" y="-74.5" font-family="Helvetica,sans-Serif" font-size="10.00">FanData</text>
</a>
</g>
</g>
<!-- Node6&#45;&gt;Node1 -->
<g id="edge5" class="edge">
<title>Node6&#45;&gt;Node1</title>
<path fill="none" stroke="#9a32cd" stroke-dasharray="5,2" d="M284.89,-57.58C282.03,-50.88 278.11,-43.58 273,-38 265.87,-30.21 255.97,-24.01 247.18,-19.52"/>
<polygon fill="#9a32cd" stroke="#9a32cd" points="281.75,-59.16 288.53,-67.3 288.3,-56.71 281.75,-59.16"/>
<text text-anchor="middle" x="301.5" y="-41" font-family="Helvetica,sans-Serif" font-size="10.00"> fanData</text>
</g>
<!-- Node7 -->
<g id="node7" class="node">
<title>Node7</title>
<g id="a_node7"><a xlink:href="structFanCurve.html" target="_top" xlink:title=" ">
<polygon fill="white" stroke="black" points="260,-134.5 260,-153.5 322,-153.5 322,-134.5 260,-134.5"/>
<text text-anchor="middle" x="291" y="-141.5" font-family="Helvetica,sans-Serif" font-size="10.00">FanCurve</text>
</a>
</g>
</g>
<!-- Node7&#45;&gt;Node6 -->
<g id="edge6" class="edge">
<title>Node7&#45;&gt;Node6</title>
<path fill="none" stroke="#9a32cd" stroke-dasharray="5,2" d="M291,-124.04C291,-111.67 291,-96.12 291,-86.63"/>
<polygon fill="#9a32cd" stroke="#9a32cd" points="287.5,-124.23 291,-134.23 294.5,-124.23 287.5,-124.23"/>
<text text-anchor="middle" x="315" y="-108" font-family="Helvetica,sans-Serif" font-size="10.00"> fanCurve</text>
</g>
<!-- Node8 -->
<g id="node8" class="node">
<title>Node8</title>
<g id="a_node8"><a xlink:href="classPWMFan.html" target="_top" xlink:title=" ">
<polygon fill="white" stroke="black" points="337,-67.5 337,-86.5 395,-86.5 395,-67.5 337,-67.5"/>
<text text-anchor="middle" x="366" y="-74.5" font-family="Helvetica,sans-Serif" font-size="10.00">PWMFan</text>
</a>
</g>
</g>
<!-- Node8&#45;&gt;Node1 -->
<g id="edge7" class="edge">
<title>Node8&#45;&gt;Node1</title>
<path fill="none" stroke="#9a32cd" stroke-dasharray="5,2" d="M352.84,-59.78C345.88,-52.17 336.77,-43.57 327,-38 312.08,-29.5 294.38,-23.58 278.04,-19.5"/>
<polygon fill="#9a32cd" stroke="#9a32cd" points="350.28,-62.18 359.47,-67.46 355.58,-57.6 350.28,-62.18"/>
<text text-anchor="middle" x="353.5" y="-41" font-family="Helvetica,sans-Serif" font-size="10.00"> fans</text>
</g>
</g>
</svg>
