<?xml version="1.0" encoding="UTF-8" standalone="no"?>
<!DOCTYPE svg PUBLIC "-//W3C//DTD SVG 1.1//EN"
 "http://www.w3.org/Graphics/SVG/1.1/DTD/svg11.dtd">
<!-- Generated by graphviz version 2.43.0 (0)
 -->
<!-- Title: CorsairLightingProtocolHID Pages: 1 -->
<svg width="381pt" height="95pt"
 viewBox="0.00 0.00 380.50 95.00" xmlns="http://www.w3.org/2000/svg" xmlns:xlink="http://www.w3.org/1999/xlink">
<g id="graph0" class="graph" transform="scale(1 1) rotate(0) translate(4 91)">
<title>CorsairLightingProtocolHID</title>
<polygon fill="white" stroke="transparent" points="-4,4 -4,-91 376.5,-91 376.5,4 -4,4"/>
<!-- Node1 -->
<g id="node1" class="node">
<title>Node1</title>
<g id="a_node1"><a xlink:title=" ">
<polygon fill="#bfbfbf" stroke="black" points="111.5,-0.5 111.5,-19.5 259.5,-19.5 259.5,-0.5 111.5,-0.5"/>
<text text-anchor="middle" x="185.5" y="-7.5" font-family="Helvetica,sans-Serif" font-size="10.00">CorsairLightingProtocolHID</text>
</a>
</g>
</g>
<!-- Node2 -->
<g id="node2" class="node">
<title>Node2</title>
<g id="a_node2"><a xlink:href="classCorsairLightingProtocolResponse.html" target="_top" xlink:title=" ">
<polygon fill="white" stroke="black" points="0,-67.5 0,-86.5 177,-86.5 177,-67.5 0,-67.5"/>
<text text-anchor="middle" x="88.5" y="-74.5" font-family="Helvetica,sans-Serif" font-size="10.00">CorsairLightingProtocolResponse</text>
</a>
</g>
</g>
<!-- Node2&#45;&gt;Node1 -->
<g id="edge1" class="edge">
<title>Node2&#45;&gt;Node1</title>
<path fill="none" stroke="#8b1a1a" d="M110,-61.59C129.19,-48.74 156.65,-30.33 172.63,-19.63"/>
<polygon fill="#8b1a1a" stroke="#8b1a1a" points="107.94,-58.76 101.58,-67.23 111.84,-64.57 107.94,-58.76"/>
</g>
<!-- Node3 -->
<g id="node3" class="node">
<title>Node3</title>
<g id="a_node3"><a xlink:href="classCorsairLightingProtocolController.html" target="_top" xlink:title=" ">
<polygon fill="white" stroke="black" points="194.5,-67.5 194.5,-86.5 372.5,-86.5 372.5,-67.5 194.5,-67.5"/>
<text text-anchor="middle" x="283.5" y="-74.5" font-family="Helvetica,sans-Serif" font-size="10.00">CorsairLightingProtocolController</text>
</a>
</g>
</g>
<!-- Node3&#45;&gt;Node1 -->
<g id="edge2" class="edge">
<title>Node3&#45;&gt;Node1</title>
<path fill="none" stroke="#9a32cd" stroke-dasharray="5,2" d="M261.78,-61.59C242.39,-48.74 214.64,-30.33 198.51,-19.63"/>
<polygon fill="#9a32cd" stroke="#9a32cd" points="260.02,-64.62 270.28,-67.23 263.88,-58.79 260.02,-64.62"/>
<text text-anchor="middle" x="265.5" y="-41" font-family="Helvetica,sans-Serif" font-size="10.00"> controller</text>
</g>
</g>
</svg>
