<?xml version="1.0" encoding="UTF-8" standalone="no"?>
<!DOCTYPE svg PUBLIC "-//W3C//DTD SVG 1.1//EN"
 "http://www.w3.org/Graphics/SVG/1.1/DTD/svg11.dtd">
<!-- Generated by graphviz version 2.43.0 (0)
 -->
<!-- Title: LEDController Pages: 1 -->
<svg width="188pt" height="162pt"
 viewBox="0.00 0.00 187.50 162.00" xmlns="http://www.w3.org/2000/svg" xmlns:xlink="http://www.w3.org/1999/xlink">
<g id="graph0" class="graph" transform="scale(1 1) rotate(0) translate(4 158)">
<title>LEDController</title>
<polygon fill="white" stroke="transparent" points="-4,4 -4,-158 183.5,-158 183.5,4 -4,4"/>
<!-- Node1 -->
<g id="node1" class="node">
<title>Node1</title>
<g id="a_node1"><a xlink:title=" ">
<polygon fill="#bfbfbf" stroke="black" points="17.5,-0.5 17.5,-19.5 100.5,-19.5 100.5,-0.5 17.5,-0.5"/>
<text text-anchor="middle" x="59" y="-7.5" font-family="Helvetica,sans-Serif" font-size="10.00">LEDController</text>
</a>
</g>
</g>
<!-- Node2 -->
<g id="node2" class="node">
<title>Node2</title>
<g id="a_node2"><a xlink:href="classILEDController.html" target="_top" xlink:title=" ">
<polygon fill="white" stroke="black" points="0,-67.5 0,-86.5 86,-86.5 86,-67.5 0,-67.5"/>
<text text-anchor="middle" x="43" y="-74.5" font-family="Helvetica,sans-Serif" font-size="10.00">ILEDController</text>
</a>
</g>
</g>
<!-- Node2&#45;&gt;Node1 -->
<g id="edge1" class="edge">
<title>Node2&#45;&gt;Node1</title>
<path fill="none" stroke="midnightblue" d="M47.57,-57.41C50.63,-44.99 54.52,-29.22 56.88,-19.63"/>
<polygon fill="midnightblue" stroke="midnightblue" points="44.15,-56.69 45.16,-67.23 50.95,-58.36 44.15,-56.69"/>
</g>
<!-- Node3 -->
<g id="node3" class="node">
<title>Node3</title>
<g id="a_node3"><a xlink:href="structLEDChannel.html" target="_top" xlink:title=" ">
<polygon fill="white" stroke="black" points="104.5,-67.5 104.5,-86.5 179.5,-86.5 179.5,-67.5 104.5,-67.5"/>
<text text-anchor="middle" x="142" y="-74.5" font-family="Helvetica,sans-Serif" font-size="10.00">LEDChannel</text>
</a>
</g>
</g>
<!-- Node3&#45;&gt;Node1 -->
<g id="edge2" class="edge">
<title>Node3&#45;&gt;Node1</title>
<path fill="none" stroke="#9a32cd" stroke-dasharray="5,2" d="M122.93,-61.07C106.55,-48.24 83.5,-30.19 70.02,-19.63"/>
<polygon fill="#9a32cd" stroke="#9a32cd" points="120.78,-63.82 130.81,-67.23 125.09,-58.31 120.78,-63.82"/>
<text text-anchor="middle" x="128.5" y="-41" font-family="Helvetica,sans-Serif" font-size="10.00"> channels</text>
</g>
<!-- Node4 -->
<g id="node4" class="node">
<title>Node4</title>
<g id="a_node4"><a xlink:href="structLEDGroup.html" target="_top" xlink:title=" ">
<polygon fill="white" stroke="black" points="109.5,-134.5 109.5,-153.5 174.5,-153.5 174.5,-134.5 109.5,-134.5"/>
<text text-anchor="middle" x="142" y="-141.5" font-family="Helvetica,sans-Serif" font-size="10.00">LEDGroup</text>
</a>
</g>
</g>
<!-- Node4&#45;&gt;Node3 -->
<g id="edge3" class="edge">
<title>Node4&#45;&gt;Node3</title>
<path fill="none" stroke="#9a32cd" stroke-dasharray="5,2" d="M142,-124.04C142,-111.67 142,-96.12 142,-86.63"/>
<polygon fill="#9a32cd" stroke="#9a32cd" points="138.5,-124.23 142,-134.23 145.5,-124.23 138.5,-124.23"/>
<text text-anchor="middle" x="160.5" y="-108" font-family="Helvetica,sans-Serif" font-size="10.00"> groups</text>
</g>
</g>
</svg>
