<?xml version="1.0" encoding="UTF-8" standalone="no"?>
<!DOCTYPE svg PUBLIC "-//W3C//DTD SVG 1.1//EN"
 "http://www.w3.org/Graphics/SVG/1.1/DTD/svg11.dtd">
<!-- Generated by graphviz version 2.43.0 (0)
 -->
<!-- Title: FastLEDController Pages: 1 -->
<svg width="462pt" height="240pt"
 viewBox="0.00 0.00 461.50 240.00" xmlns="http://www.w3.org/2000/svg" xmlns:xlink="http://www.w3.org/1999/xlink">
<g id="graph0" class="graph" transform="scale(1 1) rotate(0) translate(4 236)">
<title>FastLEDController</title>
<polygon fill="white" stroke="transparent" points="-4,4 -4,-236 457.5,-236 457.5,4 -4,4"/>
<!-- Node1 -->
<g id="node1" class="node">
<title>Node1</title>
<g id="a_node1"><a xlink:title=" ">
<polygon fill="#bfbfbf" stroke="black" points="211.5,-0.5 211.5,-19.5 314.5,-19.5 314.5,-0.5 211.5,-0.5"/>
<text text-anchor="middle" x="263" y="-7.5" font-family="Helvetica,sans-Serif" font-size="10.00">FastLEDController</text>
</a>
</g>
</g>
<!-- Node2 -->
<g id="node2" class="node">
<title>Node2</title>
<g id="a_node2"><a xlink:href="classLEDController.html" target="_top" xlink:title=" ">
<polygon fill="white" stroke="black" points="98.5,-73 98.5,-92 181.5,-92 181.5,-73 98.5,-73"/>
<text text-anchor="middle" x="140" y="-80" font-family="Helvetica,sans-Serif" font-size="10.00">LEDController</text>
</a>
</g>
</g>
<!-- Node2&#45;&gt;Node1 -->
<g id="edge1" class="edge">
<title>Node2&#45;&gt;Node1</title>
<path fill="none" stroke="midnightblue" d="M163.88,-67.81C188.7,-53.59 226.79,-31.75 247.79,-19.72"/>
<polygon fill="midnightblue" stroke="midnightblue" points="162.02,-64.85 155.08,-72.86 165.5,-70.92 162.02,-64.85"/>
</g>
<!-- Node3 -->
<g id="node3" class="node">
<title>Node3</title>
<g id="a_node3"><a xlink:href="classILEDController.html" target="_top" xlink:title=" ">
<polygon fill="white" stroke="black" points="0,-145.5 0,-164.5 86,-164.5 86,-145.5 0,-145.5"/>
<text text-anchor="middle" x="43" y="-152.5" font-family="Helvetica,sans-Serif" font-size="10.00">ILEDController</text>
</a>
</g>
</g>
<!-- Node3&#45;&gt;Node2 -->
<g id="edge2" class="edge">
<title>Node3&#45;&gt;Node2</title>
<path fill="none" stroke="midnightblue" d="M63.14,-139.36C82.72,-125.13 111.81,-103.99 128.01,-92.22"/>
<polygon fill="midnightblue" stroke="midnightblue" points="60.93,-136.64 54.89,-145.36 65.04,-142.31 60.93,-136.64"/>
</g>
<!-- Node4 -->
<g id="node4" class="node">
<title>Node4</title>
<g id="a_node4"><a xlink:href="structLEDChannel.html" target="_top" xlink:title=" ">
<polygon fill="white" stroke="black" points="104.5,-145.5 104.5,-164.5 179.5,-164.5 179.5,-145.5 104.5,-145.5"/>
<text text-anchor="middle" x="142" y="-152.5" font-family="Helvetica,sans-Serif" font-size="10.00">LEDChannel</text>
</a>
</g>
</g>
<!-- Node4&#45;&gt;Node2 -->
<g id="edge3" class="edge">
<title>Node4&#45;&gt;Node2</title>
<path fill="none" stroke="#9a32cd" stroke-dasharray="5,2" d="M141.47,-135.36C141.08,-121.4 140.55,-102.93 140.25,-92.22"/>
<polygon fill="#9a32cd" stroke="#9a32cd" points="137.97,-135.46 141.75,-145.36 144.97,-135.26 137.97,-135.46"/>
<text text-anchor="middle" x="165.5" y="-119" font-family="Helvetica,sans-Serif" font-size="10.00"> channels</text>
</g>
<!-- Node5 -->
<g id="node5" class="node">
<title>Node5</title>
<g id="a_node5"><a xlink:href="structLEDGroup.html" target="_top" xlink:title=" ">
<polygon fill="white" stroke="black" points="109.5,-212.5 109.5,-231.5 174.5,-231.5 174.5,-212.5 109.5,-212.5"/>
<text text-anchor="middle" x="142" y="-219.5" font-family="Helvetica,sans-Serif" font-size="10.00">LEDGroup</text>
</a>
</g>
</g>
<!-- Node5&#45;&gt;Node4 -->
<g id="edge4" class="edge">
<title>Node5&#45;&gt;Node4</title>
<path fill="none" stroke="#9a32cd" stroke-dasharray="5,2" d="M142,-202.04C142,-189.67 142,-174.12 142,-164.63"/>
<polygon fill="#9a32cd" stroke="#9a32cd" points="138.5,-202.23 142,-212.23 145.5,-202.23 138.5,-202.23"/>
<text text-anchor="middle" x="160.5" y="-186" font-family="Helvetica,sans-Serif" font-size="10.00"> groups</text>
</g>
<!-- Node6 -->
<g id="node6" class="node">
<title>Node6</title>
<g id="a_node6"><a xlink:href="classTemperatureController.html" target="_top" xlink:title=" ">
<polygon fill="white" stroke="black" points="200,-73 200,-92 326,-92 326,-73 200,-73"/>
<text text-anchor="middle" x="263" y="-80" font-family="Helvetica,sans-Serif" font-size="10.00">TemperatureController</text>
</a>
</g>
</g>
<!-- Node6&#45;&gt;Node1 -->
<g id="edge5" class="edge">
<title>Node6&#45;&gt;Node1</title>
<path fill="none" stroke="#9a32cd" stroke-dasharray="5,2" d="M263,-62.44C263,-48.53 263,-30.32 263,-19.72"/>
<polygon fill="#9a32cd" stroke="#9a32cd" points="259.5,-62.86 263,-72.86 266.5,-62.86 259.5,-62.86"/>
<text text-anchor="middle" x="319" y="-41" font-family="Helvetica,sans-Serif" font-size="10.00"> temperatureController</text>
</g>
<!-- Node7 -->
<g id="node7" class="node">
<title>Node7</title>
<g id="a_node7"><a xlink:href="classITemperatureController.html" target="_top" xlink:title=" ">
<polygon fill="white" stroke="black" points="198.5,-145.5 198.5,-164.5 327.5,-164.5 327.5,-145.5 198.5,-145.5"/>
<text text-anchor="middle" x="263" y="-152.5" font-family="Helvetica,sans-Serif" font-size="10.00">ITemperatureController</text>
</a>
</g>
</g>
<!-- Node7&#45;&gt;Node6 -->
<g id="edge6" class="edge">
<title>Node7&#45;&gt;Node6</title>
<path fill="none" stroke="midnightblue" d="M263,-134.94C263,-121.03 263,-102.82 263,-92.22"/>
<polygon fill="midnightblue" stroke="midnightblue" points="259.5,-135.36 263,-145.36 266.5,-135.36 259.5,-135.36"/>
</g>
<!-- Node8 -->
<g id="node8" class="node">
<title>Node8</title>
<g id="a_node8"><a xlink:title=" ">
<polygon fill="white" stroke="#bfbfbf" points="344.5,-67.5 344.5,-97.5 453.5,-97.5 453.5,-67.5 344.5,-67.5"/>
<text text-anchor="start" x="352.5" y="-85.5" font-family="Helvetica,sans-Serif" font-size="10.00">FastLEDController::</text>
<text text-anchor="middle" x="399" y="-74.5" font-family="Helvetica,sans-Serif" font-size="10.00">ChannelData</text>
</a>
</g>
</g>
<!-- Node8&#45;&gt;Node1 -->
<g id="edge7" class="edge">
<title>Node8&#45;&gt;Node1</title>
<path fill="none" stroke="#9a32cd" stroke-dasharray="5,2" d="M391.46,-57.71C388.09,-50.44 383.4,-43.04 377,-38 359.35,-24.09 335.7,-17.15 314.51,-13.77"/>
<polygon fill="#9a32cd" stroke="#9a32cd" points="388.33,-59.31 395.27,-67.32 394.84,-56.73 388.33,-59.31"/>
<text text-anchor="middle" x="418.5" y="-41" font-family="Helvetica,sans-Serif" font-size="10.00"> channelData</text>
</g>
</g>
</svg>
