<?xml version="1.0" encoding="UTF-8" standalone="no"?>
<!DOCTYPE svg PUBLIC "-//W3C//DTD SVG 1.1//EN"
 "http://www.w3.org/Graphics/SVG/1.1/DTD/svg11.dtd">
<!-- Generated by graphviz version 2.40.1 (20161225.0304)
 -->
<!-- Title: CorsairLightingNodePRO Pages: 1 -->
<!--zoomable 203 -->
<svg id="main" version="1.1" xmlns="http://www.w3.org/2000/svg" xmlns:xlink="http://www.w3.org/1999/xlink" xml:space="preserve" onload="init(evt)">
<style type="text/css"><![CDATA[
.edge:hover path { stroke: red; }
.edge:hover polygon { stroke: red; fill: red; }
]]></style>
<script type="text/javascript"><![CDATA[
var edges = document.getElementsByTagName('g');
if (edges && edges.length) {
  for (var i=0;i<edges.length;i++) {
    if (edges[i].id.substr(0,4)=='edge') {
      edges[i].setAttribute('class','edge');
    }
  }
}
]]></script>
        <defs>
                <circle id="rim" cx="0" cy="0" r="7"/>
                <circle id="rim2" cx="0" cy="0" r="3.5"/>
                <g id="zoomPlus">
                        <use xlink:href="#rim" fill="#404040">
                                <set attributeName="fill" to="#808080" begin="zoomplus.mouseover" end="zoomplus.mouseout"/>
                        </use>
                        <path d="M-4,0h8M0,-4v8" fill="none" stroke="white" stroke-width="1.5" pointer-events="none"/>
                </g>
                <g id="zoomMin">
                        <use xlink:href="#rim" fill="#404040">
                                <set attributeName="fill" to="#808080" begin="zoomminus.mouseover" end="zoomminus.mouseout"/>
                        </use>
                        <path d="M-4,0h8" fill="none" stroke="white" stroke-width="1.5" pointer-events="none"/>
                </g>
                <g id="dirArrow">
                        <path fill="none" stroke="white" stroke-width="1.5" d="M0,-3.0v7 M-2.5,-0.5L0,-3.0L2.5,-0.5"/>
                </g>
               <g id="resetDef">
                       <use xlink:href="#rim2" fill="#404040">
                               <set attributeName="fill" to="#808080" begin="reset.mouseover" end="reset.mouseout"/>
                       </use>
               </g>
        </defs>

<script type="text/javascript">
var viewWidth = 1013;
var viewHeight = 203;
var sectionId = 'dynsection-0';
</script>
<script xlink:href="svgpan.js"/>
<svg id="graph" class="graph">
<g id="viewport">
<title>CorsairLightingNodePRO</title>
<polygon fill="#ffffff" stroke="transparent" points="-4,4 -4,-198.5 1009,-198.5 1009,4 -4,4"/>
<!-- Node1 -->
<g id="node1" class="node">
<title>Node1</title>
<polygon fill="#bfbfbf" stroke="#000000" points="878,-117 878,-136 1005,-136 1005,-117 878,-117"/>
<text text-anchor="middle" x="941.5" y="-124" font-family="Helvetica,sans-Serif" font-size="10.00" fill="#000000">CorsairLightingNodePRO</text>
</g>
<!-- Node2 -->
<g id="node2" class="node">
<title>Node2</title>
<g id="a_node2"><a xlink:href="classCorsairLightingProtocolController.html" target="_top" xlink:title="CorsairLightingProtocolController">
<polygon fill="#ffffff" stroke="#000000" points="327,-175 327,-194 487,-194 487,-175 327,-175"/>
<text text-anchor="middle" x="407" y="-182" font-family="Helvetica,sans-Serif" font-size="10.00" fill="#000000">CorsairLightingProtocolController</text>
</a>
</g>
</g>
<!-- Node2&#45;&gt;Node1 -->
<g id="edge1" class="edge">
<title>Node2&#45;&gt;Node1</title>
<path fill="none" stroke="#9a32cd" stroke-dasharray="5,2" d="M497.4905,-185.9503C589.7078,-185.6529 736.3539,-180.2618 860,-153.5 879.6671,-149.2433 901.256,-141.9676 917.2706,-136.0408"/>
<polygon fill="#9a32cd" stroke="#9a32cd" points="497.3486,-182.4504 487.3531,-185.9632 497.3575,-189.4504 497.3486,-182.4504"/>
<text text-anchor="middle" x="689" y="-185.5" font-family="Helvetica,sans-Serif" font-size="10.00" fill="#000000"> cLP</text>
</g>
<!-- Node4 -->
<g id="node4" class="node">
<title>Node4</title>
<g id="a_node4"><a xlink:href="classCorsairLightingProtocolHID.html" target="_top" xlink:title="CorsairLightingProtocolHID">
<polygon fill="#ffffff" stroke="#000000" points="621,-136 621,-155 757,-155 757,-136 621,-136"/>
<text text-anchor="middle" x="689" y="-143" font-family="Helvetica,sans-Serif" font-size="10.00" fill="#000000">CorsairLightingProtocolHID</text>
</a>
</g>
</g>
<!-- Node2&#45;&gt;Node4 -->
<g id="edge5" class="edge">
<title>Node2&#45;&gt;Node4</title>
<path fill="none" stroke="#9a32cd" stroke-dasharray="5,2" d="M478.4757,-173.4968C487.7322,-172.1228 497.0884,-170.7594 506,-169.5 543.9145,-164.142 586.3079,-158.5566 620.7371,-154.1237"/>
<polygon fill="#9a32cd" stroke="#9a32cd" points="477.8694,-170.0485 468.4962,-174.9875 478.9036,-176.9717 477.8694,-170.0485"/>
<text text-anchor="middle" x="554.5" y="-172.5" font-family="Helvetica,sans-Serif" font-size="10.00" fill="#000000"> controller</text>
</g>
<!-- Node3 -->
<g id="node3" class="node">
<title>Node3</title>
<g id="a_node3"><a xlink:href="classCorsairLightingFirmware.html" target="_top" xlink:title="CorsairLightingFirmware">
<polygon fill="#ffffff" stroke="#000000" points="628,-98 628,-117 750,-117 750,-98 628,-98"/>
<text text-anchor="middle" x="689" y="-105" font-family="Helvetica,sans-Serif" font-size="10.00" fill="#000000">CorsairLightingFirmware</text>
</a>
</g>
</g>
<!-- Node3&#45;&gt;Node1 -->
<g id="edge2" class="edge">
<title>Node3&#45;&gt;Node1</title>
<path fill="none" stroke="#9a32cd" stroke-dasharray="5,2" d="M760.3,-105.9512C791.0479,-106.0062 827.3711,-107.0383 860,-110.5 873.1918,-111.8996 887.4278,-114.3596 900.2537,-116.9371"/>
<polygon fill="#9a32cd" stroke="#9a32cd" points="760.0938,-102.4514 750.0996,-105.9679 760.1054,-109.4514 760.0938,-102.4514"/>
<text text-anchor="middle" x="817.5" y="-113.5" font-family="Helvetica,sans-Serif" font-size="10.00" fill="#000000"> firmware</text>
</g>
<!-- Node4&#45;&gt;Node1 -->
<g id="edge3" class="edge">
<title>Node4&#45;&gt;Node1</title>
<path fill="none" stroke="#9a32cd" stroke-dasharray="5,2" d="M767.6451,-139.5822C803.1007,-136.9142 844.425,-133.8047 877.8868,-131.2867"/>
<polygon fill="#9a32cd" stroke="#9a32cd" points="767.0393,-136.1177 757.3301,-140.3583 767.5646,-143.098 767.0393,-136.1177"/>
<text text-anchor="middle" x="817.5" y="-141.5" font-family="Helvetica,sans-Serif" font-size="10.00" fill="#000000"> connectionAdapter</text>
</g>
<!-- Node5 -->
<g id="node5" class="node">
<title>Node5</title>
<g id="a_node5"><a xlink:href="classCorsairLightingProtocolResponse.html" target="_top" xlink:title="CorsairLightingProtocolResponse">
<polygon fill="#ffffff" stroke="#000000" points="326,-126 326,-145 488,-145 488,-126 326,-126"/>
<text text-anchor="middle" x="407" y="-133" font-family="Helvetica,sans-Serif" font-size="10.00" fill="#000000">CorsairLightingProtocolResponse</text>
</a>
</g>
</g>
<!-- Node5&#45;&gt;Node4 -->
<g id="edge4" class="edge">
<title>Node5&#45;&gt;Node4</title>
<path fill="none" stroke="#8b1a1a" d="M498.4298,-138.7422C538.2125,-140.1529 584.0279,-141.7776 620.7652,-143.0803"/>
<polygon fill="#8b1a1a" stroke="#8b1a1a" points="498.3055,-135.2357 488.1877,-138.379 498.0574,-142.2313 498.3055,-135.2357"/>
</g>
<!-- Node6 -->
<g id="node6" class="node">
<title>Node6</title>
<g id="a_node6"><a xlink:href="classFastLEDController.html" target="_top" xlink:title="FastLEDController">
<polygon fill="#ffffff" stroke="#000000" points="640,-54 640,-73 738,-73 738,-54 640,-54"/>
<text text-anchor="middle" x="689" y="-61" font-family="Helvetica,sans-Serif" font-size="10.00" fill="#000000">FastLEDController</text>
</a>
</g>
</g>
<!-- Node6&#45;&gt;Node1 -->
<g id="edge6" class="edge">
<title>Node6&#45;&gt;Node1</title>
<path fill="none" stroke="#9a32cd" stroke-dasharray="5,2" d="M748.0653,-69.0029C781.3981,-73.0537 823.5499,-79.7706 860,-90.5 882.7032,-97.1829 907.3802,-108.7366 923.5623,-116.9519"/>
<polygon fill="#9a32cd" stroke="#9a32cd" points="748.3583,-65.5135 738.0198,-67.8299 747.5464,-72.4662 748.3583,-65.5135"/>
<text text-anchor="middle" x="817.5" y="-93.5" font-family="Helvetica,sans-Serif" font-size="10.00" fill="#000000"> ledController</text>
</g>
<!-- Node7 -->
<g id="node7" class="node">
<title>Node7</title>
<g id="a_node7"><a xlink:href="classLEDController.html" target="_top" xlink:title="LEDController">
<polygon fill="#ffffff" stroke="#000000" points="368,-88 368,-107 446,-107 446,-88 368,-88"/>
<text text-anchor="middle" x="407" y="-95" font-family="Helvetica,sans-Serif" font-size="10.00" fill="#000000">LEDController</text>
</a>
</g>
</g>
<!-- Node7&#45;&gt;Node6 -->
<g id="edge7" class="edge">
<title>Node7&#45;&gt;Node6</title>
<path fill="none" stroke="#191970" d="M456.3314,-93.2876C496.0236,-89.7006 553.1961,-84.0888 603,-77.5 614.9971,-75.9128 627.8945,-73.9505 639.9579,-72.0024"/>
<polygon fill="#191970" stroke="#191970" points="455.7756,-89.8232 446.127,-94.1999 456.399,-96.7954 455.7756,-89.8232"/>
</g>
<!-- Node8 -->
<g id="node8" class="node">
<title>Node8</title>
<g id="a_node8"><a xlink:href="classILEDController.html" target="_top" xlink:title="ILEDController">
<polygon fill="#ffffff" stroke="#000000" points="148.5,-126 148.5,-145 229.5,-145 229.5,-126 148.5,-126"/>
<text text-anchor="middle" x="189" y="-133" font-family="Helvetica,sans-Serif" font-size="10.00" fill="#000000">ILEDController</text>
</a>
</g>
</g>
<!-- Node8&#45;&gt;Node7 -->
<g id="edge8" class="edge">
<title>Node8&#45;&gt;Node7</title>
<path fill="none" stroke="#191970" d="M239.8663,-126.6334C278.9511,-119.8204 332.1332,-110.5502 367.9183,-104.3124"/>
<polygon fill="#191970" stroke="#191970" points="238.9988,-123.2318 229.7484,-128.3971 240.2009,-130.1278 238.9988,-123.2318"/>
</g>
<!-- Node9 -->
<g id="node9" class="node">
<title>Node9</title>
<g id="a_node9"><a xlink:href="structLEDChannel.html" target="_top" xlink:title="LEDChannel">
<polygon fill="#ffffff" stroke="#000000" points="153,-88 153,-107 225,-107 225,-88 153,-88"/>
<text text-anchor="middle" x="189" y="-95" font-family="Helvetica,sans-Serif" font-size="10.00" fill="#000000">LEDChannel</text>
</a>
</g>
</g>
<!-- Node9&#45;&gt;Node7 -->
<g id="edge9" class="edge">
<title>Node9&#45;&gt;Node7</title>
<path fill="none" stroke="#9a32cd" stroke-dasharray="5,2" d="M235.6246,-97.5C274.9896,-97.5 330.7149,-97.5 367.8126,-97.5"/>
<polygon fill="#9a32cd" stroke="#9a32cd" points="235.4883,-94.0001 225.4883,-97.5 235.4883,-101.0001 235.4883,-94.0001"/>
<text text-anchor="middle" x="286.5" y="-100.5" font-family="Helvetica,sans-Serif" font-size="10.00" fill="#000000"> channels</text>
</g>
<!-- Node10 -->
<g id="node10" class="node">
<title>Node10</title>
<g id="a_node10"><a xlink:href="structLEDGroup.html" target="_top" xlink:title="LEDGroup">
<polygon fill="#ffffff" stroke="#000000" points="0,-88 0,-107 62,-107 62,-88 0,-88"/>
<text text-anchor="middle" x="31" y="-95" font-family="Helvetica,sans-Serif" font-size="10.00" fill="#000000">LEDGroup</text>
</a>
</g>
</g>
<!-- Node10&#45;&gt;Node9 -->
<g id="edge10" class="edge">
<title>Node10&#45;&gt;Node9</title>
<path fill="none" stroke="#9a32cd" stroke-dasharray="5,2" d="M72.4767,-97.5C97.4453,-97.5 128.9277,-97.5 152.8723,-97.5"/>
<polygon fill="#9a32cd" stroke="#9a32cd" points="72.2157,-94.0001 62.2157,-97.5 72.2157,-101.0001 72.2157,-94.0001"/>
<text text-anchor="middle" x="96.5" y="-100.5" font-family="Helvetica,sans-Serif" font-size="10.00" fill="#000000"> groups</text>
</g>
<!-- Node11 -->
<g id="node11" class="node">
<title>Node11</title>
<g id="a_node11"><a xlink:href="classTemperatureController.html" target="_top" xlink:title="TemperatureController">
<polygon fill="#ffffff" stroke="#000000" points="350.5,-50 350.5,-69 463.5,-69 463.5,-50 350.5,-50"/>
<text text-anchor="middle" x="407" y="-57" font-family="Helvetica,sans-Serif" font-size="10.00" fill="#000000">TemperatureController</text>
</a>
</g>
</g>
<!-- Node11&#45;&gt;Node6 -->
<g id="edge11" class="edge">
<title>Node11&#45;&gt;Node6</title>
<path fill="none" stroke="#9a32cd" stroke-dasharray="5,2" d="M473.9939,-60.4503C524.9715,-61.1734 593.96,-62.1519 639.8951,-62.8035"/>
<polygon fill="#9a32cd" stroke="#9a32cd" points="473.7764,-56.9469 463.7277,-60.3046 473.677,-63.9462 473.7764,-56.9469"/>
<text text-anchor="middle" x="554.5" y="-65.5" font-family="Helvetica,sans-Serif" font-size="10.00" fill="#000000"> temperatureController</text>
</g>
<!-- Node12 -->
<g id="node12" class="node">
<title>Node12</title>
<g id="a_node12"><a xlink:href="classITemperatureController.html" target="_top" xlink:title="ITemperatureController">
<polygon fill="#ffffff" stroke="#000000" points="131,-50 131,-69 247,-69 247,-50 131,-50"/>
<text text-anchor="middle" x="189" y="-57" font-family="Helvetica,sans-Serif" font-size="10.00" fill="#000000">ITemperatureController</text>
</a>
</g>
</g>
<!-- Node12&#45;&gt;Node11 -->
<g id="edge12" class="edge">
<title>Node12&#45;&gt;Node11</title>
<path fill="none" stroke="#191970" d="M257.4629,-59.5C287.2721,-59.5 321.7981,-59.5 350.1595,-59.5"/>
<polygon fill="#191970" stroke="#191970" points="257.1337,-56.0001 247.1336,-59.5 257.1336,-63.0001 257.1337,-56.0001"/>
</g>
<!-- Node13 -->
<g id="node13" class="node">
<title>Node13</title>
<polygon fill="#ffffff" stroke="#bfbfbf" points="355,-.5 355,-30.5 459,-30.5 459,-.5 355,-.5"/>
<text text-anchor="start" x="363" y="-18.5" font-family="Helvetica,sans-Serif" font-size="10.00" fill="#000000">FastLEDController::</text>
<text text-anchor="middle" x="407" y="-7.5" font-family="Helvetica,sans-Serif" font-size="10.00" fill="#000000">ChannelData</text>
</g>
<!-- Node13&#45;&gt;Node6 -->
<g id="edge13" class="edge">
<title>Node13&#45;&gt;Node6</title>
<path fill="none" stroke="#9a32cd" stroke-dasharray="5,2" d="M469.1328,-24.7052C507.7249,-30.5769 558.3197,-38.5535 603,-46.5 615.8865,-48.7919 629.8204,-51.4624 642.6435,-53.9986"/>
<polygon fill="#9a32cd" stroke="#9a32cd" points="469.4987,-21.2208 459.0872,-23.1831 468.4499,-28.1418 469.4987,-21.2208"/>
<text text-anchor="middle" x="554.5" y="-49.5" font-family="Helvetica,sans-Serif" font-size="10.00" fill="#000000"> channelData</text>
</g>
</g>
</svg>
        <g id="navigator" transform="translate(0 0)" fill="#404254">
                <rect fill="#f2f5e9" fill-opacity="0.5" stroke="#606060" stroke-width=".5" x="0" y="0" width="60" height="60"/>
                <use id="zoomplus" xlink:href="#zoomPlus" x="17" y="9" onmousedown="handleZoom(evt,'in')"/>
                <use id="zoomminus" xlink:href="#zoomMin" x="42" y="9" onmousedown="handleZoom(evt,'out')"/>
                <use id="reset" xlink:href="#resetDef" x="30" y="36" onmousedown="handleReset()"/>
                <g id="arrowUp" xlink:href="#dirArrow" transform="translate(30 24)" onmousedown="handlePan(0,-1)">
                  <use xlink:href="#rim" fill="#404040">
                        <set attributeName="fill" to="#808080" begin="arrowUp.mouseover" end="arrowUp.mouseout"/>
                  </use>
                  <path fill="none" stroke="white" stroke-width="1.5" d="M0,-3.0v7 M-2.5,-0.5L0,-3.0L2.5,-0.5"/>
                </g>
                <g id="arrowRight" xlink:href="#dirArrow" transform="rotate(90) translate(36 -43)" onmousedown="handlePan(1,0)">
                  <use xlink:href="#rim" fill="#404040">
                        <set attributeName="fill" to="#808080" begin="arrowRight.mouseover" end="arrowRight.mouseout"/>
                  </use>
                  <path fill="none" stroke="white" stroke-width="1.5" d="M0,-3.0v7 M-2.5,-0.5L0,-3.0L2.5,-0.5"/>
                </g>
                <g id="arrowDown" xlink:href="#dirArrow" transform="rotate(180) translate(-30 -48)" onmousedown="handlePan(0,1)">
                  <use xlink:href="#rim" fill="#404040">
                        <set attributeName="fill" to="#808080" begin="arrowDown.mouseover" end="arrowDown.mouseout"/>
                  </use>
                  <path fill="none" stroke="white" stroke-width="1.5" d="M0,-3.0v7 M-2.5,-0.5L0,-3.0L2.5,-0.5"/>
                </g>
                <g id="arrowLeft" xlink:href="#dirArrow" transform="rotate(270) translate(-36 17)" onmousedown="handlePan(-1,0)">
                  <use xlink:href="#rim" fill="#404040">
                        <set attributeName="fill" to="#808080" begin="arrowLeft.mouseover" end="arrowLeft.mouseout"/>
                  </use>
                  <path fill="none" stroke="white" stroke-width="1.5" d="M0,-3.0v7 M-2.5,-0.5L0,-3.0L2.5,-0.5"/>
                </g>
        </g>
        <svg viewBox="0 0 15 15" width="100%" height="30px" preserveAspectRatio="xMaxYMin meet">
         <g id="arrow_out" transform="scale(0.3 0.3)">
          <a xlink:href="classCorsairLightingNodePRO__coll__graph_org.svg" target="_base">
           <rect id="button" ry="5" rx="5" y="6" x="6" height="38" width="38"
                fill="#f2f5e9" fill-opacity="0.5" stroke="#606060" stroke-width="1.0"/>
           <path id="arrow"
             d="M 11.500037,31.436501 C 11.940474,20.09759 22.043105,11.32322 32.158766,21.979434 L 37.068811,17.246167 C 37.068811,17.246167 37.088388,32 37.088388,32 L 22.160133,31.978069 C 22.160133,31.978069 26.997745,27.140456 26.997745,27.140456 C 18.528582,18.264221 13.291696,25.230495 11.500037,31.436501 z"
             style="fill:#404040;"/>
          </a>
         </g>
        </svg>
</svg>
