<?xml version="1.0" encoding="UTF-8" standalone="no"?>
<!DOCTYPE svg PUBLIC "-//W3C//DTD SVG 1.1//EN"
 "http://www.w3.org/Graphics/SVG/1.1/DTD/svg11.dtd">
<!-- Generated by graphviz version 2.40.1 (20161225.0304)
 -->
<!-- Title: CorsairLightingProtocolHID Pages: 1 -->
<svg width="348pt" height="95pt"
 viewBox="0.00 0.00 348.00 95.00" xmlns="http://www.w3.org/2000/svg" xmlns:xlink="http://www.w3.org/1999/xlink">
<g id="graph0" class="graph" transform="scale(1 1) rotate(0) translate(4 91)">
<title>CorsairLightingProtocolHID</title>
<polygon fill="#ffffff" stroke="transparent" points="-4,4 -4,-91 344,-91 344,4 -4,4"/>
<!-- Node2 -->
<g id="node1" class="node">
<title>Node2</title>
<polygon fill="#bfbfbf" stroke="#000000" points="102,-.5 102,-19.5 238,-19.5 238,-.5 102,-.5"/>
<text text-anchor="middle" x="170" y="-7.5" font-family="Helvetica,sans-Serif" font-size="10.00" fill="#000000">CorsairLightingProtocolHID</text>
</g>
<!-- Node3 -->
<g id="node2" class="node">
<title>Node3</title>
<g id="a_node2"><a xlink:href="classCorsairLightingProtocolResponse.html" target="_top" xlink:title="CorsairLightingProtocolResponse">
<polygon fill="#ffffff" stroke="#000000" points="0,-67.5 0,-86.5 162,-86.5 162,-67.5 0,-67.5"/>
<text text-anchor="middle" x="81" y="-74.5" font-family="Helvetica,sans-Serif" font-size="10.00" fill="#000000">CorsairLightingProtocolResponse</text>
</a>
</g>
</g>
<!-- Node3&#45;&gt;Node2 -->
<g id="edge1" class="edge">
<title>Node3&#45;&gt;Node2</title>
<path fill="none" stroke="#8b1a1a" d="M102.0466,-61.1559C119.2043,-48.2395 142.8748,-30.4201 157.2721,-19.5817"/>
<polygon fill="#8b1a1a" stroke="#8b1a1a" points="99.6357,-58.5899 93.7515,-67.4005 103.8458,-64.1824 99.6357,-58.5899"/>
</g>
<!-- Node4 -->
<g id="node3" class="node">
<title>Node4</title>
<g id="a_node3"><a xlink:href="classCorsairLightingProtocolController.html" target="_top" xlink:title="CorsairLightingProtocolController">
<polygon fill="#ffffff" stroke="#000000" points="180,-67.5 180,-86.5 340,-86.5 340,-67.5 180,-67.5"/>
<text text-anchor="middle" x="260" y="-74.5" font-family="Helvetica,sans-Serif" font-size="10.00" fill="#000000">CorsairLightingProtocolController</text>
</a>
</g>
</g>
<!-- Node4&#45;&gt;Node2 -->
<g id="edge2" class="edge">
<title>Node4&#45;&gt;Node2</title>
<path fill="none" stroke="#9a32cd" stroke-dasharray="5,2" d="M238.7169,-61.1559C221.3665,-48.2395 197.43,-30.4201 182.8709,-19.5817"/>
<polygon fill="#9a32cd" stroke="#9a32cd" points="236.9938,-64.2365 247.1052,-67.4005 241.1739,-58.6216 236.9938,-64.2365"/>
<text text-anchor="middle" x="231.5" y="-41" font-family="Helvetica,sans-Serif" font-size="10.00" fill="#000000"> cLP</text>
</g>
</g>
</svg>
