<?xml version="1.0" encoding="UTF-8" standalone="no"?>
<!DOCTYPE svg PUBLIC "-//W3C//DTD SVG 1.1//EN"
 "http://www.w3.org/Graphics/SVG/1.1/DTD/svg11.dtd">
<!-- Generated by graphviz version 2.40.1 (20161225.0304)
 -->
<!-- Title: FastLEDController Pages: 1 -->
<svg width="435pt" height="240pt"
 viewBox="0.00 0.00 434.50 240.00" xmlns="http://www.w3.org/2000/svg" xmlns:xlink="http://www.w3.org/1999/xlink">
<g id="graph0" class="graph" transform="scale(1 1) rotate(0) translate(4 236)">
<title>FastLEDController</title>
<polygon fill="#ffffff" stroke="transparent" points="-4,4 -4,-236 430.5,-236 430.5,4 -4,4"/>
<!-- Node3 -->
<g id="node1" class="node">
<title>Node3</title>
<polygon fill="#bfbfbf" stroke="#000000" points="198.5,-.5 198.5,-19.5 296.5,-19.5 296.5,-.5 198.5,-.5"/>
<text text-anchor="middle" x="247.5" y="-7.5" font-family="Helvetica,sans-Serif" font-size="10.00" fill="#000000">FastLEDController</text>
</g>
<!-- Node4 -->
<g id="node2" class="node">
<title>Node4</title>
<g id="a_node2"><a xlink:href="classLEDController.html" target="_top" xlink:title="LEDController">
<polygon fill="#ffffff" stroke="#000000" points="94.5,-73 94.5,-92 172.5,-92 172.5,-73 94.5,-73"/>
<text text-anchor="middle" x="133.5" y="-80" font-family="Helvetica,sans-Serif" font-size="10.00" fill="#000000">LEDController</text>
</a>
</g>
</g>
<!-- Node4&#45;&gt;Node3 -->
<g id="edge1" class="edge">
<title>Node4&#45;&gt;Node3</title>
<path fill="none" stroke="#191970" d="M157.5502,-67.2049C180.1441,-52.836 213.2574,-31.7771 232.369,-19.6228"/>
<polygon fill="#191970" stroke="#191970" points="155.4345,-64.4026 148.8745,-72.7223 159.1909,-70.3093 155.4345,-64.4026"/>
</g>
<!-- Node5 -->
<g id="node3" class="node">
<title>Node5</title>
<g id="a_node3"><a xlink:href="classILEDController.html" target="_top" xlink:title="ILEDController">
<polygon fill="#ffffff" stroke="#000000" points="0,-145.5 0,-164.5 81,-164.5 81,-145.5 0,-145.5"/>
<text text-anchor="middle" x="40.5" y="-152.5" font-family="Helvetica,sans-Serif" font-size="10.00" fill="#000000">ILEDController</text>
</a>
</g>
</g>
<!-- Node5&#45;&gt;Node4 -->
<g id="edge2" class="edge">
<title>Node5&#45;&gt;Node4</title>
<path fill="none" stroke="#191970" d="M61.3612,-138.7373C79.7467,-124.4044 105.9117,-104.007 121.1563,-92.1228"/>
<polygon fill="#191970" stroke="#191970" points="58.7772,-136.3137 53.0424,-145.2223 63.081,-141.8344 58.7772,-136.3137"/>
</g>
<!-- Node6 -->
<g id="node4" class="node">
<title>Node6</title>
<g id="a_node4"><a xlink:href="structLEDChannel.html" target="_top" xlink:title="LEDChannel">
<polygon fill="#ffffff" stroke="#000000" points="99.5,-145.5 99.5,-164.5 171.5,-164.5 171.5,-145.5 99.5,-145.5"/>
<text text-anchor="middle" x="135.5" y="-152.5" font-family="Helvetica,sans-Serif" font-size="10.00" fill="#000000">LEDChannel</text>
</a>
</g>
</g>
<!-- Node6&#45;&gt;Node4 -->
<g id="edge3" class="edge">
<title>Node6&#45;&gt;Node4</title>
<path fill="none" stroke="#9a32cd" stroke-dasharray="5,2" d="M134.9512,-135.1054C134.5655,-121.1237 134.0665,-103.0346 133.7655,-92.1228"/>
<polygon fill="#9a32cd" stroke="#9a32cd" points="131.4557,-135.3227 135.2303,-145.2223 138.4531,-135.1296 131.4557,-135.3227"/>
<text text-anchor="middle" x="157" y="-119" font-family="Helvetica,sans-Serif" font-size="10.00" fill="#000000"> channels</text>
</g>
<!-- Node7 -->
<g id="node5" class="node">
<title>Node7</title>
<g id="a_node5"><a xlink:href="structLEDGroup.html" target="_top" xlink:title="LEDGroup">
<polygon fill="#ffffff" stroke="#000000" points="104.5,-212.5 104.5,-231.5 166.5,-231.5 166.5,-212.5 104.5,-212.5"/>
<text text-anchor="middle" x="135.5" y="-219.5" font-family="Helvetica,sans-Serif" font-size="10.00" fill="#000000">LEDGroup</text>
</a>
</g>
</g>
<!-- Node7&#45;&gt;Node6 -->
<g id="edge4" class="edge">
<title>Node7&#45;&gt;Node6</title>
<path fill="none" stroke="#9a32cd" stroke-dasharray="5,2" d="M135.5,-202.1079C135.5,-189.714 135.5,-174.3263 135.5,-164.5817"/>
<polygon fill="#9a32cd" stroke="#9a32cd" points="132.0001,-202.4005 135.5,-212.4005 139.0001,-202.4006 132.0001,-202.4005"/>
<text text-anchor="middle" x="152" y="-186" font-family="Helvetica,sans-Serif" font-size="10.00" fill="#000000"> groups</text>
</g>
<!-- Node8 -->
<g id="node6" class="node">
<title>Node8</title>
<g id="a_node6"><a xlink:href="classTemperatureController.html" target="_top" xlink:title="TemperatureController">
<polygon fill="#ffffff" stroke="#000000" points="191,-73 191,-92 304,-92 304,-73 191,-73"/>
<text text-anchor="middle" x="247.5" y="-80" font-family="Helvetica,sans-Serif" font-size="10.00" fill="#000000">TemperatureController</text>
</a>
</g>
</g>
<!-- Node8&#45;&gt;Node3 -->
<g id="edge5" class="edge">
<title>Node8&#45;&gt;Node3</title>
<path fill="none" stroke="#9a32cd" stroke-dasharray="5,2" d="M247.5,-62.6054C247.5,-48.6237 247.5,-30.5346 247.5,-19.6228"/>
<polygon fill="#9a32cd" stroke="#9a32cd" points="244.0001,-62.7223 247.5,-72.7223 251.0001,-62.7224 244.0001,-62.7223"/>
<text text-anchor="middle" x="296" y="-41" font-family="Helvetica,sans-Serif" font-size="10.00" fill="#000000"> temperatureController</text>
</g>
<!-- Node9 -->
<g id="node7" class="node">
<title>Node9</title>
<g id="a_node7"><a xlink:href="classITemperatureController.html" target="_top" xlink:title="ITemperatureController">
<polygon fill="#ffffff" stroke="#000000" points="189.5,-145.5 189.5,-164.5 305.5,-164.5 305.5,-145.5 189.5,-145.5"/>
<text text-anchor="middle" x="247.5" y="-152.5" font-family="Helvetica,sans-Serif" font-size="10.00" fill="#000000">ITemperatureController</text>
</a>
</g>
</g>
<!-- Node9&#45;&gt;Node8 -->
<g id="edge6" class="edge">
<title>Node9&#45;&gt;Node8</title>
<path fill="none" stroke="#191970" d="M247.5,-135.1054C247.5,-121.1237 247.5,-103.0346 247.5,-92.1228"/>
<polygon fill="#191970" stroke="#191970" points="244.0001,-135.2223 247.5,-145.2223 251.0001,-135.2224 244.0001,-135.2223"/>
</g>
<!-- Node10 -->
<g id="node8" class="node">
<title>Node10</title>
<polygon fill="#ffffff" stroke="#bfbfbf" points="322.5,-67.5 322.5,-97.5 426.5,-97.5 426.5,-67.5 322.5,-67.5"/>
<text text-anchor="start" x="330.5" y="-85.5" font-family="Helvetica,sans-Serif" font-size="10.00" fill="#000000">FastLEDController::</text>
<text text-anchor="middle" x="374.5" y="-74.5" font-family="Helvetica,sans-Serif" font-size="10.00" fill="#000000">ChannelData</text>
</g>
<!-- Node10&#45;&gt;Node3 -->
<g id="edge7" class="edge">
<title>Node10&#45;&gt;Node3</title>
<path fill="none" stroke="#9a32cd" stroke-dasharray="5,2" d="M364.6546,-58.1349C360.6215,-50.7499 355.2791,-43.2205 348.5,-38 339.7779,-31.2833 316.7371,-24.6606 294.8618,-19.5437"/>
<polygon fill="#9a32cd" stroke="#9a32cd" points="361.5541,-59.7626 369.0726,-67.2274 367.8502,-56.7033 361.5541,-59.7626"/>
<text text-anchor="middle" x="386.5" y="-41" font-family="Helvetica,sans-Serif" font-size="10.00" fill="#000000"> channelData</text>
</g>
</g>
</svg>
