<?xml version="1.0" encoding="UTF-8" standalone="no"?>
<!DOCTYPE svg PUBLIC "-//W3C//DTD SVG 1.1//EN"
 "http://www.w3.org/Graphics/SVG/1.1/DTD/svg11.dtd">
<!-- Generated by graphviz version 2.43.0 (0)
 -->
<!-- Title: CorsairLightingFirmware Pages: 1 -->
<svg width="260pt" height="95pt"
 viewBox="0.00 0.00 260.00 95.00" xmlns="http://www.w3.org/2000/svg" xmlns:xlink="http://www.w3.org/1999/xlink">
<g id="graph0" class="graph" transform="scale(1 1) rotate(0) translate(4 91)">
<title>CorsairLightingFirmware</title>
<polygon fill="white" stroke="transparent" points="-4,4 -4,-91 256,-91 256,4 -4,4"/>
<!-- Node1 -->
<g id="node1" class="node">
<title>Node1</title>
<g id="a_node1"><a xlink:title=" ">
<polygon fill="#bfbfbf" stroke="black" points="85.5,-0.5 85.5,-19.5 221.5,-19.5 221.5,-0.5 85.5,-0.5"/>
<text text-anchor="middle" x="153.5" y="-7.5" font-family="Helvetica,sans-Serif" font-size="10.00">CorsairLightingFirmware</text>
</a>
</g>
</g>
<!-- Node2 -->
<g id="node2" class="node">
<title>Node2</title>
<g id="a_node2"><a xlink:href="classCorsairLightingFirmwareStorage.html" target="_top" xlink:title=" ">
<polygon fill="white" stroke="black" points="0,-67.5 0,-86.5 173,-86.5 173,-67.5 0,-67.5"/>
<text text-anchor="middle" x="86.5" y="-74.5" font-family="Helvetica,sans-Serif" font-size="10.00">CorsairLightingFirmwareStorage</text>
</a>
</g>
</g>
<!-- Node2&#45;&gt;Node1 -->
<g id="edge1" class="edge">
<title>Node2&#45;&gt;Node1</title>
<path fill="none" stroke="#9a32cd" stroke-dasharray="5,2" d="M103,-60C116.14,-47.25 134.02,-29.89 144.61,-19.63"/>
<polygon fill="#9a32cd" stroke="#9a32cd" points="100.28,-57.76 95.54,-67.23 105.15,-62.78 100.28,-57.76"/>
<text text-anchor="middle" x="144.5" y="-41" font-family="Helvetica,sans-Serif" font-size="10.00"> storage</text>
</g>
<!-- Node3 -->
<g id="node3" class="node">
<title>Node3</title>
<g id="a_node3"><a xlink:href="structDeviceID.html" target="_top" xlink:title=" ">
<polygon fill="white" stroke="black" points="191,-67.5 191,-86.5 252,-86.5 252,-67.5 191,-67.5"/>
<text text-anchor="middle" x="221.5" y="-74.5" font-family="Helvetica,sans-Serif" font-size="10.00">DeviceID</text>
</a>
</g>
</g>
<!-- Node3&#45;&gt;Node1 -->
<g id="edge2" class="edge">
<title>Node3&#45;&gt;Node1</title>
<path fill="none" stroke="#9a32cd" stroke-dasharray="5,2" d="M204.76,-60C191.42,-47.25 173.27,-29.89 162.53,-19.63"/>
<polygon fill="#9a32cd" stroke="#9a32cd" points="202.68,-62.85 212.33,-67.23 207.52,-57.79 202.68,-62.85"/>
<text text-anchor="middle" x="214" y="-41" font-family="Helvetica,sans-Serif" font-size="10.00"> deviceId</text>
</g>
</g>
</svg>
