<?xml version="1.0" encoding="UTF-8" standalone="no"?>
<!DOCTYPE svg PUBLIC "-//W3C//DTD SVG 1.1//EN"
 "http://www.w3.org/Graphics/SVG/1.1/DTD/svg11.dtd">
<!-- Generated by graphviz version 2.40.1 (20161225.0304)
 -->
<!-- Title: LEDController Pages: 1 -->
<svg width="180pt" height="162pt"
 viewBox="0.00 0.00 179.50 162.00" xmlns="http://www.w3.org/2000/svg" xmlns:xlink="http://www.w3.org/1999/xlink">
<g id="graph0" class="graph" transform="scale(1 1) rotate(0) translate(4 158)">
<title>LEDController</title>
<polygon fill="#ffffff" stroke="transparent" points="-4,4 -4,-158 175.5,-158 175.5,4 -4,4"/>
<!-- Node3 -->
<g id="node1" class="node">
<title>Node3</title>
<polygon fill="#bfbfbf" stroke="#000000" points="17.5,-.5 17.5,-19.5 95.5,-19.5 95.5,-.5 17.5,-.5"/>
<text text-anchor="middle" x="56.5" y="-7.5" font-family="Helvetica,sans-Serif" font-size="10.00" fill="#000000">LEDController</text>
</g>
<!-- Node4 -->
<g id="node2" class="node">
<title>Node4</title>
<g id="a_node2"><a xlink:href="classILEDController.html" target="_top" xlink:title="ILEDController">
<polygon fill="#ffffff" stroke="#000000" points="0,-67.5 0,-86.5 81,-86.5 81,-67.5 0,-67.5"/>
<text text-anchor="middle" x="40.5" y="-74.5" font-family="Helvetica,sans-Serif" font-size="10.00" fill="#000000">ILEDController</text>
</a>
</g>
</g>
<!-- Node4&#45;&gt;Node3 -->
<g id="edge1" class="edge">
<title>Node4&#45;&gt;Node3</title>
<path fill="none" stroke="#191970" d="M45.16,-57.4863C48.135,-45.0286 51.861,-29.4258 54.2118,-19.5817"/>
<polygon fill="#191970" stroke="#191970" points="41.711,-56.861 42.7924,-67.4005 48.5195,-58.487 41.711,-56.861"/>
</g>
<!-- Node5 -->
<g id="node3" class="node">
<title>Node5</title>
<g id="a_node3"><a xlink:href="structLEDChannel.html" target="_top" xlink:title="LEDChannel">
<polygon fill="#ffffff" stroke="#000000" points="99.5,-67.5 99.5,-86.5 171.5,-86.5 171.5,-67.5 99.5,-67.5"/>
<text text-anchor="middle" x="135.5" y="-74.5" font-family="Helvetica,sans-Serif" font-size="10.00" fill="#000000">LEDChannel</text>
</a>
</g>
</g>
<!-- Node5&#45;&gt;Node3 -->
<g id="edge2" class="edge">
<title>Node5&#45;&gt;Node3</title>
<path fill="none" stroke="#9a32cd" stroke-dasharray="5,2" d="M116.3976,-60.7992C101.2035,-47.9131 80.4602,-30.3207 67.7978,-19.5817"/>
<polygon fill="#9a32cd" stroke="#9a32cd" points="114.2908,-63.6017 124.1812,-67.4005 118.8185,-58.2631 114.2908,-63.6017"/>
<text text-anchor="middle" x="122" y="-41" font-family="Helvetica,sans-Serif" font-size="10.00" fill="#000000"> channels</text>
</g>
<!-- Node6 -->
<g id="node4" class="node">
<title>Node6</title>
<g id="a_node4"><a xlink:href="structLEDGroup.html" target="_top" xlink:title="LEDGroup">
<polygon fill="#ffffff" stroke="#000000" points="104.5,-134.5 104.5,-153.5 166.5,-153.5 166.5,-134.5 104.5,-134.5"/>
<text text-anchor="middle" x="135.5" y="-141.5" font-family="Helvetica,sans-Serif" font-size="10.00" fill="#000000">LEDGroup</text>
</a>
</g>
</g>
<!-- Node6&#45;&gt;Node5 -->
<g id="edge3" class="edge">
<title>Node6&#45;&gt;Node5</title>
<path fill="none" stroke="#9a32cd" stroke-dasharray="5,2" d="M135.5,-124.1079C135.5,-111.714 135.5,-96.3263 135.5,-86.5817"/>
<polygon fill="#9a32cd" stroke="#9a32cd" points="132.0001,-124.4005 135.5,-134.4005 139.0001,-124.4006 132.0001,-124.4005"/>
<text text-anchor="middle" x="152" y="-108" font-family="Helvetica,sans-Serif" font-size="10.00" fill="#000000"> groups</text>
</g>
</g>
</svg>
