<?xml version="1.0" encoding="UTF-8" standalone="no"?>
<!DOCTYPE svg PUBLIC "-//W3C//DTD SVG 1.1//EN"
 "http://www.w3.org/Graphics/SVG/1.1/DTD/svg11.dtd">
<!-- Generated by graphviz version 2.40.1 (20161225.0304)
 -->
<!-- Title: CorsairLightingProtocolResponse Pages: 1 -->
<svg width="306pt" height="84pt"
 viewBox="0.00 0.00 305.50 84.00" xmlns="http://www.w3.org/2000/svg" xmlns:xlink="http://www.w3.org/1999/xlink">
<g id="graph0" class="graph" transform="scale(1 1) rotate(0) translate(4 80)">
<title>CorsairLightingProtocolResponse</title>
<polygon fill="#ffffff" stroke="transparent" points="-4,4 -4,-80 301.5,-80 301.5,4 -4,4"/>
<!-- Node0 -->
<g id="node1" class="node">
<title>Node0</title>
<polygon fill="#bfbfbf" stroke="#000000" points="66,-56.5 66,-75.5 228,-75.5 228,-56.5 66,-56.5"/>
<text text-anchor="middle" x="147" y="-63.5" font-family="Helvetica,sans-Serif" font-size="10.00" fill="#000000">CorsairLightingProtocolResponse</text>
</g>
<!-- Node1 -->
<g id="node2" class="node">
<title>Node1</title>
<g id="a_node2"><a xlink:href="classCorsairLightingProtocolHID.html" target="_top" xlink:title="CorsairLightingProtocolHID">
<polygon fill="#ffffff" stroke="#000000" points="0,-.5 0,-19.5 136,-19.5 136,-.5 0,-.5"/>
<text text-anchor="middle" x="68" y="-7.5" font-family="Helvetica,sans-Serif" font-size="10.00" fill="#000000">CorsairLightingProtocolHID</text>
</a>
</g>
</g>
<!-- Node0&#45;&gt;Node1 -->
<g id="edge1" class="edge">
<title>Node0&#45;&gt;Node1</title>
<path fill="none" stroke="#8b1a1a" d="M124.7244,-50.2097C110.8495,-40.3743 93.4485,-28.0394 81.6031,-19.6427"/>
<polygon fill="#8b1a1a" stroke="#8b1a1a" points="123.0569,-53.3178 133.2393,-56.2455 127.1051,-47.6071 123.0569,-53.3178"/>
</g>
<!-- Node2 -->
<g id="node3" class="node">
<title>Node2</title>
<g id="a_node3"><a xlink:href="classCorsairLightingProtocolSerial.html" target="_top" xlink:title="CorsairLightingProtocolSerial">
<polygon fill="#ffffff" stroke="#000000" points="154.5,-.5 154.5,-19.5 297.5,-19.5 297.5,-.5 154.5,-.5"/>
<text text-anchor="middle" x="226" y="-7.5" font-family="Helvetica,sans-Serif" font-size="10.00" fill="#000000">CorsairLightingProtocolSerial</text>
</a>
</g>
</g>
<!-- Node0&#45;&gt;Node2 -->
<g id="edge2" class="edge">
<title>Node0&#45;&gt;Node2</title>
<path fill="none" stroke="#8b1a1a" d="M169.2756,-50.2097C183.1505,-40.3743 200.5515,-28.0394 212.3969,-19.6427"/>
<polygon fill="#8b1a1a" stroke="#8b1a1a" points="166.8949,-47.6071 160.7607,-56.2455 170.9431,-53.3178 166.8949,-47.6071"/>
</g>
</g>
</svg>
