<?xml version="1.0" encoding="UTF-8" standalone="no"?>
<!DOCTYPE svg PUBLIC "-//W3C//DTD SVG 1.1//EN"
 "http://www.w3.org/Graphics/SVG/1.1/DTD/svg11.dtd">
<!-- Generated by graphviz version 2.43.0 (0)
 -->
<!-- Title: src/CorsairLightingProtocol.h Pages: 1 -->
<!--zoomable 308 -->
<svg id="main" version="1.1" xmlns="http://www.w3.org/2000/svg" xmlns:xlink="http://www.w3.org/1999/xlink" xml:space="preserve" onload="init(evt)">
<style type="text/css"><![CDATA[
.edge:hover path { stroke: red; }
.edge:hover polygon { stroke: red; fill: red; }
]]></style>
<script type="text/javascript"><![CDATA[
var edges = document.getElementsByTagName('g');
if (edges && edges.length) {
  for (var i=0;i<edges.length;i++) {
    if (edges[i].id.substr(0,4)=='edge') {
      edges[i].setAttribute('class','edge');
    }
  }
}
]]></script>
        <defs>
                <circle id="rim" cx="0" cy="0" r="7"/>
                <circle id="rim2" cx="0" cy="0" r="3.5"/>
                <g id="zoomPlus">
                        <use xlink:href="#rim" fill="#404040">
                                <set attributeName="fill" to="#808080" begin="zoomplus.mouseover" end="zoomplus.mouseout"/>
                        </use>
                        <path d="M-4,0h8M0,-4v8" fill="none" stroke="white" stroke-width="1.5" pointer-events="none"/>
                </g>
                <g id="zoomMin">
                        <use xlink:href="#rim" fill="#404040">
                                <set attributeName="fill" to="#808080" begin="zoomminus.mouseover" end="zoomminus.mouseout"/>
                        </use>
                        <path d="M-4,0h8" fill="none" stroke="white" stroke-width="1.5" pointer-events="none"/>
                </g>
                <g id="dirArrow">
                        <path fill="none" stroke="white" stroke-width="1.5" d="M0,-3.0v7 M-2.5,-0.5L0,-3.0L2.5,-0.5"/>
                </g>
               <g id="resetDef">
                       <use xlink:href="#rim2" fill="#404040">
                               <set attributeName="fill" to="#808080" begin="reset.mouseover" end="reset.mouseout"/>
                       </use>
               </g>
        </defs>

<script type="text/javascript">
var viewWidth = 1517;
var viewHeight = 308;
var sectionId = 'dynsection-0';
</script>
<script xlink:href="svgpan.js"/>
<svg id="graph" class="graph">
<g id="viewport">
<title>src/CorsairLightingProtocol.h</title>
<polygon fill="white" stroke="transparent" points="-4,4 -4,-304 1512.5,-304 1512.5,4 -4,4"/>
<!-- Node1 -->
<g id="node1" class="node">
<title>Node1</title>
<g id="a_node1"><a xlink:title=" ">
<polygon fill="#bfbfbf" stroke="black" points="631.5,-280.5 631.5,-299.5 787.5,-299.5 787.5,-280.5 631.5,-280.5"/>
<text text-anchor="middle" x="709.5" y="-287.5" font-family="Helvetica,sans-Serif" font-size="10.00">src/CorsairLightingProtocol.h</text>
</a>
</g>
</g>
<!-- Node2 -->
<g id="node2" class="node">
<title>Node2</title>
<g id="a_node2"><a xlink:href="CLPAdditionalFeatures_8h_source.html" target="_top" xlink:title=" ">
<polygon fill="white" stroke="black" points="107.5,-168.5 107.5,-187.5 241.5,-187.5 241.5,-168.5 107.5,-168.5"/>
<text text-anchor="middle" x="174.5" y="-175.5" font-family="Helvetica,sans-Serif" font-size="10.00">CLPAdditionalFeatures.h</text>
</a>
</g>
</g>
<!-- Node1&#45;&gt;Node2 -->
<g id="edge1" class="edge">
<title>Node1&#45;&gt;Node2</title>
<path fill="none" stroke="midnightblue" d="M631.13,-286.6C519.69,-282.27 321.59,-270.98 255.5,-244 228.77,-233.09 203.8,-210.41 188.83,-194.94"/>
<polygon fill="midnightblue" stroke="midnightblue" points="191.36,-192.51 181.97,-187.61 186.25,-197.3 191.36,-192.51"/>
</g>
<!-- Node4 -->
<g id="node4" class="node">
<title>Node4</title>
<g id="a_node4"><a xlink:href="CorsairLightingFirmware_8h_source.html" target="_top" xlink:title=" ">
<polygon fill="white" stroke="black" points="479,-112.5 479,-131.5 624,-131.5 624,-112.5 479,-112.5"/>
<text text-anchor="middle" x="551.5" y="-119.5" font-family="Helvetica,sans-Serif" font-size="10.00">CorsairLightingFirmware.h</text>
</a>
</g>
</g>
<!-- Node1&#45;&gt;Node4 -->
<g id="edge11" class="edge">
<title>Node1&#45;&gt;Node4</title>
<path fill="none" stroke="midnightblue" d="M720.47,-280.18C734.1,-268.07 754.65,-245.35 746.5,-224 734.61,-192.83 724.56,-186.05 696.5,-168 670.83,-151.49 638.72,-140.71 611.25,-133.86"/>
<polygon fill="midnightblue" stroke="midnightblue" points="611.89,-130.41 601.35,-131.5 610.27,-137.22 611.89,-130.41"/>
</g>
<!-- Node5 -->
<g id="node5" class="node">
<title>Node5</title>
<g id="a_node5"><a xlink:href="CorsairLightingProtocolConstants_8h_source.html" target="_top" xlink:title=" ">
<polygon fill="white" stroke="black" points="457.5,-56.5 457.5,-75.5 645.5,-75.5 645.5,-56.5 457.5,-56.5"/>
<text text-anchor="middle" x="551.5" y="-63.5" font-family="Helvetica,sans-Serif" font-size="10.00">CorsairLightingProtocolConstants.h</text>
</a>
</g>
</g>
<!-- Node1&#45;&gt;Node5 -->
<g id="edge12" class="edge">
<title>Node1&#45;&gt;Node5</title>
<path fill="none" stroke="midnightblue" d="M631.44,-287.32C531.8,-280.21 366.05,-250.27 313.5,-132 309.89,-123.88 307.83,-118.84 313.5,-112 330.87,-91.04 391.55,-79.77 447.29,-73.75"/>
<polygon fill="midnightblue" stroke="midnightblue" points="447.67,-77.23 457.26,-72.72 446.96,-70.27 447.67,-77.23"/>
</g>
<!-- Node6 -->
<g id="node6" class="node">
<title>Node6</title>
<g id="a_node6"><a xlink:href="CorsairLightingProtocolResponse_8h_source.html" target="_top" xlink:title=" ">
<polygon fill="white" stroke="black" points="787.5,-56.5 787.5,-75.5 973.5,-75.5 973.5,-56.5 787.5,-56.5"/>
<text text-anchor="middle" x="880.5" y="-63.5" font-family="Helvetica,sans-Serif" font-size="10.00">CorsairLightingProtocolResponse.h</text>
</a>
</g>
</g>
<!-- Node1&#45;&gt;Node6 -->
<g id="edge38" class="edge">
<title>Node1&#45;&gt;Node6</title>
<path fill="none" stroke="midnightblue" d="M723.42,-280.47C755.91,-259.7 836.59,-203 871.5,-132 878.57,-117.62 880.59,-99.43 880.97,-85.95"/>
<polygon fill="midnightblue" stroke="midnightblue" points="884.47,-85.92 880.98,-75.92 877.47,-85.91 884.47,-85.92"/>
</g>
<!-- Node7 -->
<g id="node7" class="node">
<title>Node7</title>
<g id="a_node7"><a xlink:href="CLPUtils_8h_source.html" target="_top" xlink:title=" ">
<polygon fill="white" stroke="black" points="1442.5,-112.5 1442.5,-131.5 1508.5,-131.5 1508.5,-112.5 1442.5,-112.5"/>
<text text-anchor="middle" x="1475.5" y="-119.5" font-family="Helvetica,sans-Serif" font-size="10.00">CLPUtils.h</text>
</a>
</g>
</g>
<!-- Node1&#45;&gt;Node7 -->
<g id="edge9" class="edge">
<title>Node1&#45;&gt;Node7</title>
<path fill="none" stroke="midnightblue" d="M787.68,-287.76C932.51,-284.75 1236.91,-274.85 1337.5,-244 1385.09,-229.41 1398.62,-222.5 1434.5,-188 1448.58,-174.46 1459.97,-155.14 1467.14,-141.08"/>
<polygon fill="midnightblue" stroke="midnightblue" points="1470.36,-142.46 1471.59,-131.93 1464.07,-139.39 1470.36,-142.46"/>
</g>
<!-- Node8 -->
<g id="node8" class="node">
<title>Node8</title>
<g id="a_node8"><a xlink:href="CorsairLightingProtocolController_8h_source.html" target="_top" xlink:title=" ">
<polygon fill="white" stroke="black" points="501.5,-168.5 501.5,-187.5 687.5,-187.5 687.5,-168.5 501.5,-168.5"/>
<text text-anchor="middle" x="594.5" y="-175.5" font-family="Helvetica,sans-Serif" font-size="10.00">CorsairLightingProtocolController.h</text>
</a>
</g>
</g>
<!-- Node1&#45;&gt;Node8 -->
<g id="edge13" class="edge">
<title>Node1&#45;&gt;Node8</title>
<path fill="none" stroke="midnightblue" d="M631.36,-283.72C604.88,-277.74 577.89,-266.12 561.5,-244 550.04,-228.53 563.85,-208.49 576.95,-194.78"/>
<polygon fill="midnightblue" stroke="midnightblue" points="579.68,-197.01 584.38,-187.52 574.79,-192 579.68,-197.01"/>
</g>
<!-- Node12 -->
<g id="node12" class="node">
<title>Node12</title>
<g id="a_node12"><a xlink:href="CorsairLightingProtocolHID_8h_source.html" target="_top" xlink:title=" ">
<polygon fill="white" stroke="black" points="913,-224.5 913,-243.5 1070,-243.5 1070,-224.5 913,-224.5"/>
<text text-anchor="middle" x="991.5" y="-231.5" font-family="Helvetica,sans-Serif" font-size="10.00">CorsairLightingProtocolHID.h</text>
</a>
</g>
</g>
<!-- Node1&#45;&gt;Node12 -->
<g id="edge30" class="edge">
<title>Node1&#45;&gt;Node12</title>
<path fill="none" stroke="midnightblue" d="M754.18,-280.44C803.79,-270.94 883.86,-255.61 937.09,-245.42"/>
<polygon fill="midnightblue" stroke="midnightblue" points="937.86,-248.83 947.03,-243.52 936.55,-241.96 937.86,-248.83"/>
</g>
<!-- Node15 -->
<g id="node15" class="node">
<title>Node15</title>
<g id="a_node15"><a xlink:href="CorsairLightingProtocolSerial_8h_source.html" target="_top" xlink:title=" ">
<polygon fill="white" stroke="black" points="571,-224.5 571,-243.5 738,-243.5 738,-224.5 571,-224.5"/>
<text text-anchor="middle" x="654.5" y="-231.5" font-family="Helvetica,sans-Serif" font-size="10.00">CorsairLightingProtocolSerial.h</text>
</a>
</g>
</g>
<!-- Node1&#45;&gt;Node15 -->
<g id="edge39" class="edge">
<title>Node1&#45;&gt;Node15</title>
<path fill="none" stroke="midnightblue" d="M700.42,-280.08C692.33,-272.14 680.3,-260.34 670.59,-250.8"/>
<polygon fill="midnightblue" stroke="midnightblue" points="673,-248.26 663.41,-243.75 668.1,-253.25 673,-248.26"/>
</g>
<!-- Node16 -->
<g id="node16" class="node">
<title>Node16</title>
<g id="a_node16"><a xlink:href="FanController_8h.html" target="_top" xlink:title=" ">
<polygon fill="white" stroke="black" points="0,-168.5 0,-187.5 89,-187.5 89,-168.5 0,-168.5"/>
<text text-anchor="middle" x="44.5" y="-175.5" font-family="Helvetica,sans-Serif" font-size="10.00">FanController.h</text>
</a>
</g>
</g>
<!-- Node1&#45;&gt;Node16 -->
<g id="edge43" class="edge">
<title>Node1&#45;&gt;Node16</title>
<path fill="none" stroke="midnightblue" d="M631.45,-288.09C534.1,-285.52 363.1,-276.3 220.5,-244 166.29,-231.72 106.14,-206.93 72.06,-191.76"/>
<polygon fill="midnightblue" stroke="midnightblue" points="73.32,-188.49 62.77,-187.57 70.45,-194.87 73.32,-188.49"/>
</g>
<!-- Node17 -->
<g id="node17" class="node">
<title>Node17</title>
<g id="a_node17"><a xlink:href="FastLEDController_8h_source.html" target="_top" xlink:title=" ">
<polygon fill="white" stroke="black" points="1217,-224.5 1217,-243.5 1328,-243.5 1328,-224.5 1217,-224.5"/>
<text text-anchor="middle" x="1272.5" y="-231.5" font-family="Helvetica,sans-Serif" font-size="10.00">FastLEDController.h</text>
</a>
</g>
</g>
<!-- Node1&#45;&gt;Node17 -->
<g id="edge46" class="edge">
<title>Node1&#45;&gt;Node17</title>
<path fill="none" stroke="midnightblue" d="M787.78,-281.49C899.48,-270.78 1102.59,-251.3 1206.86,-241.3"/>
<polygon fill="midnightblue" stroke="midnightblue" points="1207.32,-244.77 1216.94,-240.33 1206.66,-237.8 1207.32,-244.77"/>
</g>
<!-- Node3 -->
<g id="node3" class="node">
<title>Node3</title>
<g id="a_node3"><a xlink:title=" ">
<polygon fill="white" stroke="#bfbfbf" points="849,-0.5 849,-19.5 912,-19.5 912,-0.5 849,-0.5"/>
<text text-anchor="middle" x="880.5" y="-7.5" font-family="Helvetica,sans-Serif" font-size="10.00">Arduino.h</text>
</a>
</g>
</g>
<!-- Node2&#45;&gt;Node3 -->
<g id="edge2" class="edge">
<title>Node2&#45;&gt;Node3</title>
<path fill="none" stroke="midnightblue" d="M184.11,-168.25C210.25,-145.05 285.78,-81.97 361.5,-56 449.57,-25.79 731.69,-15.07 838.76,-12.03"/>
<polygon fill="midnightblue" stroke="midnightblue" points="838.96,-15.52 848.86,-11.75 838.76,-8.52 838.96,-15.52"/>
</g>
<!-- Node2&#45;&gt;Node4 -->
<g id="edge3" class="edge">
<title>Node2&#45;&gt;Node4</title>
<path fill="none" stroke="midnightblue" d="M234.24,-168.44C301.52,-158.81 410.73,-143.16 481.84,-132.98"/>
<polygon fill="midnightblue" stroke="midnightblue" points="482.64,-136.4 492.04,-131.52 481.65,-129.47 482.64,-136.4"/>
</g>
<!-- Node4&#45;&gt;Node3 -->
<g id="edge4" class="edge">
<title>Node4&#45;&gt;Node3</title>
<path fill="none" stroke="midnightblue" d="M577.04,-112.46C635.35,-92.97 778.33,-45.16 845.09,-22.84"/>
<polygon fill="midnightblue" stroke="midnightblue" points="846.37,-26.1 854.75,-19.61 844.15,-19.46 846.37,-26.1"/>
</g>
<!-- Node4&#45;&gt;Node5 -->
<g id="edge5" class="edge">
<title>Node4&#45;&gt;Node5</title>
<path fill="none" stroke="midnightblue" d="M551.5,-112.08C551.5,-105.01 551.5,-94.86 551.5,-85.99"/>
<polygon fill="midnightblue" stroke="midnightblue" points="555,-85.75 551.5,-75.75 548,-85.75 555,-85.75"/>
</g>
<!-- Node4&#45;&gt;Node6 -->
<g id="edge7" class="edge">
<title>Node4&#45;&gt;Node6</title>
<path fill="none" stroke="midnightblue" d="M603.63,-112.44C661.99,-102.87 756.48,-87.36 818.56,-77.17"/>
<polygon fill="midnightblue" stroke="midnightblue" points="819.31,-80.59 828.61,-75.52 818.18,-73.68 819.31,-80.59"/>
</g>
<!-- Node5&#45;&gt;Node3 -->
<g id="edge6" class="edge">
<title>Node5&#45;&gt;Node3</title>
<path fill="none" stroke="midnightblue" d="M603.63,-56.44C668.75,-45.75 778.88,-27.68 838.74,-17.85"/>
<polygon fill="midnightblue" stroke="midnightblue" points="839.66,-21.25 848.96,-16.18 838.52,-14.34 839.66,-21.25"/>
</g>
<!-- Node6&#45;&gt;Node3 -->
<g id="edge8" class="edge">
<title>Node6&#45;&gt;Node3</title>
<path fill="none" stroke="midnightblue" d="M880.5,-56.08C880.5,-49.01 880.5,-38.86 880.5,-29.99"/>
<polygon fill="midnightblue" stroke="midnightblue" points="884,-29.75 880.5,-19.75 877,-29.75 884,-29.75"/>
</g>
<!-- Node7&#45;&gt;Node3 -->
<g id="edge10" class="edge">
<title>Node7&#45;&gt;Node3</title>
<path fill="none" stroke="midnightblue" d="M1472.14,-112.4C1465.96,-97.89 1451.31,-68.86 1428.5,-56 1384.76,-31.34 1042.76,-16.82 922.3,-12.43"/>
<polygon fill="midnightblue" stroke="midnightblue" points="922.14,-8.92 912.02,-12.06 921.89,-15.91 922.14,-8.92"/>
</g>
<!-- Node8&#45;&gt;Node3 -->
<g id="edge14" class="edge">
<title>Node8&#45;&gt;Node3</title>
<path fill="none" stroke="midnightblue" d="M501.3,-174.16C431.56,-169.83 344.42,-159.01 321.5,-132 315.75,-125.22 317.09,-119.72 321.5,-112 372.97,-21.92 717.43,-11.68 838.51,-10.9"/>
<polygon fill="midnightblue" stroke="midnightblue" points="838.86,-14.4 848.85,-10.85 838.83,-7.4 838.86,-14.4"/>
</g>
<!-- Node8&#45;&gt;Node4 -->
<g id="edge15" class="edge">
<title>Node8&#45;&gt;Node4</title>
<path fill="none" stroke="midnightblue" d="M587.4,-168.08C581.26,-160.38 572.23,-149.03 564.76,-139.65"/>
<polygon fill="midnightblue" stroke="midnightblue" points="567.44,-137.39 558.47,-131.75 561.96,-141.75 567.44,-137.39"/>
</g>
<!-- Node8&#45;&gt;Node5 -->
<g id="edge16" class="edge">
<title>Node8&#45;&gt;Node5</title>
<path fill="none" stroke="midnightblue" d="M527.25,-168.45C505.18,-162.08 482.9,-151.06 469.5,-132 453.55,-109.3 485.82,-90.55 514.45,-79.12"/>
<polygon fill="midnightblue" stroke="midnightblue" points="515.83,-82.34 523.94,-75.52 513.35,-75.79 515.83,-82.34"/>
</g>
<!-- Node8&#45;&gt;Node6 -->
<g id="edge17" class="edge">
<title>Node8&#45;&gt;Node6</title>
<path fill="none" stroke="midnightblue" d="M687.75,-173.37C732.29,-168.15 784.84,-156.67 826.5,-132 845.76,-120.6 861.25,-99.7 870.61,-84.67"/>
<polygon fill="midnightblue" stroke="midnightblue" points="873.78,-86.19 875.86,-75.8 867.76,-82.62 873.78,-86.19"/>
</g>
<!-- Node9 -->
<g id="node9" class="node">
<title>Node9</title>
<g id="a_node9"><a xlink:href="IFanController_8h_source.html" target="_top" xlink:title=" ">
<polygon fill="white" stroke="black" points="330.5,-112.5 330.5,-131.5 422.5,-131.5 422.5,-112.5 330.5,-112.5"/>
<text text-anchor="middle" x="376.5" y="-119.5" font-family="Helvetica,sans-Serif" font-size="10.00">IFanController.h</text>
</a>
</g>
</g>
<!-- Node8&#45;&gt;Node9 -->
<g id="edge18" class="edge">
<title>Node8&#45;&gt;Node9</title>
<path fill="none" stroke="midnightblue" d="M559.96,-168.44C522.25,-159.1 461.76,-144.12 420.64,-133.93"/>
<polygon fill="midnightblue" stroke="midnightblue" points="421.43,-130.52 410.88,-131.52 419.75,-137.32 421.43,-130.52"/>
</g>
<!-- Node10 -->
<g id="node10" class="node">
<title>Node10</title>
<g id="a_node10"><a xlink:href="ILEDController_8h_source.html" target="_top" xlink:title=" ">
<polygon fill="white" stroke="black" points="1051,-112.5 1051,-131.5 1146,-131.5 1146,-112.5 1051,-112.5"/>
<text text-anchor="middle" x="1098.5" y="-119.5" font-family="Helvetica,sans-Serif" font-size="10.00">ILEDController.h</text>
</a>
</g>
</g>
<!-- Node8&#45;&gt;Node10 -->
<g id="edge22" class="edge">
<title>Node8&#45;&gt;Node10</title>
<path fill="none" stroke="midnightblue" d="M687.56,-169.17C775.8,-161.39 912.33,-148.44 1040.91,-132.01"/>
<polygon fill="midnightblue" stroke="midnightblue" points="1041.47,-135.46 1050.94,-130.71 1040.58,-128.52 1041.47,-135.46"/>
</g>
<!-- Node11 -->
<g id="node11" class="node">
<title>Node11</title>
<g id="a_node11"><a xlink:href="ITemperatureController_8h_source.html" target="_top" xlink:title=" ">
<polygon fill="white" stroke="black" points="681,-112.5 681,-131.5 818,-131.5 818,-112.5 681,-112.5"/>
<text text-anchor="middle" x="749.5" y="-119.5" font-family="Helvetica,sans-Serif" font-size="10.00">ITemperatureController.h</text>
</a>
</g>
</g>
<!-- Node8&#45;&gt;Node11 -->
<g id="edge26" class="edge">
<title>Node8&#45;&gt;Node11</title>
<path fill="none" stroke="midnightblue" d="M619.06,-168.44C645.02,-159.4 686.17,-145.06 715.3,-134.92"/>
<polygon fill="midnightblue" stroke="midnightblue" points="716.76,-138.11 725.05,-131.52 714.46,-131.5 716.76,-138.11"/>
</g>
<!-- Node9&#45;&gt;Node3 -->
<g id="edge19" class="edge">
<title>Node9&#45;&gt;Node3</title>
<path fill="none" stroke="midnightblue" d="M382.92,-112.4C394.31,-97.9 419.58,-68.88 448.5,-56 517.71,-25.17 744.48,-15.01 838.79,-12.07"/>
<polygon fill="midnightblue" stroke="midnightblue" points="838.93,-15.57 848.82,-11.77 838.72,-8.57 838.93,-15.57"/>
</g>
<!-- Node9&#45;&gt;Node5 -->
<g id="edge20" class="edge">
<title>Node9&#45;&gt;Node5</title>
<path fill="none" stroke="midnightblue" d="M404.23,-112.44C433.93,-103.28 481.22,-88.69 514.17,-78.52"/>
<polygon fill="midnightblue" stroke="midnightblue" points="515.38,-81.81 523.9,-75.52 513.31,-75.12 515.38,-81.81"/>
</g>
<!-- Node9&#45;&gt;Node6 -->
<g id="edge21" class="edge">
<title>Node9&#45;&gt;Node6</title>
<path fill="none" stroke="midnightblue" d="M422.56,-116.06C505.9,-107.14 683.04,-88.16 790.94,-76.6"/>
<polygon fill="midnightblue" stroke="midnightblue" points="791.59,-80.05 801.16,-75.5 790.85,-73.09 791.59,-80.05"/>
</g>
<!-- Node10&#45;&gt;Node3 -->
<g id="edge23" class="edge">
<title>Node10&#45;&gt;Node3</title>
<path fill="none" stroke="midnightblue" d="M1084.09,-112.34C1062.39,-99.43 1019.88,-74.67 982.5,-56 958.84,-44.19 931.38,-32.16 910.91,-23.52"/>
<polygon fill="midnightblue" stroke="midnightblue" points="912.05,-20.2 901.48,-19.56 909.35,-26.66 912.05,-20.2"/>
</g>
<!-- Node10&#45;&gt;Node5 -->
<g id="edge24" class="edge">
<title>Node10&#45;&gt;Node5</title>
<path fill="none" stroke="midnightblue" d="M1050.95,-113.25C1047.75,-112.81 1044.58,-112.38 1041.5,-112 908.73,-95.44 755.01,-82.3 655.67,-74.59"/>
<polygon fill="midnightblue" stroke="midnightblue" points="655.87,-71.1 645.63,-73.82 655.33,-78.08 655.87,-71.1"/>
</g>
<!-- Node10&#45;&gt;Node6 -->
<g id="edge25" class="edge">
<title>Node10&#45;&gt;Node6</title>
<path fill="none" stroke="midnightblue" d="M1063.96,-112.44C1026.25,-103.1 965.76,-88.12 924.64,-77.93"/>
<polygon fill="midnightblue" stroke="midnightblue" points="925.43,-74.52 914.88,-75.52 923.75,-81.32 925.43,-74.52"/>
</g>
<!-- Node11&#45;&gt;Node3 -->
<g id="edge27" class="edge">
<title>Node11&#45;&gt;Node3</title>
<path fill="none" stroke="midnightblue" d="M751.27,-112.27C754.46,-98.6 762.39,-72.04 778.5,-56 795.12,-39.45 818.86,-28.49 839.25,-21.53"/>
<polygon fill="midnightblue" stroke="midnightblue" points="840.49,-24.81 848.95,-18.43 838.36,-18.14 840.49,-24.81"/>
</g>
<!-- Node11&#45;&gt;Node5 -->
<g id="edge28" class="edge">
<title>Node11&#45;&gt;Node5</title>
<path fill="none" stroke="midnightblue" d="M718.13,-112.44C684.24,-103.2 630.1,-88.44 592.78,-78.26"/>
<polygon fill="midnightblue" stroke="midnightblue" points="593.3,-74.77 582.73,-75.52 591.45,-81.52 593.3,-74.77"/>
</g>
<!-- Node11&#45;&gt;Node6 -->
<g id="edge29" class="edge">
<title>Node11&#45;&gt;Node6</title>
<path fill="none" stroke="midnightblue" d="M770.26,-112.44C791.82,-103.56 825.76,-89.56 850.29,-79.45"/>
<polygon fill="midnightblue" stroke="midnightblue" points="851.93,-82.56 859.84,-75.52 849.26,-76.09 851.93,-82.56"/>
</g>
<!-- Node12&#45;&gt;Node3 -->
<g id="edge31" class="edge">
<title>Node12&#45;&gt;Node3</title>
<path fill="none" stroke="midnightblue" d="M1005.6,-224.34C1026.4,-211.65 1066.6,-187.4 1101.5,-168 1131.73,-151.2 1152.57,-161.58 1170.5,-132 1175.11,-124.4 1173.63,-120.32 1170.5,-112 1158.87,-81.04 1150.23,-72.38 1121.5,-56 1058.5,-20.07 972.61,-12.04 922.2,-10.68"/>
<polygon fill="midnightblue" stroke="midnightblue" points="922.07,-7.18 912,-10.48 921.93,-14.17 922.07,-7.18"/>
</g>
<!-- Node12&#45;&gt;Node5 -->
<g id="edge32" class="edge">
<title>Node12&#45;&gt;Node5</title>
<path fill="none" stroke="midnightblue" d="M957.1,-224.46C897.64,-209.19 772.33,-174.76 671.5,-132 661.82,-127.9 607.89,-98.24 575.71,-80.44"/>
<polygon fill="midnightblue" stroke="midnightblue" points="577.33,-77.33 566.88,-75.54 573.93,-83.45 577.33,-77.33"/>
</g>
<!-- Node12&#45;&gt;Node6 -->
<g id="edge34" class="edge">
<title>Node12&#45;&gt;Node6</title>
<path fill="none" stroke="midnightblue" d="M989.1,-224.35C982.98,-203.4 965.23,-149 936.5,-112 927.2,-100.03 914.12,-89.28 902.93,-81.3"/>
<polygon fill="midnightblue" stroke="midnightblue" points="904.71,-78.27 894.48,-75.51 900.75,-84.05 904.71,-78.27"/>
</g>
<!-- Node12&#45;&gt;Node8 -->
<g id="edge33" class="edge">
<title>Node12&#45;&gt;Node8</title>
<path fill="none" stroke="midnightblue" d="M928.59,-224.44C857.6,-214.79 742.27,-199.1 667.4,-188.92"/>
<polygon fill="midnightblue" stroke="midnightblue" points="667.49,-185.4 657.11,-187.52 666.55,-192.33 667.49,-185.4"/>
</g>
<!-- Node13 -->
<g id="node13" class="node">
<title>Node13</title>
<g id="a_node13"><a xlink:href="RawHID_8h_source.html" target="_top" xlink:title=" ">
<polygon fill="white" stroke="black" points="989,-168.5 989,-187.5 1054,-187.5 1054,-168.5 989,-168.5"/>
<text text-anchor="middle" x="1021.5" y="-175.5" font-family="Helvetica,sans-Serif" font-size="10.00">RawHID.h</text>
</a>
</g>
</g>
<!-- Node12&#45;&gt;Node13 -->
<g id="edge35" class="edge">
<title>Node12&#45;&gt;Node13</title>
<path fill="none" stroke="midnightblue" d="M996.45,-224.08C1000.6,-216.61 1006.65,-205.72 1011.77,-196.52"/>
<polygon fill="midnightblue" stroke="midnightblue" points="1014.84,-198.19 1016.64,-187.75 1008.72,-194.79 1014.84,-198.19"/>
</g>
<!-- Node13&#45;&gt;Node3 -->
<g id="edge36" class="edge">
<title>Node13&#45;&gt;Node3</title>
<path fill="none" stroke="midnightblue" d="M1054.17,-170.57C1089.84,-162.8 1143.5,-148.69 1155.5,-132 1160.69,-124.78 1160.5,-119.35 1155.5,-112 1103.18,-35.13 985.34,-16.54 922.24,-12.2"/>
<polygon fill="midnightblue" stroke="midnightblue" points="922.42,-8.7 912.23,-11.6 922,-15.69 922.42,-8.7"/>
</g>
<!-- Node14 -->
<g id="node14" class="node">
<title>Node14</title>
<g id="a_node14"><a xlink:title=" ">
<polygon fill="white" stroke="#bfbfbf" points="988.5,-112.5 988.5,-131.5 1032.5,-131.5 1032.5,-112.5 988.5,-112.5"/>
<text text-anchor="middle" x="1010.5" y="-119.5" font-family="Helvetica,sans-Serif" font-size="10.00">HID.h</text>
</a>
</g>
</g>
<!-- Node13&#45;&gt;Node14 -->
<g id="edge37" class="edge">
<title>Node13&#45;&gt;Node14</title>
<path fill="none" stroke="midnightblue" d="M1019.68,-168.08C1018.23,-160.93 1016.13,-150.64 1014.31,-141.69"/>
<polygon fill="midnightblue" stroke="midnightblue" points="1017.71,-140.85 1012.28,-131.75 1010.85,-142.25 1017.71,-140.85"/>
</g>
<!-- Node15&#45;&gt;Node5 -->
<g id="edge40" class="edge">
<title>Node15&#45;&gt;Node5</title>
<path fill="none" stroke="midnightblue" d="M599.43,-224.44C513.59,-209.84 354.29,-177.25 321.5,-132 316.28,-124.8 315.85,-118.86 321.5,-112 337.87,-92.12 394.29,-80.9 447.15,-74.63"/>
<polygon fill="midnightblue" stroke="midnightblue" points="447.77,-78.08 457.31,-73.48 446.98,-71.13 447.77,-78.08"/>
</g>
<!-- Node15&#45;&gt;Node6 -->
<g id="edge42" class="edge">
<title>Node15&#45;&gt;Node6</title>
<path fill="none" stroke="midnightblue" d="M685.12,-224.42C727.59,-211.09 804.45,-181.67 851.5,-132 863.84,-118.98 871.51,-99.82 875.84,-85.67"/>
<polygon fill="midnightblue" stroke="midnightblue" points="879.33,-86.19 878.62,-75.62 872.58,-84.32 879.33,-86.19"/>
</g>
<!-- Node15&#45;&gt;Node8 -->
<g id="edge41" class="edge">
<title>Node15&#45;&gt;Node8</title>
<path fill="none" stroke="midnightblue" d="M644.86,-224.32C635.99,-216.34 622.63,-204.31 611.89,-194.65"/>
<polygon fill="midnightblue" stroke="midnightblue" points="614.09,-191.92 604.32,-187.83 609.41,-197.13 614.09,-191.92"/>
</g>
<!-- Node16&#45;&gt;Node3 -->
<g id="edge44" class="edge">
<title>Node16&#45;&gt;Node3</title>
<path fill="none" stroke="midnightblue" d="M58.78,-168.46C97.99,-145.5 211.24,-82.4 314.5,-56 413.82,-30.6 725.41,-16.77 838.75,-12.47"/>
<polygon fill="midnightblue" stroke="midnightblue" points="838.91,-15.97 848.78,-12.1 838.65,-8.98 838.91,-15.97"/>
</g>
<!-- Node16&#45;&gt;Node9 -->
<g id="edge45" class="edge">
<title>Node16&#45;&gt;Node9</title>
<path fill="none" stroke="midnightblue" d="M89.29,-169.52C92.4,-169 95.5,-168.49 98.5,-168 175.26,-155.39 263.98,-141.07 320.15,-132.04"/>
<polygon fill="midnightblue" stroke="midnightblue" points="320.93,-135.46 330.25,-130.42 319.82,-128.55 320.93,-135.46"/>
</g>
<!-- Node17&#45;&gt;Node3 -->
<g id="edge48" class="edge">
<title>Node17&#45;&gt;Node3</title>
<path fill="none" stroke="midnightblue" d="M1312.25,-224.43C1346.1,-216.24 1390.89,-202.94 1401.5,-188 1445.39,-126.2 1363.94,-83.99 1293.5,-56 1226.69,-29.46 1013.48,-16.96 922.4,-12.74"/>
<polygon fill="midnightblue" stroke="midnightblue" points="922.32,-9.23 912.17,-12.27 922,-16.22 922.32,-9.23"/>
</g>
<!-- Node18 -->
<g id="node18" class="node">
<title>Node18</title>
<g id="a_node18"><a xlink:title=" ">
<polygon fill="white" stroke="#bfbfbf" points="1278.5,-112.5 1278.5,-131.5 1342.5,-131.5 1342.5,-112.5 1278.5,-112.5"/>
<text text-anchor="middle" x="1310.5" y="-119.5" font-family="Helvetica,sans-Serif" font-size="10.00">FastLED.h</text>
</a>
</g>
</g>
<!-- Node17&#45;&gt;Node18 -->
<g id="edge47" class="edge">
<title>Node17&#45;&gt;Node18</title>
<path fill="none" stroke="midnightblue" d="M1274.65,-224.49C1277.89,-211.97 1284.4,-187.94 1291.5,-168 1294.74,-158.9 1298.86,-148.99 1302.43,-140.79"/>
<polygon fill="midnightblue" stroke="midnightblue" points="1305.69,-142.07 1306.56,-131.51 1299.3,-139.22 1305.69,-142.07"/>
</g>
<!-- Node19 -->
<g id="node19" class="node">
<title>Node19</title>
<g id="a_node19"><a xlink:href="LEDController_8h.html" target="_top" xlink:title=" ">
<polygon fill="white" stroke="black" points="1300.5,-168.5 1300.5,-187.5 1392.5,-187.5 1392.5,-168.5 1300.5,-168.5"/>
<text text-anchor="middle" x="1346.5" y="-175.5" font-family="Helvetica,sans-Serif" font-size="10.00">LEDController.h</text>
</a>
</g>
</g>
<!-- Node17&#45;&gt;Node19 -->
<g id="edge49" class="edge">
<title>Node17&#45;&gt;Node19</title>
<path fill="none" stroke="midnightblue" d="M1284.39,-224.32C1295.65,-216.11 1312.79,-203.6 1326.21,-193.81"/>
<polygon fill="midnightblue" stroke="midnightblue" points="1328.38,-196.56 1334.39,-187.83 1324.25,-190.9 1328.38,-196.56"/>
</g>
<!-- Node20 -->
<g id="node20" class="node">
<title>Node20</title>
<g id="a_node20"><a xlink:href="TemperatureController_8h.html" target="_top" xlink:title=" ">
<polygon fill="white" stroke="black" points="1110.5,-168.5 1110.5,-187.5 1244.5,-187.5 1244.5,-168.5 1110.5,-168.5"/>
<text text-anchor="middle" x="1177.5" y="-175.5" font-family="Helvetica,sans-Serif" font-size="10.00">TemperatureController.h</text>
</a>
</g>
</g>
<!-- Node17&#45;&gt;Node20 -->
<g id="edge54" class="edge">
<title>Node17&#45;&gt;Node20</title>
<path fill="none" stroke="midnightblue" d="M1257.24,-224.32C1242.28,-215.82 1219.25,-202.73 1201.77,-192.8"/>
<polygon fill="midnightblue" stroke="midnightblue" points="1203.15,-189.55 1192.73,-187.65 1199.69,-195.64 1203.15,-189.55"/>
</g>
<!-- Node19&#45;&gt;Node3 -->
<g id="edge51" class="edge">
<title>Node19&#45;&gt;Node3</title>
<path fill="none" stroke="midnightblue" d="M1350.18,-168.27C1355.12,-155.05 1362.13,-129.64 1351.5,-112 1324,-66.37 1296.33,-71.97 1245.5,-56 1132.23,-20.42 990.93,-12.79 922.08,-11.27"/>
<polygon fill="midnightblue" stroke="midnightblue" points="922.13,-7.77 912.07,-11.08 922,-14.77 922.13,-7.77"/>
</g>
<!-- Node19&#45;&gt;Node7 -->
<g id="edge52" class="edge">
<title>Node19&#45;&gt;Node7</title>
<path fill="none" stroke="midnightblue" d="M1366.94,-168.44C1388.17,-159.56 1421.6,-145.56 1445.75,-135.45"/>
<polygon fill="midnightblue" stroke="midnightblue" points="1447.28,-138.61 1455.16,-131.52 1444.58,-132.15 1447.28,-138.61"/>
</g>
<!-- Node19&#45;&gt;Node10 -->
<g id="edge53" class="edge">
<title>Node19&#45;&gt;Node10</title>
<path fill="none" stroke="midnightblue" d="M1307.2,-168.44C1263.94,-159.02 1194.33,-143.87 1147.53,-133.68"/>
<polygon fill="midnightblue" stroke="midnightblue" points="1148.13,-130.22 1137.61,-131.52 1146.64,-137.06 1148.13,-130.22"/>
</g>
<!-- Node19&#45;&gt;Node18 -->
<g id="edge50" class="edge">
<title>Node19&#45;&gt;Node18</title>
<path fill="none" stroke="midnightblue" d="M1340.56,-168.08C1335.52,-160.53 1328.16,-149.49 1321.99,-140.23"/>
<polygon fill="midnightblue" stroke="midnightblue" points="1324.79,-138.13 1316.33,-131.75 1318.97,-142.01 1324.79,-138.13"/>
</g>
<!-- Node20&#45;&gt;Node3 -->
<g id="edge55" class="edge">
<title>Node20&#45;&gt;Node3</title>
<path fill="none" stroke="midnightblue" d="M1192.16,-168.4C1203.91,-160.58 1219.53,-147.86 1226.5,-132 1240.09,-101.08 1248.79,-81.38 1226.5,-56 1206.69,-33.45 1010.17,-18.84 922.43,-13.4"/>
<polygon fill="midnightblue" stroke="midnightblue" points="922.48,-9.89 912.29,-12.78 922.06,-16.88 922.48,-9.89"/>
</g>
<!-- Node20&#45;&gt;Node11 -->
<g id="edge56" class="edge">
<title>Node20&#45;&gt;Node11</title>
<path fill="none" stroke="midnightblue" d="M1110.15,-168.5C1033.4,-158.82 908.14,-143.02 827.28,-132.81"/>
<polygon fill="midnightblue" stroke="midnightblue" points="827.52,-129.32 817.16,-131.54 826.64,-136.26 827.52,-129.32"/>
</g>
</g>
</svg>
        <g id="navigator" transform="translate(0 0)" fill="#404254">
                <rect fill="#f2f5e9" fill-opacity="0.5" stroke="#606060" stroke-width=".5" x="0" y="0" width="60" height="60"/>
                <use id="zoomplus" xlink:href="#zoomPlus" x="17" y="9" onmousedown="handleZoom(evt,'in')"/>
                <use id="zoomminus" xlink:href="#zoomMin" x="42" y="9" onmousedown="handleZoom(evt,'out')"/>
                <use id="reset" xlink:href="#resetDef" x="30" y="36" onmousedown="handleReset()"/>
                <g id="arrowUp" xlink:href="#dirArrow" transform="translate(30 24)" onmousedown="handlePan(0,-1)">
                  <use xlink:href="#rim" fill="#404040">
                        <set attributeName="fill" to="#808080" begin="arrowUp.mouseover" end="arrowUp.mouseout"/>
                  </use>
                  <path fill="none" stroke="white" stroke-width="1.5" d="M0,-3.0v7 M-2.5,-0.5L0,-3.0L2.5,-0.5"/>
                </g>
                <g id="arrowRight" xlink:href="#dirArrow" transform="rotate(90) translate(36 -43)" onmousedown="handlePan(1,0)">
                  <use xlink:href="#rim" fill="#404040">
                        <set attributeName="fill" to="#808080" begin="arrowRight.mouseover" end="arrowRight.mouseout"/>
                  </use>
                  <path fill="none" stroke="white" stroke-width="1.5" d="M0,-3.0v7 M-2.5,-0.5L0,-3.0L2.5,-0.5"/>
                </g>
                <g id="arrowDown" xlink:href="#dirArrow" transform="rotate(180) translate(-30 -48)" onmousedown="handlePan(0,1)">
                  <use xlink:href="#rim" fill="#404040">
                        <set attributeName="fill" to="#808080" begin="arrowDown.mouseover" end="arrowDown.mouseout"/>
                  </use>
                  <path fill="none" stroke="white" stroke-width="1.5" d="M0,-3.0v7 M-2.5,-0.5L0,-3.0L2.5,-0.5"/>
                </g>
                <g id="arrowLeft" xlink:href="#dirArrow" transform="rotate(270) translate(-36 17)" onmousedown="handlePan(-1,0)">
                  <use xlink:href="#rim" fill="#404040">
                        <set attributeName="fill" to="#808080" begin="arrowLeft.mouseover" end="arrowLeft.mouseout"/>
                  </use>
                  <path fill="none" stroke="white" stroke-width="1.5" d="M0,-3.0v7 M-2.5,-0.5L0,-3.0L2.5,-0.5"/>
                </g>
        </g>
        <svg viewBox="0 0 15 15" width="100%" height="30px" preserveAspectRatio="xMaxYMin meet">
         <g id="arrow_out" transform="scale(0.3 0.3)">
          <a xlink:href="CorsairLightingProtocol_8h__incl_org.svg" target="_base">
           <rect id="button" ry="5" rx="5" y="6" x="6" height="38" width="38"
                fill="#f2f5e9" fill-opacity="0.5" stroke="#606060" stroke-width="1.0"/>
           <path id="arrow"
             d="M 11.500037,31.436501 C 11.940474,20.09759 22.043105,11.32322 32.158766,21.979434 L 37.068811,17.246167 C 37.068811,17.246167 37.088388,32 37.088388,32 L 22.160133,31.978069 C 22.160133,31.978069 26.997745,27.140456 26.997745,27.140456 C 18.528582,18.264221 13.291696,25.230495 11.500037,31.436501 z"
             style="fill:#404040;"/>
          </a>
         </g>
        </svg>
</svg>
