<?xml version="1.0" encoding="UTF-8" standalone="no"?>
<!DOCTYPE svg PUBLIC "-//W3C//DTD SVG 1.1//EN"
 "http://www.w3.org/Graphics/SVG/1.1/DTD/svg11.dtd">
<!-- Generated by graphviz version 2.40.1 (20161225.0304)
 -->
<!-- Title: src/CorsairLightingProtocol.h Pages: 1 -->
<svg width="1457pt" height="308pt"
 viewBox="0.00 0.00 1457.00 308.00" xmlns="http://www.w3.org/2000/svg" xmlns:xlink="http://www.w3.org/1999/xlink">
<g id="graph0" class="graph" transform="scale(1 1) rotate(0) translate(4 304)">
<title>src/CorsairLightingProtocol.h</title>
<polygon fill="#ffffff" stroke="transparent" points="-4,4 -4,-304 1453,-304 1453,4 -4,4"/>
<!-- Node0 -->
<g id="node1" class="node">
<title>Node0</title>
<polygon fill="#bfbfbf" stroke="#000000" points="600,-280.5 600,-299.5 743,-299.5 743,-280.5 600,-280.5"/>
<text text-anchor="middle" x="671.5" y="-287.5" font-family="Helvetica,sans-Serif" font-size="10.00" fill="#000000">src/CorsairLightingProtocol.h</text>
</g>
<!-- Node1 -->
<g id="node2" class="node">
<title>Node1</title>
<g id="a_node2"><a xlink:href="CLPAdditionalFeatures_8h_source.html" target="_top" xlink:title="CLPAdditionalFeatures.h">
<polygon fill="#ffffff" stroke="#000000" points="101,-168.5 101,-187.5 226,-187.5 226,-168.5 101,-168.5"/>
<text text-anchor="middle" x="163.5" y="-175.5" font-family="Helvetica,sans-Serif" font-size="10.00" fill="#000000">CLPAdditionalFeatures.h</text>
</a>
</g>
</g>
<!-- Node0&#45;&gt;Node1 -->
<g id="edge1" class="edge">
<title>Node0&#45;&gt;Node1</title>
<path fill="none" stroke="#191970" d="M599.6063,-287.475C494.1637,-282.9064 303.2856,-271.1004 240.5,-244 215.4035,-233.1675 192.4276,-211.2004 178.2301,-195.5877"/>
<polygon fill="#191970" stroke="#191970" points="180.5152,-192.8855 171.288,-187.6788 175.2544,-197.5032 180.5152,-192.8855"/>
</g>
<!-- Node3 -->
<g id="node4" class="node">
<title>Node3</title>
<g id="a_node4"><a xlink:href="CorsairLightingFirmware_8h_source.html" target="_top" xlink:title="CorsairLightingFirmware.h">
<polygon fill="#ffffff" stroke="#000000" points="459,-112.5 459,-131.5 590,-131.5 590,-112.5 459,-112.5"/>
<text text-anchor="middle" x="524.5" y="-119.5" font-family="Helvetica,sans-Serif" font-size="10.00" fill="#000000">CorsairLightingFirmware.h</text>
</a>
</g>
</g>
<!-- Node0&#45;&gt;Node3 -->
<g id="edge11" class="edge">
<title>Node0&#45;&gt;Node3</title>
<path fill="none" stroke="#191970" d="M681.5792,-280.4319C693.5723,-267.8286 711.0794,-244.8207 703.5,-224 692.385,-193.4671 683.2452,-186.4525 656.5,-168 633.6633,-152.2441 604.8983,-141.3868 580.0542,-134.1952"/>
<polygon fill="#191970" stroke="#191970" points="580.9621,-130.8149 570.3909,-131.5221 579.0958,-137.5616 580.9621,-130.8149"/>
</g>
<!-- Node4 -->
<g id="node5" class="node">
<title>Node4</title>
<g id="a_node5"><a xlink:href="CorsairLightingProtocolConstants_8h_source.html" target="_top" xlink:title="CorsairLightingProtocolConstants.h">
<polygon fill="#ffffff" stroke="#000000" points="439,-56.5 439,-75.5 610,-75.5 610,-56.5 439,-56.5"/>
<text text-anchor="middle" x="524.5" y="-63.5" font-family="Helvetica,sans-Serif" font-size="10.00" fill="#000000">CorsairLightingProtocolConstants.h</text>
</a>
</g>
</g>
<!-- Node0&#45;&gt;Node4 -->
<g id="edge12" class="edge">
<title>Node0&#45;&gt;Node4</title>
<path fill="none" stroke="#191970" d="M640.6053,-280.4136C611.2065,-271.2407 565.7578,-256.9279 526.5,-244 419.6442,-208.8114 345.5866,-234.6276 299.5,-132 295.8586,-123.8912 293.8792,-118.8862 299.5,-112 316.1092,-91.6516 375.2232,-80.0639 428.6895,-73.6091"/>
<polygon fill="#191970" stroke="#191970" points="429.4117,-77.049 438.9438,-72.424 428.608,-70.0953 429.4117,-77.049"/>
</g>
<!-- Node5 -->
<g id="node6" class="node">
<title>Node5</title>
<g id="a_node6"><a xlink:href="CorsairLightingProtocolResponse_8h_source.html" target="_top" xlink:title="CorsairLightingProtocolResponse.h">
<polygon fill="#ffffff" stroke="#000000" points="749.5,-56.5 749.5,-75.5 919.5,-75.5 919.5,-56.5 749.5,-56.5"/>
<text text-anchor="middle" x="834.5" y="-63.5" font-family="Helvetica,sans-Serif" font-size="10.00" fill="#000000">CorsairLightingProtocolResponse.h</text>
</a>
</g>
</g>
<!-- Node0&#45;&gt;Node5 -->
<g id="edge38" class="edge">
<title>Node0&#45;&gt;Node5</title>
<path fill="none" stroke="#191970" d="M686.0827,-280.2022C717.7078,-258.0529 792.4094,-200.6694 825.5,-132 832.4028,-117.6754 834.4868,-99.6985 834.9372,-86.125"/>
<polygon fill="#191970" stroke="#191970" points="838.4382,-85.9577 835.0011,-75.9359 831.4383,-85.9137 838.4382,-85.9577"/>
</g>
<!-- Node6 -->
<g id="node7" class="node">
<title>Node6</title>
<g id="a_node7"><a xlink:href="CLPUtils_8h_source.html" target="_top" xlink:title="CLPUtils.h">
<polygon fill="#ffffff" stroke="#000000" points="1384,-112.5 1384,-131.5 1449,-131.5 1449,-112.5 1384,-112.5"/>
<text text-anchor="middle" x="1416.5" y="-119.5" font-family="Helvetica,sans-Serif" font-size="10.00" fill="#000000">CLPUtils.h</text>
</a>
</g>
</g>
<!-- Node0&#45;&gt;Node6 -->
<g id="edge9" class="edge">
<title>Node0&#45;&gt;Node6</title>
<path fill="none" stroke="#191970" d="M743.243,-288.6374C881.1465,-285.3459 1178.1862,-274.8131 1275.5,-244 1321.8611,-229.3204 1333.7409,-220.9564 1369.5,-188 1384.4598,-174.2128 1397.5172,-154.939 1406.0472,-140.7782"/>
<polygon fill="#191970" stroke="#191970" points="1409.1959,-142.3258 1411.197,-131.9216 1403.1446,-138.8071 1409.1959,-142.3258"/>
</g>
<!-- Node7 -->
<g id="node8" class="node">
<title>Node7</title>
<g id="a_node8"><a xlink:href="CorsairLightingProtocolController_8h_source.html" target="_top" xlink:title="CorsairLightingProtocolController.h">
<polygon fill="#ffffff" stroke="#000000" points="479.5,-168.5 479.5,-187.5 647.5,-187.5 647.5,-168.5 479.5,-168.5"/>
<text text-anchor="middle" x="563.5" y="-175.5" font-family="Helvetica,sans-Serif" font-size="10.00" fill="#000000">CorsairLightingProtocolController.h</text>
</a>
</g>
</g>
<!-- Node0&#45;&gt;Node7 -->
<g id="edge13" class="edge">
<title>Node0&#45;&gt;Node7</title>
<path fill="none" stroke="#191970" d="M625.0688,-280.4791C589.7334,-272.1809 545.3761,-259.1246 534.5,-244 523.6275,-228.8804 535.1913,-209.0397 546.7829,-195.074"/>
<polygon fill="#191970" stroke="#191970" points="549.3961,-197.4023 553.4417,-187.6102 544.1727,-192.7423 549.3961,-197.4023"/>
</g>
<!-- Node11 -->
<g id="node12" class="node">
<title>Node11</title>
<g id="a_node12"><a xlink:href="CorsairLightingProtocolHID_8h_source.html" target="_top" xlink:title="CorsairLightingProtocolHID.h">
<polygon fill="#ffffff" stroke="#000000" points="866.5,-224.5 866.5,-243.5 1010.5,-243.5 1010.5,-224.5 866.5,-224.5"/>
<text text-anchor="middle" x="938.5" y="-231.5" font-family="Helvetica,sans-Serif" font-size="10.00" fill="#000000">CorsairLightingProtocolHID.h</text>
</a>
</g>
</g>
<!-- Node0&#45;&gt;Node11 -->
<g id="edge30" class="edge">
<title>Node0&#45;&gt;Node11</title>
<path fill="none" stroke="#191970" d="M717.0956,-280.4369C763.0785,-270.7925 834.1088,-255.8948 883.2606,-245.5858"/>
<polygon fill="#191970" stroke="#191970" points="884.0239,-249.0019 893.0925,-243.5237 882.587,-242.151 884.0239,-249.0019"/>
</g>
<!-- Node14 -->
<g id="node15" class="node">
<title>Node14</title>
<g id="a_node15"><a xlink:href="CorsairLightingProtocolSerial_8h_source.html" target="_top" xlink:title="CorsairLightingProtocolSerial.h">
<polygon fill="#ffffff" stroke="#000000" points="544,-224.5 544,-243.5 695,-243.5 695,-224.5 544,-224.5"/>
<text text-anchor="middle" x="619.5" y="-231.5" font-family="Helvetica,sans-Serif" font-size="10.00" fill="#000000">CorsairLightingProtocolSerial.h</text>
</a>
</g>
</g>
<!-- Node0&#45;&gt;Node14 -->
<g id="edge39" class="edge">
<title>Node0&#45;&gt;Node14</title>
<path fill="none" stroke="#191970" d="M662.4423,-280.2455C654.9858,-272.2155 644.2366,-260.6394 635.3583,-251.0781"/>
<polygon fill="#191970" stroke="#191970" points="637.8232,-248.589 628.4539,-243.6427 632.6937,-253.3522 637.8232,-248.589"/>
</g>
<!-- Node15 -->
<g id="node16" class="node">
<title>Node15</title>
<g id="a_node16"><a xlink:href="FanController_8h.html" target="_top" xlink:title="FanController.h">
<polygon fill="#ffffff" stroke="#000000" points="0,-168.5 0,-187.5 83,-187.5 83,-168.5 0,-168.5"/>
<text text-anchor="middle" x="41.5" y="-175.5" font-family="Helvetica,sans-Serif" font-size="10.00" fill="#000000">FanController.h</text>
</a>
</g>
</g>
<!-- Node0&#45;&gt;Node15 -->
<g id="edge43" class="edge">
<title>Node0&#45;&gt;Node15</title>
<path fill="none" stroke="#191970" d="M599.9556,-285.3948C488.6363,-277.8116 279.1991,-261.7564 206.5,-244 156.5226,-231.7933 101.6464,-207.4862 69.4576,-192.0214"/>
<polygon fill="#191970" stroke="#191970" points="70.7502,-188.7581 60.2269,-187.5291 67.687,-195.0523 70.7502,-188.7581"/>
</g>
<!-- Node16 -->
<g id="node17" class="node">
<title>Node16</title>
<g id="a_node17"><a xlink:href="FastLEDController_8h_source.html" target="_top" xlink:title="FastLEDController.h">
<polygon fill="#ffffff" stroke="#000000" points="1160.5,-224.5 1160.5,-243.5 1266.5,-243.5 1266.5,-224.5 1160.5,-224.5"/>
<text text-anchor="middle" x="1213.5" y="-231.5" font-family="Helvetica,sans-Serif" font-size="10.00" fill="#000000">FastLEDController.h</text>
</a>
</g>
</g>
<!-- Node0&#45;&gt;Node16 -->
<g id="edge46" class="edge">
<title>Node0&#45;&gt;Node16</title>
<path fill="none" stroke="#191970" d="M743.1937,-282.5925C849.8657,-271.5711 1048.6718,-251.0302 1150.2348,-240.5366"/>
<polygon fill="#191970" stroke="#191970" points="1150.7598,-244.0011 1160.3471,-239.4918 1150.0403,-237.0382 1150.7598,-244.0011"/>
</g>
<!-- Node2 -->
<g id="node3" class="node">
<title>Node2</title>
<polygon fill="#ffffff" stroke="#bfbfbf" points="805.5,-.5 805.5,-19.5 863.5,-19.5 863.5,-.5 805.5,-.5"/>
<text text-anchor="middle" x="834.5" y="-7.5" font-family="Helvetica,sans-Serif" font-size="10.00" fill="#000000">Arduino.h</text>
</g>
<!-- Node1&#45;&gt;Node2 -->
<g id="edge2" class="edge">
<title>Node1&#45;&gt;Node2</title>
<path fill="none" stroke="#191970" d="M173.4451,-168.1563C198.5472,-144.0145 267.5435,-81.9528 338.5,-56 422.2374,-25.3726 692.8804,-14.24 795.0034,-11.0679"/>
<polygon fill="#191970" stroke="#191970" points="795.3067,-14.5604 805.1967,-10.7605 795.0957,-7.5636 795.3067,-14.5604"/>
</g>
<!-- Node1&#45;&gt;Node3 -->
<g id="edge3" class="edge">
<title>Node1&#45;&gt;Node3</title>
<path fill="none" stroke="#191970" d="M225.1479,-168.4369C288.358,-158.6314 386.5742,-143.3957 453.1178,-133.0731"/>
<polygon fill="#191970" stroke="#191970" points="453.7611,-136.5153 463.1063,-131.5237 452.688,-129.598 453.7611,-136.5153"/>
</g>
<!-- Node3&#45;&gt;Node2 -->
<g id="edge4" class="edge">
<title>Node3&#45;&gt;Node2</title>
<path fill="none" stroke="#191970" d="M550.9304,-112.4509C606.524,-92.3655 735.609,-45.7284 798.6134,-22.9655"/>
<polygon fill="#191970" stroke="#191970" points="799.9208,-26.2146 808.1365,-19.5249 797.5422,-19.6311 799.9208,-26.2146"/>
</g>
<!-- Node3&#45;&gt;Node4 -->
<g id="edge5" class="edge">
<title>Node3&#45;&gt;Node4</title>
<path fill="none" stroke="#191970" d="M524.5,-112.2455C524.5,-104.9382 524.5,-94.6944 524.5,-85.7046"/>
<polygon fill="#191970" stroke="#191970" points="528.0001,-85.6426 524.5,-75.6427 521.0001,-85.6427 528.0001,-85.6426"/>
</g>
<!-- Node3&#45;&gt;Node5 -->
<g id="edge7" class="edge">
<title>Node3&#45;&gt;Node5</title>
<path fill="none" stroke="#191970" d="M577.4387,-112.4369C631.273,-102.712 714.6761,-87.6456 771.7887,-77.3285"/>
<polygon fill="#191970" stroke="#191970" points="772.5612,-80.7457 781.7797,-75.5237 771.3167,-73.8572 772.5612,-80.7457"/>
</g>
<!-- Node4&#45;&gt;Node2 -->
<g id="edge6" class="edge">
<title>Node4&#45;&gt;Node2</title>
<path fill="none" stroke="#191970" d="M577.4387,-56.4369C639.173,-45.2849 739.7912,-27.1087 795.057,-17.1252"/>
<polygon fill="#191970" stroke="#191970" points="795.9363,-20.5231 805.1549,-15.3011 794.6919,-13.6346 795.9363,-20.5231"/>
</g>
<!-- Node5&#45;&gt;Node2 -->
<g id="edge8" class="edge">
<title>Node5&#45;&gt;Node2</title>
<path fill="none" stroke="#191970" d="M834.5,-56.2455C834.5,-48.9382 834.5,-38.6944 834.5,-29.7046"/>
<polygon fill="#191970" stroke="#191970" points="838.0001,-29.6426 834.5,-19.6427 831.0001,-29.6427 838.0001,-29.6426"/>
</g>
<!-- Node6&#45;&gt;Node2 -->
<g id="edge10" class="edge">
<title>Node6&#45;&gt;Node2</title>
<path fill="none" stroke="#191970" d="M1412.7716,-112.3204C1406.4231,-97.3156 1391.9761,-68.8354 1369.5,-56 1326.7647,-31.5952 990.5392,-16.154 874.0611,-11.4933"/>
<polygon fill="#191970" stroke="#191970" points="873.9407,-7.9859 863.8103,-11.0884 873.6644,-14.9805 873.9407,-7.9859"/>
</g>
<!-- Node7&#45;&gt;Node2 -->
<g id="edge14" class="edge">
<title>Node7&#45;&gt;Node2</title>
<path fill="none" stroke="#191970" d="M479.3502,-174.2335C413.3834,-169.3069 329.2271,-157.9792 307.5,-132 301.7974,-125.1814 303.1832,-119.7703 307.5,-112 330.3792,-70.8175 352.9422,-71.2989 397.5,-56 470.7094,-30.8636 702.4475,-16.6734 795.3834,-11.8703"/>
<polygon fill="#191970" stroke="#191970" points="795.6835,-15.3596 805.493,-11.3567 795.3283,-8.3686 795.6835,-15.3596"/>
</g>
<!-- Node7&#45;&gt;Node3 -->
<g id="edge15" class="edge">
<title>Node7&#45;&gt;Node3</title>
<path fill="none" stroke="#191970" d="M556.7067,-168.2455C551.2822,-160.4564 543.5339,-149.3308 536.9967,-139.9439"/>
<polygon fill="#191970" stroke="#191970" points="539.8025,-137.8485 531.2154,-131.6427 534.0583,-141.849 539.8025,-137.8485"/>
</g>
<!-- Node7&#45;&gt;Node4 -->
<g id="edge16" class="edge">
<title>Node7&#45;&gt;Node4</title>
<path fill="none" stroke="#191970" d="M504.9833,-168.4429C483.8747,-161.8619 462.1546,-150.7523 449.5,-132 435.0695,-110.6162 462.7236,-91.8016 488.4316,-79.7889"/>
<polygon fill="#191970" stroke="#191970" points="490.0011,-82.922 497.7333,-75.6788 487.1719,-76.5191 490.0011,-82.922"/>
</g>
<!-- Node7&#45;&gt;Node5 -->
<g id="edge17" class="edge">
<title>Node7&#45;&gt;Node5</title>
<path fill="none" stroke="#191970" d="M632.425,-168.4721C686.2714,-160.1011 755.9543,-146.9472 780.5,-132 799.3783,-120.5039 814.6034,-99.9693 824.0155,-84.8485"/>
<polygon fill="#191970" stroke="#191970" points="827.2634,-86.2322 829.3411,-75.8431 821.2381,-82.6689 827.2634,-86.2322"/>
</g>
<!-- Node8 -->
<g id="node9" class="node">
<title>Node8</title>
<g id="a_node9"><a xlink:href="IFanController_8h_source.html" target="_top" xlink:title="IFanController.h">
<polygon fill="#ffffff" stroke="#000000" points="316.5,-112.5 316.5,-131.5 402.5,-131.5 402.5,-112.5 316.5,-112.5"/>
<text text-anchor="middle" x="359.5" y="-119.5" font-family="Helvetica,sans-Serif" font-size="10.00" fill="#000000">IFanController.h</text>
</a>
</g>
</g>
<!-- Node7&#45;&gt;Node8 -->
<g id="edge18" class="edge">
<title>Node7&#45;&gt;Node8</title>
<path fill="none" stroke="#191970" d="M528.4311,-168.3733C494.0685,-158.9404 441.5608,-144.5265 404.2149,-134.2747"/>
<polygon fill="#191970" stroke="#191970" points="404.681,-130.7732 394.1112,-131.5011 402.828,-137.5235 404.681,-130.7732"/>
</g>
<!-- Node9 -->
<g id="node10" class="node">
<title>Node9</title>
<g id="a_node10"><a xlink:href="ILEDController_8h_source.html" target="_top" xlink:title="ILEDController.h">
<polygon fill="#ffffff" stroke="#000000" points="1004,-112.5 1004,-131.5 1093,-131.5 1093,-112.5 1004,-112.5"/>
<text text-anchor="middle" x="1048.5" y="-119.5" font-family="Helvetica,sans-Serif" font-size="10.00" fill="#000000">ILEDController.h</text>
</a>
</g>
</g>
<!-- Node7&#45;&gt;Node9 -->
<g id="edge22" class="edge">
<title>Node7&#45;&gt;Node9</title>
<path fill="none" stroke="#191970" d="M647.7814,-171.0458C732.7357,-163.5757 867.8243,-150.4433 993.5321,-132.2035"/>
<polygon fill="#191970" stroke="#191970" points="994.3362,-135.6232 1003.7232,-130.7104 993.3214,-128.6971 994.3362,-135.6232"/>
</g>
<!-- Node10 -->
<g id="node11" class="node">
<title>Node10</title>
<g id="a_node11"><a xlink:href="ITemperatureController_8h_source.html" target="_top" xlink:title="ITemperatureController.h">
<polygon fill="#ffffff" stroke="#000000" points="647,-112.5 647,-131.5 772,-131.5 772,-112.5 647,-112.5"/>
<text text-anchor="middle" x="709.5" y="-119.5" font-family="Helvetica,sans-Serif" font-size="10.00" fill="#000000">ITemperatureController.h</text>
</a>
</g>
</g>
<!-- Node7&#45;&gt;Node10 -->
<g id="edge26" class="edge">
<title>Node7&#45;&gt;Node10</title>
<path fill="none" stroke="#191970" d="M588.5983,-168.3733C612.4555,-159.2226 648.5335,-145.3844 675.071,-135.2057"/>
<polygon fill="#191970" stroke="#191970" points="676.6459,-138.3503 684.7292,-131.5011 674.139,-131.8145 676.6459,-138.3503"/>
</g>
<!-- Node8&#45;&gt;Node2 -->
<g id="edge19" class="edge">
<title>Node8&#45;&gt;Node2</title>
<path fill="none" stroke="#191970" d="M366.3814,-112.3449C377.6572,-97.3737 401.6231,-68.9386 429.5,-56 493.9561,-26.0837 706.5417,-14.7956 795.1666,-11.32"/>
<polygon fill="#191970" stroke="#191970" points="795.4816,-14.8106 805.3417,-10.9341 795.2162,-7.8156 795.4816,-14.8106"/>
</g>
<!-- Node8&#45;&gt;Node4 -->
<g id="edge20" class="edge">
<title>Node8&#45;&gt;Node4</title>
<path fill="none" stroke="#191970" d="M387.8645,-112.3733C415.1827,-103.1016 456.6796,-89.0178 486.7738,-78.804"/>
<polygon fill="#191970" stroke="#191970" points="488.161,-82.0294 496.5056,-75.5011 485.9113,-75.4008 488.161,-82.0294"/>
</g>
<!-- Node8&#45;&gt;Node5 -->
<g id="edge21" class="edge">
<title>Node8&#45;&gt;Node5</title>
<path fill="none" stroke="#191970" d="M402.9123,-116.8819C479.8219,-107.8147 641.5098,-88.7525 743.6788,-76.7073"/>
<polygon fill="#191970" stroke="#191970" points="744.1607,-80.1749 753.6821,-75.528 743.341,-73.223 744.1607,-80.1749"/>
</g>
<!-- Node9&#45;&gt;Node2 -->
<g id="edge23" class="edge">
<title>Node9&#45;&gt;Node2</title>
<path fill="none" stroke="#191970" d="M1031.5481,-112.3425C1008.4297,-99.2489 965.6376,-75.2857 928.5,-56 907.08,-44.8765 882.5784,-32.9106 863.9613,-23.9719"/>
<polygon fill="#191970" stroke="#191970" points="865.341,-20.7521 854.8097,-19.594 862.3202,-27.0668 865.341,-20.7521"/>
</g>
<!-- Node9&#45;&gt;Node4 -->
<g id="edge24" class="edge">
<title>Node9&#45;&gt;Node4</title>
<path fill="none" stroke="#191970" d="M1003.7272,-113.2619C1000.9475,-112.8095 998.1882,-112.3841 995.5,-112 866.2133,-93.5273 715.8867,-80.2596 620.4958,-72.8553"/>
<polygon fill="#191970" stroke="#191970" points="620.5302,-69.3476 610.2909,-72.0693 619.9926,-76.327 620.5302,-69.3476"/>
</g>
<!-- Node9&#45;&gt;Node5 -->
<g id="edge25" class="edge">
<title>Node9&#45;&gt;Node5</title>
<path fill="none" stroke="#191970" d="M1011.7121,-112.3733C975.4339,-102.8799 919.8764,-88.3415 880.6554,-78.0781"/>
<polygon fill="#191970" stroke="#191970" points="881.3682,-74.6468 870.8079,-75.5011 879.596,-81.4188 881.3682,-74.6468"/>
</g>
<!-- Node10&#45;&gt;Node2 -->
<g id="edge27" class="edge">
<title>Node10&#45;&gt;Node2</title>
<path fill="none" stroke="#191970" d="M711.8482,-112.2973C715.6839,-98.2725 724.5166,-72.241 740.5,-56 755.6934,-40.5618 777.1219,-29.5264 795.6832,-22.1413"/>
<polygon fill="#191970" stroke="#191970" points="796.9516,-25.4036 805.0799,-18.608 794.4879,-18.8515 796.9516,-25.4036"/>
</g>
<!-- Node10&#45;&gt;Node4 -->
<g id="edge28" class="edge">
<title>Node10&#45;&gt;Node4</title>
<path fill="none" stroke="#191970" d="M677.6974,-112.3733C646.6683,-102.9807 599.3246,-88.6496 565.4853,-78.4064"/>
<polygon fill="#191970" stroke="#191970" points="566.4728,-75.0485 555.8876,-75.5011 564.4447,-81.7483 566.4728,-75.0485"/>
</g>
<!-- Node10&#45;&gt;Node5 -->
<g id="edge29" class="edge">
<title>Node10&#45;&gt;Node5</title>
<path fill="none" stroke="#191970" d="M730.9883,-112.3733C751.144,-103.3435 781.488,-89.7494 804.118,-79.6111"/>
<polygon fill="#191970" stroke="#191970" points="805.5971,-82.7838 813.2921,-75.5011 802.7351,-76.3955 805.5971,-82.7838"/>
</g>
<!-- Node11&#45;&gt;Node2 -->
<g id="edge31" class="edge">
<title>Node11&#45;&gt;Node2</title>
<path fill="none" stroke="#191970" d="M955.3242,-224.4311C999.8443,-199.1076 1117.3543,-132.2507 1117.5,-132 1121.9662,-124.3146 1121.5578,-119.9086 1117.5,-112 1098.0182,-74.0303 1078.4372,-73.4679 1039.5,-56 985.0433,-31.5699 916.4473,-19.5768 874.0364,-14.1027"/>
<polygon fill="#191970" stroke="#191970" points="874.1955,-10.596 863.8427,-12.8479 873.3402,-17.5435 874.1955,-10.596"/>
</g>
<!-- Node11&#45;&gt;Node4 -->
<g id="edge32" class="edge">
<title>Node11&#45;&gt;Node4</title>
<path fill="none" stroke="#191970" d="M902.8531,-224.4553C845.5862,-208.565 730.1306,-174.222 637.5,-132 620.0411,-124.042 576.4291,-97.8539 548.7754,-80.9561"/>
<polygon fill="#191970" stroke="#191970" points="550.425,-77.8621 540.0698,-75.6214 546.7676,-83.8306 550.425,-77.8621"/>
</g>
<!-- Node11&#45;&gt;Node5 -->
<g id="edge34" class="edge">
<title>Node11&#45;&gt;Node5</title>
<path fill="none" stroke="#191970" d="M936.4589,-224.3247C931.5138,-202.5673 917.2816,-148.8102 890.5,-112 881.8557,-100.1188 869.4446,-89.505 858.5023,-81.4747"/>
<polygon fill="#191970" stroke="#191970" points="860.3391,-78.488 850.1416,-75.6136 856.3208,-84.2198 860.3391,-78.488"/>
</g>
<!-- Node11&#45;&gt;Node7 -->
<g id="edge33" class="edge">
<title>Node11&#45;&gt;Node7</title>
<path fill="none" stroke="#191970" d="M874.4613,-224.4369C808.665,-214.6113 706.3556,-199.3331 637.2251,-189.0096"/>
<polygon fill="#191970" stroke="#191970" points="637.6819,-185.5391 627.2746,-187.5237 636.6479,-192.4623 637.6819,-185.5391"/>
</g>
<!-- Node12 -->
<g id="node13" class="node">
<title>Node12</title>
<g id="a_node13"><a xlink:href="RawHID_8h_source.html" target="_top" xlink:title="RawHID.h">
<polygon fill="#ffffff" stroke="#000000" points="943,-168.5 943,-187.5 1006,-187.5 1006,-168.5 943,-168.5"/>
<text text-anchor="middle" x="974.5" y="-175.5" font-family="Helvetica,sans-Serif" font-size="10.00" fill="#000000">RawHID.h</text>
</a>
</g>
</g>
<!-- Node11&#45;&gt;Node12 -->
<g id="edge35" class="edge">
<title>Node11&#45;&gt;Node12</title>
<path fill="none" stroke="#191970" d="M944.7707,-224.2455C949.7264,-216.5367 956.783,-205.5598 962.7776,-196.2348"/>
<polygon fill="#191970" stroke="#191970" points="965.8376,-197.9471 968.3011,-187.6427 959.9494,-194.1618 965.8376,-197.9471"/>
</g>
<!-- Node12&#45;&gt;Node2 -->
<g id="edge36" class="edge">
<title>Node12&#45;&gt;Node2</title>
<path fill="none" stroke="#191970" d="M1006.0425,-171.0346C1040.1429,-162.7898 1091.1578,-148.1285 1102.5,-132 1107.6132,-124.729 1107.5013,-119.3485 1102.5,-112 1075.9239,-72.9512 941.4955,-35.7485 873.7069,-19.1103"/>
<polygon fill="#191970" stroke="#191970" points="874.3607,-15.6675 863.8176,-16.713 872.7116,-22.4704 874.3607,-15.6675"/>
</g>
<!-- Node13 -->
<g id="node14" class="node">
<title>Node13</title>
<polygon fill="#ffffff" stroke="#bfbfbf" points="943,-112.5 943,-131.5 986,-131.5 986,-112.5 943,-112.5"/>
<text text-anchor="middle" x="964.5" y="-119.5" font-family="Helvetica,sans-Serif" font-size="10.00" fill="#000000">HID.h</text>
</g>
<!-- Node12&#45;&gt;Node13 -->
<g id="edge37" class="edge">
<title>Node12&#45;&gt;Node13</title>
<path fill="none" stroke="#191970" d="M972.7581,-168.2455C971.4533,-160.9382 969.624,-150.6944 968.0187,-141.7046"/>
<polygon fill="#191970" stroke="#191970" points="971.4254,-140.8717 966.2219,-131.6427 964.5344,-142.1022 971.4254,-140.8717"/>
</g>
<!-- Node14&#45;&gt;Node4 -->
<g id="edge40" class="edge">
<title>Node14&#45;&gt;Node4</title>
<path fill="none" stroke="#191970" d="M566.5716,-224.4598C485.8136,-208.6967 337.9602,-174.6726 307.5,-132 302.3357,-124.7652 301.9041,-118.9064 307.5,-112 323.1259,-92.7145 378.0362,-81.1876 428.7063,-74.4957"/>
<polygon fill="#191970" stroke="#191970" points="429.29,-77.9498 438.7709,-73.2209 428.4104,-71.0053 429.29,-77.9498"/>
</g>
<!-- Node14&#45;&gt;Node5 -->
<g id="edge42" class="edge">
<title>Node14&#45;&gt;Node5</title>
<path fill="none" stroke="#191970" d="M649.4691,-224.4668C689.8155,-210.2556 761.5932,-179.9321 805.5,-132 817.6261,-118.7622 825.2678,-99.6388 829.6436,-85.3811"/>
<polygon fill="#191970" stroke="#191970" points="833.055,-86.1775 832.3733,-75.6046 826.3129,-84.2949 833.055,-86.1775"/>
</g>
<!-- Node14&#45;&gt;Node7 -->
<g id="edge41" class="edge">
<title>Node14&#45;&gt;Node7</title>
<path fill="none" stroke="#191970" d="M609.7455,-224.2455C601.6352,-216.1352 589.9075,-204.4075 580.2919,-194.7919"/>
<polygon fill="#191970" stroke="#191970" points="582.6887,-192.2389 573.1427,-187.6427 577.7389,-197.1887 582.6887,-192.2389"/>
</g>
<!-- Node15&#45;&gt;Node2 -->
<g id="edge44" class="edge">
<title>Node15&#45;&gt;Node2</title>
<path fill="none" stroke="#191970" d="M56.354,-168.3684C94.1244,-144.436 197.6423,-82.3073 293.5,-56 388.1798,-30.016 686.9943,-15.8609 795.0331,-11.4889"/>
<polygon fill="#191970" stroke="#191970" points="795.3242,-14.9802 805.1769,-11.0847 795.0454,-7.9858 795.3242,-14.9802"/>
</g>
<!-- Node15&#45;&gt;Node8 -->
<g id="edge45" class="edge">
<title>Node15&#45;&gt;Node8</title>
<path fill="none" stroke="#191970" d="M83.2254,-169.566C86.0241,-169.0278 88.8019,-168.5013 91.5,-168 165.8444,-154.1879 252.0746,-139.6516 306.2119,-130.7045"/>
<polygon fill="#191970" stroke="#191970" points="306.9704,-134.1268 316.2675,-129.046 305.8312,-127.2201 306.9704,-134.1268"/>
</g>
<!-- Node16&#45;&gt;Node2 -->
<g id="edge48" class="edge">
<title>Node16&#45;&gt;Node2</title>
<path fill="none" stroke="#191970" d="M1253.0162,-224.442C1285.1137,-215.7844 1326.6243,-202.2371 1336.5,-188 1377.8456,-128.395 1307.8579,-82.9283 1240.5,-56 1174.3562,-29.5571 962.1155,-16.2926 873.7176,-11.8038"/>
<polygon fill="#191970" stroke="#191970" points="873.7308,-8.3002 863.5694,-11.2996 873.3834,-15.2916 873.7308,-8.3002"/>
</g>
<!-- Node17 -->
<g id="node18" class="node">
<title>Node17</title>
<polygon fill="#ffffff" stroke="#bfbfbf" points="1225.5,-112.5 1225.5,-131.5 1289.5,-131.5 1289.5,-112.5 1225.5,-112.5"/>
<text text-anchor="middle" x="1257.5" y="-119.5" font-family="Helvetica,sans-Serif" font-size="10.00" fill="#000000">FastLED.h</text>
</g>
<!-- Node16&#45;&gt;Node17 -->
<g id="edge47" class="edge">
<title>Node16&#45;&gt;Node17</title>
<path fill="none" stroke="#191970" d="M1215.5746,-224.3811C1218.5444,-211.3311 1224.5397,-187.4173 1232.5,-168 1236.3658,-158.5702 1241.6411,-148.5764 1246.3496,-140.3215"/>
<polygon fill="#191970" stroke="#191970" points="1249.4453,-141.9618 1251.4982,-131.5678 1243.4116,-138.413 1249.4453,-141.9618"/>
</g>
<!-- Node18 -->
<g id="node19" class="node">
<title>Node18</title>
<g id="a_node19"><a xlink:href="LEDController_8h.html" target="_top" xlink:title="LEDController.h">
<polygon fill="#ffffff" stroke="#000000" points="1241.5,-168.5 1241.5,-187.5 1327.5,-187.5 1327.5,-168.5 1241.5,-168.5"/>
<text text-anchor="middle" x="1284.5" y="-175.5" font-family="Helvetica,sans-Serif" font-size="10.00" fill="#000000">LEDController.h</text>
</a>
</g>
</g>
<!-- Node16&#45;&gt;Node18 -->
<g id="edge49" class="edge">
<title>Node16&#45;&gt;Node18</title>
<path fill="none" stroke="#191970" d="M1225.8673,-224.2455C1236.4554,-215.8943 1251.9064,-203.7076 1264.2893,-193.9408"/>
<polygon fill="#191970" stroke="#191970" points="1266.5903,-196.5837 1272.2745,-187.6427 1262.2553,-191.0875 1266.5903,-196.5837"/>
</g>
<!-- Node19 -->
<g id="node20" class="node">
<title>Node19</title>
<g id="a_node20"><a xlink:href="TemperatureController_8h.html" target="_top" xlink:title="TemperatureController.h">
<polygon fill="#ffffff" stroke="#000000" points="1063.5,-168.5 1063.5,-187.5 1185.5,-187.5 1185.5,-168.5 1063.5,-168.5"/>
<text text-anchor="middle" x="1124.5" y="-175.5" font-family="Helvetica,sans-Serif" font-size="10.00" fill="#000000">TemperatureController.h</text>
</a>
</g>
</g>
<!-- Node16&#45;&gt;Node19 -->
<g id="edge54" class="edge">
<title>Node16&#45;&gt;Node19</title>
<path fill="none" stroke="#191970" d="M1197.9974,-224.2455C1184.342,-215.6534 1164.2343,-203.0014 1148.5011,-193.1018"/>
<polygon fill="#191970" stroke="#191970" points="1150.1529,-190.006 1139.825,-187.6427 1146.4249,-195.9307 1150.1529,-190.006"/>
</g>
<!-- Node18&#45;&gt;Node2 -->
<g id="edge51" class="edge">
<title>Node18&#45;&gt;Node2</title>
<path fill="none" stroke="#191970" d="M1290.6043,-168.3258C1298.2897,-154.7901 1309.2621,-129.8573 1298.5,-112 1270.9973,-66.3654 1243.2917,-72.0972 1192.5,-56 1133.7591,-37.3835 953.9826,-20.222 873.8084,-13.2672"/>
<polygon fill="#191970" stroke="#191970" points="873.8946,-9.7618 863.6317,-12.393 873.2954,-16.7361 873.8946,-9.7618"/>
</g>
<!-- Node18&#45;&gt;Node6 -->
<g id="edge52" class="edge">
<title>Node18&#45;&gt;Node6</title>
<path fill="none" stroke="#191970" d="M1307.1916,-168.3733C1328.5711,-159.3032 1360.8057,-145.6279 1384.7362,-135.4755"/>
<polygon fill="#191970" stroke="#191970" points="1386.2656,-138.6287 1394.1045,-131.5011 1383.5317,-132.1846 1386.2656,-138.6287"/>
</g>
<!-- Node18&#45;&gt;Node9 -->
<g id="edge53" class="edge">
<title>Node18&#45;&gt;Node9</title>
<path fill="none" stroke="#191970" d="M1244.1983,-168.4369C1203.8936,-158.8731 1141.8179,-144.1432 1098.4182,-133.845"/>
<polygon fill="#191970" stroke="#191970" points="1099.1734,-130.4271 1088.6355,-131.5237 1097.5572,-137.238 1099.1734,-130.4271"/>
</g>
<!-- Node18&#45;&gt;Node17 -->
<g id="edge50" class="edge">
<title>Node18&#45;&gt;Node17</title>
<path fill="none" stroke="#191970" d="M1279.797,-168.2455C1276.1576,-160.6973 1271.0076,-150.0158 1266.5738,-140.8197"/>
<polygon fill="#191970" stroke="#191970" points="1269.6449,-139.1303 1262.1491,-131.6427 1263.3395,-142.1704 1269.6449,-139.1303"/>
</g>
<!-- Node19&#45;&gt;Node2 -->
<g id="edge55" class="edge">
<title>Node19&#45;&gt;Node2</title>
<path fill="none" stroke="#191970" d="M1140.118,-168.4791C1151.7472,-160.3972 1166.7332,-147.6339 1173.5,-132 1186.9171,-101.0013 1195.7208,-81.4396 1173.5,-56 1153.996,-33.6707 958.6862,-18.1896 873.6817,-12.4579"/>
<polygon fill="#191970" stroke="#191970" points="873.8516,-8.9616 863.6418,-11.7918 873.3881,-15.9462 873.8516,-8.9616"/>
</g>
<!-- Node19&#45;&gt;Node10 -->
<g id="edge56" class="edge">
<title>Node19&#45;&gt;Node10</title>
<path fill="none" stroke="#191970" d="M1063.2653,-169.737C988.3453,-159.6273 861.6651,-142.5331 781.9659,-131.7785"/>
<polygon fill="#191970" stroke="#191970" points="782.3835,-128.3032 772.0052,-130.4344 781.4473,-135.2404 782.3835,-128.3032"/>
</g>
</g>
</svg>
