<?xml version="1.0" encoding="UTF-8" standalone="no"?>
<!DOCTYPE svg PUBLIC "-//W3C//DTD SVG 1.1//EN"
 "http://www.w3.org/Graphics/SVG/1.1/DTD/svg11.dtd">
<!-- Generated by graphviz version 2.40.1 (20161225.0304)
 -->
<!-- Title: src/CorsairLightingProtocol.h Pages: 1 -->
<!--zoomable 364 -->
<svg id="main" version="1.1" xmlns="http://www.w3.org/2000/svg" xmlns:xlink="http://www.w3.org/1999/xlink" xml:space="preserve" onload="init(evt)">
<style type="text/css"><![CDATA[
.edge:hover path { stroke: red; }
.edge:hover polygon { stroke: red; fill: red; }
]]></style>
<script type="text/javascript"><![CDATA[
var edges = document.getElementsByTagName('g');
if (edges && edges.length) {
  for (var i=0;i<edges.length;i++) {
    if (edges[i].id.substr(0,4)=='edge') {
      edges[i].setAttribute('class','edge');
    }
  }
}
]]></script>
        <defs>
                <circle id="rim" cx="0" cy="0" r="7"/>
                <circle id="rim2" cx="0" cy="0" r="3.5"/>
                <g id="zoomPlus">
                        <use xlink:href="#rim" fill="#404040">
                                <set attributeName="fill" to="#808080" begin="zoomplus.mouseover" end="zoomplus.mouseout"/>
                        </use>
                        <path d="M-4,0h8M0,-4v8" fill="none" stroke="white" stroke-width="1.5" pointer-events="none"/>
                </g>
                <g id="zoomMin">
                        <use xlink:href="#rim" fill="#404040">
                                <set attributeName="fill" to="#808080" begin="zoomminus.mouseover" end="zoomminus.mouseout"/>
                        </use>
                        <path d="M-4,0h8" fill="none" stroke="white" stroke-width="1.5" pointer-events="none"/>
                </g>
                <g id="dirArrow">
                        <path fill="none" stroke="white" stroke-width="1.5" d="M0,-3.0v7 M-2.5,-0.5L0,-3.0L2.5,-0.5"/>
                </g>
               <g id="resetDef">
                       <use xlink:href="#rim2" fill="#404040">
                               <set attributeName="fill" to="#808080" begin="reset.mouseover" end="reset.mouseout"/>
                       </use>
               </g>
        </defs>

<script type="text/javascript">
var viewWidth = 1413;
var viewHeight = 364;
var sectionId = 'dynsection-0';
</script>
<script xlink:href="svgpan.js"/>
<svg id="graph" class="graph">
<g id="viewport">
<title>src/CorsairLightingProtocol.h</title>
<polygon fill="#ffffff" stroke="transparent" points="-4,4 -4,-360 1408.5,-360 1408.5,4 -4,4"/>
<!-- Node0 -->
<g id="node1" class="node">
<title>Node0</title>
<polygon fill="#bfbfbf" stroke="#000000" points="670.5,-336.5 670.5,-355.5 813.5,-355.5 813.5,-336.5 670.5,-336.5"/>
<text text-anchor="middle" x="742" y="-343.5" font-family="Helvetica,sans-Serif" font-size="10.00" fill="#000000">src/CorsairLightingProtocol.h</text>
</g>
<!-- Node1 -->
<g id="node2" class="node">
<title>Node1</title>
<g id="a_node2"><a xlink:href="CorsairLightingFirmware_8h_source.html" target="_top" xlink:title="CorsairLightingFirmware.h">
<polygon fill="#ffffff" stroke="#000000" points="99.5,-112.5 99.5,-131.5 230.5,-131.5 230.5,-112.5 99.5,-112.5"/>
<text text-anchor="middle" x="165" y="-119.5" font-family="Helvetica,sans-Serif" font-size="10.00" fill="#000000">CorsairLightingFirmware.h</text>
</a>
</g>
</g>
<!-- Node0&#45;&gt;Node1 -->
<g id="edge1" class="edge">
<title>Node0&#45;&gt;Node1</title>
<path fill="none" stroke="#191970" d="M670.4017,-343.1391C568.6045,-338.2117 387.7507,-326.0339 328,-300 258.0849,-269.5374 244.8574,-248.1705 198,-188 186.8353,-173.6631 177.9117,-154.9516 172.1734,-141.1147"/>
<polygon fill="#191970" stroke="#191970" points="175.3566,-139.6468 168.4218,-131.6369 168.848,-142.2231 175.3566,-139.6468"/>
</g>
<!-- Node3 -->
<g id="node4" class="node">
<title>Node3</title>
<g id="a_node4"><a xlink:href="CorsairLightingProtocolResponse_8h_source.html" target="_top" xlink:title="CorsairLightingProtocolResponse.h">
<polygon fill="#ffffff" stroke="#000000" points="207,-56.5 207,-75.5 377,-75.5 377,-56.5 207,-56.5"/>
<text text-anchor="middle" x="292" y="-63.5" font-family="Helvetica,sans-Serif" font-size="10.00" fill="#000000">CorsairLightingProtocolResponse.h</text>
</a>
</g>
</g>
<!-- Node0&#45;&gt;Node3 -->
<g id="edge48" class="edge">
<title>Node0&#45;&gt;Node3</title>
<path fill="none" stroke="#191970" d="M670.4699,-343.7842C533.3298,-339.0014 238.2985,-325.9809 140,-300 73.4939,-282.422 0,-302.7899 0,-234 0,-234 0,-234 0,-178 0,-128.3971 44.8782,-132.6025 90,-112 126.6353,-95.2724 169.8677,-84.3775 206.9174,-77.4131"/>
<polygon fill="#191970" stroke="#191970" points="207.9769,-80.7782 217.1927,-75.5515 206.7289,-73.8904 207.9769,-80.7782"/>
</g>
<!-- Node4 -->
<g id="node5" class="node">
<title>Node4</title>
<g id="a_node5"><a xlink:href="CorsairLightingProtocolConstants_8h_source.html" target="_top" xlink:title="CorsairLightingProtocolConstants.h">
<polygon fill="#ffffff" stroke="#000000" points="505.5,-56.5 505.5,-75.5 676.5,-75.5 676.5,-56.5 505.5,-56.5"/>
<text text-anchor="middle" x="591" y="-63.5" font-family="Helvetica,sans-Serif" font-size="10.00" fill="#000000">CorsairLightingProtocolConstants.h</text>
</a>
</g>
</g>
<!-- Node0&#45;&gt;Node4 -->
<g id="edge45" class="edge">
<title>Node0&#45;&gt;Node4</title>
<path fill="none" stroke="#191970" d="M813.8751,-337.6223C860.6142,-330.5258 915.4783,-318.5032 930,-300 935.4879,-293.0075 931.5171,-288.7585 930,-280 922.9564,-239.336 862.9849,-113.5519 861,-112 834.2321,-91.0719 753.2054,-79.1744 686.8428,-72.7469"/>
<polygon fill="#191970" stroke="#191970" points="687.0311,-69.2493 676.7479,-71.7998 686.3772,-76.2187 687.0311,-69.2493"/>
</g>
<!-- Node5 -->
<g id="node6" class="node">
<title>Node5</title>
<g id="a_node6"><a xlink:href="CorsairLightingNodePRO_8h_source.html" target="_top" xlink:title="CorsairLightingNodePRO.h">
<polygon fill="#ffffff" stroke="#000000" points="770.5,-280.5 770.5,-299.5 905.5,-299.5 905.5,-280.5 770.5,-280.5"/>
<text text-anchor="middle" x="838" y="-287.5" font-family="Helvetica,sans-Serif" font-size="10.00" fill="#000000">CorsairLightingNodePRO.h</text>
</a>
</g>
</g>
<!-- Node0&#45;&gt;Node5 -->
<g id="edge7" class="edge">
<title>Node0&#45;&gt;Node5</title>
<path fill="none" stroke="#191970" d="M758.7219,-336.2455C773.5889,-327.5731 795.5466,-314.7645 812.5858,-304.825"/>
<polygon fill="#191970" stroke="#191970" points="814.5955,-307.7047 821.4697,-299.6427 811.0683,-301.6582 814.5955,-307.7047"/>
</g>
<!-- Node6 -->
<g id="node7" class="node">
<title>Node6</title>
<g id="a_node7"><a xlink:href="FastLEDController_8h_source.html" target="_top" xlink:title="FastLEDController.h">
<polygon fill="#ffffff" stroke="#000000" points="1050,-224.5 1050,-243.5 1156,-243.5 1156,-224.5 1050,-224.5"/>
<text text-anchor="middle" x="1103" y="-231.5" font-family="Helvetica,sans-Serif" font-size="10.00" fill="#000000">FastLEDController.h</text>
</a>
</g>
</g>
<!-- Node0&#45;&gt;Node6 -->
<g id="edge59" class="edge">
<title>Node0&#45;&gt;Node6</title>
<path fill="none" stroke="#191970" d="M813.6894,-338.6693C884.5555,-330.6473 987.5144,-316.6818 1024,-300 1049.1904,-288.4825 1072.8348,-266.7204 1087.5724,-251.3393"/>
<polygon fill="#191970" stroke="#191970" points="1090.1822,-253.6725 1094.4284,-243.9657 1085.0558,-248.9059 1090.1822,-253.6725"/>
</g>
<!-- Node8 -->
<g id="node9" class="node">
<title>Node8</title>
<g id="a_node9"><a xlink:href="LEDController_8h.html" target="_top" xlink:title="LEDController.h">
<polygon fill="#ffffff" stroke="#000000" points="1203,-168.5 1203,-187.5 1289,-187.5 1289,-168.5 1203,-168.5"/>
<text text-anchor="middle" x="1246" y="-175.5" font-family="Helvetica,sans-Serif" font-size="10.00" fill="#000000">LEDController.h</text>
</a>
</g>
</g>
<!-- Node0&#45;&gt;Node8 -->
<g id="edge58" class="edge">
<title>Node0&#45;&gt;Node8</title>
<path fill="none" stroke="#191970" d="M813.529,-341.866C877.5092,-336.6634 973.2221,-325.1376 1053,-300 1106.0806,-283.2746 1118.2563,-274.2044 1165,-244 1188.094,-229.0774 1212.2373,-208.6876 1228.091,-194.5365"/>
<polygon fill="#191970" stroke="#191970" points="1230.5071,-197.0705 1235.5764,-187.7671 1225.8118,-191.8787 1230.5071,-197.0705"/>
</g>
<!-- Node9 -->
<g id="node10" class="node">
<title>Node9</title>
<g id="a_node10"><a xlink:href="ILEDController_8h_source.html" target="_top" xlink:title="ILEDController.h">
<polygon fill="#ffffff" stroke="#000000" points="762.5,-112.5 762.5,-131.5 851.5,-131.5 851.5,-112.5 762.5,-112.5"/>
<text text-anchor="middle" x="807" y="-119.5" font-family="Helvetica,sans-Serif" font-size="10.00" fill="#000000">ILEDController.h</text>
</a>
</g>
</g>
<!-- Node0&#45;&gt;Node9 -->
<g id="edge57" class="edge">
<title>Node0&#45;&gt;Node9</title>
<path fill="none" stroke="#191970" d="M810.5164,-336.444C853.0352,-328.9518 901.9768,-316.9386 915,-300 937.1115,-271.2409 858.1537,-178.1511 823.0246,-139.2908"/>
<polygon fill="#191970" stroke="#191970" points="825.5725,-136.8905 816.2458,-131.8642 820.4024,-141.6097 825.5725,-136.8905"/>
</g>
<!-- Node10 -->
<g id="node11" class="node">
<title>Node10</title>
<g id="a_node11"><a xlink:href="CLPUtils_8h_source.html" target="_top" xlink:title="CLPUtils.h">
<polygon fill="#ffffff" stroke="#000000" points="1339.5,-112.5 1339.5,-131.5 1404.5,-131.5 1404.5,-112.5 1339.5,-112.5"/>
<text text-anchor="middle" x="1372" y="-119.5" font-family="Helvetica,sans-Serif" font-size="10.00" fill="#000000">CLPUtils.h</text>
</a>
</g>
</g>
<!-- Node0&#45;&gt;Node10 -->
<g id="edge68" class="edge">
<title>Node0&#45;&gt;Node10</title>
<path fill="none" stroke="#191970" d="M813.7206,-342.9331C969.7833,-335.9372 1327.8076,-318.0081 1347,-300 1390.9281,-258.7826 1382.8241,-178.5199 1376.1797,-141.529"/>
<polygon fill="#191970" stroke="#191970" points="1379.5783,-140.6715 1374.2237,-131.5294 1372.7085,-142.0153 1379.5783,-140.6715"/>
</g>
<!-- Node11 -->
<g id="node12" class="node">
<title>Node11</title>
<g id="a_node12"><a xlink:href="TemperatureController_8h.html" target="_top" xlink:title="TemperatureController.h">
<polygon fill="#ffffff" stroke="#000000" points="949,-168.5 949,-187.5 1071,-187.5 1071,-168.5 949,-168.5"/>
<text text-anchor="middle" x="1010" y="-175.5" font-family="Helvetica,sans-Serif" font-size="10.00" fill="#000000">TemperatureController.h</text>
</a>
</g>
</g>
<!-- Node0&#45;&gt;Node11 -->
<g id="edge61" class="edge">
<title>Node0&#45;&gt;Node11</title>
<path fill="none" stroke="#191970" d="M813.6808,-341.267C876.7456,-335.5827 962.1307,-323.6814 986,-300 1013.2195,-272.9947 1014.2208,-224.7308 1012.2827,-197.7097"/>
<polygon fill="#191970" stroke="#191970" points="1015.7493,-197.1874 1011.3399,-187.5537 1008.7793,-197.8344 1015.7493,-197.1874"/>
</g>
<!-- Node12 -->
<g id="node13" class="node">
<title>Node12</title>
<g id="a_node13"><a xlink:href="ITemperatureController_8h_source.html" target="_top" xlink:title="ITemperatureController.h">
<polygon fill="#ffffff" stroke="#000000" points="619.5,-112.5 619.5,-131.5 744.5,-131.5 744.5,-112.5 619.5,-112.5"/>
<text text-anchor="middle" x="682" y="-119.5" font-family="Helvetica,sans-Serif" font-size="10.00" fill="#000000">ITemperatureController.h</text>
</a>
</g>
</g>
<!-- Node0&#45;&gt;Node12 -->
<g id="edge60" class="edge">
<title>Node0&#45;&gt;Node12</title>
<path fill="none" stroke="#191970" d="M737.6092,-336.2714C726.8326,-311.8971 699.079,-246.0075 687,-188 683.8112,-172.6861 682.5999,-154.997 682.1646,-141.7886"/>
<polygon fill="#191970" stroke="#191970" points="685.6581,-141.4323 681.9518,-131.5069 678.6596,-141.5772 685.6581,-141.4323"/>
</g>
<!-- Node13 -->
<g id="node14" class="node">
<title>Node13</title>
<g id="a_node14"><a xlink:href="CorsairLightingProtocolController_8h_source.html" target="_top" xlink:title="CorsairLightingProtocolController.h">
<polygon fill="#ffffff" stroke="#000000" points="401,-168.5 401,-187.5 569,-187.5 569,-168.5 401,-168.5"/>
<text text-anchor="middle" x="485" y="-175.5" font-family="Helvetica,sans-Serif" font-size="10.00" fill="#000000">CorsairLightingProtocolController.h</text>
</a>
</g>
</g>
<!-- Node0&#45;&gt;Node13 -->
<g id="edge46" class="edge">
<title>Node0&#45;&gt;Node13</title>
<path fill="none" stroke="#191970" d="M670.4063,-339.2115C609.7244,-329.2482 526.19,-304.6633 485,-244 475.9596,-230.6856 476.8391,-212.1142 479.4748,-198.062"/>
<polygon fill="#191970" stroke="#191970" points="482.9705,-198.4791 481.8091,-187.9481 476.1498,-196.9048 482.9705,-198.4791"/>
</g>
<!-- Node14 -->
<g id="node15" class="node">
<title>Node14</title>
<g id="a_node15"><a xlink:href="IFanController_8h_source.html" target="_top" xlink:title="IFanController.h">
<polygon fill="#ffffff" stroke="#000000" points="401,-112.5 401,-131.5 487,-131.5 487,-112.5 401,-112.5"/>
<text text-anchor="middle" x="444" y="-119.5" font-family="Helvetica,sans-Serif" font-size="10.00" fill="#000000">IFanController.h</text>
</a>
</g>
</g>
<!-- Node0&#45;&gt;Node14 -->
<g id="edge53" class="edge">
<title>Node0&#45;&gt;Node14</title>
<path fill="none" stroke="#191970" d="M670.2912,-341.8804C551.1123,-333.2617 321.057,-308.4751 278,-244 242.7215,-191.1726 336.3003,-152.9229 396.9161,-134.4517"/>
<polygon fill="#191970" stroke="#191970" points="398.1113,-137.7481 406.7052,-131.5516 396.1229,-131.0364 398.1113,-137.7481"/>
</g>
<!-- Node15 -->
<g id="node16" class="node">
<title>Node15</title>
<g id="a_node16"><a xlink:href="CorsairLightingProtocolHID_8h_source.html" target="_top" xlink:title="CorsairLightingProtocolHID.h">
<polygon fill="#ffffff" stroke="#000000" points="494,-224.5 494,-243.5 638,-243.5 638,-224.5 494,-224.5"/>
<text text-anchor="middle" x="566" y="-231.5" font-family="Helvetica,sans-Serif" font-size="10.00" fill="#000000">CorsairLightingProtocolHID.h</text>
</a>
</g>
</g>
<!-- Node0&#45;&gt;Node15 -->
<g id="edge47" class="edge">
<title>Node0&#45;&gt;Node15</title>
<path fill="none" stroke="#191970" d="M726.9943,-336.4509C696.3408,-316.9441 626.3322,-272.3932 589.5571,-248.9909"/>
<polygon fill="#191970" stroke="#191970" points="591.2834,-245.9409 580.9677,-243.5249 587.5252,-251.8465 591.2834,-245.9409"/>
</g>
<!-- Node16 -->
<g id="node17" class="node">
<title>Node16</title>
<g id="a_node17"><a xlink:href="CorsairLightingProtocolSerial_8h_source.html" target="_top" xlink:title="CorsairLightingProtocolSerial.h">
<polygon fill="#ffffff" stroke="#000000" points="286.5,-224.5 286.5,-243.5 437.5,-243.5 437.5,-224.5 286.5,-224.5"/>
<text text-anchor="middle" x="362" y="-231.5" font-family="Helvetica,sans-Serif" font-size="10.00" fill="#000000">CorsairLightingProtocolSerial.h</text>
</a>
</g>
</g>
<!-- Node0&#45;&gt;Node16 -->
<g id="edge49" class="edge">
<title>Node0&#45;&gt;Node16</title>
<path fill="none" stroke="#191970" d="M670.1725,-338.5286C597.4301,-330.2654 490.3463,-315.9884 452,-300 423.8748,-288.2733 396.3404,-266.0469 379.285,-250.6466"/>
<polygon fill="#191970" stroke="#191970" points="381.5122,-247.9388 371.7975,-243.7107 376.7552,-253.0741 381.5122,-247.9388"/>
</g>
<!-- Node17 -->
<g id="node18" class="node">
<title>Node17</title>
<g id="a_node18"><a xlink:href="FanController_8h.html" target="_top" xlink:title="FanController.h">
<polygon fill="#ffffff" stroke="#000000" points="695.5,-168.5 695.5,-187.5 778.5,-187.5 778.5,-168.5 695.5,-168.5"/>
<text text-anchor="middle" x="737" y="-175.5" font-family="Helvetica,sans-Serif" font-size="10.00" fill="#000000">FanController.h</text>
</a>
</g>
</g>
<!-- Node0&#45;&gt;Node17 -->
<g id="edge54" class="edge">
<title>Node0&#45;&gt;Node17</title>
<path fill="none" stroke="#191970" d="M741.7169,-336.4862C740.9265,-309.9293 738.6835,-234.5651 737.6002,-198.1655"/>
<polygon fill="#191970" stroke="#191970" points="741.0885,-197.7193 737.2925,-187.8279 734.0916,-197.9276 741.0885,-197.7193"/>
</g>
<!-- Node18 -->
<g id="node19" class="node">
<title>Node18</title>
<g id="a_node19"><a xlink:href="FastLEDControllerUtils_8h_source.html" target="_top" xlink:title="FastLEDControllerUtils.h">
<polygon fill="#ffffff" stroke="#000000" points="1212,-280.5 1212,-299.5 1338,-299.5 1338,-280.5 1212,-280.5"/>
<text text-anchor="middle" x="1275" y="-287.5" font-family="Helvetica,sans-Serif" font-size="10.00" fill="#000000">FastLEDControllerUtils.h</text>
</a>
</g>
</g>
<!-- Node0&#45;&gt;Node18 -->
<g id="edge62" class="edge">
<title>Node0&#45;&gt;Node18</title>
<path fill="none" stroke="#191970" d="M813.5464,-339.421C903.3955,-331.0121 1062.2414,-315.6597 1198,-300 1199.2806,-299.8523 1200.5729,-299.7017 1201.8743,-299.5485"/>
<polygon fill="#191970" stroke="#191970" points="1202.4752,-303.0016 1211.9859,-298.3328 1201.6396,-296.0516 1202.4752,-303.0016"/>
</g>
<!-- Node19 -->
<g id="node20" class="node">
<title>Node19</title>
<g id="a_node20"><a xlink:href="CLPAdditionalFeatures_8h_source.html" target="_top" xlink:title="CLPAdditionalFeatures.h">
<polygon fill="#ffffff" stroke="#000000" points="28.5,-168.5 28.5,-187.5 153.5,-187.5 153.5,-168.5 28.5,-168.5"/>
<text text-anchor="middle" x="91" y="-175.5" font-family="Helvetica,sans-Serif" font-size="10.00" fill="#000000">CLPAdditionalFeatures.h</text>
</a>
</g>
</g>
<!-- Node0&#45;&gt;Node19 -->
<g id="edge65" class="edge">
<title>Node0&#45;&gt;Node19</title>
<path fill="none" stroke="#191970" d="M670.4774,-343.8281C526.1239,-338.9324 210.0517,-325.4293 168,-300 129.2308,-276.5557 106.8053,-225.3298 96.9835,-197.289"/>
<polygon fill="#191970" stroke="#191970" points="100.3005,-196.1718 93.8285,-187.7835 93.6569,-198.3769 100.3005,-196.1718"/>
</g>
<!-- Node2 -->
<g id="node3" class="node">
<title>Node2</title>
<polygon fill="#ffffff" stroke="#bfbfbf" points="861,-.5 861,-19.5 919,-19.5 919,-.5 861,-.5"/>
<text text-anchor="middle" x="890" y="-7.5" font-family="Helvetica,sans-Serif" font-size="10.00" fill="#000000">Arduino.h</text>
</g>
<!-- Node1&#45;&gt;Node2 -->
<g id="edge2" class="edge">
<title>Node1&#45;&gt;Node2</title>
<path fill="none" stroke="#191970" d="M166.7046,-112.3716C169.9107,-97.4369 178.3708,-69.051 198,-56 252.4174,-19.8192 712.1888,-11.9221 850.68,-10.3574"/>
<polygon fill="#191970" stroke="#191970" points="850.8754,-13.8556 860.837,-10.2477 850.7997,-6.856 850.8754,-13.8556"/>
</g>
<!-- Node1&#45;&gt;Node3 -->
<g id="edge3" class="edge">
<title>Node1&#45;&gt;Node3</title>
<path fill="none" stroke="#191970" d="M186.8321,-112.3733C207.3103,-103.3435 238.1399,-89.7494 261.1319,-79.6111"/>
<polygon fill="#191970" stroke="#191970" points="262.715,-82.7383 270.4528,-75.5011 259.8907,-76.3333 262.715,-82.7383"/>
</g>
<!-- Node1&#45;&gt;Node4 -->
<g id="edge5" class="edge">
<title>Node1&#45;&gt;Node4</title>
<path fill="none" stroke="#191970" d="M230.6289,-113.3727C305.2725,-103.5604 427.2765,-87.5223 508.3483,-76.865"/>
<polygon fill="#191970" stroke="#191970" points="509.0606,-80.3016 518.5191,-75.528 508.1482,-73.3613 509.0606,-80.3016"/>
</g>
<!-- Node3&#45;&gt;Node2 -->
<g id="edge4" class="edge">
<title>Node3&#45;&gt;Node2</title>
<path fill="none" stroke="#191970" d="M377.0508,-57.3605C381.7692,-56.8963 386.4433,-56.4402 391,-56 562.0715,-39.4753 766.2688,-21.0615 850.5946,-13.5146"/>
<polygon fill="#191970" stroke="#191970" points="851.0961,-16.9838 860.7446,-12.6068 850.4725,-10.0116 851.0961,-16.9838"/>
</g>
<!-- Node4&#45;&gt;Node2 -->
<g id="edge6" class="edge">
<title>Node4&#45;&gt;Node2</title>
<path fill="none" stroke="#191970" d="M642.0602,-56.4369C701.1674,-45.3666 797.2309,-27.3748 850.7772,-17.3461"/>
<polygon fill="#191970" stroke="#191970" points="851.7113,-20.7321 860.8961,-15.4509 850.4226,-13.8517 851.7113,-20.7321"/>
</g>
<!-- Node5&#45;&gt;Node1 -->
<g id="edge9" class="edge">
<title>Node5&#45;&gt;Node1</title>
<path fill="none" stroke="#191970" d="M770.4213,-287.1927C631.0998,-281.0094 321.311,-265.0723 278,-244 253.4267,-232.0442 203.4019,-171.0538 179.0067,-140.0893"/>
<polygon fill="#191970" stroke="#191970" points="181.4984,-137.594 172.5807,-131.8734 175.9846,-141.9065 181.4984,-137.594"/>
</g>
<!-- Node5&#45;&gt;Node2 -->
<g id="edge8" class="edge">
<title>Node5&#45;&gt;Node2</title>
<path fill="none" stroke="#191970" d="M843.3576,-280.1525C859.1124,-250.4481 904.8206,-158.6883 915,-76 916.0861,-67.1777 917.1898,-64.6149 915,-56 912.5215,-46.2493 907.5127,-36.3309 902.6249,-28.2128"/>
<polygon fill="#191970" stroke="#191970" points="905.4556,-26.1437 897.1015,-19.6276 899.5687,-29.9312 905.4556,-26.1437"/>
</g>
<!-- Node5&#45;&gt;Node6 -->
<g id="edge10" class="edge">
<title>Node5&#45;&gt;Node6</title>
<path fill="none" stroke="#191970" d="M883.254,-280.4369C928.7973,-270.8127 999.0965,-255.957 1047.8686,-245.6504"/>
<polygon fill="#191970" stroke="#191970" points="1048.8724,-249.0157 1057.9326,-243.5237 1047.425,-242.1669 1048.8724,-249.0157"/>
</g>
<!-- Node7 -->
<g id="node8" class="node">
<title>Node7</title>
<polygon fill="#ffffff" stroke="#bfbfbf" points="1083,-112.5 1083,-131.5 1147,-131.5 1147,-112.5 1083,-112.5"/>
<text text-anchor="middle" x="1115" y="-119.5" font-family="Helvetica,sans-Serif" font-size="10.00" fill="#000000">FastLED.h</text>
</g>
<!-- Node5&#45;&gt;Node7 -->
<g id="edge44" class="edge">
<title>Node5&#45;&gt;Node7</title>
<path fill="none" stroke="#191970" d="M884.0951,-280.4579C936.9285,-267.4766 1023.4898,-239.7075 1080,-188 1093.8596,-175.3183 1103.2401,-155.8589 1108.7733,-141.3511"/>
<polygon fill="#191970" stroke="#191970" points="1112.1059,-142.4248 1112.1314,-131.83 1105.5044,-140.0964 1112.1059,-142.4248"/>
</g>
<!-- Node5&#45;&gt;Node13 -->
<g id="edge28" class="edge">
<title>Node5&#45;&gt;Node13</title>
<path fill="none" stroke="#191970" d="M811.8932,-280.4581C775.2548,-267.1864 706.4052,-242.6817 647,-224 607.9493,-211.7194 563.1546,-199.1118 530.5806,-190.2085"/>
<polygon fill="#191970" stroke="#191970" points="531.4519,-186.8184 520.8837,-187.5688 529.6132,-193.5726 531.4519,-186.8184"/>
</g>
<!-- Node5&#45;&gt;Node15 -->
<g id="edge39" class="edge">
<title>Node5&#45;&gt;Node15</title>
<path fill="none" stroke="#191970" d="M791.5506,-280.4369C744.7065,-270.7925 672.3461,-255.8948 622.2738,-245.5858"/>
<polygon fill="#191970" stroke="#191970" points="622.7582,-242.1122 612.2578,-243.5237 621.3466,-248.9684 622.7582,-242.1122"/>
</g>
<!-- Node6&#45;&gt;Node2 -->
<g id="edge11" class="edge">
<title>Node6&#45;&gt;Node2</title>
<path fill="none" stroke="#191970" d="M1113.4697,-224.258C1135.2236,-202.815 1181.2621,-150.3884 1156,-112 1130.2036,-72.7997 996.4979,-35.6701 929.0311,-19.0798"/>
<polygon fill="#191970" stroke="#191970" points="929.7316,-15.6483 919.1881,-16.6897 928.0798,-22.4506 929.7316,-15.6483"/>
</g>
<!-- Node6&#45;&gt;Node7 -->
<g id="edge12" class="edge">
<title>Node6&#45;&gt;Node7</title>
<path fill="none" stroke="#191970" d="M1105.6743,-224.2192C1108.0727,-214.9677 1111.4462,-200.6543 1113,-188 1114.8802,-172.6875 1115.3363,-155.2349 1115.346,-142.1241"/>
<polygon fill="#191970" stroke="#191970" points="1118.844,-141.8546 1115.2641,-131.8829 1111.8442,-141.9106 1118.844,-141.8546"/>
</g>
<!-- Node6&#45;&gt;Node8 -->
<g id="edge13" class="edge">
<title>Node6&#45;&gt;Node8</title>
<path fill="none" stroke="#191970" d="M1127.5826,-224.3733C1150.9496,-215.2226 1186.2862,-201.3844 1212.2784,-191.2057"/>
<polygon fill="#191970" stroke="#191970" points="1213.703,-194.4066 1221.7382,-187.5011 1211.1505,-187.8886 1213.703,-194.4066"/>
</g>
<!-- Node6&#45;&gt;Node11 -->
<g id="edge22" class="edge">
<title>Node6&#45;&gt;Node11</title>
<path fill="none" stroke="#191970" d="M1086.8006,-224.2455C1072.3982,-215.5731 1051.1268,-202.7645 1034.6201,-192.825"/>
<polygon fill="#191970" stroke="#191970" points="1036.386,-189.8028 1026.0137,-187.6427 1032.775,-195.7996 1036.386,-189.8028"/>
</g>
<!-- Node8&#45;&gt;Node2 -->
<g id="edge14" class="edge">
<title>Node8&#45;&gt;Node2</title>
<path fill="none" stroke="#191970" d="M1244.6237,-168.4843C1240.699,-145.0911 1227.1624,-84.6029 1189,-56 1148.7259,-25.8143 1001.162,-15.0435 929.5332,-11.5362"/>
<polygon fill="#191970" stroke="#191970" points="929.2792,-8.0207 919.1272,-11.0519 928.9536,-15.0131 929.2792,-8.0207"/>
</g>
<!-- Node8&#45;&gt;Node7 -->
<g id="edge15" class="edge">
<title>Node8&#45;&gt;Node7</title>
<path fill="none" stroke="#191970" d="M1223.4803,-168.3733C1202.2628,-159.3032 1170.2724,-145.6279 1146.5231,-135.4755"/>
<polygon fill="#191970" stroke="#191970" points="1147.7967,-132.2136 1137.2258,-131.5011 1145.0452,-138.6502 1147.7967,-132.2136"/>
</g>
<!-- Node8&#45;&gt;Node9 -->
<g id="edge16" class="edge">
<title>Node8&#45;&gt;Node9</title>
<path fill="none" stroke="#191970" d="M1202.7056,-172.4772C1122.2842,-162.2185 950.013,-140.2431 861.6858,-128.9759"/>
<polygon fill="#191970" stroke="#191970" points="861.9624,-125.4829 851.5999,-127.6893 861.0766,-132.4266 861.9624,-125.4829"/>
</g>
<!-- Node8&#45;&gt;Node10 -->
<g id="edge20" class="edge">
<title>Node8&#45;&gt;Node10</title>
<path fill="none" stroke="#191970" d="M1267.6602,-168.3733C1287.9772,-159.3435 1318.564,-145.7494 1341.375,-135.6111"/>
<polygon fill="#191970" stroke="#191970" points="1342.9059,-138.7609 1350.6225,-131.5011 1340.0628,-132.3642 1342.9059,-138.7609"/>
</g>
<!-- Node9&#45;&gt;Node2 -->
<g id="edge17" class="edge">
<title>Node9&#45;&gt;Node2</title>
<path fill="none" stroke="#191970" d="M814.0765,-112.4509C827.9812,-93.688 859.0567,-51.7548 876.8401,-27.758"/>
<polygon fill="#191970" stroke="#191970" points="879.7994,-29.6431 882.9414,-19.5249 874.1753,-25.4753 879.7994,-29.6431"/>
</g>
<!-- Node9&#45;&gt;Node3 -->
<g id="edge18" class="edge">
<title>Node9&#45;&gt;Node3</title>
<path fill="none" stroke="#191970" d="M762.2264,-113.2679C759.4468,-112.814 756.6878,-112.3866 754,-112 627.7547,-93.8404 481.0669,-80.5555 387.4399,-73.057"/>
<polygon fill="#191970" stroke="#191970" points="387.6662,-69.564 377.4203,-72.2604 387.1114,-76.542 387.6662,-69.564"/>
</g>
<!-- Node9&#45;&gt;Node4 -->
<g id="edge19" class="edge">
<title>Node9&#45;&gt;Node4</title>
<path fill="none" stroke="#191970" d="M769.8683,-112.3733C733.1733,-102.8598 676.9361,-88.2797 637.3349,-78.0127"/>
<polygon fill="#191970" stroke="#191970" points="638.2056,-74.6228 627.6472,-75.5011 636.4488,-81.3988 638.2056,-74.6228"/>
</g>
<!-- Node10&#45;&gt;Node2 -->
<g id="edge21" class="edge">
<title>Node10&#45;&gt;Node2</title>
<path fill="none" stroke="#191970" d="M1368.2415,-112.3725C1361.8518,-97.4391 1347.3493,-69.0549 1325,-56 1291.196,-36.2541 1029.6224,-18.4734 929.1383,-12.3031"/>
<polygon fill="#191970" stroke="#191970" points="929.2867,-8.8057 919.0926,-11.692 928.8617,-15.7928 929.2867,-8.8057"/>
</g>
<!-- Node11&#45;&gt;Node2 -->
<g id="edge23" class="edge">
<title>Node11&#45;&gt;Node2</title>
<path fill="none" stroke="#191970" d="M1013.1294,-168.3662C1019.6799,-146.2289 1032.313,-90.9545 1008,-56 998.5811,-42.4585 959.6697,-28.989 929.0717,-20.1587"/>
<polygon fill="#191970" stroke="#191970" points="929.6422,-16.6835 919.0683,-17.3484 927.749,-23.4226 929.6422,-16.6835"/>
</g>
<!-- Node11&#45;&gt;Node12 -->
<g id="edge24" class="edge">
<title>Node11&#45;&gt;Node12</title>
<path fill="none" stroke="#191970" d="M953.9875,-168.4369C896.9094,-158.6918 808.4158,-143.5832 747.9776,-133.2645"/>
<polygon fill="#191970" stroke="#191970" points="748.2279,-129.7566 737.7815,-131.5237 747.0498,-136.6568 748.2279,-129.7566"/>
</g>
<!-- Node12&#45;&gt;Node2 -->
<g id="edge25" class="edge">
<title>Node12&#45;&gt;Node2</title>
<path fill="none" stroke="#191970" d="M699.734,-112.4509C736.2679,-92.7788 820.104,-47.6363 863.2563,-24.4005"/>
<polygon fill="#191970" stroke="#191970" points="865.1656,-27.3476 872.3109,-19.5249 861.8468,-21.1843 865.1656,-27.3476"/>
</g>
<!-- Node12&#45;&gt;Node3 -->
<g id="edge26" class="edge">
<title>Node12&#45;&gt;Node3</title>
<path fill="none" stroke="#191970" d="M619.3398,-113.0026C551.0647,-103.199 441.8074,-87.5108 368.5156,-76.9869"/>
<polygon fill="#191970" stroke="#191970" points="368.8165,-73.4942 358.4205,-75.5373 367.8215,-80.4232 368.8165,-73.4942"/>
</g>
<!-- Node12&#45;&gt;Node4 -->
<g id="edge27" class="edge">
<title>Node12&#45;&gt;Node4</title>
<path fill="none" stroke="#191970" d="M666.149,-112.2455C652.1868,-103.6534 631.6272,-91.0014 615.5404,-81.1018"/>
<polygon fill="#191970" stroke="#191970" points="617.0203,-77.9029 606.6693,-75.6427 613.3516,-83.8645 617.0203,-77.9029"/>
</g>
<!-- Node13&#45;&gt;Node1 -->
<g id="edge30" class="edge">
<title>Node13&#45;&gt;Node1</title>
<path fill="none" stroke="#191970" d="M430.3536,-168.4369C374.6677,-158.6918 288.3325,-143.5832 229.3684,-133.2645"/>
<polygon fill="#191970" stroke="#191970" points="229.8746,-129.7999 219.421,-131.5237 228.6679,-136.6952 229.8746,-129.7999"/>
</g>
<!-- Node13&#45;&gt;Node2 -->
<g id="edge29" class="edge">
<title>Node13&#45;&gt;Node2</title>
<path fill="none" stroke="#191970" d="M443.8015,-168.3939C424.5508,-161.6178 403.4036,-150.3627 392,-132 361.1049,-82.2507 432.8918,-70.2173 470,-56 539.1007,-29.5254 760.1637,-16.2088 850.7347,-11.7544"/>
<polygon fill="#191970" stroke="#191970" points="851.0416,-15.2438 860.8617,-11.2668 850.7049,-8.2519 851.0416,-15.2438"/>
</g>
<!-- Node13&#45;&gt;Node3 -->
<g id="edge32" class="edge">
<title>Node13&#45;&gt;Node3</title>
<path fill="none" stroke="#191970" d="M446.1121,-168.4766C420.1526,-161.0286 385.963,-149.0536 359,-132 338.2364,-118.8674 318.7345,-98.3715 306.1845,-83.7051"/>
<polygon fill="#191970" stroke="#191970" points="308.7286,-81.2906 299.6415,-75.8431 303.3481,-85.7684 308.7286,-81.2906"/>
</g>
<!-- Node13&#45;&gt;Node4 -->
<g id="edge31" class="edge">
<title>Node13&#45;&gt;Node4</title>
<path fill="none" stroke="#191970" d="M494.4672,-168.154C503.3952,-158.8565 517.1396,-144.512 529,-132 544.5844,-115.5594 562.2677,-96.7165 574.7496,-83.3843"/>
<polygon fill="#191970" stroke="#191970" points="577.5076,-85.5595 581.784,-75.8661 572.396,-80.777 577.5076,-85.5595"/>
</g>
<!-- Node13&#45;&gt;Node9 -->
<g id="edge37" class="edge">
<title>Node13&#45;&gt;Node9</title>
<path fill="none" stroke="#191970" d="M542.5094,-168.4585C594.7737,-159.7208 674.2872,-146.2624 752.4569,-132.2574"/>
<polygon fill="#191970" stroke="#191970" points="753.2534,-135.6704 762.4772,-130.4577 752.0159,-128.7807 753.2534,-135.6704"/>
</g>
<!-- Node13&#45;&gt;Node12 -->
<g id="edge38" class="edge">
<title>Node13&#45;&gt;Node12</title>
<path fill="none" stroke="#191970" d="M518.8655,-168.3733C552.049,-158.9404 602.755,-144.5265 638.8194,-134.2747"/>
<polygon fill="#191970" stroke="#191970" points="639.9145,-137.6021 648.5764,-131.5011 638.0005,-130.8689 639.9145,-137.6021"/>
</g>
<!-- Node13&#45;&gt;Node14 -->
<g id="edge33" class="edge">
<title>Node13&#45;&gt;Node14</title>
<path fill="none" stroke="#191970" d="M477.8583,-168.2455C472.1556,-160.4564 464.01,-149.3308 457.1375,-139.9439"/>
<polygon fill="#191970" stroke="#191970" points="459.7913,-137.6437 451.0598,-131.6427 454.1432,-141.7789 459.7913,-137.6437"/>
</g>
<!-- Node14&#45;&gt;Node2 -->
<g id="edge34" class="edge">
<title>Node14&#45;&gt;Node2</title>
<path fill="none" stroke="#191970" d="M448.6044,-112.381C456.3115,-97.4592 473.3402,-69.0907 497,-56 557.2148,-22.6839 763.8983,-13.3406 850.9035,-10.853"/>
<polygon fill="#191970" stroke="#191970" points="851.0011,-14.3517 860.9027,-10.5825 850.8117,-7.3543 851.0011,-14.3517"/>
</g>
<!-- Node14&#45;&gt;Node3 -->
<g id="edge35" class="edge">
<title>Node14&#45;&gt;Node3</title>
<path fill="none" stroke="#191970" d="M417.8703,-112.3733C392.9232,-103.1822 355.1408,-89.2624 327.4794,-79.0713"/>
<polygon fill="#191970" stroke="#191970" points="328.3822,-75.674 317.7888,-75.5011 325.9622,-82.2424 328.3822,-75.674"/>
</g>
<!-- Node14&#45;&gt;Node4 -->
<g id="edge36" class="edge">
<title>Node14&#45;&gt;Node4</title>
<path fill="none" stroke="#191970" d="M469.2702,-112.3733C493.3966,-103.1822 529.9362,-89.2624 556.6877,-79.0713"/>
<polygon fill="#191970" stroke="#191970" points="557.9607,-82.3318 566.0596,-75.5011 555.4687,-75.7904 557.9607,-82.3318"/>
</g>
<!-- Node15&#45;&gt;Node2 -->
<g id="edge40" class="edge">
<title>Node15&#45;&gt;Node2</title>
<path fill="none" stroke="#191970" d="M638.2505,-225.3316C682.5444,-218.4906 739.8031,-206.8691 788,-188 832.9279,-170.4107 850.4406,-169.3366 881,-132 903.1225,-104.9714 905.0898,-90.6875 901,-56 899.9571,-47.1546 897.8232,-37.5467 895.71,-29.4104"/>
<polygon fill="#191970" stroke="#191970" points="899.0772,-28.4548 893.0375,-19.7501 892.3306,-30.3213 899.0772,-28.4548"/>
</g>
<!-- Node15&#45;&gt;Node3 -->
<g id="edge42" class="edge">
<title>Node15&#45;&gt;Node3</title>
<path fill="none" stroke="#191970" d="M501.2674,-224.478C467.2797,-217.6426 425.7917,-206.3083 392,-188 359.3522,-170.3115 353.328,-160.8889 330,-132 318.1021,-117.2659 307.6222,-98.3582 300.6982,-84.5597"/>
<polygon fill="#191970" stroke="#191970" points="303.8367,-83.0102 296.3155,-75.548 297.5416,-86.0717 303.8367,-83.0102"/>
</g>
<!-- Node15&#45;&gt;Node4 -->
<g id="edge43" class="edge">
<title>Node15&#45;&gt;Node4</title>
<path fill="none" stroke="#191970" d="M569.0036,-224.2244C571.7365,-214.9766 575.6865,-200.6657 578,-188 584.5422,-152.1838 588.1436,-109.8066 589.8147,-85.5974"/>
<polygon fill="#191970" stroke="#191970" points="593.311,-85.7666 590.4675,-75.5605 586.3258,-85.3122 593.311,-85.7666"/>
</g>
<!-- Node15&#45;&gt;Node13 -->
<g id="edge41" class="edge">
<title>Node15&#45;&gt;Node13</title>
<path fill="none" stroke="#191970" d="M551.8909,-224.2455C539.5791,-215.7337 521.5042,-203.2375 507.2462,-193.3801"/>
<polygon fill="#191970" stroke="#191970" points="509.1634,-190.4506 498.9474,-187.6427 505.1826,-196.2085 509.1634,-190.4506"/>
</g>
<!-- Node16&#45;&gt;Node3 -->
<g id="edge52" class="edge">
<title>Node16&#45;&gt;Node3</title>
<path fill="none" stroke="#191970" d="M330.4968,-224.3744C313.1841,-217.2912 293.204,-205.7494 283,-188 264.476,-155.7785 275.4835,-110.5992 284.3037,-85.2349"/>
<polygon fill="#191970" stroke="#191970" points="287.6543,-86.2661 287.8573,-75.6733 281.0928,-83.8275 287.6543,-86.2661"/>
</g>
<!-- Node16&#45;&gt;Node4 -->
<g id="edge51" class="edge">
<title>Node16&#45;&gt;Node4</title>
<path fill="none" stroke="#191970" d="M363.9334,-224.0365C367.223,-209.6869 375.2497,-183.2548 392,-168 428.1634,-135.0652 452.3954,-154.1614 496,-132 510.9225,-124.4158 546.6943,-98.7224 569.8342,-81.7206"/>
<polygon fill="#191970" stroke="#191970" points="572.045,-84.439 578.0144,-75.6859 567.8894,-78.8059 572.045,-84.439"/>
</g>
<!-- Node16&#45;&gt;Node13 -->
<g id="edge50" class="edge">
<title>Node16&#45;&gt;Node13</title>
<path fill="none" stroke="#191970" d="M383.1445,-224.3733C402.8892,-215.3838 432.5698,-201.8706 454.8055,-191.7471"/>
<polygon fill="#191970" stroke="#191970" points="456.4806,-194.8302 464.1315,-187.5011 453.58,-188.4594 456.4806,-194.8302"/>
</g>
<!-- Node17&#45;&gt;Node2 -->
<g id="edge55" class="edge">
<title>Node17&#45;&gt;Node2</title>
<path fill="none" stroke="#191970" d="M778.6604,-172.7534C805.8567,-167.1583 840.0761,-155.6426 861,-132 886.3882,-103.313 890.5763,-56.4234 890.7134,-29.9073"/>
<polygon fill="#191970" stroke="#191970" points="894.2087,-29.5471 890.5637,-19.599 887.2094,-29.6488 894.2087,-29.5471"/>
</g>
<!-- Node17&#45;&gt;Node14 -->
<g id="edge56" class="edge">
<title>Node17&#45;&gt;Node14</title>
<path fill="none" stroke="#191970" d="M695.3314,-170.036C643.3152,-160.0944 554.2721,-143.0759 497.3292,-132.1926"/>
<polygon fill="#191970" stroke="#191970" points="497.9139,-128.7411 487.4346,-130.3015 496.5997,-135.6166 497.9139,-128.7411"/>
</g>
<!-- Node18&#45;&gt;Node2 -->
<g id="edge63" class="edge">
<title>Node18&#45;&gt;Node2</title>
<path fill="none" stroke="#191970" d="M1280.1203,-280.2733C1290.4602,-259.2915 1311.7246,-208.4091 1298,-168 1277.8167,-108.5744 1266.1833,-87.6691 1212,-56 1164.7767,-28.3989 1004.6341,-16.2295 929.5128,-11.9421"/>
<polygon fill="#191970" stroke="#191970" points="929.2475,-8.4222 919.0698,-11.3658 928.8617,-15.4115 929.2475,-8.4222"/>
</g>
<!-- Node18&#45;&gt;Node6 -->
<g id="edge64" class="edge">
<title>Node18&#45;&gt;Node6</title>
<path fill="none" stroke="#191970" d="M1245.4321,-280.3733C1216.8312,-271.0613 1173.3212,-256.8953 1141.9181,-246.671"/>
<polygon fill="#191970" stroke="#191970" points="1142.7743,-243.269 1132.182,-243.5011 1140.6072,-249.9251 1142.7743,-243.269"/>
</g>
<!-- Node19&#45;&gt;Node1 -->
<g id="edge67" class="edge">
<title>Node19&#45;&gt;Node1</title>
<path fill="none" stroke="#191970" d="M103.8898,-168.2455C114.9254,-159.8943 131.0292,-147.7076 143.9353,-137.9408"/>
<polygon fill="#191970" stroke="#191970" points="146.3959,-140.4681 152.2579,-131.6427 142.1717,-134.8862 146.3959,-140.4681"/>
</g>
<!-- Node19&#45;&gt;Node2 -->
<g id="edge66" class="edge">
<title>Node19&#45;&gt;Node2</title>
<path fill="none" stroke="#191970" d="M88.0704,-168.3467C84.559,-154.8358 80.2779,-129.9323 90,-112 111.7391,-71.9026 132.7151,-70.3809 176,-56 240.0493,-34.7204 709.9689,-16.4176 850.4462,-11.3746"/>
<polygon fill="#191970" stroke="#191970" points="850.8727,-14.8617 860.7416,-11.0076 850.6233,-7.8661 850.8727,-14.8617"/>
</g>
</g>
</svg>
        <g id="navigator" transform="translate(0 0)" fill="#404254">
                <rect fill="#f2f5e9" fill-opacity="0.5" stroke="#606060" stroke-width=".5" x="0" y="0" width="60" height="60"/>
                <use id="zoomplus" xlink:href="#zoomPlus" x="17" y="9" onmousedown="handleZoom(evt,'in')"/>
                <use id="zoomminus" xlink:href="#zoomMin" x="42" y="9" onmousedown="handleZoom(evt,'out')"/>
                <use id="reset" xlink:href="#resetDef" x="30" y="36" onmousedown="handleReset()"/>
                <g id="arrowUp" xlink:href="#dirArrow" transform="translate(30 24)" onmousedown="handlePan(0,-1)">
                  <use xlink:href="#rim" fill="#404040">
                        <set attributeName="fill" to="#808080" begin="arrowUp.mouseover" end="arrowUp.mouseout"/>
                  </use>
                  <path fill="none" stroke="white" stroke-width="1.5" d="M0,-3.0v7 M-2.5,-0.5L0,-3.0L2.5,-0.5"/>
                </g>
                <g id="arrowRight" xlink:href="#dirArrow" transform="rotate(90) translate(36 -43)" onmousedown="handlePan(1,0)">
                  <use xlink:href="#rim" fill="#404040">
                        <set attributeName="fill" to="#808080" begin="arrowRight.mouseover" end="arrowRight.mouseout"/>
                  </use>
                  <path fill="none" stroke="white" stroke-width="1.5" d="M0,-3.0v7 M-2.5,-0.5L0,-3.0L2.5,-0.5"/>
                </g>
                <g id="arrowDown" xlink:href="#dirArrow" transform="rotate(180) translate(-30 -48)" onmousedown="handlePan(0,1)">
                  <use xlink:href="#rim" fill="#404040">
                        <set attributeName="fill" to="#808080" begin="arrowDown.mouseover" end="arrowDown.mouseout"/>
                  </use>
                  <path fill="none" stroke="white" stroke-width="1.5" d="M0,-3.0v7 M-2.5,-0.5L0,-3.0L2.5,-0.5"/>
                </g>
                <g id="arrowLeft" xlink:href="#dirArrow" transform="rotate(270) translate(-36 17)" onmousedown="handlePan(-1,0)">
                  <use xlink:href="#rim" fill="#404040">
                        <set attributeName="fill" to="#808080" begin="arrowLeft.mouseover" end="arrowLeft.mouseout"/>
                  </use>
                  <path fill="none" stroke="white" stroke-width="1.5" d="M0,-3.0v7 M-2.5,-0.5L0,-3.0L2.5,-0.5"/>
                </g>
        </g>
        <svg viewBox="0 0 15 15" width="100%" height="30px" preserveAspectRatio="xMaxYMin meet">
         <g id="arrow_out" transform="scale(0.3 0.3)">
          <a xlink:href="CorsairLightingProtocol_8h__incl_org.svg" target="_base">
           <rect id="button" ry="5" rx="5" y="6" x="6" height="38" width="38"
                fill="#f2f5e9" fill-opacity="0.5" stroke="#606060" stroke-width="1.0"/>
           <path id="arrow"
             d="M 11.500037,31.436501 C 11.940474,20.09759 22.043105,11.32322 32.158766,21.979434 L 37.068811,17.246167 C 37.068811,17.246167 37.088388,32 37.088388,32 L 22.160133,31.978069 C 22.160133,31.978069 26.997745,27.140456 26.997745,27.140456 C 18.528582,18.264221 13.291696,25.230495 11.500037,31.436501 z"
             style="fill:#404040;"/>
          </a>
         </g>
        </svg>
</svg>
