<?xml version="1.0" encoding="UTF-8" standalone="no"?>
<!DOCTYPE svg PUBLIC "-//W3C//DTD SVG 1.1//EN"
 "http://www.w3.org/Graphics/SVG/1.1/DTD/svg11.dtd">
<!-- Generated by graphviz version 2.43.0 (0)
 -->
<!-- Title: src/CorsairLightingProtocol.h Pages: 1 -->
<svg width="1404pt" height="453pt"
 viewBox="0.00 0.00 1404.00 453.00" xmlns="http://www.w3.org/2000/svg" xmlns:xlink="http://www.w3.org/1999/xlink">
<g id="graph0" class="graph" transform="scale(1 1) rotate(0) translate(4 449)">
<title>src/CorsairLightingProtocol.h</title>
<polygon fill="white" stroke="transparent" points="-4,4 -4,-449 1400,-449 1400,4 -4,4"/>
<!-- Node1 -->
<g id="node1" class="node">
<title>Node1</title>
<g id="a_node1"><a xlink:title=" ">
<polygon fill="#bfbfbf" stroke="black" points="491.5,-425.5 491.5,-444.5 647.5,-444.5 647.5,-425.5 491.5,-425.5"/>
<text text-anchor="middle" x="569.5" y="-432.5" font-family="Helvetica,sans-Serif" font-size="10.00">src/CorsairLightingProtocol.h</text>
</a>
</g>
</g>
<!-- Node2 -->
<g id="node2" class="node">
<title>Node2</title>
<g id="a_node2"><a xlink:href="CLPAdditionalFeatures_8h_source.html" target="_top" xlink:title=" ">
<polygon fill="white" stroke="black" points="101.5,-168.5 101.5,-187.5 235.5,-187.5 235.5,-168.5 101.5,-168.5"/>
<text text-anchor="middle" x="168.5" y="-175.5" font-family="Helvetica,sans-Serif" font-size="10.00">CLPAdditionalFeatures.h</text>
</a>
</g>
</g>
<!-- Node1&#45;&gt;Node2 -->
<g id="edge1" class="edge">
<title>Node1&#45;&gt;Node2</title>
<path fill="none" stroke="midnightblue" d="M491.19,-432.91C393.79,-430.18 234.36,-420.83 185.5,-389 127.57,-351.26 124.7,-321.7 106.5,-255 102.87,-241.71 100.24,-236.27 106.5,-224 113.5,-210.27 126.87,-199.75 139.4,-192.35"/>
<polygon fill="midnightblue" stroke="midnightblue" points="141.17,-195.37 148.28,-187.51 137.82,-189.22 141.17,-195.37"/>
</g>
<!-- Node4 -->
<g id="node4" class="node">
<title>Node4</title>
<g id="a_node4"><a xlink:href="CorsairLightingFirmware_8h_source.html" target="_top" xlink:title=" ">
<polygon fill="white" stroke="black" points="240,-112.5 240,-131.5 385,-131.5 385,-112.5 240,-112.5"/>
<text text-anchor="middle" x="312.5" y="-119.5" font-family="Helvetica,sans-Serif" font-size="10.00">CorsairLightingFirmware.h</text>
</a>
</g>
</g>
<!-- Node1&#45;&gt;Node4 -->
<g id="edge12" class="edge">
<title>Node1&#45;&gt;Node4</title>
<path fill="none" stroke="midnightblue" d="M548.45,-425.42C500.4,-405.44 384.87,-355.01 359.5,-322 316.67,-266.27 339.85,-236.36 323.5,-168 321.42,-159.29 319.06,-149.64 317.07,-141.52"/>
<polygon fill="midnightblue" stroke="midnightblue" points="320.42,-140.49 314.64,-131.62 313.63,-142.17 320.42,-140.49"/>
</g>
<!-- Node5 -->
<g id="node5" class="node">
<title>Node5</title>
<g id="a_node5"><a xlink:href="CorsairLightingProtocolConstants_8h_source.html" target="_top" xlink:title=" ">
<polygon fill="white" stroke="black" points="330.5,-56.5 330.5,-75.5 518.5,-75.5 518.5,-56.5 330.5,-56.5"/>
<text text-anchor="middle" x="424.5" y="-63.5" font-family="Helvetica,sans-Serif" font-size="10.00">CorsairLightingProtocolConstants.h</text>
</a>
</g>
</g>
<!-- Node1&#45;&gt;Node5 -->
<g id="edge17" class="edge">
<title>Node1&#45;&gt;Node5</title>
<path fill="none" stroke="midnightblue" d="M491.42,-430.68C386.41,-425.38 205.8,-413.04 144.5,-389 88.19,-366.91 35.5,-367.99 35.5,-307.5 35.5,-307.5 35.5,-307.5 35.5,-238.5 35.5,-198.21 60.43,-192.39 92.5,-168 163.15,-114.27 262.43,-88.93 334,-77.1"/>
<polygon fill="midnightblue" stroke="midnightblue" points="334.58,-80.55 343.9,-75.52 333.48,-73.64 334.58,-80.55"/>
</g>
<!-- Node6 -->
<g id="node6" class="node">
<title>Node6</title>
<g id="a_node6"><a xlink:href="CorsairLightingProtocolResponse_8h_source.html" target="_top" xlink:title=" ">
<polygon fill="white" stroke="black" points="839.5,-56.5 839.5,-75.5 1025.5,-75.5 1025.5,-56.5 839.5,-56.5"/>
<text text-anchor="middle" x="932.5" y="-63.5" font-family="Helvetica,sans-Serif" font-size="10.00">CorsairLightingProtocolResponse.h</text>
</a>
</g>
</g>
<!-- Node1&#45;&gt;Node6 -->
<g id="edge44" class="edge">
<title>Node1&#45;&gt;Node6</title>
<path fill="none" stroke="midnightblue" d="M647.74,-432.03C776.43,-428.04 1026.84,-416.86 1110.5,-389 1175.2,-367.45 1240.5,-375.69 1240.5,-307.5 1240.5,-307.5 1240.5,-307.5 1240.5,-238.5 1240.5,-135.41 1107.17,-93.74 1015.95,-77.29"/>
<polygon fill="midnightblue" stroke="midnightblue" points="1016.33,-73.8 1005.88,-75.54 1015.14,-80.7 1016.33,-73.8"/>
</g>
<!-- Node7 -->
<g id="node7" class="node">
<title>Node7</title>
<g id="a_node7"><a xlink:href="CLPUtils_8h_source.html" target="_top" xlink:title=" ">
<polygon fill="white" stroke="black" points="836.5,-168.5 836.5,-187.5 902.5,-187.5 902.5,-168.5 836.5,-168.5"/>
<text text-anchor="middle" x="869.5" y="-175.5" font-family="Helvetica,sans-Serif" font-size="10.00">CLPUtils.h</text>
</a>
</g>
</g>
<!-- Node1&#45;&gt;Node7 -->
<g id="edge9" class="edge">
<title>Node1&#45;&gt;Node7</title>
<path fill="none" stroke="midnightblue" d="M586.32,-425.43C602.34,-416.99 626.84,-403.3 646.5,-389 732.85,-326.17 820.95,-232.69 854.92,-195.31"/>
<polygon fill="midnightblue" stroke="midnightblue" points="857.57,-197.6 861.67,-187.83 852.37,-192.91 857.57,-197.6"/>
</g>
<!-- Node8 -->
<g id="node8" class="node">
<title>Node8</title>
<g id="a_node8"><a xlink:href="CorsairLightingFirmwareStorageEEPROM_8h_source.html" target="_top" xlink:title=" ">
<polygon fill="white" stroke="black" points="368,-291.5 368,-321.5 541,-321.5 541,-291.5 368,-291.5"/>
<text text-anchor="start" x="376" y="-309.5" font-family="Helvetica,sans-Serif" font-size="10.00">CorsairLightingFirmwareStorage</text>
<text text-anchor="middle" x="454.5" y="-298.5" font-family="Helvetica,sans-Serif" font-size="10.00">EEPROM.h</text>
</a>
</g>
</g>
<!-- Node1&#45;&gt;Node8 -->
<g id="edge13" class="edge">
<title>Node1&#45;&gt;Node8</title>
<path fill="none" stroke="midnightblue" d="M561.6,-425.31C543.78,-405.71 500.06,-357.62 474.33,-329.31"/>
<polygon fill="midnightblue" stroke="midnightblue" points="476.9,-326.93 467.58,-321.89 471.72,-331.64 476.9,-326.93"/>
</g>
<!-- Node9 -->
<g id="node9" class="node">
<title>Node9</title>
<g id="a_node9"><a xlink:href="CorsairLightingFirmwareStorageStatic_8h_source.html" target="_top" xlink:title=" ">
<polygon fill="white" stroke="black" points="215,-358.5 215,-388.5 388,-388.5 388,-358.5 215,-358.5"/>
<text text-anchor="start" x="223" y="-376.5" font-family="Helvetica,sans-Serif" font-size="10.00">CorsairLightingFirmwareStorage</text>
<text text-anchor="middle" x="301.5" y="-365.5" font-family="Helvetica,sans-Serif" font-size="10.00">Static.h</text>
</a>
</g>
</g>
<!-- Node1&#45;&gt;Node9 -->
<g id="edge15" class="edge">
<title>Node1&#45;&gt;Node9</title>
<path fill="none" stroke="midnightblue" d="M531.1,-425.48C490.4,-416.44 425.13,-401.95 374.57,-390.72"/>
<polygon fill="midnightblue" stroke="midnightblue" points="375.18,-387.27 364.66,-388.52 373.67,-394.11 375.18,-387.27"/>
</g>
<!-- Node10 -->
<g id="node10" class="node">
<title>Node10</title>
<g id="a_node10"><a xlink:href="CorsairLightingProtocolController_8h_source.html" target="_top" xlink:title=" ">
<polygon fill="white" stroke="black" points="510.5,-168.5 510.5,-187.5 696.5,-187.5 696.5,-168.5 510.5,-168.5"/>
<text text-anchor="middle" x="603.5" y="-175.5" font-family="Helvetica,sans-Serif" font-size="10.00">CorsairLightingProtocolController.h</text>
</a>
</g>
</g>
<!-- Node1&#45;&gt;Node10 -->
<g id="edge18" class="edge">
<title>Node1&#45;&gt;Node10</title>
<path fill="none" stroke="midnightblue" d="M572.84,-425.18C576.1,-416.2 580.92,-401.83 583.5,-389 597.43,-319.67 601.73,-235.45 602.99,-198.25"/>
<polygon fill="midnightblue" stroke="midnightblue" points="606.5,-198 603.31,-187.9 599.51,-197.79 606.5,-198"/>
</g>
<!-- Node14 -->
<g id="node14" class="node">
<title>Node14</title>
<g id="a_node14"><a xlink:href="CorsairLightingProtocolHID_8h_source.html" target="_top" xlink:title=" ">
<polygon fill="white" stroke="black" points="116,-230 116,-249 273,-249 273,-230 116,-230"/>
<text text-anchor="middle" x="194.5" y="-237" font-family="Helvetica,sans-Serif" font-size="10.00">CorsairLightingProtocolHID.h</text>
</a>
</g>
</g>
<!-- Node1&#45;&gt;Node14 -->
<g id="edge35" class="edge">
<title>Node1&#45;&gt;Node14</title>
<path fill="none" stroke="midnightblue" d="M491.17,-429.54C390.09,-422.99 224.85,-409.32 205.5,-389 172.16,-353.98 181.66,-290.87 189.21,-259.4"/>
<polygon fill="midnightblue" stroke="midnightblue" points="192.69,-259.91 191.81,-249.35 185.91,-258.15 192.69,-259.91"/>
</g>
<!-- Node17 -->
<g id="node17" class="node">
<title>Node17</title>
<g id="a_node17"><a xlink:href="CorsairLightingProtocolSerial_8h_source.html" target="_top" xlink:title=" ">
<polygon fill="white" stroke="black" points="413,-230 413,-249 580,-249 580,-230 413,-230"/>
<text text-anchor="middle" x="496.5" y="-237" font-family="Helvetica,sans-Serif" font-size="10.00">CorsairLightingProtocolSerial.h</text>
</a>
</g>
</g>
<!-- Node1&#45;&gt;Node17 -->
<g id="edge45" class="edge">
<title>Node1&#45;&gt;Node17</title>
<path fill="none" stroke="midnightblue" d="M570.29,-425.35C572.01,-402.14 574.23,-337.09 550.5,-291 543.1,-276.63 529.92,-264.18 518.43,-255.24"/>
<polygon fill="midnightblue" stroke="midnightblue" points="520.23,-252.22 510.1,-249.11 516.08,-257.85 520.23,-252.22"/>
</g>
<!-- Node18 -->
<g id="node18" class="node">
<title>Node18</title>
<g id="a_node18"><a xlink:href="CorsairLightingProtocolTinyUSBHID_8h_source.html" target="_top" xlink:title=" ">
<polygon fill="white" stroke="black" points="636,-224.5 636,-254.5 787,-254.5 787,-224.5 636,-224.5"/>
<text text-anchor="start" x="644" y="-242.5" font-family="Helvetica,sans-Serif" font-size="10.00">CorsairLightingProtocolTiny</text>
<text text-anchor="middle" x="711.5" y="-231.5" font-family="Helvetica,sans-Serif" font-size="10.00">USBHID.h</text>
</a>
</g>
</g>
<!-- Node1&#45;&gt;Node18 -->
<g id="edge49" class="edge">
<title>Node1&#45;&gt;Node18</title>
<path fill="none" stroke="midnightblue" d="M581.61,-425.28C592.8,-416.83 609.49,-403.23 621.5,-389 655.54,-348.68 685.11,-294.06 700.41,-263.56"/>
<polygon fill="midnightblue" stroke="midnightblue" points="703.57,-265.06 704.86,-254.55 697.29,-261.96 703.57,-265.06"/>
</g>
<!-- Node19 -->
<g id="node19" class="node">
<title>Node19</title>
<g id="a_node19"><a xlink:href="FanController_8h.html" target="_top" xlink:title=" ">
<polygon fill="white" stroke="black" points="1307,-168.5 1307,-187.5 1396,-187.5 1396,-168.5 1307,-168.5"/>
<text text-anchor="middle" x="1351.5" y="-175.5" font-family="Helvetica,sans-Serif" font-size="10.00">FanController.h</text>
</a>
</g>
</g>
<!-- Node1&#45;&gt;Node19 -->
<g id="edge54" class="edge">
<title>Node1&#45;&gt;Node19</title>
<path fill="none" stroke="midnightblue" d="M647.71,-433.31C816.87,-431.18 1205.5,-422.65 1254.5,-389 1320.91,-343.39 1342.8,-240.31 1349.17,-197.83"/>
<polygon fill="midnightblue" stroke="midnightblue" points="1352.66,-198.15 1350.55,-187.77 1345.72,-197.2 1352.66,-198.15"/>
</g>
<!-- Node20 -->
<g id="node20" class="node">
<title>Node20</title>
<g id="a_node20"><a xlink:href="FastLEDController_8h_source.html" target="_top" xlink:title=" ">
<polygon fill="white" stroke="black" points="990,-364 990,-383 1101,-383 1101,-364 990,-364"/>
<text text-anchor="middle" x="1045.5" y="-371" font-family="Helvetica,sans-Serif" font-size="10.00">FastLEDController.h</text>
</a>
</g>
</g>
<!-- Node1&#45;&gt;Node20 -->
<g id="edge57" class="edge">
<title>Node1&#45;&gt;Node20</title>
<path fill="none" stroke="midnightblue" d="M637.7,-425.48C728.91,-414.07 889.56,-393.99 979.59,-382.74"/>
<polygon fill="midnightblue" stroke="midnightblue" points="980.19,-386.19 989.68,-381.48 979.32,-379.25 980.19,-386.19"/>
</g>
<!-- Node3 -->
<g id="node3" class="node">
<title>Node3</title>
<g id="a_node3"><a xlink:title=" ">
<polygon fill="white" stroke="#bfbfbf" points="706,-0.5 706,-19.5 769,-19.5 769,-0.5 706,-0.5"/>
<text text-anchor="middle" x="737.5" y="-7.5" font-family="Helvetica,sans-Serif" font-size="10.00">Arduino.h</text>
</a>
</g>
</g>
<!-- Node2&#45;&gt;Node3 -->
<g id="edge2" class="edge">
<title>Node2&#45;&gt;Node3</title>
<path fill="none" stroke="midnightblue" d="M174.3,-168.3C183.34,-155.12 201.84,-129.76 221.5,-112 255.07,-81.67 263.9,-71.23 306.5,-56 377.53,-30.61 601.72,-17.39 695.56,-12.85"/>
<polygon fill="midnightblue" stroke="midnightblue" points="695.99,-16.33 705.81,-12.36 695.65,-9.34 695.99,-16.33"/>
</g>
<!-- Node2&#45;&gt;Node4 -->
<g id="edge3" class="edge">
<title>Node2&#45;&gt;Node4</title>
<path fill="none" stroke="midnightblue" d="M191.32,-168.44C215.33,-159.44 253.33,-145.19 280.37,-135.05"/>
<polygon fill="midnightblue" stroke="midnightblue" points="281.66,-138.3 289.79,-131.52 279.2,-131.75 281.66,-138.3"/>
</g>
<!-- Node4&#45;&gt;Node3 -->
<g id="edge4" class="edge">
<title>Node4&#45;&gt;Node3</title>
<path fill="none" stroke="midnightblue" d="M310.74,-112.39C308.43,-98.38 306.3,-70.76 321.5,-56 348.03,-30.25 595.36,-17 695.6,-12.65"/>
<polygon fill="midnightblue" stroke="midnightblue" points="695.84,-16.14 705.68,-12.22 695.54,-9.15 695.84,-16.14"/>
</g>
<!-- Node4&#45;&gt;Node5 -->
<g id="edge5" class="edge">
<title>Node4&#45;&gt;Node5</title>
<path fill="none" stroke="midnightblue" d="M330.5,-112.32C348.54,-103.62 376.55,-90.12 397.3,-80.11"/>
<polygon fill="midnightblue" stroke="midnightblue" points="399.06,-83.15 406.55,-75.65 396.02,-76.84 399.06,-83.15"/>
</g>
<!-- Node4&#45;&gt;Node6 -->
<g id="edge7" class="edge">
<title>Node4&#45;&gt;Node6</title>
<path fill="none" stroke="midnightblue" d="M385.14,-114.67C494.96,-105.11 703.74,-86.92 829.3,-75.99"/>
<polygon fill="midnightblue" stroke="midnightblue" points="829.66,-79.47 839.32,-75.12 829.05,-72.5 829.66,-79.47"/>
</g>
<!-- Node5&#45;&gt;Node3 -->
<g id="edge6" class="edge">
<title>Node5&#45;&gt;Node3</title>
<path fill="none" stroke="midnightblue" d="M474.1,-56.44C535.27,-45.89 638.2,-28.13 695.61,-18.23"/>
<polygon fill="midnightblue" stroke="midnightblue" points="696.51,-21.62 705.77,-16.47 695.32,-14.72 696.51,-21.62"/>
</g>
<!-- Node6&#45;&gt;Node3 -->
<g id="edge8" class="edge">
<title>Node6&#45;&gt;Node3</title>
<path fill="none" stroke="midnightblue" d="M901.6,-56.44C868.23,-47.2 814.91,-32.44 778.15,-22.26"/>
<polygon fill="midnightblue" stroke="midnightblue" points="778.83,-18.81 768.25,-19.52 776.96,-25.56 778.83,-18.81"/>
</g>
<!-- Node7&#45;&gt;Node3 -->
<g id="edge10" class="edge">
<title>Node7&#45;&gt;Node3</title>
<path fill="none" stroke="midnightblue" d="M902.61,-171.96C957.38,-163.3 1061.88,-145.23 1072.5,-132 1078.06,-125.07 1075.11,-120.5 1072.5,-112 1063.67,-83.25 1059.94,-72.04 1034.5,-56 992.77,-29.69 850.5,-17.69 779.09,-13.22"/>
<polygon fill="midnightblue" stroke="midnightblue" points="779.29,-9.72 769.09,-12.61 778.86,-16.71 779.29,-9.72"/>
</g>
<!-- Node7&#45;&gt;Node4 -->
<g id="edge11" class="edge">
<title>Node7&#45;&gt;Node4</title>
<path fill="none" stroke="midnightblue" d="M836.33,-173.78C750.67,-165.48 520.12,-143.13 395.37,-131.03"/>
<polygon fill="midnightblue" stroke="midnightblue" points="395.4,-127.52 385.1,-130.04 394.72,-134.49 395.4,-127.52"/>
</g>
<!-- Node8&#45;&gt;Node4 -->
<g id="edge14" class="edge">
<title>Node8&#45;&gt;Node4</title>
<path fill="none" stroke="midnightblue" d="M438.58,-291.38C428.2,-281.72 414.73,-268.3 404.5,-255 377.19,-219.46 380.07,-204.1 353.5,-168 346,-157.81 336.55,-147.31 328.61,-139.01"/>
<polygon fill="midnightblue" stroke="midnightblue" points="331.07,-136.52 321.57,-131.82 326.06,-141.42 331.07,-136.52"/>
</g>
<!-- Node9&#45;&gt;Node4 -->
<g id="edge16" class="edge">
<title>Node9&#45;&gt;Node4</title>
<path fill="none" stroke="midnightblue" d="M302.12,-358.37C303.99,-316.09 309.53,-190.49 311.65,-142.21"/>
<polygon fill="midnightblue" stroke="midnightblue" points="315.16,-142.07 312.11,-131.93 308.17,-141.77 315.16,-142.07"/>
</g>
<!-- Node10&#45;&gt;Node3 -->
<g id="edge19" class="edge">
<title>Node10&#45;&gt;Node3</title>
<path fill="none" stroke="midnightblue" d="M586.2,-168.31C565.17,-156.51 534.07,-134.34 547.5,-112 579.61,-58.56 650.6,-31.88 696.13,-19.77"/>
<polygon fill="midnightblue" stroke="midnightblue" points="697.16,-23.12 705.99,-17.27 695.44,-16.33 697.16,-23.12"/>
</g>
<!-- Node10&#45;&gt;Node4 -->
<g id="edge20" class="edge">
<title>Node10&#45;&gt;Node4</title>
<path fill="none" stroke="midnightblue" d="M557.39,-168.44C506.09,-158.92 423.23,-143.55 368.31,-133.36"/>
<polygon fill="midnightblue" stroke="midnightblue" points="368.87,-129.9 358.39,-131.52 367.59,-136.78 368.87,-129.9"/>
</g>
<!-- Node10&#45;&gt;Node5 -->
<g id="edge21" class="edge">
<title>Node10&#45;&gt;Node5</title>
<path fill="none" stroke="midnightblue" d="M584.04,-168.42C565.47,-159.96 536.92,-146.27 513.5,-132 488.18,-116.57 460.9,-96 443.31,-82.17"/>
<polygon fill="midnightblue" stroke="midnightblue" points="445.06,-79.09 435.06,-75.61 440.71,-84.57 445.06,-79.09"/>
</g>
<!-- Node10&#45;&gt;Node6 -->
<g id="edge22" class="edge">
<title>Node10&#45;&gt;Node6</title>
<path fill="none" stroke="midnightblue" d="M696.67,-169.79C786.03,-161.95 909.67,-148.34 925.5,-132 937.21,-119.92 937.7,-100.04 936.05,-85.44"/>
<polygon fill="midnightblue" stroke="midnightblue" points="939.5,-84.87 934.51,-75.52 932.58,-85.94 939.5,-84.87"/>
</g>
<!-- Node11 -->
<g id="node11" class="node">
<title>Node11</title>
<g id="a_node11"><a xlink:href="IFanController_8h_source.html" target="_top" xlink:title=" ">
<polygon fill="white" stroke="black" points="824.5,-112.5 824.5,-131.5 916.5,-131.5 916.5,-112.5 824.5,-112.5"/>
<text text-anchor="middle" x="870.5" y="-119.5" font-family="Helvetica,sans-Serif" font-size="10.00">IFanController.h</text>
</a>
</g>
</g>
<!-- Node10&#45;&gt;Node11 -->
<g id="edge23" class="edge">
<title>Node10&#45;&gt;Node11</title>
<path fill="none" stroke="midnightblue" d="M645.81,-168.44C692.58,-158.98 767.96,-143.74 818.35,-133.55"/>
<polygon fill="midnightblue" stroke="midnightblue" points="819.28,-136.93 828.39,-131.52 817.9,-130.07 819.28,-136.93"/>
</g>
<!-- Node12 -->
<g id="node12" class="node">
<title>Node12</title>
<g id="a_node12"><a xlink:href="ILEDController_8h_source.html" target="_top" xlink:title=" ">
<polygon fill="white" stroke="black" points="556,-112.5 556,-131.5 651,-131.5 651,-112.5 556,-112.5"/>
<text text-anchor="middle" x="603.5" y="-119.5" font-family="Helvetica,sans-Serif" font-size="10.00">ILEDController.h</text>
</a>
</g>
</g>
<!-- Node10&#45;&gt;Node12 -->
<g id="edge27" class="edge">
<title>Node10&#45;&gt;Node12</title>
<path fill="none" stroke="midnightblue" d="M603.5,-168.08C603.5,-161.01 603.5,-150.86 603.5,-141.99"/>
<polygon fill="midnightblue" stroke="midnightblue" points="607,-141.75 603.5,-131.75 600,-141.75 607,-141.75"/>
</g>
<!-- Node13 -->
<g id="node13" class="node">
<title>Node13</title>
<g id="a_node13"><a xlink:href="ITemperatureController_8h_source.html" target="_top" xlink:title=" ">
<polygon fill="white" stroke="black" points="669,-112.5 669,-131.5 806,-131.5 806,-112.5 669,-112.5"/>
<text text-anchor="middle" x="737.5" y="-119.5" font-family="Helvetica,sans-Serif" font-size="10.00">ITemperatureController.h</text>
</a>
</g>
</g>
<!-- Node10&#45;&gt;Node13 -->
<g id="edge31" class="edge">
<title>Node10&#45;&gt;Node13</title>
<path fill="none" stroke="midnightblue" d="M624.73,-168.44C646.88,-159.52 681.82,-145.44 706.94,-135.32"/>
<polygon fill="midnightblue" stroke="midnightblue" points="708.4,-138.5 716.37,-131.52 705.78,-132.01 708.4,-138.5"/>
</g>
<!-- Node11&#45;&gt;Node3 -->
<g id="edge24" class="edge">
<title>Node11&#45;&gt;Node3</title>
<path fill="none" stroke="midnightblue" d="M860.06,-112.37C837.53,-93.73 784.09,-49.53 755.8,-26.13"/>
<polygon fill="midnightblue" stroke="midnightblue" points="757.82,-23.27 747.89,-19.59 753.36,-28.66 757.82,-23.27"/>
</g>
<!-- Node11&#45;&gt;Node5 -->
<g id="edge25" class="edge">
<title>Node11&#45;&gt;Node5</title>
<path fill="none" stroke="midnightblue" d="M824.31,-113.28C821.33,-112.83 818.38,-112.4 815.5,-112 714.26,-97.9 597.81,-84.91 518.51,-76.55"/>
<polygon fill="midnightblue" stroke="midnightblue" points="518.86,-73.07 508.55,-75.5 518.13,-80.03 518.86,-73.07"/>
</g>
<!-- Node11&#45;&gt;Node6 -->
<g id="edge26" class="edge">
<title>Node11&#45;&gt;Node6</title>
<path fill="none" stroke="midnightblue" d="M880.46,-112.32C889.63,-104.34 903.44,-92.31 914.53,-82.65"/>
<polygon fill="midnightblue" stroke="midnightblue" points="917.12,-85.04 922.36,-75.83 912.52,-79.76 917.12,-85.04"/>
</g>
<!-- Node12&#45;&gt;Node3 -->
<g id="edge28" class="edge">
<title>Node12&#45;&gt;Node3</title>
<path fill="none" stroke="midnightblue" d="M614.02,-112.37C636.72,-93.73 690.56,-49.53 719.06,-26.13"/>
<polygon fill="midnightblue" stroke="midnightblue" points="721.53,-28.64 727.03,-19.59 717.08,-23.23 721.53,-28.64"/>
</g>
<!-- Node12&#45;&gt;Node5 -->
<g id="edge29" class="edge">
<title>Node12&#45;&gt;Node5</title>
<path fill="none" stroke="midnightblue" d="M575.14,-112.44C544.76,-103.28 496.39,-88.69 462.68,-78.52"/>
<polygon fill="midnightblue" stroke="midnightblue" points="463.32,-75.05 452.73,-75.52 461.29,-81.76 463.32,-75.05"/>
</g>
<!-- Node12&#45;&gt;Node6 -->
<g id="edge30" class="edge">
<title>Node12&#45;&gt;Node6</title>
<path fill="none" stroke="midnightblue" d="M651.34,-113.15C709.28,-103.64 807,-87.6 870.62,-77.16"/>
<polygon fill="midnightblue" stroke="midnightblue" points="871.23,-80.6 880.53,-75.53 870.09,-73.7 871.23,-80.6"/>
</g>
<!-- Node13&#45;&gt;Node3 -->
<g id="edge32" class="edge">
<title>Node13&#45;&gt;Node3</title>
<path fill="none" stroke="midnightblue" d="M737.5,-112.37C737.5,-94.62 737.5,-53.67 737.5,-29.6"/>
<polygon fill="midnightblue" stroke="midnightblue" points="741,-29.59 737.5,-19.59 734,-29.59 741,-29.59"/>
</g>
<!-- Node13&#45;&gt;Node5 -->
<g id="edge33" class="edge">
<title>Node13&#45;&gt;Node5</title>
<path fill="none" stroke="midnightblue" d="M687.9,-112.44C632.5,-102.89 542.86,-87.42 483.8,-77.23"/>
<polygon fill="midnightblue" stroke="midnightblue" points="484.31,-73.77 473.86,-75.52 483.12,-80.67 484.31,-73.77"/>
</g>
<!-- Node13&#45;&gt;Node6 -->
<g id="edge34" class="edge">
<title>Node13&#45;&gt;Node6</title>
<path fill="none" stroke="midnightblue" d="M768.4,-112.44C801.77,-103.2 855.09,-88.44 891.85,-78.26"/>
<polygon fill="midnightblue" stroke="midnightblue" points="893.04,-81.56 901.75,-75.52 891.18,-74.81 893.04,-81.56"/>
</g>
<!-- Node14&#45;&gt;Node3 -->
<g id="edge36" class="edge">
<title>Node14&#45;&gt;Node3</title>
<path fill="none" stroke="midnightblue" d="M165.38,-230C140.66,-221.85 105.07,-207.85 78.5,-188 26.57,-149.21 -27.88,-103.24 16.5,-56 39.88,-31.12 545.24,-16 695.64,-12.05"/>
<polygon fill="midnightblue" stroke="midnightblue" points="695.93,-15.54 705.84,-11.78 695.75,-8.54 695.93,-15.54"/>
</g>
<!-- Node14&#45;&gt;Node5 -->
<g id="edge37" class="edge">
<title>Node14&#45;&gt;Node5</title>
<path fill="none" stroke="midnightblue" d="M207.61,-229.89C219.78,-221.04 237.09,-206.03 244.5,-188 257.57,-156.24 209.13,-138.89 230.5,-112 243.92,-95.11 290.37,-83.99 334.45,-77.03"/>
<polygon fill="midnightblue" stroke="midnightblue" points="335.03,-80.48 344.4,-75.52 333.98,-73.56 335.03,-80.48"/>
</g>
<!-- Node14&#45;&gt;Node6 -->
<g id="edge39" class="edge">
<title>Node14&#45;&gt;Node6</title>
<path fill="none" stroke="midnightblue" d="M273.12,-232.27C406.11,-221.51 665,-199.48 705.5,-188 725.01,-182.47 727.24,-174.33 746.5,-168 831.06,-140.23 886.5,-200.36 943.5,-132 954.35,-118.98 948.97,-99.28 942.51,-84.98"/>
<polygon fill="midnightblue" stroke="midnightblue" points="945.45,-83.05 937.82,-75.69 939.2,-86.2 945.45,-83.05"/>
</g>
<!-- Node14&#45;&gt;Node10 -->
<g id="edge38" class="edge">
<title>Node14&#45;&gt;Node10</title>
<path fill="none" stroke="midnightblue" d="M253.1,-229.98C327.51,-219.15 455.69,-200.5 534.68,-189.01"/>
<polygon fill="midnightblue" stroke="midnightblue" points="535.62,-192.41 545.01,-187.51 534.61,-185.49 535.62,-192.41"/>
</g>
<!-- Node15 -->
<g id="node15" class="node">
<title>Node15</title>
<g id="a_node15"><a xlink:href="RawHID_8h_source.html" target="_top" xlink:title=" ">
<polygon fill="white" stroke="black" points="41,-112.5 41,-131.5 106,-131.5 106,-112.5 41,-112.5"/>
<text text-anchor="middle" x="73.5" y="-119.5" font-family="Helvetica,sans-Serif" font-size="10.00">RawHID.h</text>
</a>
</g>
</g>
<!-- Node14&#45;&gt;Node15 -->
<g id="edge40" class="edge">
<title>Node14&#45;&gt;Node15</title>
<path fill="none" stroke="midnightblue" d="M161.6,-229.85C139.11,-222.31 110.27,-209.2 92.5,-188 81.53,-174.92 76.89,-155.77 74.93,-141.64"/>
<polygon fill="midnightblue" stroke="midnightblue" points="78.4,-141.17 73.87,-131.6 71.44,-141.91 78.4,-141.17"/>
</g>
<!-- Node15&#45;&gt;Node3 -->
<g id="edge41" class="edge">
<title>Node15&#45;&gt;Node3</title>
<path fill="none" stroke="midnightblue" d="M76.97,-112.37C83.34,-97.82 98.4,-68.73 121.5,-56 171.51,-28.43 564.78,-15.59 695.45,-12.05"/>
<polygon fill="midnightblue" stroke="midnightblue" points="695.94,-15.54 705.84,-11.77 695.75,-8.54 695.94,-15.54"/>
</g>
<!-- Node15&#45;&gt;Node5 -->
<g id="edge42" class="edge">
<title>Node15&#45;&gt;Node5</title>
<path fill="none" stroke="midnightblue" d="M106.21,-115.97C163.67,-107.13 283.75,-88.65 358.88,-77.1"/>
<polygon fill="midnightblue" stroke="midnightblue" points="359.82,-80.49 369.17,-75.51 358.76,-73.57 359.82,-80.49"/>
</g>
<!-- Node16 -->
<g id="node16" class="node">
<title>Node16</title>
<g id="a_node16"><a xlink:title=" ">
<polygon fill="white" stroke="#bfbfbf" points="25.5,-56.5 25.5,-75.5 69.5,-75.5 69.5,-56.5 25.5,-56.5"/>
<text text-anchor="middle" x="47.5" y="-63.5" font-family="Helvetica,sans-Serif" font-size="10.00">HID.h</text>
</a>
</g>
</g>
<!-- Node15&#45;&gt;Node16 -->
<g id="edge43" class="edge">
<title>Node15&#45;&gt;Node16</title>
<path fill="none" stroke="midnightblue" d="M69.21,-112.08C65.65,-104.69 60.48,-93.95 56.08,-84.81"/>
<polygon fill="midnightblue" stroke="midnightblue" points="59.21,-83.24 51.71,-75.75 52.9,-86.28 59.21,-83.24"/>
</g>
<!-- Node17&#45;&gt;Node5 -->
<g id="edge46" class="edge">
<title>Node17&#45;&gt;Node5</title>
<path fill="none" stroke="midnightblue" d="M481.86,-229.92C468.42,-221.2 449.17,-206.37 439.5,-188 422.22,-155.17 421.57,-110.59 422.88,-85.73"/>
<polygon fill="midnightblue" stroke="midnightblue" points="426.39,-85.74 423.59,-75.52 419.4,-85.25 426.39,-85.74"/>
</g>
<!-- Node17&#45;&gt;Node6 -->
<g id="edge48" class="edge">
<title>Node17&#45;&gt;Node6</title>
<path fill="none" stroke="midnightblue" d="M565.3,-230C616.33,-222.41 687.05,-209.16 746.5,-188 764.48,-181.6 766.42,-174.12 784.5,-168 875.03,-137.36 934.84,-205.02 996.5,-132 1012.47,-113.09 985.1,-93.05 961.35,-80.3"/>
<polygon fill="midnightblue" stroke="midnightblue" points="962.69,-77.06 952.19,-75.63 959.51,-83.29 962.69,-77.06"/>
</g>
<!-- Node17&#45;&gt;Node10 -->
<g id="edge47" class="edge">
<title>Node17&#45;&gt;Node10</title>
<path fill="none" stroke="midnightblue" d="M511.83,-229.98C529.47,-220.17 558.66,-203.93 579.36,-192.42"/>
<polygon fill="midnightblue" stroke="midnightblue" points="581.16,-195.43 588.2,-187.51 577.76,-189.31 581.16,-195.43"/>
</g>
<!-- Node18&#45;&gt;Node5 -->
<g id="edge51" class="edge">
<title>Node18&#45;&gt;Node5</title>
<path fill="none" stroke="midnightblue" d="M635.74,-226.43C584.75,-217.17 523.05,-203.39 501.5,-188 464.81,-161.8 441.5,-112.14 431,-85.3"/>
<polygon fill="midnightblue" stroke="midnightblue" points="434.17,-83.78 427.39,-75.63 427.61,-86.23 434.17,-83.78"/>
</g>
<!-- Node18&#45;&gt;Node6 -->
<g id="edge53" class="edge">
<title>Node18&#45;&gt;Node6</title>
<path fill="none" stroke="midnightblue" d="M729.67,-224.46C751.6,-208.24 790.21,-182 827.5,-168 914.92,-135.18 974.39,-203.46 1034.5,-132 1055.01,-107.62 1015.37,-89.3 979.68,-78.43"/>
<polygon fill="midnightblue" stroke="midnightblue" points="980.36,-74.98 969.78,-75.56 978.41,-81.7 980.36,-74.98"/>
</g>
<!-- Node18&#45;&gt;Node7 -->
<g id="edge50" class="edge">
<title>Node18&#45;&gt;Node7</title>
<path fill="none" stroke="midnightblue" d="M748.94,-224.4C775.69,-214.33 811.32,-200.91 836.9,-191.28"/>
<polygon fill="midnightblue" stroke="midnightblue" points="838.39,-194.46 846.51,-187.66 835.92,-187.91 838.39,-194.46"/>
</g>
<!-- Node18&#45;&gt;Node10 -->
<g id="edge52" class="edge">
<title>Node18&#45;&gt;Node10</title>
<path fill="none" stroke="midnightblue" d="M685.91,-224.4C668.43,-214.77 645.41,-202.09 628.14,-192.58"/>
<polygon fill="midnightblue" stroke="midnightblue" points="629.66,-189.42 619.22,-187.66 626.29,-195.55 629.66,-189.42"/>
</g>
<!-- Node19&#45;&gt;Node3 -->
<g id="edge55" class="edge">
<title>Node19&#45;&gt;Node3</title>
<path fill="none" stroke="midnightblue" d="M1350.23,-168.4C1346.37,-145.55 1332.46,-83.28 1292.5,-56 1250.41,-27.27 901.14,-15.34 779.27,-12.02"/>
<polygon fill="midnightblue" stroke="midnightblue" points="779.29,-8.52 769.2,-11.76 779.11,-15.52 779.29,-8.52"/>
</g>
<!-- Node19&#45;&gt;Node11 -->
<g id="edge56" class="edge">
<title>Node19&#45;&gt;Node11</title>
<path fill="none" stroke="midnightblue" d="M1306.68,-171.97C1218.7,-162.09 1023.56,-140.18 926.95,-129.34"/>
<polygon fill="midnightblue" stroke="midnightblue" points="927.12,-125.83 916.79,-128.2 926.34,-132.79 927.12,-125.83"/>
</g>
<!-- Node20&#45;&gt;Node3 -->
<g id="edge59" class="edge">
<title>Node20&#45;&gt;Node3</title>
<path fill="none" stroke="midnightblue" d="M1056.96,-363.72C1087.28,-339.65 1169.27,-269.03 1198.5,-188 1210.47,-154.8 1195.92,-140.79 1175.5,-112 1153.83,-81.44 1146.66,-71.38 1112.5,-56 1053.74,-29.55 864.15,-17.19 779.27,-12.87"/>
<polygon fill="midnightblue" stroke="midnightblue" points="779.37,-9.37 769.21,-12.37 779.03,-16.37 779.37,-9.37"/>
</g>
<!-- Node21 -->
<g id="node21" class="node">
<title>Node21</title>
<g id="a_node21"><a xlink:title=" ">
<polygon fill="white" stroke="#bfbfbf" points="958.5,-168.5 958.5,-187.5 1022.5,-187.5 1022.5,-168.5 958.5,-168.5"/>
<text text-anchor="middle" x="990.5" y="-175.5" font-family="Helvetica,sans-Serif" font-size="10.00">FastLED.h</text>
</a>
</g>
</g>
<!-- Node20&#45;&gt;Node21 -->
<g id="edge58" class="edge">
<title>Node20&#45;&gt;Node21</title>
<path fill="none" stroke="midnightblue" d="M1044.34,-363.9C1041.04,-340.73 1030.61,-275.31 1011.5,-224 1008.12,-214.91 1003.65,-205.12 999.71,-197"/>
<polygon fill="midnightblue" stroke="midnightblue" points="1002.71,-195.17 995.11,-187.78 996.44,-198.3 1002.71,-195.17"/>
</g>
<!-- Node22 -->
<g id="node22" class="node">
<title>Node22</title>
<g id="a_node22"><a xlink:href="FastLEDControllerStorage_8h_source.html" target="_top" xlink:title=" ">
<polygon fill="white" stroke="black" points="850,-297 850,-316 999,-316 999,-297 850,-297"/>
<text text-anchor="middle" x="924.5" y="-304" font-family="Helvetica,sans-Serif" font-size="10.00">FastLEDControllerStorage.h</text>
</a>
</g>
</g>
<!-- Node20&#45;&gt;Node22 -->
<g id="edge60" class="edge">
<title>Node20&#45;&gt;Node22</title>
<path fill="none" stroke="midnightblue" d="M1029.18,-363.73C1008.68,-352.72 973.3,-333.71 949.41,-320.88"/>
<polygon fill="midnightblue" stroke="midnightblue" points="951.03,-317.78 940.56,-316.13 947.71,-323.94 951.03,-317.78"/>
</g>
<!-- Node23 -->
<g id="node23" class="node">
<title>Node23</title>
<g id="a_node23"><a xlink:href="LEDController_8h.html" target="_top" xlink:title=" ">
<polygon fill="white" stroke="black" points="910.5,-230 910.5,-249 1002.5,-249 1002.5,-230 910.5,-230"/>
<text text-anchor="middle" x="956.5" y="-237" font-family="Helvetica,sans-Serif" font-size="10.00">LEDController.h</text>
</a>
</g>
</g>
<!-- Node20&#45;&gt;Node23 -->
<g id="edge66" class="edge">
<title>Node20&#45;&gt;Node23</title>
<path fill="none" stroke="midnightblue" d="M1042.78,-363.86C1037.64,-348.34 1025.49,-315.15 1008.5,-291 999.24,-277.84 986.27,-265.23 975.59,-255.91"/>
<polygon fill="midnightblue" stroke="midnightblue" points="977.54,-252.97 967.64,-249.18 973.02,-258.31 977.54,-252.97"/>
</g>
<!-- Node24 -->
<g id="node24" class="node">
<title>Node24</title>
<g id="a_node24"><a xlink:href="TemperatureController_8h.html" target="_top" xlink:title=" ">
<polygon fill="white" stroke="black" points="1040.5,-168.5 1040.5,-187.5 1174.5,-187.5 1174.5,-168.5 1040.5,-168.5"/>
<text text-anchor="middle" x="1107.5" y="-175.5" font-family="Helvetica,sans-Serif" font-size="10.00">TemperatureController.h</text>
</a>
</g>
</g>
<!-- Node20&#45;&gt;Node24 -->
<g id="edge67" class="edge">
<title>Node20&#45;&gt;Node24</title>
<path fill="none" stroke="midnightblue" d="M1048.24,-363.94C1057.6,-334.72 1088.42,-238.56 1101.52,-197.67"/>
<polygon fill="midnightblue" stroke="midnightblue" points="1104.93,-198.5 1104.65,-187.91 1098.26,-196.36 1104.93,-198.5"/>
</g>
<!-- Node22&#45;&gt;Node23 -->
<g id="edge61" class="edge">
<title>Node22&#45;&gt;Node23</title>
<path fill="none" stroke="midnightblue" d="M928.82,-296.73C933.66,-286.89 941.65,-270.66 947.81,-258.16"/>
<polygon fill="midnightblue" stroke="midnightblue" points="950.98,-259.64 952.25,-249.13 944.7,-256.55 950.98,-259.64"/>
</g>
<!-- Node23&#45;&gt;Node3 -->
<g id="edge63" class="edge">
<title>Node23&#45;&gt;Node3</title>
<path fill="none" stroke="midnightblue" d="M1002.64,-234.91C1062.32,-229.19 1161.27,-215.72 1183.5,-188 1189.06,-181.07 1186.69,-176.3 1183.5,-168 1159.46,-105.43 1141.85,-87.15 1082.5,-56 1030.61,-28.76 859.18,-16.96 779.23,-12.85"/>
<polygon fill="midnightblue" stroke="midnightblue" points="779.2,-9.34 769.03,-12.34 778.85,-16.33 779.2,-9.34"/>
</g>
<!-- Node23&#45;&gt;Node7 -->
<g id="edge64" class="edge">
<title>Node23&#45;&gt;Node7</title>
<path fill="none" stroke="midnightblue" d="M944.04,-229.98C930.08,-220.43 907.24,-204.81 890.51,-193.37"/>
<polygon fill="midnightblue" stroke="midnightblue" points="892.17,-190.27 881.94,-187.51 888.22,-196.04 892.17,-190.27"/>
</g>
<!-- Node23&#45;&gt;Node12 -->
<g id="edge65" class="edge">
<title>Node23&#45;&gt;Node12</title>
<path fill="none" stroke="midnightblue" d="M953.69,-229.84C948.25,-214.54 934.69,-182.95 911.5,-168 819.46,-108.67 774.52,-146.5 661.17,-131.97"/>
<polygon fill="midnightblue" stroke="midnightblue" points="661.47,-128.48 651.08,-130.56 660.5,-135.41 661.47,-128.48"/>
</g>
<!-- Node23&#45;&gt;Node21 -->
<g id="edge62" class="edge">
<title>Node23&#45;&gt;Node21</title>
<path fill="none" stroke="midnightblue" d="M961.37,-229.98C966.37,-221.23 974.29,-207.37 980.61,-196.31"/>
<polygon fill="midnightblue" stroke="midnightblue" points="983.72,-197.93 985.64,-187.51 977.64,-194.46 983.72,-197.93"/>
</g>
<!-- Node24&#45;&gt;Node3 -->
<g id="edge68" class="edge">
<title>Node24&#45;&gt;Node3</title>
<path fill="none" stroke="midnightblue" d="M1107.07,-168.4C1105.43,-145.56 1097.49,-83.3 1059.5,-56 1015.44,-24.35 856.02,-14.86 779.31,-12.09"/>
<polygon fill="midnightblue" stroke="midnightblue" points="779.17,-8.59 769.06,-11.75 778.93,-15.58 779.17,-8.59"/>
</g>
<!-- Node24&#45;&gt;Node13 -->
<g id="edge69" class="edge">
<title>Node24&#45;&gt;Node13</title>
<path fill="none" stroke="midnightblue" d="M1048.87,-168.44C982.84,-158.81 875.66,-143.16 805.87,-132.98"/>
<polygon fill="midnightblue" stroke="midnightblue" points="806.25,-129.5 795.85,-131.52 805.24,-136.42 806.25,-129.5"/>
</g>
</g>
</svg>
