<?xml version="1.0" encoding="UTF-8" standalone="no"?>
<!DOCTYPE svg PUBLIC "-//W3C//DTD SVG 1.1//EN"
 "http://www.w3.org/Graphics/SVG/1.1/DTD/svg11.dtd">
<!-- Generated by graphviz version 2.43.0 (0)
 -->
<!-- Title: src/CorsairLightingProtocol.h Pages: 1 -->
<svg width="1554pt" height="453pt"
 viewBox="0.00 0.00 1553.53 453.00" xmlns="http://www.w3.org/2000/svg" xmlns:xlink="http://www.w3.org/1999/xlink">
<g id="graph0" class="graph" transform="scale(1 1) rotate(0) translate(4 449)">
<title>src/CorsairLightingProtocol.h</title>
<polygon fill="white" stroke="transparent" points="-4,4 -4,-449 1549.53,-449 1549.53,4 -4,4"/>
<!-- Node1 -->
<g id="node1" class="node">
<title>Node1</title>
<g id="a_node1"><a xlink:title=" ">
<polygon fill="#bfbfbf" stroke="black" points="558.53,-425.5 558.53,-444.5 714.53,-444.5 714.53,-425.5 558.53,-425.5"/>
<text text-anchor="middle" x="636.53" y="-432.5" font-family="Helvetica,sans-Serif" font-size="10.00">src/CorsairLightingProtocol.h</text>
</a>
</g>
</g>
<!-- Node2 -->
<g id="node2" class="node">
<title>Node2</title>
<g id="a_node2"><a xlink:href="CLPAdditionalFeatures_8h_source.html" target="_top" xlink:title=" ">
<polygon fill="white" stroke="black" points="325.53,-168.5 325.53,-187.5 459.53,-187.5 459.53,-168.5 325.53,-168.5"/>
<text text-anchor="middle" x="392.53" y="-175.5" font-family="Helvetica,sans-Serif" font-size="10.00">CLPAdditionalFeatures.h</text>
</a>
</g>
</g>
<!-- Node1&#45;&gt;Node2 -->
<g id="edge1" class="edge">
<title>Node1&#45;&gt;Node2</title>
<path fill="none" stroke="midnightblue" d="M628.13,-425.22C592.64,-388.13 454.67,-243.94 408.03,-195.2"/>
<polygon fill="midnightblue" stroke="midnightblue" points="410.34,-192.55 400.89,-187.74 405.28,-197.39 410.34,-192.55"/>
</g>
<!-- Node4 -->
<g id="node4" class="node">
<title>Node4</title>
<g id="a_node4"><a xlink:href="CorsairLightingFirmware_8h_source.html" target="_top" xlink:title=" ">
<polygon fill="white" stroke="black" points="250.03,-112.5 250.03,-131.5 395.03,-131.5 395.03,-112.5 250.03,-112.5"/>
<text text-anchor="middle" x="322.53" y="-119.5" font-family="Helvetica,sans-Serif" font-size="10.00">CorsairLightingFirmware.h</text>
</a>
</g>
</g>
<!-- Node1&#45;&gt;Node4 -->
<g id="edge12" class="edge">
<title>Node1&#45;&gt;Node4</title>
<path fill="none" stroke="midnightblue" d="M610.58,-425.47C567.89,-409.61 487.53,-371.29 487.53,-307.5 487.53,-307.5 487.53,-307.5 487.53,-238.5 487.53,-206.05 491.06,-191.35 468.53,-168 451.69,-150.55 428.25,-139.82 405.08,-133.24"/>
<polygon fill="midnightblue" stroke="midnightblue" points="405.74,-129.8 395.19,-130.67 403.98,-136.57 405.74,-129.8"/>
</g>
<!-- Node5 -->
<g id="node5" class="node">
<title>Node5</title>
<g id="a_node5"><a xlink:href="CorsairLightingProtocolConstants_8h_source.html" target="_top" xlink:title=" ">
<polygon fill="white" stroke="black" points="339.53,-56.5 339.53,-75.5 527.53,-75.5 527.53,-56.5 339.53,-56.5"/>
<text text-anchor="middle" x="433.53" y="-63.5" font-family="Helvetica,sans-Serif" font-size="10.00">CorsairLightingProtocolConstants.h</text>
</a>
</g>
</g>
<!-- Node1&#45;&gt;Node5 -->
<g id="edge17" class="edge">
<title>Node1&#45;&gt;Node5</title>
<path fill="none" stroke="midnightblue" d="M558.46,-429.35C463.91,-422.92 310.71,-409.7 257.53,-389 210.06,-370.52 187.75,-367.34 164.53,-322 158.25,-309.74 159.84,-303.95 164.53,-291 171.62,-271.42 184.49,-273.25 194.53,-255 226.71,-196.51 191.42,-157.23 240.53,-112 257.62,-96.26 310.42,-84.6 356.48,-77.1"/>
<polygon fill="midnightblue" stroke="midnightblue" points="357.16,-80.53 366.49,-75.51 356.07,-73.62 357.16,-80.53"/>
</g>
<!-- Node6 -->
<g id="node6" class="node">
<title>Node6</title>
<g id="a_node6"><a xlink:href="CorsairLightingProtocolResponse_8h_source.html" target="_top" xlink:title=" ">
<polygon fill="white" stroke="black" points="634.53,-56.5 634.53,-75.5 820.53,-75.5 820.53,-56.5 634.53,-56.5"/>
<text text-anchor="middle" x="727.53" y="-63.5" font-family="Helvetica,sans-Serif" font-size="10.00">CorsairLightingProtocolResponse.h</text>
</a>
</g>
</g>
<!-- Node1&#45;&gt;Node6 -->
<g id="edge44" class="edge">
<title>Node1&#45;&gt;Node6</title>
<path fill="none" stroke="midnightblue" d="M683.94,-425.44C772.81,-408.03 955.53,-365.22 955.53,-307.5 955.53,-307.5 955.53,-307.5 955.53,-177 955.53,-117.15 891.02,-89.85 830.63,-77.4"/>
<polygon fill="midnightblue" stroke="midnightblue" points="831.08,-73.93 820.59,-75.46 829.75,-80.8 831.08,-73.93"/>
</g>
<!-- Node7 -->
<g id="node7" class="node">
<title>Node7</title>
<g id="a_node7"><a xlink:href="CLPUtils_8h_source.html" target="_top" xlink:title=" ">
<polygon fill="white" stroke="black" points="983.53,-168.5 983.53,-187.5 1049.53,-187.5 1049.53,-168.5 983.53,-168.5"/>
<text text-anchor="middle" x="1016.53" y="-175.5" font-family="Helvetica,sans-Serif" font-size="10.00">CLPUtils.h</text>
</a>
</g>
</g>
<!-- Node1&#45;&gt;Node7 -->
<g id="edge9" class="edge">
<title>Node1&#45;&gt;Node7</title>
<path fill="none" stroke="midnightblue" d="M714.72,-433.45C801.3,-431.16 933.42,-422.13 969.53,-389 1024.38,-338.67 1022.32,-239.46 1018.71,-197.95"/>
<polygon fill="midnightblue" stroke="midnightblue" points="1022.18,-197.47 1017.7,-187.87 1015.21,-198.17 1022.18,-197.47"/>
</g>
<!-- Node8 -->
<g id="node8" class="node">
<title>Node8</title>
<g id="a_node8"><a xlink:href="CorsairLightingFirmwareStorageEEPROM_8h_source.html" target="_top" xlink:title=" ">
<polygon fill="white" stroke="black" points="174.03,-291.5 174.03,-321.5 347.03,-321.5 347.03,-291.5 174.03,-291.5"/>
<text text-anchor="start" x="182.03" y="-309.5" font-family="Helvetica,sans-Serif" font-size="10.00">CorsairLightingFirmwareStorage</text>
<text text-anchor="middle" x="260.53" y="-298.5" font-family="Helvetica,sans-Serif" font-size="10.00">EEPROM.h</text>
</a>
</g>
</g>
<!-- Node1&#45;&gt;Node8 -->
<g id="edge13" class="edge">
<title>Node1&#45;&gt;Node8</title>
<path fill="none" stroke="midnightblue" d="M558.48,-434.58C465.03,-433.56 316.14,-425.95 276.53,-389 261.1,-374.61 258.08,-350.05 258.33,-331.65"/>
<polygon fill="midnightblue" stroke="midnightblue" points="261.82,-331.79 258.78,-321.64 254.83,-331.48 261.82,-331.79"/>
</g>
<!-- Node9 -->
<g id="node9" class="node">
<title>Node9</title>
<g id="a_node9"><a xlink:href="CorsairLightingFirmwareStorageStatic_8h_source.html" target="_top" xlink:title=" ">
<polygon fill="white" stroke="black" points="286.03,-358.5 286.03,-388.5 459.03,-388.5 459.03,-358.5 286.03,-358.5"/>
<text text-anchor="start" x="294.03" y="-376.5" font-family="Helvetica,sans-Serif" font-size="10.00">CorsairLightingFirmwareStorage</text>
<text text-anchor="middle" x="372.53" y="-365.5" font-family="Helvetica,sans-Serif" font-size="10.00">Static.h</text>
</a>
</g>
</g>
<!-- Node1&#45;&gt;Node9 -->
<g id="edge15" class="edge">
<title>Node1&#45;&gt;Node9</title>
<path fill="none" stroke="midnightblue" d="M598.7,-425.48C558.61,-416.44 494.31,-401.95 444.51,-390.72"/>
<polygon fill="midnightblue" stroke="midnightblue" points="445.27,-387.31 434.75,-388.52 443.73,-394.14 445.27,-387.31"/>
</g>
<!-- Node10 -->
<g id="node10" class="node">
<title>Node10</title>
<g id="a_node10"><a xlink:href="CorsairLightingProtocolController_8h_source.html" target="_top" xlink:title=" ">
<polygon fill="white" stroke="black" points="659.53,-168.5 659.53,-187.5 845.53,-187.5 845.53,-168.5 659.53,-168.5"/>
<text text-anchor="middle" x="752.53" y="-175.5" font-family="Helvetica,sans-Serif" font-size="10.00">CorsairLightingProtocolController.h</text>
</a>
</g>
</g>
<!-- Node1&#45;&gt;Node10 -->
<g id="edge18" class="edge">
<title>Node1&#45;&gt;Node10</title>
<path fill="none" stroke="midnightblue" d="M641.77,-425.34C656.99,-399.93 701.81,-323.12 729.53,-255 737.31,-235.89 743.85,-213.15 747.95,-197.55"/>
<polygon fill="midnightblue" stroke="midnightblue" points="751.4,-198.17 750.48,-187.61 744.62,-196.44 751.4,-198.17"/>
</g>
<!-- Node14 -->
<g id="node14" class="node">
<title>Node14</title>
<g id="a_node14"><a xlink:href="CorsairLightingProtocolHID_8h_source.html" target="_top" xlink:title=" ">
<polygon fill="white" stroke="black" points="29.03,-230 29.03,-249 186.03,-249 186.03,-230 29.03,-230"/>
<text text-anchor="middle" x="107.53" y="-237" font-family="Helvetica,sans-Serif" font-size="10.00">CorsairLightingProtocolHID.h</text>
</a>
</g>
</g>
<!-- Node1&#45;&gt;Node14 -->
<g id="edge35" class="edge">
<title>Node1&#45;&gt;Node14</title>
<path fill="none" stroke="midnightblue" d="M558.45,-432.23C424.44,-428.43 162.07,-417.43 131.53,-389 95.61,-355.56 99.49,-291.19 104.1,-259.32"/>
<polygon fill="midnightblue" stroke="midnightblue" points="107.6,-259.6 105.75,-249.17 100.69,-258.48 107.6,-259.6"/>
</g>
<!-- Node17 -->
<g id="node17" class="node">
<title>Node17</title>
<g id="a_node17"><a xlink:href="CorsairLightingProtocolSerial_8h_source.html" target="_top" xlink:title=" ">
<polygon fill="white" stroke="black" points="553.03,-230 553.03,-249 720.03,-249 720.03,-230 553.03,-230"/>
<text text-anchor="middle" x="636.53" y="-237" font-family="Helvetica,sans-Serif" font-size="10.00">CorsairLightingProtocolSerial.h</text>
</a>
</g>
</g>
<!-- Node1&#45;&gt;Node17 -->
<g id="edge45" class="edge">
<title>Node1&#45;&gt;Node17</title>
<path fill="none" stroke="midnightblue" d="M636.53,-425.44C636.53,-396.29 636.53,-300.47 636.53,-259.43"/>
<polygon fill="midnightblue" stroke="midnightblue" points="640.03,-259.41 636.53,-249.41 633.03,-259.41 640.03,-259.41"/>
</g>
<!-- Node18 -->
<g id="node18" class="node">
<title>Node18</title>
<g id="a_node18"><a xlink:href="CorsairLightingProtocolTinyUSBHID_8h_source.html" target="_top" xlink:title=" ">
<polygon fill="white" stroke="black" points="776.03,-224.5 776.03,-254.5 927.03,-254.5 927.03,-224.5 776.03,-224.5"/>
<text text-anchor="start" x="784.03" y="-242.5" font-family="Helvetica,sans-Serif" font-size="10.00">CorsairLightingProtocolTiny</text>
<text text-anchor="middle" x="851.53" y="-231.5" font-family="Helvetica,sans-Serif" font-size="10.00">USBHID.h</text>
</a>
</g>
</g>
<!-- Node1&#45;&gt;Node18 -->
<g id="edge49" class="edge">
<title>Node1&#45;&gt;Node18</title>
<path fill="none" stroke="midnightblue" d="M682.19,-425.44C707.67,-418.86 738.77,-407.62 761.53,-389 803,-355.06 830.28,-296.66 843.07,-264.12"/>
<polygon fill="midnightblue" stroke="midnightblue" points="846.43,-265.13 846.72,-254.53 839.89,-262.64 846.43,-265.13"/>
</g>
<!-- Node19 -->
<g id="node19" class="node">
<title>Node19</title>
<g id="a_node19"><a xlink:href="FanController_8h.html" target="_top" xlink:title=" ">
<polygon fill="white" stroke="black" points="1068.03,-168.5 1068.03,-187.5 1157.03,-187.5 1157.03,-168.5 1068.03,-168.5"/>
<text text-anchor="middle" x="1112.53" y="-175.5" font-family="Helvetica,sans-Serif" font-size="10.00">FanController.h</text>
</a>
</g>
</g>
<!-- Node1&#45;&gt;Node19 -->
<g id="edge54" class="edge">
<title>Node1&#45;&gt;Node19</title>
<path fill="none" stroke="midnightblue" d="M714.83,-432.27C806.13,-428.86 950.21,-418.8 994.53,-389 1064.3,-342.09 1097.26,-239.35 1108.19,-197.4"/>
<polygon fill="midnightblue" stroke="midnightblue" points="1111.59,-198.24 1110.61,-187.69 1104.8,-196.55 1111.59,-198.24"/>
</g>
<!-- Node20 -->
<g id="node20" class="node">
<title>Node20</title>
<g id="a_node20"><a xlink:href="FastLEDController_8h_source.html" target="_top" xlink:title=" ">
<polygon fill="white" stroke="black" points="1307.03,-364 1307.03,-383 1418.03,-383 1418.03,-364 1307.03,-364"/>
<text text-anchor="middle" x="1362.53" y="-371" font-family="Helvetica,sans-Serif" font-size="10.00">FastLEDController.h</text>
</a>
</g>
</g>
<!-- Node1&#45;&gt;Node20 -->
<g id="edge57" class="edge">
<title>Node1&#45;&gt;Node20</title>
<path fill="none" stroke="midnightblue" d="M714.57,-427.6C858.41,-415.82 1162.87,-390.86 1296.88,-379.88"/>
<polygon fill="midnightblue" stroke="midnightblue" points="1297.32,-383.36 1307,-379.05 1296.75,-376.38 1297.32,-383.36"/>
</g>
<!-- Node3 -->
<g id="node3" class="node">
<title>Node3</title>
<g id="a_node3"><a xlink:title=" ">
<polygon fill="white" stroke="#bfbfbf" points="756.03,-0.5 756.03,-19.5 819.03,-19.5 819.03,-0.5 756.03,-0.5"/>
<text text-anchor="middle" x="787.53" y="-7.5" font-family="Helvetica,sans-Serif" font-size="10.00">Arduino.h</text>
</a>
</g>
</g>
<!-- Node2&#45;&gt;Node3 -->
<g id="edge2" class="edge">
<title>Node2&#45;&gt;Node3</title>
<path fill="none" stroke="midnightblue" d="M325.45,-172.49C276.27,-166.03 221.18,-150.3 240.53,-112 259.45,-74.55 277.34,-70.98 316.53,-56 394.53,-26.18 645.69,-15.34 745.79,-12.15"/>
<polygon fill="midnightblue" stroke="midnightblue" points="745.95,-15.64 755.84,-11.83 745.73,-8.65 745.95,-15.64"/>
</g>
<!-- Node2&#45;&gt;Node4 -->
<g id="edge3" class="edge">
<title>Node2&#45;&gt;Node4</title>
<path fill="none" stroke="midnightblue" d="M381.28,-168.32C370.73,-160.18 354.73,-147.84 342.09,-138.09"/>
<polygon fill="midnightblue" stroke="midnightblue" points="344.04,-135.17 333.98,-131.83 339.76,-140.71 344.04,-135.17"/>
</g>
<!-- Node4&#45;&gt;Node3 -->
<g id="edge4" class="edge">
<title>Node4&#45;&gt;Node3</title>
<path fill="none" stroke="midnightblue" d="M320.6,-112.39C318.03,-98.39 315.39,-70.77 330.53,-56 359.93,-27.3 638.29,-15.64 745.61,-12.19"/>
<polygon fill="midnightblue" stroke="midnightblue" points="745.87,-15.68 755.75,-11.87 745.65,-8.69 745.87,-15.68"/>
</g>
<!-- Node4&#45;&gt;Node5 -->
<g id="edge5" class="edge">
<title>Node4&#45;&gt;Node5</title>
<path fill="none" stroke="midnightblue" d="M340.36,-112.32C358.25,-103.62 386,-90.12 406.57,-80.11"/>
<polygon fill="midnightblue" stroke="midnightblue" points="408.28,-83.18 415.74,-75.65 405.22,-76.88 408.28,-83.18"/>
</g>
<!-- Node4&#45;&gt;Node6 -->
<g id="edge7" class="edge">
<title>Node4&#45;&gt;Node6</title>
<path fill="none" stroke="midnightblue" d="M386.7,-112.44C459.28,-102.77 577.27,-87.04 653.63,-76.85"/>
<polygon fill="midnightblue" stroke="midnightblue" points="654.21,-80.31 663.66,-75.52 653.28,-73.37 654.21,-80.31"/>
</g>
<!-- Node5&#45;&gt;Node3 -->
<g id="edge6" class="edge">
<title>Node5&#45;&gt;Node3</title>
<path fill="none" stroke="midnightblue" d="M489.62,-56.44C560.91,-45.57 682.31,-27.05 745.89,-17.35"/>
<polygon fill="midnightblue" stroke="midnightblue" points="746.6,-20.78 755.96,-15.82 745.54,-13.86 746.6,-20.78"/>
</g>
<!-- Node6&#45;&gt;Node3 -->
<g id="edge8" class="edge">
<title>Node6&#45;&gt;Node3</title>
<path fill="none" stroke="midnightblue" d="M737.17,-56.32C746.04,-48.34 759.4,-36.31 770.14,-26.65"/>
<polygon fill="midnightblue" stroke="midnightblue" points="772.62,-29.13 777.71,-19.83 767.94,-23.92 772.62,-29.13"/>
</g>
<!-- Node7&#45;&gt;Node3 -->
<g id="edge10" class="edge">
<title>Node7&#45;&gt;Node3</title>
<path fill="none" stroke="midnightblue" d="M1045.81,-168.43C1073.72,-159.6 1112.77,-145.29 1121.53,-132 1140.12,-103.8 1143.76,-81.43 1121.53,-56 1084.07,-13.16 910.71,-9.44 829.59,-10.13"/>
<polygon fill="midnightblue" stroke="midnightblue" points="829.2,-6.63 819.24,-10.24 829.28,-13.63 829.2,-6.63"/>
</g>
<!-- Node7&#45;&gt;Node4 -->
<g id="edge11" class="edge">
<title>Node7&#45;&gt;Node4</title>
<path fill="none" stroke="midnightblue" d="M983.52,-174.43C879.84,-166.36 558.48,-141.36 405.33,-129.44"/>
<polygon fill="midnightblue" stroke="midnightblue" points="405.29,-125.93 395.04,-128.64 404.74,-132.91 405.29,-125.93"/>
</g>
<!-- Node8&#45;&gt;Node4 -->
<g id="edge14" class="edge">
<title>Node8&#45;&gt;Node4</title>
<path fill="none" stroke="midnightblue" d="M260.42,-291.5C260.73,-265.78 263.84,-209.83 283.53,-168 288.68,-157.06 297.27,-146.72 305.08,-138.71"/>
<polygon fill="midnightblue" stroke="midnightblue" points="307.72,-141.03 312.47,-131.56 302.85,-136 307.72,-141.03"/>
</g>
<!-- Node9&#45;&gt;Node4 -->
<g id="edge16" class="edge">
<title>Node9&#45;&gt;Node4</title>
<path fill="none" stroke="midnightblue" d="M370.29,-358.49C367.53,-342.13 362.33,-314.31 355.53,-291 341.82,-244.01 325.34,-236.15 316.53,-188 313.72,-172.65 315.67,-155.01 318.07,-141.99"/>
<polygon fill="midnightblue" stroke="midnightblue" points="321.56,-142.41 320.19,-131.9 314.71,-140.97 321.56,-142.41"/>
</g>
<!-- Node10&#45;&gt;Node3 -->
<g id="edge19" class="edge">
<title>Node10&#45;&gt;Node3</title>
<path fill="none" stroke="midnightblue" d="M670.82,-168.47C623.73,-161.68 571.05,-150.23 556.53,-132 550.99,-125.05 553.2,-120.24 556.53,-112 585.89,-39.25 687.38,-18.86 745.6,-13.17"/>
<polygon fill="midnightblue" stroke="midnightblue" points="745.93,-16.66 755.59,-12.3 745.32,-9.68 745.93,-16.66"/>
</g>
<!-- Node10&#45;&gt;Node4 -->
<g id="edge20" class="edge">
<title>Node10&#45;&gt;Node4</title>
<path fill="none" stroke="midnightblue" d="M684.39,-168.44C607.18,-158.75 481.56,-142.97 400.49,-132.79"/>
<polygon fill="midnightblue" stroke="midnightblue" points="400.7,-129.29 390.35,-131.52 399.83,-136.24 400.7,-129.29"/>
</g>
<!-- Node10&#45;&gt;Node5 -->
<g id="edge21" class="edge">
<title>Node10&#45;&gt;Node5</title>
<path fill="none" stroke="midnightblue" d="M662.87,-168.47C619.46,-162.1 567.38,-151.05 523.53,-132 495.27,-119.73 467.21,-97.44 450.12,-82.43"/>
<polygon fill="midnightblue" stroke="midnightblue" points="452.44,-79.8 442.66,-75.72 447.76,-85.01 452.44,-79.8"/>
</g>
<!-- Node10&#45;&gt;Node6 -->
<g id="edge22" class="edge">
<title>Node10&#45;&gt;Node6</title>
<path fill="none" stroke="midnightblue" d="M750.57,-168.37C746.53,-150.62 737.23,-109.67 731.76,-85.6"/>
<polygon fill="midnightblue" stroke="midnightblue" points="735.11,-84.57 729.48,-75.59 728.29,-86.12 735.11,-84.57"/>
</g>
<!-- Node11 -->
<g id="node11" class="node">
<title>Node11</title>
<g id="a_node11"><a xlink:href="IFanController_8h_source.html" target="_top" xlink:title=" ">
<polygon fill="white" stroke="black" points="565.53,-112.5 565.53,-131.5 657.53,-131.5 657.53,-112.5 565.53,-112.5"/>
<text text-anchor="middle" x="611.53" y="-119.5" font-family="Helvetica,sans-Serif" font-size="10.00">IFanController.h</text>
</a>
</g>
</g>
<!-- Node10&#45;&gt;Node11 -->
<g id="edge23" class="edge">
<title>Node10&#45;&gt;Node11</title>
<path fill="none" stroke="midnightblue" d="M730.19,-168.44C706.78,-159.48 669.79,-145.31 643.34,-135.18"/>
<polygon fill="midnightblue" stroke="midnightblue" points="644.36,-131.82 633.77,-131.52 641.85,-138.36 644.36,-131.82"/>
</g>
<!-- Node12 -->
<g id="node12" class="node">
<title>Node12</title>
<g id="a_node12"><a xlink:href="ILEDController_8h_source.html" target="_top" xlink:title=" ">
<polygon fill="white" stroke="black" points="984.03,-112.5 984.03,-131.5 1079.03,-131.5 1079.03,-112.5 984.03,-112.5"/>
<text text-anchor="middle" x="1031.53" y="-119.5" font-family="Helvetica,sans-Serif" font-size="10.00">ILEDController.h</text>
</a>
</g>
</g>
<!-- Node10&#45;&gt;Node12 -->
<g id="edge27" class="edge">
<title>Node10&#45;&gt;Node12</title>
<path fill="none" stroke="midnightblue" d="M796.74,-168.44C845.82,-158.94 925.04,-143.61 977.69,-133.42"/>
<polygon fill="midnightblue" stroke="midnightblue" points="978.38,-136.85 987.53,-131.52 977.04,-129.98 978.38,-136.85"/>
</g>
<!-- Node13 -->
<g id="node13" class="node">
<title>Node13</title>
<g id="a_node13"><a xlink:href="ITemperatureController_8h_source.html" target="_top" xlink:title=" ">
<polygon fill="white" stroke="black" points="752.03,-112.5 752.03,-131.5 889.03,-131.5 889.03,-112.5 752.03,-112.5"/>
<text text-anchor="middle" x="820.53" y="-119.5" font-family="Helvetica,sans-Serif" font-size="10.00">ITemperatureController.h</text>
</a>
</g>
</g>
<!-- Node10&#45;&gt;Node13 -->
<g id="edge31" class="edge">
<title>Node10&#45;&gt;Node13</title>
<path fill="none" stroke="midnightblue" d="M763.45,-168.32C773.7,-160.18 789.25,-147.84 801.53,-138.09"/>
<polygon fill="midnightblue" stroke="midnightblue" points="803.75,-140.79 809.41,-131.83 799.4,-135.31 803.75,-140.79"/>
</g>
<!-- Node11&#45;&gt;Node3 -->
<g id="edge24" class="edge">
<title>Node11&#45;&gt;Node3</title>
<path fill="none" stroke="midnightblue" d="M610.77,-112.13C610.1,-98.27 610.96,-71.45 625.53,-56 656.33,-23.33 708.6,-13.68 745.42,-11.17"/>
<polygon fill="midnightblue" stroke="midnightblue" points="746.04,-14.64 755.84,-10.62 745.67,-7.65 746.04,-14.64"/>
</g>
<!-- Node11&#45;&gt;Node5 -->
<g id="edge25" class="edge">
<title>Node11&#45;&gt;Node5</title>
<path fill="none" stroke="midnightblue" d="M583.32,-112.44C553.12,-103.28 505.02,-88.69 471.5,-78.52"/>
<polygon fill="midnightblue" stroke="midnightblue" points="472.19,-75.07 461.6,-75.52 470.16,-81.77 472.19,-75.07"/>
</g>
<!-- Node11&#45;&gt;Node6 -->
<g id="edge26" class="edge">
<title>Node11&#45;&gt;Node6</title>
<path fill="none" stroke="midnightblue" d="M629.91,-112.44C648.75,-103.68 678.26,-89.94 699.91,-79.86"/>
<polygon fill="midnightblue" stroke="midnightblue" points="701.65,-82.91 709.23,-75.52 698.69,-76.56 701.65,-82.91"/>
</g>
<!-- Node12&#45;&gt;Node3 -->
<g id="edge28" class="edge">
<title>Node12&#45;&gt;Node3</title>
<path fill="none" stroke="midnightblue" d="M1012.38,-112.37C969.62,-93.09 866.17,-46.45 815.9,-23.79"/>
<polygon fill="midnightblue" stroke="midnightblue" points="817.14,-20.51 806.59,-19.59 814.26,-26.89 817.14,-20.51"/>
</g>
<!-- Node12&#45;&gt;Node5 -->
<g id="edge29" class="edge">
<title>Node12&#45;&gt;Node5</title>
<path fill="none" stroke="midnightblue" d="M983.85,-116.69C887.71,-108.01 668.63,-88.23 537.73,-76.41"/>
<polygon fill="midnightblue" stroke="midnightblue" points="537.96,-72.92 527.68,-75.5 537.33,-79.89 537.96,-72.92"/>
</g>
<!-- Node12&#45;&gt;Node6 -->
<g id="edge30" class="edge">
<title>Node12&#45;&gt;Node6</title>
<path fill="none" stroke="midnightblue" d="M983.69,-112.5C930.06,-102.98 843.1,-87.53 785.61,-77.32"/>
<polygon fill="midnightblue" stroke="midnightblue" points="786.04,-73.84 775.59,-75.54 784.82,-80.73 786.04,-73.84"/>
</g>
<!-- Node13&#45;&gt;Node3 -->
<g id="edge32" class="edge">
<title>Node13&#45;&gt;Node3</title>
<path fill="none" stroke="midnightblue" d="M824.43,-112.26C829.54,-99.46 837.05,-75.08 829.53,-56 825.02,-44.55 816.06,-34.29 807.57,-26.47"/>
<polygon fill="midnightblue" stroke="midnightblue" points="809.61,-23.61 799.74,-19.76 805.06,-28.93 809.61,-23.61"/>
</g>
<!-- Node13&#45;&gt;Node5 -->
<g id="edge33" class="edge">
<title>Node13&#45;&gt;Node5</title>
<path fill="none" stroke="midnightblue" d="M759.21,-112.44C690,-102.79 577.57,-87.1 504.59,-76.92"/>
<polygon fill="midnightblue" stroke="midnightblue" points="504.95,-73.43 494.56,-75.52 503.98,-80.36 504.95,-73.43"/>
</g>
<!-- Node13&#45;&gt;Node6 -->
<g id="edge34" class="edge">
<title>Node13&#45;&gt;Node6</title>
<path fill="none" stroke="midnightblue" d="M805.59,-112.32C790.94,-103.82 768.4,-90.73 751.29,-80.8"/>
<polygon fill="midnightblue" stroke="midnightblue" points="752.84,-77.65 742.43,-75.65 749.32,-83.7 752.84,-77.65"/>
</g>
<!-- Node14&#45;&gt;Node3 -->
<g id="edge36" class="edge">
<title>Node14&#45;&gt;Node3</title>
<path fill="none" stroke="midnightblue" d="M94.17,-229.95C70.71,-214.03 22.85,-177.31 4.53,-132 -10.11,-95.82 13.96,-74.12 48.53,-56 110.24,-23.65 597.54,-13.82 745.24,-11.57"/>
<polygon fill="midnightblue" stroke="midnightblue" points="745.73,-15.06 755.68,-11.41 745.63,-8.06 745.73,-15.06"/>
</g>
<!-- Node14&#45;&gt;Node5 -->
<g id="edge37" class="edge">
<title>Node14&#45;&gt;Node5</title>
<path fill="none" stroke="midnightblue" d="M106.16,-229.89C103.07,-206.98 98.17,-144.07 131.53,-112 159.37,-85.24 253.36,-74.36 329.17,-69.96"/>
<polygon fill="midnightblue" stroke="midnightblue" points="329.47,-73.45 339.26,-69.4 329.09,-66.46 329.47,-73.45"/>
</g>
<!-- Node14&#45;&gt;Node6 -->
<g id="edge39" class="edge">
<title>Node14&#45;&gt;Node6</title>
<path fill="none" stroke="midnightblue" d="M113.44,-229.72C130.1,-205.79 180.18,-139.41 240.53,-112 274.51,-96.57 491.47,-81.11 624.08,-72.94"/>
<polygon fill="midnightblue" stroke="midnightblue" points="624.5,-76.42 634.27,-72.32 624.07,-69.43 624.5,-76.42"/>
</g>
<!-- Node14&#45;&gt;Node10 -->
<g id="edge38" class="edge">
<title>Node14&#45;&gt;Node10</title>
<path fill="none" stroke="midnightblue" d="M186.3,-231.23C302.78,-220.49 521.05,-200.35 649.91,-188.47"/>
<polygon fill="midnightblue" stroke="midnightblue" points="650.55,-191.92 660.18,-187.52 649.9,-184.95 650.55,-191.92"/>
</g>
<!-- Node15 -->
<g id="node15" class="node">
<title>Node15</title>
<g id="a_node15"><a xlink:href="RawHID_8h_source.html" target="_top" xlink:title=" ">
<polygon fill="white" stroke="black" points="14.03,-112.5 14.03,-131.5 79.03,-131.5 79.03,-112.5 14.03,-112.5"/>
<text text-anchor="middle" x="46.53" y="-119.5" font-family="Helvetica,sans-Serif" font-size="10.00">RawHID.h</text>
</a>
</g>
</g>
<!-- Node14&#45;&gt;Node15 -->
<g id="edge40" class="edge">
<title>Node14&#45;&gt;Node15</title>
<path fill="none" stroke="midnightblue" d="M102.94,-229.82C93.01,-211.01 69.32,-166.15 56.01,-140.96"/>
<polygon fill="midnightblue" stroke="midnightblue" points="58.93,-138.99 51.17,-131.78 52.74,-142.26 58.93,-138.99"/>
</g>
<!-- Node15&#45;&gt;Node3 -->
<g id="edge41" class="edge">
<title>Node15&#45;&gt;Node3</title>
<path fill="none" stroke="midnightblue" d="M46.18,-112.14C46.16,-97.78 48.45,-69.65 65.53,-56 118.65,-13.54 598.65,-10.72 745.22,-10.85"/>
<polygon fill="midnightblue" stroke="midnightblue" points="745.58,-14.35 755.59,-10.87 745.59,-7.35 745.58,-14.35"/>
</g>
<!-- Node15&#45;&gt;Node5 -->
<g id="edge42" class="edge">
<title>Node15&#45;&gt;Node5</title>
<path fill="none" stroke="midnightblue" d="M79.1,-114.51C83.93,-113.62 88.85,-112.76 93.53,-112 180.65,-97.91 280.85,-85.05 349.79,-76.72"/>
<polygon fill="midnightblue" stroke="midnightblue" points="350.22,-80.19 359.73,-75.52 349.38,-73.24 350.22,-80.19"/>
</g>
<!-- Node16 -->
<g id="node16" class="node">
<title>Node16</title>
<g id="a_node16"><a xlink:title=" ">
<polygon fill="white" stroke="#bfbfbf" points="74.53,-56.5 74.53,-75.5 118.53,-75.5 118.53,-56.5 74.53,-56.5"/>
<text text-anchor="middle" x="96.53" y="-63.5" font-family="Helvetica,sans-Serif" font-size="10.00">HID.h</text>
</a>
</g>
</g>
<!-- Node15&#45;&gt;Node16 -->
<g id="edge43" class="edge">
<title>Node15&#45;&gt;Node16</title>
<path fill="none" stroke="midnightblue" d="M54.79,-112.08C61.99,-104.3 72.64,-92.8 81.38,-83.37"/>
<polygon fill="midnightblue" stroke="midnightblue" points="84.2,-85.47 88.43,-75.75 79.06,-80.71 84.2,-85.47"/>
</g>
<!-- Node17&#45;&gt;Node5 -->
<g id="edge46" class="edge">
<title>Node17&#45;&gt;Node5</title>
<path fill="none" stroke="midnightblue" d="M619.36,-229.85C574.97,-207.35 459.06,-147.65 447.53,-132 437.79,-118.79 434.55,-100.2 433.6,-86.28"/>
<polygon fill="midnightblue" stroke="midnightblue" points="437.08,-85.79 433.24,-75.91 430.09,-86.03 437.08,-85.79"/>
</g>
<!-- Node17&#45;&gt;Node6 -->
<g id="edge48" class="edge">
<title>Node17&#45;&gt;Node6</title>
<path fill="none" stroke="midnightblue" d="M636.99,-229.87C637.99,-216.19 641.09,-188.93 650.53,-168 665.69,-134.38 693.91,-101.58 711.65,-82.88"/>
<polygon fill="midnightblue" stroke="midnightblue" points="714.31,-85.16 718.76,-75.55 709.29,-80.29 714.31,-85.16"/>
</g>
<!-- Node17&#45;&gt;Node10 -->
<g id="edge47" class="edge">
<title>Node17&#45;&gt;Node10</title>
<path fill="none" stroke="midnightblue" d="M653.15,-229.98C672.44,-220.08 704.49,-203.64 726.96,-192.12"/>
<polygon fill="midnightblue" stroke="midnightblue" points="728.64,-195.19 735.94,-187.51 725.44,-188.96 728.64,-195.19"/>
</g>
<!-- Node18&#45;&gt;Node3 -->
<g id="edge50" class="edge">
<title>Node18&#45;&gt;Node3</title>
<path fill="none" stroke="midnightblue" d="M873.01,-224.29C896.99,-208.88 937.33,-184.31 974.53,-168 1026.23,-145.33 1121.41,-157.88 1088.53,-112 1028.95,-28.86 897.58,-13.18 829.81,-10.85"/>
<polygon fill="midnightblue" stroke="midnightblue" points="829.59,-7.34 819.5,-10.58 829.41,-14.34 829.59,-7.34"/>
</g>
<!-- Node18&#45;&gt;Node5 -->
<g id="edge51" class="edge">
<title>Node18&#45;&gt;Node5</title>
<path fill="none" stroke="midnightblue" d="M776.01,-231.21C697.09,-220.46 572.69,-194.34 484.53,-132 466.85,-119.5 452.29,-99.15 443.32,-84.54"/>
<polygon fill="midnightblue" stroke="midnightblue" points="446.33,-82.77 438.25,-75.92 440.3,-86.31 446.33,-82.77"/>
</g>
<!-- Node18&#45;&gt;Node6 -->
<g id="edge53" class="edge">
<title>Node18&#45;&gt;Node6</title>
<path fill="none" stroke="midnightblue" d="M865.06,-224.25C887.06,-199.31 925.56,-147.07 898.53,-112 886.24,-96.05 841.64,-84.63 801.07,-77.29"/>
<polygon fill="midnightblue" stroke="midnightblue" points="801.59,-73.83 791.14,-75.55 800.39,-80.72 801.59,-73.83"/>
</g>
<!-- Node18&#45;&gt;Node10 -->
<g id="edge52" class="edge">
<title>Node18&#45;&gt;Node10</title>
<path fill="none" stroke="midnightblue" d="M828.07,-224.4C812.2,-214.86 791.34,-202.32 775.56,-192.84"/>
<polygon fill="midnightblue" stroke="midnightblue" points="777.31,-189.81 766.93,-187.66 773.7,-195.81 777.31,-189.81"/>
</g>
<!-- Node19&#45;&gt;Node3 -->
<g id="edge55" class="edge">
<title>Node19&#45;&gt;Node3</title>
<path fill="none" stroke="midnightblue" d="M1119.01,-168.46C1134.6,-146.83 1170.8,-89.23 1141.53,-56 1121.14,-32.86 918.31,-18.49 829.18,-13.25"/>
<polygon fill="midnightblue" stroke="midnightblue" points="829.33,-9.75 819.14,-12.67 828.92,-16.74 829.33,-9.75"/>
</g>
<!-- Node19&#45;&gt;Node11 -->
<g id="edge56" class="edge">
<title>Node19&#45;&gt;Node11</title>
<path fill="none" stroke="midnightblue" d="M1067.77,-169.31C1064.65,-168.85 1061.54,-168.4 1058.53,-168 918.45,-149.3 752.73,-134.53 667.85,-127.49"/>
<polygon fill="midnightblue" stroke="midnightblue" points="667.91,-123.98 657.65,-126.65 667.33,-130.96 667.91,-123.98"/>
</g>
<!-- Node20&#45;&gt;Node3 -->
<g id="edge59" class="edge">
<title>Node20&#45;&gt;Node3</title>
<path fill="none" stroke="midnightblue" d="M1355.18,-363.88C1347.53,-354.33 1335.9,-338.15 1330.53,-322 1308.85,-256.86 1349.89,-229.07 1318.53,-168 1283.23,-99.25 1256.52,-86.54 1185.53,-56 1122.23,-28.77 918.39,-16.73 829.56,-12.68"/>
<polygon fill="midnightblue" stroke="midnightblue" points="829.46,-9.17 819.32,-12.23 829.15,-16.17 829.46,-9.17"/>
</g>
<!-- Node21 -->
<g id="node21" class="node">
<title>Node21</title>
<g id="a_node21"><a xlink:title=" ">
<polygon fill="white" stroke="#bfbfbf" points="1481.53,-168.5 1481.53,-187.5 1545.53,-187.5 1545.53,-168.5 1481.53,-168.5"/>
<text text-anchor="middle" x="1513.53" y="-175.5" font-family="Helvetica,sans-Serif" font-size="10.00">FastLED.h</text>
</a>
</g>
</g>
<!-- Node20&#45;&gt;Node21 -->
<g id="edge58" class="edge">
<title>Node20&#45;&gt;Node21</title>
<path fill="none" stroke="midnightblue" d="M1418.35,-369.45C1451.83,-364.39 1491.97,-351.95 1513.53,-322 1540.28,-284.84 1528.49,-227 1519.8,-197.56"/>
<polygon fill="midnightblue" stroke="midnightblue" points="1523.06,-196.26 1516.71,-187.78 1516.38,-198.37 1523.06,-196.26"/>
</g>
<!-- Node22 -->
<g id="node22" class="node">
<title>Node22</title>
<g id="a_node22"><a xlink:href="FastLEDControllerStorage_8h_source.html" target="_top" xlink:title=" ">
<polygon fill="white" stroke="black" points="1339.03,-297 1339.03,-316 1488.03,-316 1488.03,-297 1339.03,-297"/>
<text text-anchor="middle" x="1413.53" y="-304" font-family="Helvetica,sans-Serif" font-size="10.00">FastLEDControllerStorage.h</text>
</a>
</g>
</g>
<!-- Node20&#45;&gt;Node22 -->
<g id="edge60" class="edge">
<title>Node20&#45;&gt;Node22</title>
<path fill="none" stroke="midnightblue" d="M1369.41,-363.73C1377.36,-353.6 1390.63,-336.69 1400.54,-324.06"/>
<polygon fill="midnightblue" stroke="midnightblue" points="1403.34,-326.16 1406.76,-316.13 1397.83,-321.83 1403.34,-326.16"/>
</g>
<!-- Node23 -->
<g id="node23" class="node">
<title>Node23</title>
<g id="a_node23"><a xlink:href="LEDController_8h.html" target="_top" xlink:title=" ">
<polygon fill="white" stroke="black" points="1367.53,-230 1367.53,-249 1459.53,-249 1459.53,-230 1367.53,-230"/>
<text text-anchor="middle" x="1413.53" y="-237" font-family="Helvetica,sans-Serif" font-size="10.00">LEDController.h</text>
</a>
</g>
</g>
<!-- Node20&#45;&gt;Node23 -->
<g id="edge66" class="edge">
<title>Node20&#45;&gt;Node23</title>
<path fill="none" stroke="midnightblue" d="M1418.05,-366.63C1446.84,-360.45 1479.63,-347.81 1497.53,-322 1505.38,-310.68 1504.31,-302.99 1497.53,-291 1487.49,-273.25 1468.45,-261.06 1451.03,-253.1"/>
<polygon fill="midnightblue" stroke="midnightblue" points="1452.16,-249.78 1441.59,-249.11 1449.44,-256.23 1452.16,-249.78"/>
</g>
<!-- Node24 -->
<g id="node24" class="node">
<title>Node24</title>
<g id="a_node24"><a xlink:href="TemperatureController_8h.html" target="_top" xlink:title=" ">
<polygon fill="white" stroke="black" points="1175.53,-168.5 1175.53,-187.5 1309.53,-187.5 1309.53,-168.5 1175.53,-168.5"/>
<text text-anchor="middle" x="1242.53" y="-175.5" font-family="Helvetica,sans-Serif" font-size="10.00">TemperatureController.h</text>
</a>
</g>
</g>
<!-- Node20&#45;&gt;Node24 -->
<g id="edge67" class="edge">
<title>Node20&#45;&gt;Node24</title>
<path fill="none" stroke="midnightblue" d="M1347.16,-363.93C1332.6,-355.12 1310.99,-340.13 1297.53,-322 1268.41,-282.79 1252.77,-226.25 1246.25,-197.42"/>
<polygon fill="midnightblue" stroke="midnightblue" points="1249.64,-196.56 1244.13,-187.51 1242.8,-198.02 1249.64,-196.56"/>
</g>
<!-- Node22&#45;&gt;Node23 -->
<g id="edge61" class="edge">
<title>Node22&#45;&gt;Node23</title>
<path fill="none" stroke="midnightblue" d="M1413.53,-296.73C1413.53,-287.18 1413.53,-271.62 1413.53,-259.28"/>
<polygon fill="midnightblue" stroke="midnightblue" points="1417.03,-259.13 1413.53,-249.13 1410.03,-259.13 1417.03,-259.13"/>
</g>
<!-- Node23&#45;&gt;Node3 -->
<g id="edge63" class="edge">
<title>Node23&#45;&gt;Node3</title>
<path fill="none" stroke="midnightblue" d="M1415.63,-230C1422.29,-200.74 1439.69,-103.42 1389.53,-56 1349.02,-17.7 960,-11.98 829.77,-11.14"/>
<polygon fill="midnightblue" stroke="midnightblue" points="829.43,-7.64 819.41,-11.08 829.39,-14.64 829.43,-7.64"/>
</g>
<!-- Node23&#45;&gt;Node7 -->
<g id="edge64" class="edge">
<title>Node23&#45;&gt;Node7</title>
<path fill="none" stroke="midnightblue" d="M1367.27,-232.87C1301.44,-224.65 1176.75,-208.28 1060.01,-187.98"/>
<polygon fill="midnightblue" stroke="midnightblue" points="1060.28,-184.47 1049.82,-186.19 1059.07,-191.36 1060.28,-184.47"/>
</g>
<!-- Node23&#45;&gt;Node12 -->
<g id="edge65" class="edge">
<title>Node23&#45;&gt;Node12</title>
<path fill="none" stroke="midnightblue" d="M1405.02,-229.87C1389.42,-214.61 1354.52,-183.09 1318.53,-168 1243.5,-136.54 1149.07,-126.86 1089.48,-124"/>
<polygon fill="midnightblue" stroke="midnightblue" points="1089.27,-120.49 1079.13,-123.56 1088.97,-127.49 1089.27,-120.49"/>
</g>
<!-- Node23&#45;&gt;Node21 -->
<g id="edge62" class="edge">
<title>Node23&#45;&gt;Node21</title>
<path fill="none" stroke="midnightblue" d="M1427.86,-229.98C1444.19,-220.25 1471.13,-204.23 1490.44,-192.74"/>
<polygon fill="midnightblue" stroke="midnightblue" points="1492.42,-195.63 1499.23,-187.51 1488.84,-189.61 1492.42,-195.63"/>
</g>
<!-- Node24&#45;&gt;Node3 -->
<g id="edge68" class="edge">
<title>Node24&#45;&gt;Node3</title>
<path fill="none" stroke="midnightblue" d="M1239.53,-168.4C1231.06,-145.58 1204.62,-83.34 1159.53,-56 1104.79,-22.82 914.38,-14.06 829.24,-11.78"/>
<polygon fill="midnightblue" stroke="midnightblue" points="829.23,-8.28 819.15,-11.53 829.06,-15.28 829.23,-8.28"/>
</g>
<!-- Node24&#45;&gt;Node13 -->
<g id="edge69" class="edge">
<title>Node24&#45;&gt;Node13</title>
<path fill="none" stroke="midnightblue" d="M1175.66,-168.44C1099.88,-158.75 976.6,-142.97 897.04,-132.79"/>
<polygon fill="midnightblue" stroke="midnightblue" points="897.45,-129.31 887.08,-131.52 896.56,-136.26 897.45,-129.31"/>
</g>
</g>
</svg>
