<?xml version="1.0" encoding="UTF-8" standalone="no"?>
<!DOCTYPE svg PUBLIC "-//W3C//DTD SVG 1.1//EN"
 "http://www.w3.org/Graphics/SVG/1.1/DTD/svg11.dtd">
<!-- Generated by graphviz version 2.40.1 (20161225.0304)
 -->
<!-- Title: src/CorsairLightingProtocol.h Pages: 1 -->
<!--zoomable 364 -->
<svg id="main" version="1.1" xmlns="http://www.w3.org/2000/svg" xmlns:xlink="http://www.w3.org/1999/xlink" xml:space="preserve" onload="init(evt)">
<style type="text/css"><![CDATA[
.edge:hover path { stroke: red; }
.edge:hover polygon { stroke: red; fill: red; }
]]></style>
<script type="text/javascript"><![CDATA[
var edges = document.getElementsByTagName('g');
if (edges && edges.length) {
  for (var i=0;i<edges.length;i++) {
    if (edges[i].id.substr(0,4)=='edge') {
      edges[i].setAttribute('class','edge');
    }
  }
}
]]></script>
        <defs>
                <circle id="rim" cx="0" cy="0" r="7"/>
                <circle id="rim2" cx="0" cy="0" r="3.5"/>
                <g id="zoomPlus">
                        <use xlink:href="#rim" fill="#404040">
                                <set attributeName="fill" to="#808080" begin="zoomplus.mouseover" end="zoomplus.mouseout"/>
                        </use>
                        <path d="M-4,0h8M0,-4v8" fill="none" stroke="white" stroke-width="1.5" pointer-events="none"/>
                </g>
                <g id="zoomMin">
                        <use xlink:href="#rim" fill="#404040">
                                <set attributeName="fill" to="#808080" begin="zoomminus.mouseover" end="zoomminus.mouseout"/>
                        </use>
                        <path d="M-4,0h8" fill="none" stroke="white" stroke-width="1.5" pointer-events="none"/>
                </g>
                <g id="dirArrow">
                        <path fill="none" stroke="white" stroke-width="1.5" d="M0,-3.0v7 M-2.5,-0.5L0,-3.0L2.5,-0.5"/>
                </g>
               <g id="resetDef">
                       <use xlink:href="#rim2" fill="#404040">
                               <set attributeName="fill" to="#808080" begin="reset.mouseover" end="reset.mouseout"/>
                       </use>
               </g>
        </defs>

<script type="text/javascript">
var viewWidth = 1517;
var viewHeight = 364;
var sectionId = 'dynsection-0';
</script>
<script xlink:href="svgpan.js"/>
<svg id="graph" class="graph">
<g id="viewport">
<title>src/CorsairLightingProtocol.h</title>
<polygon fill="#ffffff" stroke="transparent" points="-4,4 -4,-360 1513,-360 1513,4 -4,4"/>
<!-- Node0 -->
<g id="node1" class="node">
<title>Node0</title>
<polygon fill="#bfbfbf" stroke="#000000" points="694,-336.5 694,-355.5 837,-355.5 837,-336.5 694,-336.5"/>
<text text-anchor="middle" x="765.5" y="-343.5" font-family="Helvetica,sans-Serif" font-size="10.00" fill="#000000">src/CorsairLightingProtocol.h</text>
</g>
<!-- Node1 -->
<g id="node2" class="node">
<title>Node1</title>
<g id="a_node2"><a xlink:href="CorsairLightingFirmware_8h_source.html" target="_top" xlink:title="CorsairLightingFirmware.h">
<polygon fill="#ffffff" stroke="#000000" points="1130,-112.5 1130,-131.5 1261,-131.5 1261,-112.5 1130,-112.5"/>
<text text-anchor="middle" x="1195.5" y="-119.5" font-family="Helvetica,sans-Serif" font-size="10.00" fill="#000000">CorsairLightingFirmware.h</text>
</a>
</g>
</g>
<!-- Node0&#45;&gt;Node1 -->
<g id="edge1" class="edge">
<title>Node0&#45;&gt;Node1</title>
<path fill="none" stroke="#191970" d="M837.0124,-341.4263C915.8129,-333.1253 1042.8482,-309.7606 1129.5,-244 1163.7254,-218.0261 1182.3027,-168.9976 1190.4192,-141.6664"/>
<polygon fill="#191970" stroke="#191970" points="1193.8775,-142.2949 1193.1919,-131.7222 1187.1347,-140.4148 1193.8775,-142.2949"/>
</g>
<!-- Node3 -->
<g id="node4" class="node">
<title>Node3</title>
<g id="a_node4"><a xlink:href="CorsairLightingProtocolResponse_8h_source.html" target="_top" xlink:title="CorsairLightingProtocolResponse.h">
<polygon fill="#ffffff" stroke="#000000" points="751.5,-56.5 751.5,-75.5 921.5,-75.5 921.5,-56.5 751.5,-56.5"/>
<text text-anchor="middle" x="836.5" y="-63.5" font-family="Helvetica,sans-Serif" font-size="10.00" fill="#000000">CorsairLightingProtocolResponse.h</text>
</a>
</g>
</g>
<!-- Node0&#45;&gt;Node3 -->
<g id="edge51" class="edge">
<title>Node0&#45;&gt;Node3</title>
<path fill="none" stroke="#191970" d="M765.5,-336.4116C765.5,-317.0538 765.5,-271.9167 765.5,-234 765.5,-234 765.5,-234 765.5,-178 765.5,-147.4754 768.1973,-137.8065 784.5,-112 791.9432,-100.2177 803.2707,-89.6947 813.4553,-81.697"/>
<polygon fill="#191970" stroke="#191970" points="815.7066,-84.3843 821.6311,-75.6008 811.5222,-78.7725 815.7066,-84.3843"/>
</g>
<!-- Node4 -->
<g id="node5" class="node">
<title>Node4</title>
<g id="a_node5"><a xlink:href="CorsairLightingProtocolConstants_8h_source.html" target="_top" xlink:title="CorsairLightingProtocolConstants.h">
<polygon fill="#ffffff" stroke="#000000" points="978,-56.5 978,-75.5 1149,-75.5 1149,-56.5 978,-56.5"/>
<text text-anchor="middle" x="1063.5" y="-63.5" font-family="Helvetica,sans-Serif" font-size="10.00" fill="#000000">CorsairLightingProtocolConstants.h</text>
</a>
</g>
</g>
<!-- Node0&#45;&gt;Node4 -->
<g id="edge48" class="edge">
<title>Node0&#45;&gt;Node4</title>
<path fill="none" stroke="#191970" d="M837.1783,-342.4221C897.9022,-337.6092 986.4835,-326.3428 1059.5,-300 1105.2436,-283.4967 1114.8625,-273.5294 1153.5,-244 1157.0587,-241.2802 1267.7497,-136.1229 1269.5,-132 1272.9735,-123.8179 1275.0585,-118.9366 1269.5,-112 1255.1933,-94.1462 1205.8326,-82.7653 1159.0179,-75.7904"/>
<polygon fill="#191970" stroke="#191970" points="1159.4754,-72.3203 1149.0804,-74.3681 1158.4836,-79.2497 1159.4754,-72.3203"/>
</g>
<!-- Node5 -->
<g id="node6" class="node">
<title>Node5</title>
<g id="a_node6"><a xlink:href="CorsairLightingNodePRO_8h_source.html" target="_top" xlink:title="CorsairLightingNodePRO.h">
<polygon fill="#ffffff" stroke="#000000" points="488,-280.5 488,-299.5 623,-299.5 623,-280.5 488,-280.5"/>
<text text-anchor="middle" x="555.5" y="-287.5" font-family="Helvetica,sans-Serif" font-size="10.00" fill="#000000">CorsairLightingNodePRO.h</text>
</a>
</g>
</g>
<!-- Node0&#45;&gt;Node5 -->
<g id="edge7" class="edge">
<title>Node0&#45;&gt;Node5</title>
<path fill="none" stroke="#191970" d="M729.3997,-336.3733C693.8752,-326.9001 639.512,-312.4032 601.0381,-302.1435"/>
<polygon fill="#191970" stroke="#191970" points="601.6934,-298.696 591.1292,-299.5011 599.8897,-305.4596 601.6934,-298.696"/>
</g>
<!-- Node6 -->
<g id="node7" class="node">
<title>Node6</title>
<g id="a_node7"><a xlink:href="FastLEDController_8h_source.html" target="_top" xlink:title="FastLEDController.h">
<polygon fill="#ffffff" stroke="#000000" points="221.5,-224.5 221.5,-243.5 327.5,-243.5 327.5,-224.5 221.5,-224.5"/>
<text text-anchor="middle" x="274.5" y="-231.5" font-family="Helvetica,sans-Serif" font-size="10.00" fill="#000000">FastLEDController.h</text>
</a>
</g>
</g>
<!-- Node0&#45;&gt;Node6 -->
<g id="edge62" class="edge">
<title>Node0&#45;&gt;Node6</title>
<path fill="none" stroke="#191970" d="M693.8052,-340.3522C602.0587,-332.5649 448.5291,-317.492 394.5,-300 357.7558,-288.104 319.3274,-264.7318 296.1461,-249.2367"/>
<polygon fill="#191970" stroke="#191970" points="297.9961,-246.2621 287.7602,-243.5278 294.0568,-252.0485 297.9961,-246.2621"/>
</g>
<!-- Node8 -->
<g id="node9" class="node">
<title>Node8</title>
<g id="a_node9"><a xlink:href="LEDController_8h.html" target="_top" xlink:title="LEDController.h">
<polygon fill="#ffffff" stroke="#000000" points="121.5,-168.5 121.5,-187.5 207.5,-187.5 207.5,-168.5 121.5,-168.5"/>
<text text-anchor="middle" x="164.5" y="-175.5" font-family="Helvetica,sans-Serif" font-size="10.00" fill="#000000">LEDController.h</text>
</a>
</g>
</g>
<!-- Node0&#45;&gt;Node8 -->
<g id="edge61" class="edge">
<title>Node0&#45;&gt;Node8</title>
<path fill="none" stroke="#191970" d="M693.9463,-344.567C550.8947,-341.0716 240.0582,-330.0739 202.5,-300 171.4515,-275.1386 165.2543,-225.2573 164.3279,-197.5982"/>
<polygon fill="#191970" stroke="#191970" points="167.8271,-197.5072 164.194,-187.5548 160.8277,-197.6006 167.8271,-197.5072"/>
</g>
<!-- Node9 -->
<g id="node10" class="node">
<title>Node9</title>
<g id="a_node10"><a xlink:href="ILEDController_8h_source.html" target="_top" xlink:title="ILEDController.h">
<polygon fill="#ffffff" stroke="#000000" points="794,-112.5 794,-131.5 883,-131.5 883,-112.5 794,-112.5"/>
<text text-anchor="middle" x="838.5" y="-119.5" font-family="Helvetica,sans-Serif" font-size="10.00" fill="#000000">ILEDController.h</text>
</a>
</g>
</g>
<!-- Node0&#45;&gt;Node9 -->
<g id="edge60" class="edge">
<title>Node0&#45;&gt;Node9</title>
<path fill="none" stroke="#191970" d="M768.5054,-336.3251C776.8537,-309.5143 801.1203,-232.0173 822.5,-168 825.4379,-159.2031 828.7955,-149.4997 831.6739,-141.2816"/>
<polygon fill="#191970" stroke="#191970" points="834.9762,-142.4412 834.9958,-131.8463 828.3734,-140.1165 834.9762,-142.4412"/>
</g>
<!-- Node10 -->
<g id="node11" class="node">
<title>Node10</title>
<g id="a_node11"><a xlink:href="CLPUtils_8h_source.html" target="_top" xlink:title="CLPUtils.h">
<polygon fill="#ffffff" stroke="#000000" points="0,-112.5 0,-131.5 65,-131.5 65,-112.5 0,-112.5"/>
<text text-anchor="middle" x="32.5" y="-119.5" font-family="Helvetica,sans-Serif" font-size="10.00" fill="#000000">CLPUtils.h</text>
</a>
</g>
</g>
<!-- Node0&#45;&gt;Node10 -->
<g id="edge71" class="edge">
<title>Node0&#45;&gt;Node10</title>
<path fill="none" stroke="#191970" d="M693.9074,-343.3063C548.0674,-337.3936 226.485,-322.0278 181.5,-300 110.3981,-265.1836 60.6799,-178.9859 41.3955,-140.7649"/>
<polygon fill="#191970" stroke="#191970" points="44.512,-139.1708 36.9612,-131.7387 38.2292,-142.2574 44.512,-139.1708"/>
</g>
<!-- Node11 -->
<g id="node12" class="node">
<title>Node11</title>
<g id="a_node12"><a xlink:href="TemperatureController_8h.html" target="_top" xlink:title="TemperatureController.h">
<polygon fill="#ffffff" stroke="#000000" points="301.5,-168.5 301.5,-187.5 423.5,-187.5 423.5,-168.5 301.5,-168.5"/>
<text text-anchor="middle" x="362.5" y="-175.5" font-family="Helvetica,sans-Serif" font-size="10.00" fill="#000000">TemperatureController.h</text>
</a>
</g>
</g>
<!-- Node0&#45;&gt;Node11 -->
<g id="edge64" class="edge">
<title>Node0&#45;&gt;Node11</title>
<path fill="none" stroke="#191970" d="M693.7974,-339.7863C621.2913,-332.5735 514.8884,-319.1651 478.5,-300 431.311,-275.1464 392.4548,-223.7342 374.0296,-196.2557"/>
<polygon fill="#191970" stroke="#191970" points="376.7847,-194.0734 368.3843,-187.6171 370.925,-197.9028 376.7847,-194.0734"/>
</g>
<!-- Node12 -->
<g id="node13" class="node">
<title>Node12</title>
<g id="a_node13"><a xlink:href="ITemperatureController_8h_source.html" target="_top" xlink:title="ITemperatureController.h">
<polygon fill="#ffffff" stroke="#000000" points="612,-112.5 612,-131.5 737,-131.5 737,-112.5 612,-112.5"/>
<text text-anchor="middle" x="674.5" y="-119.5" font-family="Helvetica,sans-Serif" font-size="10.00" fill="#000000">ITemperatureController.h</text>
</a>
</g>
</g>
<!-- Node0&#45;&gt;Node12 -->
<g id="edge63" class="edge">
<title>Node0&#45;&gt;Node12</title>
<path fill="none" stroke="#191970" d="M761.5898,-336.375C747.7346,-302.2697 700.8153,-186.7761 682.2012,-140.9567"/>
<polygon fill="#191970" stroke="#191970" points="685.4021,-139.5365 678.3956,-131.5891 678.9168,-142.1712 685.4021,-139.5365"/>
</g>
<!-- Node13 -->
<g id="node14" class="node">
<title>Node13</title>
<g id="a_node14"><a xlink:href="CorsairLightingProtocolController_8h_source.html" target="_top" xlink:title="CorsairLightingProtocolController.h">
<polygon fill="#ffffff" stroke="#000000" points="831.5,-168.5 831.5,-187.5 999.5,-187.5 999.5,-168.5 831.5,-168.5"/>
<text text-anchor="middle" x="915.5" y="-175.5" font-family="Helvetica,sans-Serif" font-size="10.00" fill="#000000">CorsairLightingProtocolController.h</text>
</a>
</g>
</g>
<!-- Node0&#45;&gt;Node13 -->
<g id="edge49" class="edge">
<title>Node0&#45;&gt;Node13</title>
<path fill="none" stroke="#191970" d="M777.5863,-336.3091C788.4746,-327.351 804.6903,-313.4333 817.5,-300 850.5835,-265.306 884.6203,-220.4762 902.5777,-195.9671"/>
<polygon fill="#191970" stroke="#191970" points="905.5878,-197.7788 908.6373,-187.6322 899.9259,-193.6625 905.5878,-197.7788"/>
</g>
<!-- Node14 -->
<g id="node15" class="node">
<title>Node14</title>
<g id="a_node15"><a xlink:href="IFanController_8h_source.html" target="_top" xlink:title="IFanController.h">
<polygon fill="#ffffff" stroke="#000000" points="1317.5,-112.5 1317.5,-131.5 1403.5,-131.5 1403.5,-112.5 1317.5,-112.5"/>
<text text-anchor="middle" x="1360.5" y="-119.5" font-family="Helvetica,sans-Serif" font-size="10.00" fill="#000000">IFanController.h</text>
</a>
</g>
</g>
<!-- Node0&#45;&gt;Node14 -->
<g id="edge56" class="edge">
<title>Node0&#45;&gt;Node14</title>
<path fill="none" stroke="#191970" d="M837.191,-344.8463C954.6884,-342.0324 1182.4934,-332.4406 1255.5,-300 1322.7646,-270.1109 1347.8865,-255.3863 1377.5,-188 1384.242,-172.6585 1378.3214,-154.0919 1371.6852,-140.5639"/>
<polygon fill="#191970" stroke="#191970" points="1374.7369,-138.8491 1366.8975,-131.7221 1368.5814,-142.1823 1374.7369,-138.8491"/>
</g>
<!-- Node15 -->
<g id="node16" class="node">
<title>Node15</title>
<g id="a_node16"><a xlink:href="CorsairLightingProtocolHID_8h_source.html" target="_top" xlink:title="CorsairLightingProtocolHID.h">
<polygon fill="#ffffff" stroke="#000000" points="517.5,-224.5 517.5,-243.5 661.5,-243.5 661.5,-224.5 517.5,-224.5"/>
<text text-anchor="middle" x="589.5" y="-231.5" font-family="Helvetica,sans-Serif" font-size="10.00" fill="#000000">CorsairLightingProtocolHID.h</text>
</a>
</g>
</g>
<!-- Node0&#45;&gt;Node15 -->
<g id="edge50" class="edge">
<title>Node0&#45;&gt;Node15</title>
<path fill="none" stroke="#191970" d="M744.1719,-336.4473C725.5488,-327.7931 698.0481,-314.2478 675.5,-300 651.3833,-284.761 625.6754,-264.4295 608.7155,-250.3786"/>
<polygon fill="#191970" stroke="#191970" points="610.6123,-247.4018 600.6988,-243.6636 606.1174,-252.768 610.6123,-247.4018"/>
</g>
<!-- Node18 -->
<g id="node19" class="node">
<title>Node18</title>
<g id="a_node19"><a xlink:href="CorsairLightingProtocolSerial_8h_source.html" target="_top" xlink:title="CorsairLightingProtocolSerial.h">
<polygon fill="#ffffff" stroke="#000000" points="948,-224.5 948,-243.5 1099,-243.5 1099,-224.5 948,-224.5"/>
<text text-anchor="middle" x="1023.5" y="-231.5" font-family="Helvetica,sans-Serif" font-size="10.00" fill="#000000">CorsairLightingProtocolSerial.h</text>
</a>
</g>
</g>
<!-- Node0&#45;&gt;Node18 -->
<g id="edge52" class="edge">
<title>Node0&#45;&gt;Node18</title>
<path fill="none" stroke="#191970" d="M794.888,-336.4664C820.879,-327.7732 859.6609,-314.1598 892.5,-300 929.5728,-284.0146 970.9667,-262.5175 997.113,-248.4652"/>
<polygon fill="#191970" stroke="#191970" points="998.8882,-251.4842 1006.0197,-243.6488 995.5586,-245.3268 998.8882,-251.4842"/>
</g>
<!-- Node19 -->
<g id="node20" class="node">
<title>Node19</title>
<g id="a_node20"><a xlink:href="FanController_8h.html" target="_top" xlink:title="FanController.h">
<polygon fill="#ffffff" stroke="#000000" points="1426,-168.5 1426,-187.5 1509,-187.5 1509,-168.5 1426,-168.5"/>
<text text-anchor="middle" x="1467.5" y="-175.5" font-family="Helvetica,sans-Serif" font-size="10.00" fill="#000000">FanController.h</text>
</a>
</g>
</g>
<!-- Node0&#45;&gt;Node19 -->
<g id="edge57" class="edge">
<title>Node0&#45;&gt;Node19</title>
<path fill="none" stroke="#191970" d="M837.1862,-344.9709C995.6117,-342.1186 1365.1985,-332.0709 1411.5,-300 1445.8503,-276.2071 1459.5539,-225.8976 1464.6819,-197.886"/>
<polygon fill="#191970" stroke="#191970" points="1468.1869,-198.1387 1466.3447,-187.7053 1461.2784,-197.0103 1468.1869,-198.1387"/>
</g>
<!-- Node20 -->
<g id="node21" class="node">
<title>Node20</title>
<g id="a_node21"><a xlink:href="FastLEDControllerUtils_8h_source.html" target="_top" xlink:title="FastLEDControllerUtils.h">
<polygon fill="#ffffff" stroke="#000000" points="211.5,-280.5 211.5,-299.5 337.5,-299.5 337.5,-280.5 211.5,-280.5"/>
<text text-anchor="middle" x="274.5" y="-287.5" font-family="Helvetica,sans-Serif" font-size="10.00" fill="#000000">FastLEDControllerUtils.h</text>
</a>
</g>
</g>
<!-- Node0&#45;&gt;Node20 -->
<g id="edge65" class="edge">
<title>Node0&#45;&gt;Node20</title>
<path fill="none" stroke="#191970" d="M693.6412,-338.3011C611.3971,-329.4142 472.6713,-314.1945 353.5,-300 351.754,-299.792 349.9865,-299.5801 348.2039,-299.365"/>
<polygon fill="#191970" stroke="#191970" points="348.225,-295.8417 337.8749,-298.1055 347.3777,-302.7902 348.225,-295.8417"/>
</g>
<!-- Node21 -->
<g id="node22" class="node">
<title>Node21</title>
<g id="a_node22"><a xlink:href="CLPAdditionalFeatures_8h_source.html" target="_top" xlink:title="CLPAdditionalFeatures.h">
<polygon fill="#ffffff" stroke="#000000" points="1244,-168.5 1244,-187.5 1369,-187.5 1369,-168.5 1244,-168.5"/>
<text text-anchor="middle" x="1306.5" y="-175.5" font-family="Helvetica,sans-Serif" font-size="10.00" fill="#000000">CLPAdditionalFeatures.h</text>
</a>
</g>
</g>
<!-- Node0&#45;&gt;Node21 -->
<g id="edge68" class="edge">
<title>Node0&#45;&gt;Node21</title>
<path fill="none" stroke="#191970" d="M837.0405,-342.3537C958.9304,-335.6347 1196.9149,-320.1265 1229.5,-300 1267.8767,-276.2963 1290.3654,-225.5655 1300.3275,-197.5652"/>
<polygon fill="#191970" stroke="#191970" points="1303.7642,-198.3268 1303.6405,-187.7326 1297.1306,-196.0916 1303.7642,-198.3268"/>
</g>
<!-- Node2 -->
<g id="node3" class="node">
<title>Node2</title>
<polygon fill="#ffffff" stroke="#bfbfbf" points="645.5,-.5 645.5,-19.5 703.5,-19.5 703.5,-.5 645.5,-.5"/>
<text text-anchor="middle" x="674.5" y="-7.5" font-family="Helvetica,sans-Serif" font-size="10.00" fill="#000000">Arduino.h</text>
</g>
<!-- Node1&#45;&gt;Node2 -->
<g id="edge2" class="edge">
<title>Node1&#45;&gt;Node2</title>
<path fill="none" stroke="#191970" d="M1193.0285,-112.3981C1188.6396,-97.4996 1177.9599,-69.1625 1157.5,-56 1120.5219,-32.2109 822.5594,-16.6268 713.9363,-11.6887"/>
<polygon fill="#191970" stroke="#191970" points="713.8782,-8.1826 703.7314,-11.2308 713.5645,-15.1756 713.8782,-8.1826"/>
</g>
<!-- Node1&#45;&gt;Node3 -->
<g id="edge3" class="edge">
<title>Node1&#45;&gt;Node3</title>
<path fill="none" stroke="#191970" d="M1134.1936,-112.4369C1071.3337,-102.6314 973.6617,-87.3957 907.4868,-77.0731"/>
<polygon fill="#191970" stroke="#191970" points="907.9735,-73.6068 897.5535,-75.5237 906.8946,-80.5232 907.9735,-73.6068"/>
</g>
<!-- Node1&#45;&gt;Node4 -->
<g id="edge5" class="edge">
<title>Node1&#45;&gt;Node4</title>
<path fill="none" stroke="#191970" d="M1172.8084,-112.3733C1151.4289,-103.3032 1119.1943,-89.6279 1095.2638,-79.4755"/>
<polygon fill="#191970" stroke="#191970" points="1096.4683,-76.1846 1085.8955,-75.5011 1093.7344,-82.6287 1096.4683,-76.1846"/>
</g>
<!-- Node3&#45;&gt;Node2 -->
<g id="edge4" class="edge">
<title>Node3&#45;&gt;Node2</title>
<path fill="none" stroke="#191970" d="M808.6512,-56.3733C781.8297,-47.1016 741.0873,-33.0178 711.5402,-22.804"/>
<polygon fill="#191970" stroke="#191970" points="712.5802,-19.4603 701.9854,-19.5011 710.2931,-26.0762 712.5802,-19.4603"/>
</g>
<!-- Node4&#45;&gt;Node2 -->
<g id="edge6" class="edge">
<title>Node4&#45;&gt;Node2</title>
<path fill="none" stroke="#191970" d="M997.0705,-56.4369C915.7089,-44.7242 780.5245,-25.2632 713.9791,-15.6834"/>
<polygon fill="#191970" stroke="#191970" points="714.3037,-12.1941 703.907,-14.2334 713.3063,-19.1227 714.3037,-12.1941"/>
</g>
<!-- Node5&#45;&gt;Node1 -->
<g id="edge9" class="edge">
<title>Node5&#45;&gt;Node1</title>
<path fill="none" stroke="#191970" d="M623.1124,-287.5208C761.2266,-282.0022 1066.2444,-267.3224 1107.5,-244 1110.2404,-242.4508 1158.7998,-173.9896 1182.5838,-140.317"/>
<polygon fill="#191970" stroke="#191970" points="1185.6694,-142.0149 1188.5765,-131.8267 1179.9505,-137.9783 1185.6694,-142.0149"/>
</g>
<!-- Node5&#45;&gt;Node2 -->
<g id="edge8" class="edge">
<title>Node5&#45;&gt;Node2</title>
<path fill="none" stroke="#191970" d="M541.6461,-280.3408C530.8191,-272.0071 516.3345,-258.9719 508.5,-244 469.7583,-169.9635 446.608,-114.2689 506.5,-56 524.7601,-38.2347 591.7598,-23.9279 635.4307,-16.2228"/>
<polygon fill="#191970" stroke="#191970" points="636.1857,-19.6444 645.4469,-14.4985 634.9981,-12.7458 636.1857,-19.6444"/>
</g>
<!-- Node5&#45;&gt;Node6 -->
<g id="edge10" class="edge">
<title>Node5&#45;&gt;Node6</title>
<path fill="none" stroke="#191970" d="M507.5137,-280.4369C459.0186,-270.7724 384.0527,-255.8326 332.3121,-245.5213"/>
<polygon fill="#191970" stroke="#191970" points="332.7797,-242.0457 322.2884,-243.5237 331.4115,-248.9107 332.7797,-242.0457"/>
</g>
<!-- Node7 -->
<g id="node8" class="node">
<title>Node7</title>
<polygon fill="#ffffff" stroke="#bfbfbf" points="187.5,-112.5 187.5,-131.5 251.5,-131.5 251.5,-112.5 187.5,-112.5"/>
<text text-anchor="middle" x="219.5" y="-119.5" font-family="Helvetica,sans-Serif" font-size="10.00" fill="#000000">FastLED.h</text>
</g>
<!-- Node5&#45;&gt;Node7 -->
<g id="edge47" class="edge">
<title>Node5&#45;&gt;Node7</title>
<path fill="none" stroke="#191970" d="M531.5732,-280.3618C514.3917,-272.5302 491.5308,-260.1426 475.5,-244 448.1531,-216.4624 463.7604,-190.9991 432.5,-168 405.8046,-148.3594 315.8784,-134.0562 261.777,-126.9843"/>
<polygon fill="#191970" stroke="#191970" points="262.1527,-123.504 251.7896,-125.7076 261.2651,-130.4475 262.1527,-123.504"/>
</g>
<!-- Node5&#45;&gt;Node13 -->
<g id="edge28" class="edge">
<title>Node5&#45;&gt;Node13</title>
<path fill="none" stroke="#191970" d="M586.1934,-280.4509C651.1522,-260.2415 802.5128,-213.1516 875.1714,-190.5467"/>
<polygon fill="#191970" stroke="#191970" points="876.3755,-193.8376 884.8843,-187.5249 874.296,-187.1536 876.3755,-193.8376"/>
</g>
<!-- Node5&#45;&gt;Node15 -->
<g id="edge39" class="edge">
<title>Node5&#45;&gt;Node15</title>
<path fill="none" stroke="#191970" d="M561.4223,-280.2455C566.1027,-272.5367 572.7673,-261.5598 578.4289,-252.2348"/>
<polygon fill="#191970" stroke="#191970" points="581.4475,-254.007 583.6455,-243.6427 575.4639,-250.3741 581.4475,-254.007"/>
</g>
<!-- Node6&#45;&gt;Node2 -->
<g id="edge11" class="edge">
<title>Node6&#45;&gt;Node2</title>
<path fill="none" stroke="#191970" d="M276,-224.2014C278.286,-210.9478 283.3701,-186.804 292.5,-168 319.5609,-112.2656 322.45,-88.005 375.5,-56 418.4884,-30.0652 564.0314,-17.2116 634.9733,-12.3655"/>
<polygon fill="#191970" stroke="#191970" points="635.5385,-15.8358 645.285,-11.6818 635.0753,-8.8511 635.5385,-15.8358"/>
</g>
<!-- Node6&#45;&gt;Node7 -->
<g id="edge12" class="edge">
<title>Node6&#45;&gt;Node7</title>
<path fill="none" stroke="#191970" d="M269.8107,-224.4509C260.7186,-205.936 240.5469,-164.8591 228.6922,-140.7187"/>
<polygon fill="#191970" stroke="#191970" points="231.727,-138.9582 224.1774,-131.5249 225.4437,-142.0438 231.727,-138.9582"/>
</g>
<!-- Node6&#45;&gt;Node8 -->
<g id="edge13" class="edge">
<title>Node6&#45;&gt;Node8</title>
<path fill="none" stroke="#191970" d="M255.3395,-224.2455C237.9889,-215.4125 212.2099,-202.2887 192.5417,-192.2758"/>
<polygon fill="#191970" stroke="#191970" points="193.9405,-189.0605 183.441,-187.6427 190.7647,-195.2986 193.9405,-189.0605"/>
</g>
<!-- Node6&#45;&gt;Node11 -->
<g id="edge22" class="edge">
<title>Node6&#45;&gt;Node11</title>
<path fill="none" stroke="#191970" d="M289.8284,-224.2455C303.3303,-215.6534 323.2122,-203.0014 338.7686,-193.1018"/>
<polygon fill="#191970" stroke="#191970" points="340.7897,-195.9643 347.3472,-187.6427 337.0315,-190.0587 340.7897,-195.9643"/>
</g>
<!-- Node8&#45;&gt;Node2 -->
<g id="edge14" class="edge">
<title>Node8&#45;&gt;Node2</title>
<path fill="none" stroke="#191970" d="M164.3094,-168.1319C164.5163,-154.366 166.6595,-129.1613 178.5,-112 204.6145,-74.1503 222.1781,-71.4201 265.5,-56 333.0988,-31.9388 546.3579,-17.319 635.1272,-12.1356"/>
<polygon fill="#191970" stroke="#191970" points="635.5346,-15.618 645.3174,-11.5502 635.1331,-8.6295 635.5346,-15.618"/>
</g>
<!-- Node8&#45;&gt;Node7 -->
<g id="edge15" class="edge">
<title>Node8&#45;&gt;Node7</title>
<path fill="none" stroke="#191970" d="M174.0803,-168.2455C182.0458,-160.1352 193.5641,-148.4075 203.0079,-138.7919"/>
<polygon fill="#191970" stroke="#191970" points="205.5195,-141.2297 210.0295,-131.6427 200.5253,-136.3247 205.5195,-141.2297"/>
</g>
<!-- Node8&#45;&gt;Node9 -->
<g id="edge16" class="edge">
<title>Node8&#45;&gt;Node9</title>
<path fill="none" stroke="#191970" d="M207.7241,-174.6113C337.8781,-164.4029 718.8023,-134.4917 745.5,-132 757.7528,-130.8564 770.9008,-129.5136 783.3404,-128.1897"/>
<polygon fill="#191970" stroke="#191970" points="784.0198,-131.6369 793.5879,-127.0869 783.2707,-124.6771 784.0198,-131.6369"/>
</g>
<!-- Node8&#45;&gt;Node10 -->
<g id="edge20" class="edge">
<title>Node8&#45;&gt;Node10</title>
<path fill="none" stroke="#191970" d="M141.8084,-168.3733C120.4289,-159.3032 88.1943,-145.6279 64.2638,-135.4755"/>
<polygon fill="#191970" stroke="#191970" points="65.4683,-132.1846 54.8955,-131.5011 62.7344,-138.6287 65.4683,-132.1846"/>
</g>
<!-- Node9&#45;&gt;Node2 -->
<g id="edge17" class="edge">
<title>Node9&#45;&gt;Node2</title>
<path fill="none" stroke="#191970" d="M812.8198,-112.3649C792.7485,-104.22 764.6369,-91.4278 742.5,-76 722.1906,-61.8459 702.2636,-41.5294 689.2858,-27.1844"/>
<polygon fill="#191970" stroke="#191970" points="691.7478,-24.6852 682.4973,-19.52 686.5076,-29.3265 691.7478,-24.6852"/>
</g>
<!-- Node9&#45;&gt;Node3 -->
<g id="edge18" class="edge">
<title>Node9&#45;&gt;Node3</title>
<path fill="none" stroke="#191970" d="M838.1516,-112.2455C837.8907,-104.9382 837.5248,-94.6944 837.2037,-85.7046"/>
<polygon fill="#191970" stroke="#191970" points="840.6992,-85.5113 836.8444,-75.6427 833.7036,-85.7613 840.6992,-85.5113"/>
</g>
<!-- Node9&#45;&gt;Node4 -->
<g id="edge19" class="edge">
<title>Node9&#45;&gt;Node4</title>
<path fill="none" stroke="#191970" d="M876.9232,-112.4369C915.1875,-102.9133 974.0337,-88.2672 1015.3849,-77.9753"/>
<polygon fill="#191970" stroke="#191970" points="1016.3766,-81.3353 1025.2353,-75.5237 1014.6859,-74.5426 1016.3766,-81.3353"/>
</g>
<!-- Node10&#45;&gt;Node2 -->
<g id="edge21" class="edge">
<title>Node10&#45;&gt;Node2</title>
<path fill="none" stroke="#191970" d="M36.2153,-112.2974C42.5459,-97.2611 56.9688,-68.7385 79.5,-56 127.6998,-28.7491 510.2882,-14.934 635.2023,-11.1176"/>
<polygon fill="#191970" stroke="#191970" points="635.5628,-14.6085 645.4531,-10.8093 635.3523,-7.6116 635.5628,-14.6085"/>
</g>
<!-- Node11&#45;&gt;Node2 -->
<g id="edge23" class="edge">
<title>Node11&#45;&gt;Node2</title>
<path fill="none" stroke="#191970" d="M361.7316,-168.3331C360.4685,-145.1282 360.8027,-85.9825 393.5,-56 428.1559,-24.2215 566.4748,-14.2711 635.255,-11.2559"/>
<polygon fill="#191970" stroke="#191970" points="635.4264,-14.7519 645.2743,-10.8444 635.139,-7.7578 635.4264,-14.7519"/>
</g>
<!-- Node11&#45;&gt;Node12 -->
<g id="edge24" class="edge">
<title>Node11&#45;&gt;Node12</title>
<path fill="none" stroke="#191970" d="M415.7802,-168.4369C469.9618,-158.712 553.9031,-143.6456 611.3841,-133.3285"/>
<polygon fill="#191970" stroke="#191970" points="612.2152,-136.7353 621.4395,-131.5237 610.9785,-129.8454 612.2152,-136.7353"/>
</g>
<!-- Node12&#45;&gt;Node2 -->
<g id="edge25" class="edge">
<title>Node12&#45;&gt;Node2</title>
<path fill="none" stroke="#191970" d="M674.5,-112.4509C674.5,-94.184 674.5,-53.9553 674.5,-29.6976"/>
<polygon fill="#191970" stroke="#191970" points="678.0001,-29.5249 674.5,-19.5249 671.0001,-29.5249 678.0001,-29.5249"/>
</g>
<!-- Node12&#45;&gt;Node3 -->
<g id="edge26" class="edge">
<title>Node12&#45;&gt;Node3</title>
<path fill="none" stroke="#191970" d="M702.3488,-112.3733C729.1703,-103.1016 769.9127,-89.0178 799.4598,-78.804"/>
<polygon fill="#191970" stroke="#191970" points="800.7069,-82.0762 809.0146,-75.5011 798.4198,-75.4603 800.7069,-82.0762"/>
</g>
<!-- Node12&#45;&gt;Node4 -->
<g id="edge27" class="edge">
<title>Node12&#45;&gt;Node4</title>
<path fill="none" stroke="#191970" d="M737.4319,-112.9404C805.6149,-103.1248 914.4064,-87.4633 987.357,-76.9615"/>
<polygon fill="#191970" stroke="#191970" points="988.0055,-80.4043 997.4048,-75.515 987.0081,-73.4757 988.0055,-80.4043"/>
</g>
<!-- Node13&#45;&gt;Node1 -->
<g id="edge30" class="edge">
<title>Node13&#45;&gt;Node1</title>
<path fill="none" stroke="#191970" d="M963.3156,-168.4369C1011.6381,-158.7724 1086.3372,-143.8326 1137.8936,-133.5213"/>
<polygon fill="#191970" stroke="#191970" points="1138.7623,-136.9169 1147.8816,-131.5237 1137.3894,-130.0529 1138.7623,-136.9169"/>
</g>
<!-- Node13&#45;&gt;Node2 -->
<g id="edge29" class="edge">
<title>Node13&#45;&gt;Node2</title>
<path fill="none" stroke="#191970" d="M920.9122,-168.4189C932.8276,-145.9097 958.1548,-89.0669 930.5,-56 903.3326,-23.5159 778.5587,-13.939 713.7841,-11.1401"/>
<polygon fill="#191970" stroke="#191970" points="713.6824,-7.6334 703.5511,-10.7329 713.404,-14.6279 713.6824,-7.6334"/>
</g>
<!-- Node13&#45;&gt;Node3 -->
<g id="edge32" class="edge">
<title>Node13&#45;&gt;Node3</title>
<path fill="none" stroke="#191970" d="M913.6437,-168.3013C910.6957,-154.7366 903.9597,-129.7694 891.5,-112 883.1541,-100.0975 870.9773,-89.4818 860.2014,-81.4558"/>
<polygon fill="#191970" stroke="#191970" points="862.1386,-78.5387 851.9597,-75.5992 858.0838,-84.2447 862.1386,-78.5387"/>
</g>
<!-- Node13&#45;&gt;Node4 -->
<g id="edge31" class="edge">
<title>Node13&#45;&gt;Node4</title>
<path fill="none" stroke="#191970" d="M937.8838,-168.4858C955.9739,-160.2362 981.6097,-147.2435 1001.5,-132 1019.8936,-117.9036 1037.6611,-98.1583 1049.4252,-83.9432"/>
<polygon fill="#191970" stroke="#191970" points="1052.358,-85.8828 1055.9261,-75.9068 1046.9157,-81.4803 1052.358,-85.8828"/>
</g>
<!-- Node13&#45;&gt;Node9 -->
<g id="edge37" class="edge">
<title>Node13&#45;&gt;Node9</title>
<path fill="none" stroke="#191970" d="M902.0876,-168.2455C890.4943,-159.814 873.5252,-147.4729 860.0322,-137.6598"/>
<polygon fill="#191970" stroke="#191970" points="861.9047,-134.6938 851.7587,-131.6427 857.7874,-140.355 861.9047,-134.6938"/>
</g>
<!-- Node13&#45;&gt;Node12 -->
<g id="edge38" class="edge">
<title>Node13&#45;&gt;Node12</title>
<path fill="none" stroke="#191970" d="M874.3445,-168.4369C833.1858,-158.8731 769.795,-144.1432 725.4758,-133.845"/>
<polygon fill="#191970" stroke="#191970" points="726.0185,-130.3779 715.4858,-131.5237 724.4341,-137.1963 726.0185,-130.3779"/>
</g>
<!-- Node13&#45;&gt;Node14 -->
<g id="edge33" class="edge">
<title>Node13&#45;&gt;Node14</title>
<path fill="none" stroke="#191970" d="M991.2402,-168.4686C1081.1124,-157.1589 1228.6483,-138.5926 1307.2694,-128.6987"/>
<polygon fill="#191970" stroke="#191970" points="1307.9462,-132.1412 1317.431,-127.4199 1307.0722,-125.196 1307.9462,-132.1412"/>
</g>
<!-- Node14&#45;&gt;Node2 -->
<g id="edge34" class="edge">
<title>Node14&#45;&gt;Node2</title>
<path fill="none" stroke="#191970" d="M1340.0947,-112.4569C1307.4122,-97.6392 1240.9498,-69.4106 1181.5,-56 1092.402,-35.9013 816.691,-18.272 713.7742,-12.2258"/>
<polygon fill="#191970" stroke="#191970" points="713.6997,-8.7156 703.513,-11.6278 713.2924,-15.7038 713.6997,-8.7156"/>
</g>
<!-- Node14&#45;&gt;Node3 -->
<g id="edge35" class="edge">
<title>Node14&#45;&gt;Node3</title>
<path fill="none" stroke="#191970" d="M1317.4531,-117.2373C1302.2972,-115.569 1285.1437,-113.6905 1269.5,-112 1153.2833,-99.4413 1019.4868,-85.2716 931.7472,-76.0188"/>
<polygon fill="#191970" stroke="#191970" points="931.8578,-72.5111 921.5459,-74.9432 931.1238,-79.4725 931.8578,-72.5111"/>
</g>
<!-- Node14&#45;&gt;Node4 -->
<g id="edge36" class="edge">
<title>Node14&#45;&gt;Node4</title>
<path fill="none" stroke="#191970" d="M1317.3137,-113.8571C1266.3946,-104.2562 1181.4404,-88.2379 1123.9865,-77.4049"/>
<polygon fill="#191970" stroke="#191970" points="1124.4237,-73.9257 1113.9483,-75.5121 1123.1267,-80.8045 1124.4237,-73.9257"/>
</g>
<!-- Node15&#45;&gt;Node2 -->
<g id="edge40" class="edge">
<title>Node15&#45;&gt;Node2</title>
<path fill="none" stroke="#191970" d="M572.6386,-224.4834C541.9251,-205.7568 481.2734,-161.6053 495.5,-112 503.5913,-83.7872 507.3262,-74.0113 530.5,-56 561.0322,-32.2696 604.1212,-20.6173 635.198,-15.001"/>
<polygon fill="#191970" stroke="#191970" points="635.9566,-18.4228 645.2411,-13.319 634.8003,-11.5189 635.9566,-18.4228"/>
</g>
<!-- Node15&#45;&gt;Node3 -->
<g id="edge42" class="edge">
<title>Node15&#45;&gt;Node3</title>
<path fill="none" stroke="#191970" d="M600.9453,-224.3916C610.0993,-215.901 622.2419,-202.6212 627.5,-188 630.5081,-179.6356 630.1565,-176.4827 627.5,-168 621.6784,-149.4106 608.3216,-150.5894 602.5,-132 599.8435,-123.5173 596.8532,-118.8649 602.5,-112 620.2713,-90.395 684.4853,-78.7815 741.1581,-72.6312"/>
<polygon fill="#191970" stroke="#191970" points="741.6877,-76.0952 751.2729,-71.5815 740.965,-69.1326 741.6877,-76.0952"/>
</g>
<!-- Node15&#45;&gt;Node4 -->
<g id="edge43" class="edge">
<title>Node15&#45;&gt;Node4</title>
<path fill="none" stroke="#191970" d="M619.2168,-224.4076C673.52,-206.7804 792.3265,-167.7586 891.5,-132 939.8341,-114.5724 995.2362,-93.028 1029.8033,-79.396"/>
<polygon fill="#191970" stroke="#191970" points="1031.3903,-82.5323 1039.404,-75.6019 1028.8175,-76.0222 1031.3903,-82.5323"/>
</g>
<!-- Node15&#45;&gt;Node13 -->
<g id="edge41" class="edge">
<title>Node15&#45;&gt;Node13</title>
<path fill="none" stroke="#191970" d="M645.171,-224.4369C701.9011,-214.6918 789.855,-199.5832 849.9247,-189.2645"/>
<polygon fill="#191970" stroke="#191970" points="850.7956,-192.6662 860.0586,-187.5237 849.6104,-185.7673 850.7956,-192.6662"/>
</g>
<!-- Node16 -->
<g id="node17" class="node">
<title>Node16</title>
<g id="a_node17"><a xlink:href="RawHID_8h_source.html" target="_top" xlink:title="RawHID.h">
<polygon fill="#ffffff" stroke="#000000" points="556,-168.5 556,-187.5 619,-187.5 619,-168.5 556,-168.5"/>
<text text-anchor="middle" x="587.5" y="-175.5" font-family="Helvetica,sans-Serif" font-size="10.00" fill="#000000">RawHID.h</text>
</a>
</g>
</g>
<!-- Node15&#45;&gt;Node16 -->
<g id="edge44" class="edge">
<title>Node15&#45;&gt;Node16</title>
<path fill="none" stroke="#191970" d="M589.1516,-224.2455C588.8907,-216.9382 588.5248,-206.6944 588.2037,-197.7046"/>
<polygon fill="#191970" stroke="#191970" points="591.6992,-197.5113 587.8444,-187.6427 584.7036,-197.7613 591.6992,-197.5113"/>
</g>
<!-- Node16&#45;&gt;Node2 -->
<g id="edge45" class="edge">
<title>Node16&#45;&gt;Node2</title>
<path fill="none" stroke="#191970" d="M555.7532,-168.576C525.7726,-157.8636 487.4737,-138.3808 502.5,-112 530.8348,-62.2542 594.0343,-34.273 635.425,-20.6582"/>
<polygon fill="#191970" stroke="#191970" points="636.7026,-23.9252 645.1867,-17.5793 634.597,-17.2494 636.7026,-23.9252"/>
</g>
<!-- Node17 -->
<g id="node18" class="node">
<title>Node17</title>
<polygon fill="#ffffff" stroke="#bfbfbf" points="512,-112.5 512,-131.5 555,-131.5 555,-112.5 512,-112.5"/>
<text text-anchor="middle" x="533.5" y="-119.5" font-family="Helvetica,sans-Serif" font-size="10.00" fill="#000000">HID.h</text>
</g>
<!-- Node16&#45;&gt;Node17 -->
<g id="edge46" class="edge">
<title>Node16&#45;&gt;Node17</title>
<path fill="none" stroke="#191970" d="M578.0939,-168.2455C570.3507,-160.2155 559.188,-148.6394 549.9682,-139.0781"/>
<polygon fill="#191970" stroke="#191970" points="552.2591,-136.4117 542.7983,-131.6427 547.2202,-141.2706 552.2591,-136.4117"/>
</g>
<!-- Node18&#45;&gt;Node3 -->
<g id="edge55" class="edge">
<title>Node18&#45;&gt;Node3</title>
<path fill="none" stroke="#191970" d="M1023.6005,-224.0611C1023.2558,-210.2109 1020.8141,-184.9068 1008.5,-168 975.6199,-122.8566 916.1449,-94.1715 876.4822,-79.0861"/>
<polygon fill="#191970" stroke="#191970" points="877.4471,-75.7117 866.8536,-75.5421 875.0291,-82.2809 877.4471,-75.7117"/>
</g>
<!-- Node18&#45;&gt;Node4 -->
<g id="edge54" class="edge">
<title>Node18&#45;&gt;Node4</title>
<path fill="none" stroke="#191970" d="M1027.9269,-224.3193C1031.9708,-215.1385 1037.8582,-200.873 1041.5,-188 1051.5144,-152.6015 1057.9636,-110.0843 1061.144,-85.7358"/>
<polygon fill="#191970" stroke="#191970" points="1064.6391,-85.9927 1062.4102,-75.635 1057.6934,-85.1219 1064.6391,-85.9927"/>
</g>
<!-- Node18&#45;&gt;Node13 -->
<g id="edge53" class="edge">
<title>Node18&#45;&gt;Node13</title>
<path fill="none" stroke="#191970" d="M1004.6878,-224.2455C987.6527,-215.4125 962.3425,-202.2887 943.0319,-192.2758"/>
<polygon fill="#191970" stroke="#191970" points="944.5853,-189.1388 934.0966,-187.6427 941.363,-195.353 944.5853,-189.1388"/>
</g>
<!-- Node19&#45;&gt;Node2 -->
<g id="edge58" class="edge">
<title>Node19&#45;&gt;Node2</title>
<path fill="none" stroke="#191970" d="M1464.0347,-168.3039C1458.6019,-154.2873 1446.8731,-128.266 1429.5,-112 1388.2927,-73.4186 1369.9921,-70.7369 1315.5,-56 1201.1523,-25.0757 835.4892,-13.8042 714.0934,-10.8591"/>
<polygon fill="#191970" stroke="#191970" points="713.863,-7.3527 703.7829,-10.6149 713.6972,-14.3508 713.863,-7.3527"/>
</g>
<!-- Node19&#45;&gt;Node14 -->
<g id="edge59" class="edge">
<title>Node19&#45;&gt;Node14</title>
<path fill="none" stroke="#191970" d="M1448.862,-168.2455C1432.0614,-159.4527 1407.1366,-146.4079 1388.0382,-136.4125"/>
<polygon fill="#191970" stroke="#191970" points="1389.4073,-133.1787 1378.9244,-131.6427 1386.1614,-139.3807 1389.4073,-133.1787"/>
</g>
<!-- Node20&#45;&gt;Node2 -->
<g id="edge66" class="edge">
<title>Node20&#45;&gt;Node2</title>
<path fill="none" stroke="#191970" d="M242.5446,-280.4255C203.7608,-266.8865 140.1288,-238.045 112.5,-188 77.1302,-123.9333 86.2205,-120.2396 212.5,-56 249.7902,-37.0301 530.4723,-18.5737 635.2304,-12.2752"/>
<polygon fill="#191970" stroke="#191970" points="635.6103,-15.7589 645.3842,-11.6698 635.1936,-8.7713 635.6103,-15.7589"/>
</g>
<!-- Node20&#45;&gt;Node6 -->
<g id="edge67" class="edge">
<title>Node20&#45;&gt;Node6</title>
<path fill="none" stroke="#191970" d="M274.5,-280.2455C274.5,-272.9382 274.5,-262.6944 274.5,-253.7046"/>
<polygon fill="#191970" stroke="#191970" points="278.0001,-253.6426 274.5,-243.6427 271.0001,-253.6427 278.0001,-253.6426"/>
</g>
<!-- Node21&#45;&gt;Node1 -->
<g id="edge70" class="edge">
<title>Node21&#45;&gt;Node1</title>
<path fill="none" stroke="#191970" d="M1287.4184,-168.3733C1269.7598,-159.4644 1243.2947,-146.1127 1223.2902,-136.0203"/>
<polygon fill="#191970" stroke="#191970" points="1224.8372,-132.8806 1214.3326,-131.5011 1221.6842,-139.1303 1224.8372,-132.8806"/>
</g>
<!-- Node21&#45;&gt;Node2 -->
<g id="edge69" class="edge">
<title>Node21&#45;&gt;Node2</title>
<path fill="none" stroke="#191970" d="M1350.1731,-168.4883C1387.7345,-158.2113 1432.8913,-139.5208 1412.5,-112 1361.6103,-43.3174 1312.4569,-72.0719 1228.5,-56 1129.5402,-37.0561 823.4713,-18.4136 713.9659,-12.1829"/>
<polygon fill="#191970" stroke="#191970" points="713.8769,-8.6723 703.6952,-11.6021 713.4817,-15.6612 713.8769,-8.6723"/>
</g>
</g>
</svg>
        <g id="navigator" transform="translate(0 0)" fill="#404254">
                <rect fill="#f2f5e9" fill-opacity="0.5" stroke="#606060" stroke-width=".5" x="0" y="0" width="60" height="60"/>
                <use id="zoomplus" xlink:href="#zoomPlus" x="17" y="9" onmousedown="handleZoom(evt,'in')"/>
                <use id="zoomminus" xlink:href="#zoomMin" x="42" y="9" onmousedown="handleZoom(evt,'out')"/>
                <use id="reset" xlink:href="#resetDef" x="30" y="36" onmousedown="handleReset()"/>
                <g id="arrowUp" xlink:href="#dirArrow" transform="translate(30 24)" onmousedown="handlePan(0,-1)">
                  <use xlink:href="#rim" fill="#404040">
                        <set attributeName="fill" to="#808080" begin="arrowUp.mouseover" end="arrowUp.mouseout"/>
                  </use>
                  <path fill="none" stroke="white" stroke-width="1.5" d="M0,-3.0v7 M-2.5,-0.5L0,-3.0L2.5,-0.5"/>
                </g>
                <g id="arrowRight" xlink:href="#dirArrow" transform="rotate(90) translate(36 -43)" onmousedown="handlePan(1,0)">
                  <use xlink:href="#rim" fill="#404040">
                        <set attributeName="fill" to="#808080" begin="arrowRight.mouseover" end="arrowRight.mouseout"/>
                  </use>
                  <path fill="none" stroke="white" stroke-width="1.5" d="M0,-3.0v7 M-2.5,-0.5L0,-3.0L2.5,-0.5"/>
                </g>
                <g id="arrowDown" xlink:href="#dirArrow" transform="rotate(180) translate(-30 -48)" onmousedown="handlePan(0,1)">
                  <use xlink:href="#rim" fill="#404040">
                        <set attributeName="fill" to="#808080" begin="arrowDown.mouseover" end="arrowDown.mouseout"/>
                  </use>
                  <path fill="none" stroke="white" stroke-width="1.5" d="M0,-3.0v7 M-2.5,-0.5L0,-3.0L2.5,-0.5"/>
                </g>
                <g id="arrowLeft" xlink:href="#dirArrow" transform="rotate(270) translate(-36 17)" onmousedown="handlePan(-1,0)">
                  <use xlink:href="#rim" fill="#404040">
                        <set attributeName="fill" to="#808080" begin="arrowLeft.mouseover" end="arrowLeft.mouseout"/>
                  </use>
                  <path fill="none" stroke="white" stroke-width="1.5" d="M0,-3.0v7 M-2.5,-0.5L0,-3.0L2.5,-0.5"/>
                </g>
        </g>
        <svg viewBox="0 0 15 15" width="100%" height="30px" preserveAspectRatio="xMaxYMin meet">
         <g id="arrow_out" transform="scale(0.3 0.3)">
          <a xlink:href="CorsairLightingProtocol_8h__incl_org.svg" target="_base">
           <rect id="button" ry="5" rx="5" y="6" x="6" height="38" width="38"
                fill="#f2f5e9" fill-opacity="0.5" stroke="#606060" stroke-width="1.0"/>
           <path id="arrow"
             d="M 11.500037,31.436501 C 11.940474,20.09759 22.043105,11.32322 32.158766,21.979434 L 37.068811,17.246167 C 37.068811,17.246167 37.088388,32 37.088388,32 L 22.160133,31.978069 C 22.160133,31.978069 26.997745,27.140456 26.997745,27.140456 C 18.528582,18.264221 13.291696,25.230495 11.500037,31.436501 z"
             style="fill:#404040;"/>
          </a>
         </g>
        </svg>
</svg>
