<?xml version="1.0" encoding="UTF-8" standalone="no"?>
<!DOCTYPE svg PUBLIC "-//W3C//DTD SVG 1.1//EN"
 "http://www.w3.org/Graphics/SVG/1.1/DTD/svg11.dtd">
<!-- Generated by graphviz version 2.43.0 (0)
 -->
<!-- Title: examples Pages: 1 -->
<svg width="370pt" height="132pt"
 viewBox="0.00 0.00 370.00 132.00" xmlns="http://www.w3.org/2000/svg" xmlns:xlink="http://www.w3.org/1999/xlink">
<g id="graph0" class="graph" transform="scale(1 1) rotate(0) translate(4 128)">
<title>examples</title>
<polygon fill="white" stroke="transparent" points="-4,4 -4,-128 366,-128 366,4 -4,4"/>
<g id="clust1" class="cluster">
<title>clusterdir_d28a4824dc47e487b107a5db32ef43c4</title>
<g id="a_clust1"><a xlink:href="dir_d28a4824dc47e487b107a5db32ef43c4.html" target="_top">
<polygon fill="#eeeeff" stroke="black" points="8,-64 8,-116 354,-116 354,-64 8,-64"/>
</a>
</g>
</g>
<!-- dir_d28a4824dc47e487b107a5db32ef43c4 -->
<g id="node1" class="node">
<title>dir_d28a4824dc47e487b107a5db32ef43c4</title>
<text text-anchor="middle" x="313" y="-87.5" font-family="Helvetica,sans-Serif" font-size="10.00">examples</text>
</g>
<!-- dir_b526168db255e28f7e41d222f24d9397 -->
<g id="node2" class="node">
<title>dir_b526168db255e28f7e41d222f24d9397</title>
<g id="a_node2"><a xlink:href="dir_b526168db255e28f7e41d222f24d9397.html" target="_top" xlink:title="CommanderPRO">
<polygon fill="white" stroke="black" points="262.5,-108 165.5,-108 165.5,-72 262.5,-72 262.5,-108"/>
<text text-anchor="middle" x="214" y="-87.5" font-family="Helvetica,sans-Serif" font-size="10.00">CommanderPRO</text>
</a>
</g>
</g>
<!-- dir_68267d1309a1af8e8297ef4c3efbcdba -->
<g id="node4" class="node">
<title>dir_68267d1309a1af8e8297ef4c3efbcdba</title>
<g id="a_node4"><a xlink:href="dir_68267d1309a1af8e8297ef4c3efbcdba.html" target="_top" xlink:title="src">
<polygon fill="none" stroke="black" points="241,-36 187,-36 187,0 241,0 241,-36"/>
<text text-anchor="middle" x="214" y="-15.5" font-family="Helvetica,sans-Serif" font-size="10.00">src</text>
</a>
</g>
</g>
<!-- dir_b526168db255e28f7e41d222f24d9397&#45;&gt;dir_68267d1309a1af8e8297ef4c3efbcdba -->
<g id="edge1" class="edge">
<title>dir_b526168db255e28f7e41d222f24d9397&#45;&gt;dir_68267d1309a1af8e8297ef4c3efbcdba</title>
<path fill="none" stroke="black" d="M214,-71.7C214,-63.98 214,-54.71 214,-46.11"/>
<polygon fill="black" stroke="black" points="217.5,-46.1 214,-36.1 210.5,-46.1 217.5,-46.1"/>
<g id="a_edge1&#45;headlabel"><a xlink:href="dir_000001_000003.html" target="_top" xlink:title="3">
<text text-anchor="middle" x="220.34" y="-47.2" font-family="Helvetica,sans-Serif" font-size="10.00">3</text>
</a>
</g>
</g>
<!-- dir_62fe552d434dcf0a8ca4e2a384d27b9a -->
<g id="node3" class="node">
<title>dir_62fe552d434dcf0a8ca4e2a384d27b9a</title>
<g id="a_node3"><a xlink:href="dir_62fe552d434dcf0a8ca4e2a384d27b9a.html" target="_top" xlink:title="HoodLoader2CLPBridge">
<polygon fill="white" stroke="black" points="147.5,-108 16.5,-108 16.5,-72 147.5,-72 147.5,-108"/>
<text text-anchor="middle" x="82" y="-87.5" font-family="Helvetica,sans-Serif" font-size="10.00">HoodLoader2CLPBridge</text>
</a>
</g>
</g>
</g>
</svg>
