<?xml version="1.0" encoding="UTF-8" standalone="no"?>
<!DOCTYPE svg PUBLIC "-//W3C//DTD SVG 1.1//EN"
 "http://www.w3.org/Graphics/SVG/1.1/DTD/svg11.dtd">
<!-- Generated by graphviz version 2.40.1 (20161225.0304)
 -->
<!-- Title: examples Pages: 1 -->
<svg width="350pt" height="132pt"
 viewBox="0.00 0.00 350.00 132.00" xmlns="http://www.w3.org/2000/svg" xmlns:xlink="http://www.w3.org/1999/xlink">
<g id="graph0" class="graph" transform="scale(1 1) rotate(0) translate(4 128)">
<title>examples</title>
<polygon fill="#ffffff" stroke="transparent" points="-4,4 -4,-128 346,-128 346,4 -4,4"/>
<g id="clust1" class="cluster">
<title>clusterdir_d28a4824dc47e487b107a5db32ef43c4</title>
<g id="a_clust1"><a xlink:href="dir_d28a4824dc47e487b107a5db32ef43c4.html" target="_top">
<polygon fill="#eeeeff" stroke="#000000" points="8,-64 8,-116 334,-116 334,-64 8,-64"/>
</a>
</g>
</g>
<!-- dir_d28a4824dc47e487b107a5db32ef43c4 -->
<g id="node1" class="node">
<title>dir_d28a4824dc47e487b107a5db32ef43c4</title>
<text text-anchor="middle" x="296" y="-87.5" font-family="Helvetica,sans-Serif" font-size="10.00" fill="#000000">examples</text>
</g>
<!-- dir_b526168db255e28f7e41d222f24d9397 -->
<g id="node2" class="node">
<title>dir_b526168db255e28f7e41d222f24d9397</title>
<g id="a_node2"><a xlink:href="dir_b526168db255e28f7e41d222f24d9397.html" target="_top" xlink:title="CommanderPRO">
<polygon fill="#ffffff" stroke="#000000" points="248,-108 156,-108 156,-72 248,-72 248,-108"/>
<text text-anchor="middle" x="202" y="-87.5" font-family="Helvetica,sans-Serif" font-size="10.00" fill="#000000">CommanderPRO</text>
</a>
</g>
</g>
<!-- dir_68267d1309a1af8e8297ef4c3efbcdba -->
<g id="node4" class="node">
<title>dir_68267d1309a1af8e8297ef4c3efbcdba</title>
<g id="a_node4"><a xlink:href="dir_68267d1309a1af8e8297ef4c3efbcdba.html" target="_top" xlink:title="src">
<polygon fill="none" stroke="#000000" points="229,-36 175,-36 175,0 229,0 229,-36"/>
<text text-anchor="middle" x="202" y="-15.5" font-family="Helvetica,sans-Serif" font-size="10.00" fill="#000000">src</text>
</a>
</g>
</g>
<!-- dir_b526168db255e28f7e41d222f24d9397&#45;&gt;dir_68267d1309a1af8e8297ef4c3efbcdba -->
<g id="edge1" class="edge">
<title>dir_b526168db255e28f7e41d222f24d9397&#45;&gt;dir_68267d1309a1af8e8297ef4c3efbcdba</title>
<path fill="none" stroke="#000000" d="M202,-71.8314C202,-64.131 202,-54.9743 202,-46.4166"/>
<polygon fill="#000000" stroke="#000000" points="205.5001,-46.4132 202,-36.4133 198.5001,-46.4133 205.5001,-46.4132"/>
<g id="a_edge1&#45;headlabel"><a xlink:href="dir_000001_000003.html" target="_top" xlink:title="3">
<text text-anchor="middle" x="208.3393" y="-47.5079" font-family="Helvetica,sans-Serif" font-size="10.00" fill="#000000">3</text>
</a>
</g>
</g>
<!-- dir_62fe552d434dcf0a8ca4e2a384d27b9a -->
<g id="node3" class="node">
<title>dir_62fe552d434dcf0a8ca4e2a384d27b9a</title>
<g id="a_node3"><a xlink:href="dir_62fe552d434dcf0a8ca4e2a384d27b9a.html" target="_top" xlink:title="HoodLoader2CLPBridge">
<polygon fill="#ffffff" stroke="#000000" points="138,-108 16,-108 16,-72 138,-72 138,-108"/>
<text text-anchor="middle" x="77" y="-87.5" font-family="Helvetica,sans-Serif" font-size="10.00" fill="#000000">HoodLoader2CLPBridge</text>
</a>
</g>
</g>
</g>
</svg>
