<?xml version="1.0" encoding="UTF-8" standalone="no"?>
<!DOCTYPE svg PUBLIC "-//W3C//DTD SVG 1.1//EN"
 "http://www.w3.org/Graphics/SVG/1.1/DTD/svg11.dtd">
<!-- Generated by graphviz version 2.43.0 (0)
 -->
<!-- Title: src/FanController.h Pages: 1 -->
<svg width="330pt" height="95pt"
 viewBox="0.00 0.00 330.00 95.00" xmlns="http://www.w3.org/2000/svg" xmlns:xlink="http://www.w3.org/1999/xlink">
<g id="graph0" class="graph" transform="scale(1 1) rotate(0) translate(4 91)">
<title>src/FanController.h</title>
<polygon fill="white" stroke="transparent" points="-4,4 -4,-91 326,-91 326,4 -4,4"/>
<!-- Node1 -->
<g id="node1" class="node">
<title>Node1</title>
<g id="a_node1"><a xlink:title=" ">
<polygon fill="#bfbfbf" stroke="black" points="109.5,-67.5 109.5,-86.5 216.5,-86.5 216.5,-67.5 109.5,-67.5"/>
<text text-anchor="middle" x="163" y="-74.5" font-family="Helvetica,sans-Serif" font-size="10.00">src/FanController.h</text>
</a>
</g>
</g>
<!-- Node2 -->
<g id="node2" class="node">
<title>Node2</title>
<g id="a_node2"><a xlink:href="CorsairLightingProtocol_8h.html" target="_top" xlink:title=" ">
<polygon fill="white" stroke="black" points="0,-6 0,-25 156,-25 156,-6 0,-6"/>
<text text-anchor="middle" x="78" y="-13" font-family="Helvetica,sans-Serif" font-size="10.00">src/CorsairLightingProtocol.h</text>
</a>
</g>
</g>
<!-- Node1&#45;&gt;Node2 -->
<g id="edge1" class="edge">
<title>Node1&#45;&gt;Node2</title>
<path fill="none" stroke="midnightblue" d="M142.45,-61.61C126.1,-50.17 103.78,-34.55 90.16,-25.01"/>
<polygon fill="midnightblue" stroke="midnightblue" points="140.62,-64.61 150.82,-67.48 144.64,-58.87 140.62,-64.61"/>
</g>
<!-- Node3 -->
<g id="node3" class="node">
<title>Node3</title>
<g id="a_node3"><a xlink:href="SimpleFanController_8h_source.html" target="_top" xlink:title=" ">
<polygon fill="white" stroke="black" points="174,-0.5 174,-30.5 322,-30.5 322,-0.5 174,-0.5"/>
<text text-anchor="start" x="182" y="-18.5" font-family="Helvetica,sans-Serif" font-size="10.00">examples/CommanderPRO</text>
<text text-anchor="middle" x="248" y="-7.5" font-family="Helvetica,sans-Serif" font-size="10.00">/SimpleFanController.h</text>
</a>
</g>
</g>
<!-- Node1&#45;&gt;Node3 -->
<g id="edge2" class="edge">
<title>Node1&#45;&gt;Node3</title>
<path fill="none" stroke="midnightblue" d="M183.37,-61.74C196.88,-52.28 214.53,-39.93 227.97,-30.52"/>
<polygon fill="midnightblue" stroke="midnightblue" points="181.36,-58.87 175.18,-67.48 185.38,-64.61 181.36,-58.87"/>
</g>
</g>
</svg>
