<?xml version="1.0" encoding="UTF-8" standalone="no"?>
<!DOCTYPE svg PUBLIC "-//W3C//DTD SVG 1.1//EN"
 "http://www.w3.org/Graphics/SVG/1.1/DTD/svg11.dtd">
<!-- Generated by graphviz version 2.40.1 (20161225.0304)
 -->
<!-- Title: src/FanController.h Pages: 1 -->
<svg width="306pt" height="95pt"
 viewBox="0.00 0.00 306.00 95.00" xmlns="http://www.w3.org/2000/svg" xmlns:xlink="http://www.w3.org/1999/xlink">
<g id="graph0" class="graph" transform="scale(1 1) rotate(0) translate(4 91)">
<title>src/FanController.h</title>
<polygon fill="#ffffff" stroke="transparent" points="-4,4 -4,-91 302,-91 302,4 -4,4"/>
<!-- Node5 -->
<g id="node1" class="node">
<title>Node5</title>
<polygon fill="#bfbfbf" stroke="#000000" points="100.5,-67.5 100.5,-86.5 200.5,-86.5 200.5,-67.5 100.5,-67.5"/>
<text text-anchor="middle" x="150.5" y="-74.5" font-family="Helvetica,sans-Serif" font-size="10.00" fill="#000000">src/FanController.h</text>
</g>
<!-- Node6 -->
<g id="node2" class="node">
<title>Node6</title>
<g id="a_node2"><a xlink:href="CorsairLightingProtocol_8h.html" target="_top" xlink:title="src/CorsairLightingProtocol.h">
<polygon fill="#ffffff" stroke="#000000" points="0,-6 0,-25 143,-25 143,-6 0,-6"/>
<text text-anchor="middle" x="71.5" y="-13" font-family="Helvetica,sans-Serif" font-size="10.00" fill="#000000">src/CorsairLightingProtocol.h</text>
</a>
</g>
</g>
<!-- Node5&#45;&gt;Node6 -->
<g id="edge1" class="edge">
<title>Node5&#45;&gt;Node6</title>
<path fill="none" stroke="#191970" d="M130.1387,-61.1491C115.46,-49.722 96.1312,-34.6749 83.7571,-25.0419"/>
<polygon fill="#191970" stroke="#191970" points="128.1154,-64.0095 138.1563,-67.3906 132.4154,-58.4859 128.1154,-64.0095"/>
</g>
<!-- Node7 -->
<g id="node3" class="node">
<title>Node7</title>
<g id="a_node3"><a xlink:href="SimpleFanController_8h_source.html" target="_top" xlink:title="examples/CommanderPRO\l/SimpleFanController.h">
<polygon fill="#ffffff" stroke="#000000" points="161,-.5 161,-30.5 298,-30.5 298,-.5 161,-.5"/>
<text text-anchor="start" x="169" y="-18.5" font-family="Helvetica,sans-Serif" font-size="10.00" fill="#000000">examples/CommanderPRO</text>
<text text-anchor="middle" x="229.5" y="-7.5" font-family="Helvetica,sans-Serif" font-size="10.00" fill="#000000">/SimpleFanController.h</text>
</a>
</g>
</g>
<!-- Node5&#45;&gt;Node7 -->
<g id="edge2" class="edge">
<title>Node5&#45;&gt;Node7</title>
<path fill="none" stroke="#191970" d="M171.0035,-61.0385C183.0922,-51.6276 198.2967,-39.7911 210.1744,-30.5446"/>
<polygon fill="#191970" stroke="#191970" points="168.5846,-58.4859 162.8438,-67.3906 172.8846,-64.0095 168.5846,-58.4859"/>
</g>
</g>
</svg>
