<?xml version="1.0" encoding="UTF-8" standalone="no"?>
<!DOCTYPE svg PUBLIC "-//W3C//DTD SVG 1.1//EN"
 "http://www.w3.org/Graphics/SVG/1.1/DTD/svg11.dtd">
<!-- Generated by graphviz version 2.43.0 (0)
 -->
<!-- Title: src/FanController.h Pages: 1 -->
<svg width="483pt" height="196pt"
 viewBox="0.00 0.00 482.50 196.00" xmlns="http://www.w3.org/2000/svg" xmlns:xlink="http://www.w3.org/1999/xlink">
<g id="graph0" class="graph" transform="scale(1 1) rotate(0) translate(4 192)">
<title>src/FanController.h</title>
<polygon fill="white" stroke="transparent" points="-4,4 -4,-192 478.5,-192 478.5,4 -4,4"/>
<!-- Node1 -->
<g id="node1" class="node">
<title>Node1</title>
<g id="a_node1"><a xlink:title=" ">
<polygon fill="#bfbfbf" stroke="black" points="0,-168.5 0,-187.5 107,-187.5 107,-168.5 0,-168.5"/>
<text text-anchor="middle" x="53.5" y="-175.5" font-family="Helvetica,sans-Serif" font-size="10.00">src/FanController.h</text>
</a>
</g>
</g>
<!-- Node2 -->
<g id="node2" class="node">
<title>Node2</title>
<g id="a_node2"><a xlink:title=" ">
<polygon fill="white" stroke="#bfbfbf" points="84,-0.5 84,-19.5 147,-19.5 147,-0.5 84,-0.5"/>
<text text-anchor="middle" x="115.5" y="-7.5" font-family="Helvetica,sans-Serif" font-size="10.00">Arduino.h</text>
</a>
</g>
</g>
<!-- Node1&#45;&gt;Node2 -->
<g id="edge1" class="edge">
<title>Node1&#45;&gt;Node2</title>
<path fill="none" stroke="midnightblue" d="M52.54,-168.21C50.68,-147.43 48.29,-94.15 67.5,-56 73.54,-44.01 84.15,-33.54 93.87,-25.72"/>
<polygon fill="midnightblue" stroke="midnightblue" points="96.16,-28.38 102.04,-19.57 91.94,-22.79 96.16,-28.38"/>
</g>
<!-- Node3 -->
<g id="node3" class="node">
<title>Node3</title>
<g id="a_node3"><a xlink:href="IFanController_8h_source.html" target="_top" xlink:title=" ">
<polygon fill="white" stroke="black" points="87.5,-112.5 87.5,-131.5 179.5,-131.5 179.5,-112.5 87.5,-112.5"/>
<text text-anchor="middle" x="133.5" y="-119.5" font-family="Helvetica,sans-Serif" font-size="10.00">IFanController.h</text>
</a>
</g>
</g>
<!-- Node1&#45;&gt;Node3 -->
<g id="edge2" class="edge">
<title>Node1&#45;&gt;Node3</title>
<path fill="none" stroke="midnightblue" d="M66.35,-168.32C78.72,-159.98 97.63,-147.21 112.24,-137.35"/>
<polygon fill="midnightblue" stroke="midnightblue" points="114.35,-140.15 120.68,-131.65 110.43,-134.35 114.35,-140.15"/>
</g>
<!-- Node3&#45;&gt;Node2 -->
<g id="edge3" class="edge">
<title>Node3&#45;&gt;Node2</title>
<path fill="none" stroke="midnightblue" d="M114.2,-112.48C100.07,-105.08 81.94,-92.89 73.5,-76 64.53,-58.05 80.32,-38.92 95.03,-26.1"/>
<polygon fill="midnightblue" stroke="midnightblue" points="97.38,-28.7 102.93,-19.67 92.97,-23.27 97.38,-28.7"/>
</g>
<!-- Node4 -->
<g id="node4" class="node">
<title>Node4</title>
<g id="a_node4"><a xlink:href="CorsairLightingProtocolConstants_8h_source.html" target="_top" xlink:title=" ">
<polygon fill="white" stroke="black" points="82.5,-56.5 82.5,-75.5 270.5,-75.5 270.5,-56.5 82.5,-56.5"/>
<text text-anchor="middle" x="176.5" y="-63.5" font-family="Helvetica,sans-Serif" font-size="10.00">CorsairLightingProtocolConstants.h</text>
</a>
</g>
</g>
<!-- Node3&#45;&gt;Node4 -->
<g id="edge4" class="edge">
<title>Node3&#45;&gt;Node4</title>
<path fill="none" stroke="midnightblue" d="M140.6,-112.08C146.74,-104.38 155.77,-93.03 163.24,-83.65"/>
<polygon fill="midnightblue" stroke="midnightblue" points="166.04,-85.75 169.53,-75.75 160.56,-81.39 166.04,-85.75"/>
</g>
<!-- Node5 -->
<g id="node5" class="node">
<title>Node5</title>
<g id="a_node5"><a xlink:href="CorsairLightingProtocolResponse_8h_source.html" target="_top" xlink:title=" ">
<polygon fill="white" stroke="black" points="288.5,-56.5 288.5,-75.5 474.5,-75.5 474.5,-56.5 288.5,-56.5"/>
<text text-anchor="middle" x="381.5" y="-63.5" font-family="Helvetica,sans-Serif" font-size="10.00">CorsairLightingProtocolResponse.h</text>
</a>
</g>
</g>
<!-- Node3&#45;&gt;Node5 -->
<g id="edge6" class="edge">
<title>Node3&#45;&gt;Node5</title>
<path fill="none" stroke="midnightblue" d="M172.8,-112.44C216.06,-103.02 285.67,-87.87 332.47,-77.68"/>
<polygon fill="midnightblue" stroke="midnightblue" points="333.36,-81.06 342.39,-75.52 331.87,-74.22 333.36,-81.06"/>
</g>
<!-- Node4&#45;&gt;Node2 -->
<g id="edge5" class="edge">
<title>Node4&#45;&gt;Node2</title>
<path fill="none" stroke="midnightblue" d="M166.7,-56.32C157.68,-48.34 144.09,-36.31 133.18,-26.65"/>
<polygon fill="midnightblue" stroke="midnightblue" points="135.29,-23.84 125.48,-19.83 130.65,-29.08 135.29,-23.84"/>
</g>
<!-- Node5&#45;&gt;Node2 -->
<g id="edge7" class="edge">
<title>Node5&#45;&gt;Node2</title>
<path fill="none" stroke="midnightblue" d="M339.35,-56.44C289.43,-46.31 206.8,-29.54 157.12,-19.45"/>
<polygon fill="midnightblue" stroke="midnightblue" points="157.54,-15.96 147.04,-17.4 156.14,-22.82 157.54,-15.96"/>
</g>
</g>
</svg>
