<?xml version="1.0" encoding="UTF-8" standalone="no"?>
<!DOCTYPE svg PUBLIC "-//W3C//DTD SVG 1.1//EN"
 "http://www.w3.org/Graphics/SVG/1.1/DTD/svg11.dtd">
<!-- Generated by graphviz version 2.40.1 (20161225.0304)
 -->
<!-- Title: Graphical Class Hierarchy Pages: 1 -->
<svg width="337pt" height="28pt"
 viewBox="0.00 0.00 337.00 28.00" xmlns="http://www.w3.org/2000/svg" xmlns:xlink="http://www.w3.org/1999/xlink">
<g id="graph0" class="graph" transform="scale(1 1) rotate(0) translate(4 24)">
<title>Graphical Class Hierarchy</title>
<polygon fill="#ffffff" stroke="transparent" points="-4,4 -4,-24 333,-24 333,4 -4,4"/>
<!-- Node0 -->
<g id="node1" class="node">
<title>Node0</title>
<g id="a_node1"><a xlink:href="classILEDController.html" target="_top" xlink:title="ILEDController">
<polygon fill="#ffffff" stroke="#000000" points="0,-.5 0,-19.5 81,-19.5 81,-.5 0,-.5"/>
<text text-anchor="middle" x="40.5" y="-7.5" font-family="Helvetica,sans-Serif" font-size="10.00" fill="#000000">ILEDController</text>
</a>
</g>
</g>
<!-- Node1 -->
<g id="node2" class="node">
<title>Node1</title>
<g id="a_node2"><a xlink:href="classLEDController.html" target="_top" xlink:title="LEDController">
<polygon fill="#ffffff" stroke="#000000" points="117,-.5 117,-19.5 195,-19.5 195,-.5 117,-.5"/>
<text text-anchor="middle" x="156" y="-7.5" font-family="Helvetica,sans-Serif" font-size="10.00" fill="#000000">LEDController</text>
</a>
</g>
</g>
<!-- Node0&#45;&gt;Node1 -->
<g id="edge1" class="edge">
<title>Node0&#45;&gt;Node1</title>
<path fill="none" stroke="#191970" d="M91.4463,-10C99.9519,-10 108.6571,-10 116.8101,-10"/>
<polygon fill="#191970" stroke="#191970" points="91.221,-6.5001 81.221,-10 91.2209,-13.5001 91.221,-6.5001"/>
</g>
<!-- Node2 -->
<g id="node3" class="node">
<title>Node2</title>
<g id="a_node3"><a xlink:href="classFastLEDController.html" target="_top" xlink:title="FastLEDController">
<polygon fill="#ffffff" stroke="#000000" points="231,-.5 231,-19.5 329,-19.5 329,-.5 231,-.5"/>
<text text-anchor="middle" x="280" y="-7.5" font-family="Helvetica,sans-Serif" font-size="10.00" fill="#000000">FastLEDController</text>
</a>
</g>
</g>
<!-- Node1&#45;&gt;Node2 -->
<g id="edge2" class="edge">
<title>Node1&#45;&gt;Node2</title>
<path fill="none" stroke="#191970" d="M205.331,-10C213.7782,-10 222.5532,-10 230.9919,-10"/>
<polygon fill="#191970" stroke="#191970" points="205.2344,-6.5001 195.2344,-10 205.2343,-13.5001 205.2344,-6.5001"/>
</g>
</g>
</svg>
