<?xml version="1.0" encoding="UTF-8" standalone="no"?>
<!DOCTYPE svg PUBLIC "-//W3C//DTD SVG 1.1//EN"
 "http://www.w3.org/Graphics/SVG/1.1/DTD/svg11.dtd">
<!-- Generated by graphviz version 2.40.1 (20161225.0304)
 -->
<!-- Title: Graphical Class Hierarchy Pages: 1 -->
<svg width="349pt" height="66pt"
 viewBox="0.00 0.00 349.00 66.00" xmlns="http://www.w3.org/2000/svg" xmlns:xlink="http://www.w3.org/1999/xlink">
<g id="graph0" class="graph" transform="scale(1 1) rotate(0) translate(4 62)">
<title>Graphical Class Hierarchy</title>
<polygon fill="#ffffff" stroke="transparent" points="-4,4 -4,-62 345,-62 345,4 -4,4"/>
<!-- Node0 -->
<g id="node1" class="node">
<title>Node0</title>
<g id="a_node1"><a xlink:href="classCorsairLightingProtocolResponse.html" target="_top" xlink:title="CorsairLightingProtocolResponse">
<polygon fill="#ffffff" stroke="#000000" points="0,-19.5 0,-38.5 162,-38.5 162,-19.5 0,-19.5"/>
<text text-anchor="middle" x="81" y="-26.5" font-family="Helvetica,sans-Serif" font-size="10.00" fill="#000000">CorsairLightingProtocolResponse</text>
</a>
</g>
</g>
<!-- Node1 -->
<g id="node2" class="node">
<title>Node1</title>
<g id="a_node2"><a xlink:href="classCorsairLightingProtocolHID.html" target="_top" xlink:title="CorsairLightingProtocolHID">
<polygon fill="#ffffff" stroke="#000000" points="201.5,-38.5 201.5,-57.5 337.5,-57.5 337.5,-38.5 201.5,-38.5"/>
<text text-anchor="middle" x="269.5" y="-45.5" font-family="Helvetica,sans-Serif" font-size="10.00" fill="#000000">CorsairLightingProtocolHID</text>
</a>
</g>
</g>
<!-- Node0&#45;&gt;Node1 -->
<g id="edge1" class="edge">
<title>Node0&#45;&gt;Node1</title>
<path fill="none" stroke="#8b1a1a" d="M172.1965,-38.1922C181.9797,-39.1783 191.8068,-40.1689 201.2556,-41.1213"/>
<polygon fill="#8b1a1a" stroke="#8b1a1a" points="172.3355,-34.6886 162.0349,-37.168 171.6335,-41.6533 172.3355,-34.6886"/>
</g>
<!-- Node2 -->
<g id="node3" class="node">
<title>Node2</title>
<g id="a_node3"><a xlink:href="classCorsairLightingProtocolSerial.html" target="_top" xlink:title="CorsairLightingProtocolSerial">
<polygon fill="#ffffff" stroke="#000000" points="198,-.5 198,-19.5 341,-19.5 341,-.5 198,-.5"/>
<text text-anchor="middle" x="269.5" y="-7.5" font-family="Helvetica,sans-Serif" font-size="10.00" fill="#000000">CorsairLightingProtocolSerial</text>
</a>
</g>
</g>
<!-- Node0&#45;&gt;Node2 -->
<g id="edge2" class="edge">
<title>Node0&#45;&gt;Node2</title>
<path fill="none" stroke="#8b1a1a" d="M172.1045,-19.8171C180.7107,-18.9496 189.3518,-18.0786 197.7405,-17.233"/>
<polygon fill="#8b1a1a" stroke="#8b1a1a" points="171.6335,-16.3467 162.0349,-20.832 172.3355,-23.3114 171.6335,-16.3467"/>
</g>
</g>
</svg>
