<?xml version="1.0" encoding="UTF-8" standalone="no"?>
<!DOCTYPE svg PUBLIC "-//W3C//DTD SVG 1.1//EN"
 "http://www.w3.org/Graphics/SVG/1.1/DTD/svg11.dtd">
<!-- Generated by graphviz version 2.43.0 (0)
 -->
<!-- Title: Graphical Class Hierarchy Pages: 1 -->
<svg width="250pt" height="66pt"
 viewBox="0.00 0.00 250.00 66.00" xmlns="http://www.w3.org/2000/svg" xmlns:xlink="http://www.w3.org/1999/xlink">
<g id="graph0" class="graph" transform="scale(1 1) rotate(0) translate(4 62)">
<title>Graphical Class Hierarchy</title>
<polygon fill="white" stroke="transparent" points="-4,4 -4,-62 246,-62 246,4 -4,4"/>
<!-- Node5 -->
<g id="node1" class="node">
<title>Node5</title>
<g id="a_node1"><a xlink:title=" ">
<polygon fill="white" stroke="#bfbfbf" points="0,-38.5 0,-57.5 121,-57.5 121,-38.5 0,-38.5"/>
<text text-anchor="middle" x="60.5" y="-45.5" font-family="Helvetica,sans-Serif" font-size="10.00">PluggableUSBModule</text>
</a>
</g>
</g>
<!-- Node0 -->
<g id="node2" class="node">
<title>Node0</title>
<g id="a_node2"><a xlink:href="classCLP_1_1RawHID__.html" target="_top" xlink:title=" ">
<polygon fill="white" stroke="black" points="157,-19.5 157,-38.5 242,-38.5 242,-19.5 157,-19.5"/>
<text text-anchor="middle" x="199.5" y="-26.5" font-family="Helvetica,sans-Serif" font-size="10.00">CLP::RawHID_</text>
</a>
</g>
</g>
<!-- Node5&#45;&gt;Node0 -->
<g id="edge1" class="edge">
<title>Node5&#45;&gt;Node0</title>
<path fill="none" stroke="midnightblue" d="M131.34,-38.31C140.01,-37.11 148.65,-35.91 156.7,-34.8"/>
<polygon fill="midnightblue" stroke="midnightblue" points="130.62,-34.88 121.19,-39.72 131.58,-41.81 130.62,-34.88"/>
</g>
<!-- Node1 -->
<g id="node3" class="node">
<title>Node1</title>
<g id="a_node3"><a xlink:title=" ">
<polygon fill="white" stroke="#bfbfbf" points="34.5,-0.5 34.5,-19.5 86.5,-19.5 86.5,-0.5 34.5,-0.5"/>
<text text-anchor="middle" x="60.5" y="-7.5" font-family="Helvetica,sans-Serif" font-size="10.00">Stream</text>
</a>
</g>
</g>
<!-- Node1&#45;&gt;Node0 -->
<g id="edge2" class="edge">
<title>Node1&#45;&gt;Node0</title>
<path fill="none" stroke="midnightblue" d="M96.62,-14.87C114.99,-17.42 137.61,-20.55 156.85,-23.22"/>
<polygon fill="midnightblue" stroke="midnightblue" points="97.01,-11.39 86.63,-13.48 96.05,-18.33 97.01,-11.39"/>
</g>
</g>
</svg>
