<?xml version="1.0" encoding="UTF-8" standalone="no"?>
<!DOCTYPE svg PUBLIC "-//W3C//DTD SVG 1.1//EN"
 "http://www.w3.org/Graphics/SVG/1.1/DTD/svg11.dtd">
<!-- Generated by graphviz version 2.40.1 (20161225.0304)
 -->
<!-- Title: Graphical Class Hierarchy Pages: 1 -->
<svg width="204pt" height="46pt"
 viewBox="0.00 0.00 204.00 46.00" xmlns="http://www.w3.org/2000/svg" xmlns:xlink="http://www.w3.org/1999/xlink">
<g id="graph0" class="graph" transform="scale(1 1) rotate(0) translate(4 42)">
<title>Graphical Class Hierarchy</title>
<polygon fill="#ffffff" stroke="transparent" points="-4,4 -4,-42 200,-42 200,4 -4,4"/>
<!-- Node3 -->
<g id="node1" class="node">
<title>Node3</title>
<polygon fill="#ffffff" stroke="#bfbfbf" points="0,-.5 0,-19.5 112,-19.5 112,-.5 0,-.5"/>
<text text-anchor="middle" x="56" y="-7.5" font-family="Helvetica,sans-Serif" font-size="10.00" fill="#000000">PluggableUSBModule</text>
</g>
<!-- Node0 -->
<g id="node2" class="node">
<title>Node0</title>
<g id="a_node2"><a xlink:href="classRawHID__.html" target="_top" xlink:title="Stream">
<polygon fill="#ffffff" stroke="#bfbfbf" points="148,-.5 148,-19.5 196,-19.5 196,-.5 148,-.5"/>
<text text-anchor="middle" x="172" y="-7.5" font-family="Helvetica,sans-Serif" font-size="10.00" fill="#000000">Stream</text>
</a>
</g>
</g>
<!-- Node3&#45;&gt;Node0 -->
<g id="edge1" class="edge">
<title>Node3&#45;&gt;Node0</title>
<path fill="none" stroke="#191970" d="M122.5054,-10C131.4809,-10 140.1786,-10 147.7135,-10"/>
<polygon fill="#191970" stroke="#191970" points="122.301,-6.5001 112.301,-10 122.301,-13.5001 122.301,-6.5001"/>
</g>
<!-- Node0&#45;&gt;Node0 -->
<g id="edge2" class="edge">
<title>Node0&#45;&gt;Node0</title>
<path fill="none" stroke="#191970" d="M150.5196,-29.4C151.9541,-34.3146 159.1143,-38 172,-38 192.6172,-38 198.5768,-28.5653 189.879,-19.7571"/>
<polygon fill="#191970" stroke="#191970" points="153.901,-30.3496 154.121,-19.7571 147.3434,-27.9004 153.901,-30.3496"/>
</g>
</g>
</svg>
