<?xml version="1.0" encoding="UTF-8" standalone="no"?>
<!DOCTYPE svg PUBLIC "-//W3C//DTD SVG 1.1//EN"
 "http://www.w3.org/Graphics/SVG/1.1/DTD/svg11.dtd">
<!-- Generated by graphviz version 2.40.1 (20161225.0304)
 -->
<!-- Title: Graphical Class Hierarchy Pages: 1 -->
<svg width="469pt" height="28pt"
 viewBox="0.00 0.00 469.00 28.00" xmlns="http://www.w3.org/2000/svg" xmlns:xlink="http://www.w3.org/1999/xlink">
<g id="graph0" class="graph" transform="scale(1 1) rotate(0) translate(4 24)">
<title>Graphical Class Hierarchy</title>
<polygon fill="#ffffff" stroke="transparent" points="-4,4 -4,-24 465,-24 465,4 -4,4"/>
<!-- Node0 -->
<g id="node1" class="node">
<title>Node0</title>
<g id="a_node1"><a xlink:href="classITemperatureController.html" target="_top" xlink:title="ITemperatureController">
<polygon fill="#ffffff" stroke="#000000" points="0,-.5 0,-19.5 116,-19.5 116,-.5 0,-.5"/>
<text text-anchor="middle" x="58" y="-7.5" font-family="Helvetica,sans-Serif" font-size="10.00" fill="#000000">ITemperatureController</text>
</a>
</g>
</g>
<!-- Node1 -->
<g id="node2" class="node">
<title>Node1</title>
<g id="a_node2"><a xlink:href="classTemperatureController.html" target="_top" xlink:title="TemperatureController">
<polygon fill="#ffffff" stroke="#000000" points="152,-.5 152,-19.5 265,-19.5 265,-.5 152,-.5"/>
<text text-anchor="middle" x="208.5" y="-7.5" font-family="Helvetica,sans-Serif" font-size="10.00" fill="#000000">TemperatureController</text>
</a>
</g>
</g>
<!-- Node0&#45;&gt;Node1 -->
<g id="edge1" class="edge">
<title>Node0&#45;&gt;Node1</title>
<path fill="none" stroke="#191970" d="M126.2093,-10C134.8184,-10 143.5515,-10 151.9525,-10"/>
<polygon fill="#191970" stroke="#191970" points="126.1873,-6.5001 116.1872,-10 126.1872,-13.5001 126.1873,-6.5001"/>
</g>
<!-- Node2 -->
<g id="node3" class="node">
<title>Node2</title>
<g id="a_node3"><a xlink:href="classThermistorTemperatureController.html" target="_top" xlink:title="ThermistorTemperatureController">
<polygon fill="#ffffff" stroke="#000000" points="301,-.5 301,-19.5 461,-19.5 461,-.5 301,-.5"/>
<text text-anchor="middle" x="381" y="-7.5" font-family="Helvetica,sans-Serif" font-size="10.00" fill="#000000">ThermistorTemperatureController</text>
</a>
</g>
</g>
<!-- Node1&#45;&gt;Node2 -->
<g id="edge2" class="edge">
<title>Node1&#45;&gt;Node2</title>
<path fill="none" stroke="#191970" d="M275.5039,-10C283.859,-10 292.468,-10 300.9952,-10"/>
<polygon fill="#191970" stroke="#191970" points="275.4611,-6.5001 265.461,-10 275.461,-13.5001 275.4611,-6.5001"/>
</g>
</g>
</svg>
