<?xml version="1.0" encoding="UTF-8" standalone="no"?>
<!DOCTYPE svg PUBLIC "-//W3C//DTD SVG 1.1//EN"
 "http://www.w3.org/Graphics/SVG/1.1/DTD/svg11.dtd">
<!-- Generated by graphviz version 2.40.1 (20161225.0304)
 -->
<!-- Title: src/LEDController.h Pages: 1 -->
<svg width="610pt" height="196pt"
 viewBox="0.00 0.00 610.00 196.00" xmlns="http://www.w3.org/2000/svg" xmlns:xlink="http://www.w3.org/1999/xlink">
<g id="graph0" class="graph" transform="scale(1 1) rotate(0) translate(4 192)">
<title>src/LEDController.h</title>
<polygon fill="#ffffff" stroke="transparent" points="-4,4 -4,-192 606,-192 606,4 -4,4"/>
<!-- Node0 -->
<g id="node1" class="node">
<title>Node0</title>
<polygon fill="#bfbfbf" stroke="#000000" points="62.5,-168.5 62.5,-187.5 165.5,-187.5 165.5,-168.5 62.5,-168.5"/>
<text text-anchor="middle" x="114" y="-175.5" font-family="Helvetica,sans-Serif" font-size="10.00" fill="#000000">src/LEDController.h</text>
</g>
<!-- Node1 -->
<g id="node2" class="node">
<title>Node1</title>
<polygon fill="#ffffff" stroke="#bfbfbf" points="0,-112.5 0,-131.5 64,-131.5 64,-112.5 0,-112.5"/>
<text text-anchor="middle" x="32" y="-119.5" font-family="Helvetica,sans-Serif" font-size="10.00" fill="#000000">FastLED.h</text>
</g>
<!-- Node0&#45;&gt;Node1 -->
<g id="edge1" class="edge">
<title>Node0&#45;&gt;Node1</title>
<path fill="none" stroke="#191970" d="M99.7167,-168.2455C87.253,-159.7337 68.9549,-147.2375 54.5208,-137.3801"/>
<polygon fill="#191970" stroke="#191970" points="56.3515,-134.392 46.1196,-131.6427 52.4038,-140.1726 56.3515,-134.392"/>
</g>
<!-- Node2 -->
<g id="node3" class="node">
<title>Node2</title>
<polygon fill="#ffffff" stroke="#bfbfbf" points="185,-.5 185,-19.5 243,-19.5 243,-.5 185,-.5"/>
<text text-anchor="middle" x="214" y="-7.5" font-family="Helvetica,sans-Serif" font-size="10.00" fill="#000000">Arduino.h</text>
</g>
<!-- Node0&#45;&gt;Node2 -->
<g id="edge2" class="edge">
<title>Node0&#45;&gt;Node2</title>
<path fill="none" stroke="#191970" d="M110.4352,-168.4734C102.8921,-146.5616 87.8266,-91.7287 111,-56 125.1104,-34.2446 152.178,-22.6881 175.025,-16.6003"/>
<polygon fill="#191970" stroke="#191970" points="175.9302,-19.9825 184.8348,-14.2416 174.2936,-13.1764 175.9302,-19.9825"/>
</g>
<!-- Node3 -->
<g id="node4" class="node">
<title>Node3</title>
<g id="a_node4"><a xlink:href="CLPUtils_8h_source.html" target="_top" xlink:title="CLPUtils.h">
<polygon fill="#ffffff" stroke="#000000" points="120.5,-56.5 120.5,-75.5 185.5,-75.5 185.5,-56.5 120.5,-56.5"/>
<text text-anchor="middle" x="153" y="-63.5" font-family="Helvetica,sans-Serif" font-size="10.00" fill="#000000">CLPUtils.h</text>
</a>
</g>
</g>
<!-- Node0&#45;&gt;Node3 -->
<g id="edge3" class="edge">
<title>Node0&#45;&gt;Node3</title>
<path fill="none" stroke="#191970" d="M117.3251,-168.4509C123.7435,-150.0186 137.9483,-109.2254 146.369,-85.043"/>
<polygon fill="#191970" stroke="#191970" points="149.7001,-86.1197 149.6833,-75.5249 143.0894,-83.8177 149.7001,-86.1197"/>
</g>
<!-- Node4 -->
<g id="node5" class="node">
<title>Node4</title>
<g id="a_node5"><a xlink:href="ILEDController_8h_source.html" target="_top" xlink:title="ILEDController.h">
<polygon fill="#ffffff" stroke="#000000" points="177.5,-112.5 177.5,-131.5 266.5,-131.5 266.5,-112.5 177.5,-112.5"/>
<text text-anchor="middle" x="222" y="-119.5" font-family="Helvetica,sans-Serif" font-size="10.00" fill="#000000">ILEDController.h</text>
</a>
</g>
</g>
<!-- Node0&#45;&gt;Node4 -->
<g id="edge5" class="edge">
<title>Node0&#45;&gt;Node4</title>
<path fill="none" stroke="#191970" d="M132.8122,-168.2455C149.8473,-159.4125 175.1575,-146.2887 194.4681,-136.2758"/>
<polygon fill="#191970" stroke="#191970" points="196.137,-139.353 203.4034,-131.6427 192.9147,-133.1388 196.137,-139.353"/>
</g>
<!-- Node3&#45;&gt;Node2 -->
<g id="edge4" class="edge">
<title>Node3&#45;&gt;Node2</title>
<path fill="none" stroke="#191970" d="M163.6254,-56.2455C172.5473,-48.0549 185.488,-36.1749 196.0192,-26.5069"/>
<polygon fill="#191970" stroke="#191970" points="198.4968,-28.9837 203.4964,-19.6427 193.7629,-23.8271 198.4968,-28.9837"/>
</g>
<!-- Node4&#45;&gt;Node2 -->
<g id="edge6" class="edge">
<title>Node4&#45;&gt;Node2</title>
<path fill="none" stroke="#191970" d="M221.3179,-112.4509C220.0131,-94.184 217.1397,-53.9553 215.407,-29.6976"/>
<polygon fill="#191970" stroke="#191970" points="218.884,-29.2501 214.6803,-19.5249 211.9018,-29.7489 218.884,-29.2501"/>
</g>
<!-- Node5 -->
<g id="node6" class="node">
<title>Node5</title>
<g id="a_node6"><a xlink:href="CorsairLightingProtocolConstants_8h_source.html" target="_top" xlink:title="CorsairLightingProtocolConstants.h">
<polygon fill="#ffffff" stroke="#000000" points="242.5,-56.5 242.5,-75.5 413.5,-75.5 413.5,-56.5 242.5,-56.5"/>
<text text-anchor="middle" x="328" y="-63.5" font-family="Helvetica,sans-Serif" font-size="10.00" fill="#000000">CorsairLightingProtocolConstants.h</text>
</a>
</g>
</g>
<!-- Node4&#45;&gt;Node5 -->
<g id="edge7" class="edge">
<title>Node4&#45;&gt;Node5</title>
<path fill="none" stroke="#191970" d="M240.4638,-112.2455C257.1074,-103.4527 281.7993,-90.4079 300.7192,-80.4125"/>
<polygon fill="#191970" stroke="#191970" points="302.5408,-83.4086 309.7478,-75.6427 299.2709,-77.2193 302.5408,-83.4086"/>
</g>
<!-- Node6 -->
<g id="node7" class="node">
<title>Node6</title>
<g id="a_node7"><a xlink:href="CorsairLightingProtocolResponse_8h_source.html" target="_top" xlink:title="CorsairLightingProtocolResponse.h">
<polygon fill="#ffffff" stroke="#000000" points="432,-56.5 432,-75.5 602,-75.5 602,-56.5 432,-56.5"/>
<text text-anchor="middle" x="517" y="-63.5" font-family="Helvetica,sans-Serif" font-size="10.00" fill="#000000">CorsairLightingProtocolResponse.h</text>
</a>
</g>
</g>
<!-- Node4&#45;&gt;Node6 -->
<g id="edge9" class="edge">
<title>Node4&#45;&gt;Node6</title>
<path fill="none" stroke="#191970" d="M266.8042,-113.4948C317.5898,-103.8541 400.6208,-88.0923 456.9769,-77.3942"/>
<polygon fill="#191970" stroke="#191970" points="457.655,-80.8281 466.8267,-75.5244 456.3494,-73.9509 457.655,-80.8281"/>
</g>
<!-- Node5&#45;&gt;Node2 -->
<g id="edge8" class="edge">
<title>Node5&#45;&gt;Node2</title>
<path fill="none" stroke="#191970" d="M308.4027,-56.3733C290.2669,-47.4644 263.0865,-34.1127 242.5413,-24.0203"/>
<polygon fill="#191970" stroke="#191970" points="243.8603,-20.7688 233.3416,-19.5011 240.7739,-27.0517 243.8603,-20.7688"/>
</g>
<!-- Node6&#45;&gt;Node2 -->
<g id="edge10" class="edge">
<title>Node6&#45;&gt;Node2</title>
<path fill="none" stroke="#191970" d="M465.2567,-56.4369C405.0752,-45.3142 307.0876,-27.2043 252.9797,-17.2042"/>
<polygon fill="#191970" stroke="#191970" points="253.5563,-13.7515 243.0867,-15.3758 252.2841,-20.635 253.5563,-13.7515"/>
</g>
</g>
</svg>
