<?xml version="1.0" encoding="UTF-8" standalone="no"?>
<!DOCTYPE svg PUBLIC "-//W3C//DTD SVG 1.1//EN"
 "http://www.w3.org/Graphics/SVG/1.1/DTD/svg11.dtd">
<!-- Generated by graphviz version 2.43.0 (0)
 -->
<!-- Title: src/LEDController.h Pages: 1 -->
<svg width="642pt" height="196pt"
 viewBox="0.00 0.00 642.00 196.00" xmlns="http://www.w3.org/2000/svg" xmlns:xlink="http://www.w3.org/1999/xlink">
<g id="graph0" class="graph" transform="scale(1 1) rotate(0) translate(4 192)">
<title>src/LEDController.h</title>
<polygon fill="white" stroke="transparent" points="-4,4 -4,-192 638,-192 638,4 -4,4"/>
<!-- Node1 -->
<g id="node1" class="node">
<title>Node1</title>
<g id="a_node1"><a xlink:title=" ">
<polygon fill="#bfbfbf" stroke="black" points="58.5,-168.5 58.5,-187.5 167.5,-187.5 167.5,-168.5 58.5,-168.5"/>
<text text-anchor="middle" x="113" y="-175.5" font-family="Helvetica,sans-Serif" font-size="10.00">src/LEDController.h</text>
</a>
</g>
</g>
<!-- Node2 -->
<g id="node2" class="node">
<title>Node2</title>
<g id="a_node2"><a xlink:title=" ">
<polygon fill="white" stroke="#bfbfbf" points="0,-112.5 0,-131.5 64,-131.5 64,-112.5 0,-112.5"/>
<text text-anchor="middle" x="32" y="-119.5" font-family="Helvetica,sans-Serif" font-size="10.00">FastLED.h</text>
</a>
</g>
</g>
<!-- Node1&#45;&gt;Node2 -->
<g id="edge1" class="edge">
<title>Node1&#45;&gt;Node2</title>
<path fill="none" stroke="midnightblue" d="M99.99,-168.32C87.47,-159.98 68.32,-147.21 53.53,-137.35"/>
<polygon fill="midnightblue" stroke="midnightblue" points="55.24,-134.29 44.98,-131.65 51.36,-140.11 55.24,-134.29"/>
</g>
<!-- Node3 -->
<g id="node3" class="node">
<title>Node3</title>
<g id="a_node3"><a xlink:title=" ">
<polygon fill="white" stroke="#bfbfbf" points="182.5,-0.5 182.5,-19.5 245.5,-19.5 245.5,-0.5 182.5,-0.5"/>
<text text-anchor="middle" x="214" y="-7.5" font-family="Helvetica,sans-Serif" font-size="10.00">Arduino.h</text>
</a>
</g>
</g>
<!-- Node1&#45;&gt;Node3 -->
<g id="edge2" class="edge">
<title>Node1&#45;&gt;Node3</title>
<path fill="none" stroke="midnightblue" d="M109.88,-168.49C102.74,-147.41 87.53,-91.86 111,-56 124.62,-35.18 150.22,-23.94 172.48,-17.9"/>
<polygon fill="midnightblue" stroke="midnightblue" points="173.54,-21.24 182.43,-15.47 171.88,-14.44 173.54,-21.24"/>
</g>
<!-- Node4 -->
<g id="node4" class="node">
<title>Node4</title>
<g id="a_node4"><a xlink:href="CLPUtils_8h_source.html" target="_top" xlink:title=" ">
<polygon fill="white" stroke="black" points="120,-56.5 120,-75.5 186,-75.5 186,-56.5 120,-56.5"/>
<text text-anchor="middle" x="153" y="-63.5" font-family="Helvetica,sans-Serif" font-size="10.00">CLPUtils.h</text>
</a>
</g>
</g>
<!-- Node1&#45;&gt;Node4 -->
<g id="edge3" class="edge">
<title>Node1&#45;&gt;Node4</title>
<path fill="none" stroke="midnightblue" d="M116.14,-168.37C122.62,-150.54 137.62,-109.3 146.36,-85.27"/>
<polygon fill="midnightblue" stroke="midnightblue" points="149.75,-86.19 149.88,-75.59 143.17,-83.79 149.75,-86.19"/>
</g>
<!-- Node5 -->
<g id="node5" class="node">
<title>Node5</title>
<g id="a_node5"><a xlink:href="ILEDController_8h_source.html" target="_top" xlink:title=" ">
<polygon fill="white" stroke="black" points="175.5,-112.5 175.5,-131.5 270.5,-131.5 270.5,-112.5 175.5,-112.5"/>
<text text-anchor="middle" x="223" y="-119.5" font-family="Helvetica,sans-Serif" font-size="10.00">ILEDController.h</text>
</a>
</g>
</g>
<!-- Node1&#45;&gt;Node5 -->
<g id="edge5" class="edge">
<title>Node1&#45;&gt;Node5</title>
<path fill="none" stroke="midnightblue" d="M130.67,-168.32C148.39,-159.62 175.9,-146.12 196.29,-136.11"/>
<polygon fill="midnightblue" stroke="midnightblue" points="197.94,-139.2 205.37,-131.65 194.85,-132.92 197.94,-139.2"/>
</g>
<!-- Node4&#45;&gt;Node3 -->
<g id="edge4" class="edge">
<title>Node4&#45;&gt;Node3</title>
<path fill="none" stroke="midnightblue" d="M162.8,-56.32C171.82,-48.34 185.41,-36.31 196.32,-26.65"/>
<polygon fill="midnightblue" stroke="midnightblue" points="198.85,-29.08 204.02,-19.83 194.21,-23.84 198.85,-29.08"/>
</g>
<!-- Node5&#45;&gt;Node3 -->
<g id="edge6" class="edge">
<title>Node5&#45;&gt;Node3</title>
<path fill="none" stroke="midnightblue" d="M222.29,-112.37C220.84,-94.62 217.49,-53.67 215.52,-29.6"/>
<polygon fill="midnightblue" stroke="midnightblue" points="219.01,-29.27 214.7,-19.59 212.03,-29.84 219.01,-29.27"/>
</g>
<!-- Node6 -->
<g id="node6" class="node">
<title>Node6</title>
<g id="a_node6"><a xlink:href="CorsairLightingProtocolConstants_8h_source.html" target="_top" xlink:title=" ">
<polygon fill="white" stroke="black" points="242,-56.5 242,-75.5 430,-75.5 430,-56.5 242,-56.5"/>
<text text-anchor="middle" x="336" y="-63.5" font-family="Helvetica,sans-Serif" font-size="10.00">CorsairLightingProtocolConstants.h</text>
</a>
</g>
</g>
<!-- Node5&#45;&gt;Node6 -->
<g id="edge7" class="edge">
<title>Node5&#45;&gt;Node6</title>
<path fill="none" stroke="midnightblue" d="M240.91,-112.44C259.25,-103.68 288.01,-89.94 309.09,-79.86"/>
<polygon fill="midnightblue" stroke="midnightblue" points="310.67,-82.99 318.18,-75.52 307.65,-76.67 310.67,-82.99"/>
</g>
<!-- Node7 -->
<g id="node7" class="node">
<title>Node7</title>
<g id="a_node7"><a xlink:href="CorsairLightingProtocolResponse_8h_source.html" target="_top" xlink:title=" ">
<polygon fill="white" stroke="black" points="448,-56.5 448,-75.5 634,-75.5 634,-56.5 448,-56.5"/>
<text text-anchor="middle" x="541" y="-63.5" font-family="Helvetica,sans-Serif" font-size="10.00">CorsairLightingProtocolResponse.h</text>
</a>
</g>
</g>
<!-- Node5&#45;&gt;Node7 -->
<g id="edge9" class="edge">
<title>Node5&#45;&gt;Node7</title>
<path fill="none" stroke="midnightblue" d="M270.61,-112.92C326.66,-103.4 419.82,-87.58 480.82,-77.22"/>
<polygon fill="midnightblue" stroke="midnightblue" points="481.43,-80.67 490.7,-75.54 480.26,-73.77 481.43,-80.67"/>
</g>
<!-- Node6&#45;&gt;Node3 -->
<g id="edge8" class="edge">
<title>Node6&#45;&gt;Node3</title>
<path fill="none" stroke="midnightblue" d="M316.67,-56.44C296.68,-47.6 265.26,-33.69 242.44,-23.59"/>
<polygon fill="midnightblue" stroke="midnightblue" points="243.8,-20.36 233.24,-19.52 240.97,-26.76 243.8,-20.36"/>
</g>
<!-- Node7&#45;&gt;Node3 -->
<g id="edge10" class="edge">
<title>Node7&#45;&gt;Node3</title>
<path fill="none" stroke="midnightblue" d="M489.19,-56.44C424.63,-45.78 315.57,-27.77 255.98,-17.93"/>
<polygon fill="midnightblue" stroke="midnightblue" points="256.23,-14.43 245.8,-16.25 255.09,-21.33 256.23,-14.43"/>
</g>
</g>
</svg>
