<?xml version="1.0" encoding="UTF-8" standalone="no"?>
<!DOCTYPE svg PUBLIC "-//W3C//DTD SVG 1.1//EN"
 "http://www.w3.org/Graphics/SVG/1.1/DTD/svg11.dtd">
<!-- Generated by graphviz version 2.43.0 (0)
 -->
<!-- Title: src/LEDController.h Pages: 1 -->
<svg width="334pt" height="140pt"
 viewBox="0.00 0.00 334.00 140.00" xmlns="http://www.w3.org/2000/svg" xmlns:xlink="http://www.w3.org/1999/xlink">
<g id="graph0" class="graph" transform="scale(1 1) rotate(0) translate(4 136)">
<title>src/LEDController.h</title>
<polygon fill="white" stroke="transparent" points="-4,4 -4,-136 330,-136 330,4 -4,4"/>
<!-- Node1 -->
<g id="node1" class="node">
<title>Node1</title>
<g id="a_node1"><a xlink:title=" ">
<polygon fill="#bfbfbf" stroke="black" points="109.5,-112.5 109.5,-131.5 218.5,-131.5 218.5,-112.5 109.5,-112.5"/>
<text text-anchor="middle" x="164" y="-119.5" font-family="Helvetica,sans-Serif" font-size="10.00">src/LEDController.h</text>
</a>
</g>
</g>
<!-- Node2 -->
<g id="node2" class="node">
<title>Node2</title>
<g id="a_node2"><a xlink:href="FastLEDController_8h_source.html" target="_top" xlink:title=" ">
<polygon fill="white" stroke="black" points="100,-56.5 100,-75.5 228,-75.5 228,-56.5 100,-56.5"/>
<text text-anchor="middle" x="164" y="-63.5" font-family="Helvetica,sans-Serif" font-size="10.00">src/FastLEDController.h</text>
</a>
</g>
</g>
<!-- Node1&#45;&gt;Node2 -->
<g id="edge1" class="edge">
<title>Node1&#45;&gt;Node2</title>
<path fill="none" stroke="midnightblue" d="M164,-101.8C164,-92.91 164,-82.78 164,-75.75"/>
<polygon fill="midnightblue" stroke="midnightblue" points="160.5,-102.08 164,-112.08 167.5,-102.08 160.5,-102.08"/>
</g>
<!-- Node3 -->
<g id="node3" class="node">
<title>Node3</title>
<g id="a_node3"><a xlink:href="CorsairLightingProtocol_8h.html" target="_top" xlink:title=" ">
<polygon fill="white" stroke="black" points="0,-0.5 0,-19.5 156,-19.5 156,-0.5 0,-0.5"/>
<text text-anchor="middle" x="78" y="-7.5" font-family="Helvetica,sans-Serif" font-size="10.00">src/CorsairLightingProtocol.h</text>
</a>
</g>
</g>
<!-- Node2&#45;&gt;Node3 -->
<g id="edge2" class="edge">
<title>Node2&#45;&gt;Node3</title>
<path fill="none" stroke="midnightblue" d="M141.55,-50.9C125.78,-41 105.19,-28.07 91.78,-19.65"/>
<polygon fill="midnightblue" stroke="midnightblue" points="139.85,-53.97 150.18,-56.32 143.57,-48.04 139.85,-53.97"/>
</g>
<!-- Node4 -->
<g id="node4" class="node">
<title>Node4</title>
<g id="a_node4"><a xlink:href="FastLEDControllerUtils_8h_source.html" target="_top" xlink:title=" ">
<polygon fill="white" stroke="black" points="174,-0.5 174,-19.5 326,-19.5 326,-0.5 174,-0.5"/>
<text text-anchor="middle" x="250" y="-7.5" font-family="Helvetica,sans-Serif" font-size="10.00">src/FastLEDControllerUtils.h</text>
</a>
</g>
</g>
<!-- Node2&#45;&gt;Node4 -->
<g id="edge3" class="edge">
<title>Node2&#45;&gt;Node4</title>
<path fill="none" stroke="midnightblue" d="M186.45,-50.9C202.22,-41 222.81,-28.07 236.22,-19.65"/>
<polygon fill="midnightblue" stroke="midnightblue" points="184.43,-48.04 177.82,-56.32 188.15,-53.97 184.43,-48.04"/>
</g>
</g>
</svg>
