<?xml version="1.0" encoding="UTF-8" standalone="no"?>
<!DOCTYPE svg PUBLIC "-//W3C//DTD SVG 1.1//EN"
 "http://www.w3.org/Graphics/SVG/1.1/DTD/svg11.dtd">
<!-- Generated by graphviz version 2.43.0 (0)
 -->
<!-- Title: src/LEDController.h Pages: 1 -->
<svg width="613pt" height="252pt"
 viewBox="0.00 0.00 613.06 252.00" xmlns="http://www.w3.org/2000/svg" xmlns:xlink="http://www.w3.org/1999/xlink">
<g id="graph0" class="graph" transform="scale(1 1) rotate(0) translate(4 248)">
<title>src/LEDController.h</title>
<polygon fill="white" stroke="transparent" points="-4,4 -4,-248 609.06,-248 609.06,4 -4,4"/>
<!-- Node1 -->
<g id="node1" class="node">
<title>Node1</title>
<g id="a_node1"><a xlink:title=" ">
<polygon fill="#bfbfbf" stroke="black" points="67.5,-224.5 67.5,-243.5 176.5,-243.5 176.5,-224.5 67.5,-224.5"/>
<text text-anchor="middle" x="122" y="-231.5" font-family="Helvetica,sans-Serif" font-size="10.00">src/LEDController.h</text>
</a>
</g>
</g>
<!-- Node2 -->
<g id="node2" class="node">
<title>Node2</title>
<g id="a_node2"><a xlink:title=" ">
<polygon fill="white" stroke="#bfbfbf" points="0,-168.5 0,-187.5 64,-187.5 64,-168.5 0,-168.5"/>
<text text-anchor="middle" x="32" y="-175.5" font-family="Helvetica,sans-Serif" font-size="10.00">FastLED.h</text>
</a>
</g>
</g>
<!-- Node1&#45;&gt;Node2 -->
<g id="edge1" class="edge">
<title>Node1&#45;&gt;Node2</title>
<path fill="none" stroke="midnightblue" d="M107.54,-224.32C93.5,-215.9 71.95,-202.97 55.46,-193.07"/>
<polygon fill="midnightblue" stroke="midnightblue" points="56.8,-189.8 46.42,-187.65 53.2,-195.8 56.8,-189.8"/>
</g>
<!-- Node3 -->
<g id="node3" class="node">
<title>Node3</title>
<g id="a_node3"><a xlink:title=" ">
<polygon fill="white" stroke="#bfbfbf" points="197.5,-0.5 197.5,-19.5 260.5,-19.5 260.5,-0.5 197.5,-0.5"/>
<text text-anchor="middle" x="229" y="-7.5" font-family="Helvetica,sans-Serif" font-size="10.00">Arduino.h</text>
</a>
</g>
</g>
<!-- Node1&#45;&gt;Node3 -->
<g id="edge2" class="edge">
<title>Node1&#45;&gt;Node3</title>
<path fill="none" stroke="midnightblue" d="M118.29,-224.11C113.55,-211.53 106.46,-187.86 111,-168 123.31,-114.13 129.25,-98.14 165,-56 175.68,-43.42 190.64,-32.64 203.41,-24.79"/>
<polygon fill="midnightblue" stroke="midnightblue" points="205.38,-27.69 212.23,-19.61 201.83,-21.66 205.38,-27.69"/>
</g>
<!-- Node4 -->
<g id="node4" class="node">
<title>Node4</title>
<g id="a_node4"><a xlink:href="CLPUtils_8h_source.html" target="_top" xlink:title=" ">
<polygon fill="white" stroke="black" points="120,-168.5 120,-187.5 186,-187.5 186,-168.5 120,-168.5"/>
<text text-anchor="middle" x="153" y="-175.5" font-family="Helvetica,sans-Serif" font-size="10.00">CLPUtils.h</text>
</a>
</g>
</g>
<!-- Node1&#45;&gt;Node4 -->
<g id="edge3" class="edge">
<title>Node1&#45;&gt;Node4</title>
<path fill="none" stroke="midnightblue" d="M127.12,-224.08C131.41,-216.61 137.66,-205.72 142.94,-196.52"/>
<polygon fill="midnightblue" stroke="midnightblue" points="146.03,-198.17 147.98,-187.75 139.96,-194.68 146.03,-198.17"/>
</g>
<!-- Node8 -->
<g id="node8" class="node">
<title>Node8</title>
<g id="a_node8"><a xlink:href="ILEDController_8h_source.html" target="_top" xlink:title=" ">
<polygon fill="white" stroke="black" points="398.5,-112.5 398.5,-131.5 493.5,-131.5 493.5,-112.5 398.5,-112.5"/>
<text text-anchor="middle" x="446" y="-119.5" font-family="Helvetica,sans-Serif" font-size="10.00">ILEDController.h</text>
</a>
</g>
</g>
<!-- Node1&#45;&gt;Node8 -->
<g id="edge11" class="edge">
<title>Node1&#45;&gt;Node8</title>
<path fill="none" stroke="midnightblue" d="M147.15,-224.46C204.57,-204.97 345.39,-157.16 411.13,-134.84"/>
<polygon fill="midnightblue" stroke="midnightblue" points="412.29,-138.14 420.64,-131.61 410.04,-131.51 412.29,-138.14"/>
</g>
<!-- Node4&#45;&gt;Node3 -->
<g id="edge4" class="edge">
<title>Node4&#45;&gt;Node3</title>
<path fill="none" stroke="midnightblue" d="M153.07,-168.44C153.6,-147.71 157.15,-93.75 179,-56 185.95,-44 197.21,-33.45 207.29,-25.59"/>
<polygon fill="midnightblue" stroke="midnightblue" points="209.38,-28.39 215.35,-19.64 205.23,-22.76 209.38,-28.39"/>
</g>
<!-- Node5 -->
<g id="node5" class="node">
<title>Node5</title>
<g id="a_node5"><a xlink:href="CorsairLightingFirmware_8h_source.html" target="_top" xlink:title=" ">
<polygon fill="white" stroke="black" points="187.5,-112.5 187.5,-131.5 332.5,-131.5 332.5,-112.5 187.5,-112.5"/>
<text text-anchor="middle" x="260" y="-119.5" font-family="Helvetica,sans-Serif" font-size="10.00">CorsairLightingFirmware.h</text>
</a>
</g>
</g>
<!-- Node4&#45;&gt;Node5 -->
<g id="edge5" class="edge">
<title>Node4&#45;&gt;Node5</title>
<path fill="none" stroke="midnightblue" d="M170.19,-168.32C187.35,-159.66 213.95,-146.24 233.75,-136.25"/>
<polygon fill="midnightblue" stroke="midnightblue" points="235.5,-139.28 242.85,-131.65 232.35,-133.04 235.5,-139.28"/>
</g>
<!-- Node5&#45;&gt;Node3 -->
<g id="edge6" class="edge">
<title>Node5&#45;&gt;Node3</title>
<path fill="none" stroke="midnightblue" d="M233.79,-112.41C217.15,-105.44 196.94,-93.81 187,-76 177.16,-58.38 193.32,-39.06 208.36,-26.1"/>
<polygon fill="midnightblue" stroke="midnightblue" points="210.84,-28.61 216.43,-19.61 206.45,-23.15 210.84,-28.61"/>
</g>
<!-- Node6 -->
<g id="node6" class="node">
<title>Node6</title>
<g id="a_node6"><a xlink:href="CorsairLightingProtocolConstants_8h_source.html" target="_top" xlink:title=" ">
<polygon fill="white" stroke="black" points="196,-56.5 196,-75.5 384,-75.5 384,-56.5 196,-56.5"/>
<text text-anchor="middle" x="290" y="-63.5" font-family="Helvetica,sans-Serif" font-size="10.00">CorsairLightingProtocolConstants.h</text>
</a>
</g>
</g>
<!-- Node5&#45;&gt;Node6 -->
<g id="edge7" class="edge">
<title>Node5&#45;&gt;Node6</title>
<path fill="none" stroke="midnightblue" d="M264.95,-112.08C269.1,-104.61 275.15,-93.72 280.27,-84.52"/>
<polygon fill="midnightblue" stroke="midnightblue" points="283.34,-86.19 285.14,-75.75 277.22,-82.79 283.34,-86.19"/>
</g>
<!-- Node7 -->
<g id="node7" class="node">
<title>Node7</title>
<g id="a_node7"><a xlink:href="CorsairLightingProtocolResponse_8h_source.html" target="_top" xlink:title=" ">
<polygon fill="white" stroke="black" points="402,-56.5 402,-75.5 588,-75.5 588,-56.5 402,-56.5"/>
<text text-anchor="middle" x="495" y="-63.5" font-family="Helvetica,sans-Serif" font-size="10.00">CorsairLightingProtocolResponse.h</text>
</a>
</g>
</g>
<!-- Node5&#45;&gt;Node7 -->
<g id="edge9" class="edge">
<title>Node5&#45;&gt;Node7</title>
<path fill="none" stroke="midnightblue" d="M297.24,-112.44C338.06,-103.06 403.64,-87.99 447.98,-77.8"/>
<polygon fill="midnightblue" stroke="midnightblue" points="448.98,-81.17 457.94,-75.52 447.41,-74.34 448.98,-81.17"/>
</g>
<!-- Node6&#45;&gt;Node3 -->
<g id="edge8" class="edge">
<title>Node6&#45;&gt;Node3</title>
<path fill="none" stroke="midnightblue" d="M280.2,-56.32C271.18,-48.34 257.59,-36.31 246.68,-26.65"/>
<polygon fill="midnightblue" stroke="midnightblue" points="248.79,-23.84 238.98,-19.83 244.15,-29.08 248.79,-23.84"/>
</g>
<!-- Node7&#45;&gt;Node3 -->
<g id="edge10" class="edge">
<title>Node7&#45;&gt;Node3</title>
<path fill="none" stroke="midnightblue" d="M452.85,-56.44C402.93,-46.31 320.3,-29.54 270.62,-19.45"/>
<polygon fill="midnightblue" stroke="midnightblue" points="271.04,-15.96 260.54,-17.4 269.64,-22.82 271.04,-15.96"/>
</g>
<!-- Node8&#45;&gt;Node3 -->
<g id="edge12" class="edge">
<title>Node8&#45;&gt;Node3</title>
<path fill="none" stroke="midnightblue" d="M493.65,-116.59C549.26,-109.66 629.73,-92.97 597,-56 575.64,-31.87 362.46,-17.95 270.67,-13.04"/>
<polygon fill="midnightblue" stroke="midnightblue" points="270.79,-9.54 260.62,-12.51 270.42,-16.53 270.79,-9.54"/>
</g>
<!-- Node8&#45;&gt;Node6 -->
<g id="edge13" class="edge">
<title>Node8&#45;&gt;Node6</title>
<path fill="none" stroke="midnightblue" d="M421.28,-112.44C395.15,-103.4 353.74,-89.06 324.42,-78.92"/>
<polygon fill="midnightblue" stroke="midnightblue" points="325.2,-75.48 314.6,-75.52 322.91,-82.1 325.2,-75.48"/>
</g>
<!-- Node8&#45;&gt;Node7 -->
<g id="edge14" class="edge">
<title>Node8&#45;&gt;Node7</title>
<path fill="none" stroke="midnightblue" d="M454.09,-112.08C461.16,-104.3 471.59,-92.8 480.15,-83.37"/>
<polygon fill="midnightblue" stroke="midnightblue" points="482.93,-85.51 487.06,-75.75 477.75,-80.8 482.93,-85.51"/>
</g>
</g>
</svg>
