<?xml version="1.0" encoding="UTF-8" standalone="no"?>
<!DOCTYPE svg PUBLIC "-//W3C//DTD SVG 1.1//EN"
 "http://www.w3.org/Graphics/SVG/1.1/DTD/svg11.dtd">
<!-- Generated by graphviz version 2.40.1 (20161225.0304)
 -->
<!-- Title: src/LEDController.h Pages: 1 -->
<svg width="500pt" height="196pt"
 viewBox="0.00 0.00 500.34 196.00" xmlns="http://www.w3.org/2000/svg" xmlns:xlink="http://www.w3.org/1999/xlink">
<g id="graph0" class="graph" transform="scale(1 1) rotate(0) translate(4 192)">
<title>src/LEDController.h</title>
<polygon fill="#ffffff" stroke="transparent" points="-4,4 -4,-192 496.3434,-192 496.3434,4 -4,4"/>
<!-- Node0 -->
<g id="node1" class="node">
<title>Node0</title>
<polygon fill="#bfbfbf" stroke="#000000" points="39.3434,-168.5 39.3434,-187.5 142.3434,-187.5 142.3434,-168.5 39.3434,-168.5"/>
<text text-anchor="middle" x="90.8434" y="-175.5" font-family="Helvetica,sans-Serif" font-size="10.00" fill="#000000">src/LEDController.h</text>
</g>
<!-- Node1 -->
<g id="node2" class="node">
<title>Node1</title>
<polygon fill="#ffffff" stroke="#bfbfbf" points="105.8434,-.5 105.8434,-19.5 163.8434,-19.5 163.8434,-.5 105.8434,-.5"/>
<text text-anchor="middle" x="134.8434" y="-7.5" font-family="Helvetica,sans-Serif" font-size="10.00" fill="#000000">Arduino.h</text>
</g>
<!-- Node0&#45;&gt;Node1 -->
<g id="edge1" class="edge">
<title>Node0&#45;&gt;Node1</title>
<path fill="none" stroke="#191970" d="M53.1614,-168.3393C34.5721,-161.4646 13.8282,-150.137 2.8434,-132 -1.7615,-124.3969 .6795,-120.6215 2.8434,-112 9.7168,-84.614 12.2095,-75.2737 32.8434,-56 50.533,-39.4765 75.1686,-28.14 95.7969,-20.8558"/>
<polygon fill="#191970" stroke="#191970" points="97.1754,-24.0856 105.5536,-17.6005 94.9599,-17.4454 97.1754,-24.0856"/>
</g>
<!-- Node2 -->
<g id="node3" class="node">
<title>Node2</title>
<polygon fill="#ffffff" stroke="#bfbfbf" points="11.8434,-112.5 11.8434,-131.5 75.8434,-131.5 75.8434,-112.5 11.8434,-112.5"/>
<text text-anchor="middle" x="43.8434" y="-119.5" font-family="Helvetica,sans-Serif" font-size="10.00" fill="#000000">FastLED.h</text>
</g>
<!-- Node0&#45;&gt;Node2 -->
<g id="edge2" class="edge">
<title>Node0&#45;&gt;Node2</title>
<path fill="none" stroke="#191970" d="M82.6566,-168.2455C75.9845,-160.2958 66.3955,-148.8706 58.4181,-139.3656"/>
<polygon fill="#191970" stroke="#191970" points="61.046,-137.0524 51.9364,-131.6427 55.6842,-141.5525 61.046,-137.0524"/>
</g>
<!-- Node3 -->
<g id="node4" class="node">
<title>Node3</title>
<g id="a_node4"><a xlink:href="ILEDController_8h_source.html" target="_top" xlink:title="ILEDController.h">
<polygon fill="#ffffff" stroke="#000000" points="94.3434,-112.5 94.3434,-131.5 183.3434,-131.5 183.3434,-112.5 94.3434,-112.5"/>
<text text-anchor="middle" x="138.8434" y="-119.5" font-family="Helvetica,sans-Serif" font-size="10.00" fill="#000000">ILEDController.h</text>
</a>
</g>
</g>
<!-- Node0&#45;&gt;Node3 -->
<g id="edge3" class="edge">
<title>Node0&#45;&gt;Node3</title>
<path fill="none" stroke="#191970" d="M99.2044,-168.2455C106.0184,-160.2958 115.8115,-148.8706 123.9586,-139.3656"/>
<polygon fill="#191970" stroke="#191970" points="126.7277,-141.513 130.5782,-131.6427 121.4129,-136.9575 126.7277,-141.513"/>
</g>
<!-- Node6 -->
<g id="node7" class="node">
<title>Node6</title>
<g id="a_node7"><a xlink:href="CLPUtils_8h_source.html" target="_top" xlink:title="CLPUtils.h">
<polygon fill="#ffffff" stroke="#000000" points="427.3434,-56.5 427.3434,-75.5 492.3434,-75.5 492.3434,-56.5 427.3434,-56.5"/>
<text text-anchor="middle" x="459.8434" y="-63.5" font-family="Helvetica,sans-Serif" font-size="10.00" fill="#000000">CLPUtils.h</text>
</a>
</g>
</g>
<!-- Node0&#45;&gt;Node6 -->
<g id="edge9" class="edge">
<title>Node0&#45;&gt;Node6</title>
<path fill="none" stroke="#191970" d="M122.3041,-168.4509C188.8869,-148.2415 344.0315,-101.1516 418.5065,-78.5467"/>
<polygon fill="#191970" stroke="#191970" points="419.9099,-81.7785 428.4623,-75.5249 417.8768,-75.0802 419.9099,-81.7785"/>
</g>
<!-- Node3&#45;&gt;Node1 -->
<g id="edge4" class="edge">
<title>Node3&#45;&gt;Node1</title>
<path fill="none" stroke="#191970" d="M94.2262,-112.5444C74.3024,-105.8603 52.6856,-94.6405 40.8434,-76 24.0793,-49.6121 63.105,-30.7911 95.8738,-20.1659"/>
<polygon fill="#191970" stroke="#191970" points="97.2382,-23.4085 105.7739,-17.1322 95.1873,-16.7157 97.2382,-23.4085"/>
</g>
<!-- Node4 -->
<g id="node5" class="node">
<title>Node4</title>
<g id="a_node5"><a xlink:href="CorsairLightingProtocolResponse_8h_source.html" target="_top" xlink:title="CorsairLightingProtocolResponse.h">
<polygon fill="#ffffff" stroke="#000000" points="49.8434,-56.5 49.8434,-75.5 219.8434,-75.5 219.8434,-56.5 49.8434,-56.5"/>
<text text-anchor="middle" x="134.8434" y="-63.5" font-family="Helvetica,sans-Serif" font-size="10.00" fill="#000000">CorsairLightingProtocolResponse.h</text>
</a>
</g>
</g>
<!-- Node3&#45;&gt;Node4 -->
<g id="edge5" class="edge">
<title>Node3&#45;&gt;Node4</title>
<path fill="none" stroke="#191970" d="M138.1466,-112.2455C137.6247,-104.9382 136.893,-94.6944 136.2509,-85.7046"/>
<polygon fill="#191970" stroke="#191970" points="139.7358,-85.3679 135.5322,-75.6427 132.7536,-85.8667 139.7358,-85.3679"/>
</g>
<!-- Node5 -->
<g id="node6" class="node">
<title>Node5</title>
<g id="a_node6"><a xlink:href="CorsairLightingProtocolConstants_8h_source.html" target="_top" xlink:title="CorsairLightingProtocolConstants.h">
<polygon fill="#ffffff" stroke="#000000" points="238.3434,-56.5 238.3434,-75.5 409.3434,-75.5 409.3434,-56.5 238.3434,-56.5"/>
<text text-anchor="middle" x="323.8434" y="-63.5" font-family="Helvetica,sans-Serif" font-size="10.00" fill="#000000">CorsairLightingProtocolConstants.h</text>
</a>
</g>
</g>
<!-- Node3&#45;&gt;Node5 -->
<g id="edge7" class="edge">
<title>Node3&#45;&gt;Node5</title>
<path fill="none" stroke="#191970" d="M170.646,-112.3733C201.6751,-102.9807 249.0188,-88.6496 282.8581,-78.4064"/>
<polygon fill="#191970" stroke="#191970" points="283.8987,-81.7483 292.4558,-75.5011 281.8706,-75.0485 283.8987,-81.7483"/>
</g>
<!-- Node4&#45;&gt;Node1 -->
<g id="edge6" class="edge">
<title>Node4&#45;&gt;Node1</title>
<path fill="none" stroke="#191970" d="M134.8434,-56.2455C134.8434,-48.9382 134.8434,-38.6944 134.8434,-29.7046"/>
<polygon fill="#191970" stroke="#191970" points="138.3435,-29.6426 134.8434,-19.6427 131.3435,-29.6427 138.3435,-29.6426"/>
</g>
<!-- Node5&#45;&gt;Node1 -->
<g id="edge8" class="edge">
<title>Node5&#45;&gt;Node1</title>
<path fill="none" stroke="#191970" d="M291.3531,-56.3733C258.7887,-46.7245 208.6352,-31.8642 173.9177,-21.5776"/>
<polygon fill="#191970" stroke="#191970" points="174.7019,-18.1596 164.1196,-18.6744 172.7132,-24.8712 174.7019,-18.1596"/>
</g>
<!-- Node6&#45;&gt;Node1 -->
<g id="edge10" class="edge">
<title>Node6&#45;&gt;Node1</title>
<path fill="none" stroke="#191970" d="M427.2216,-57.7983C424.3941,-57.1619 421.5721,-56.5529 418.8434,-56 331.9233,-38.3891 228.956,-23.0789 174.0149,-15.3497"/>
<polygon fill="#191970" stroke="#191970" points="174.396,-11.869 164.0078,-13.9512 173.4271,-18.8017 174.396,-11.869"/>
</g>
</g>
</svg>
