<?xml version="1.0" encoding="UTF-8" standalone="no"?>
<!DOCTYPE svg PUBLIC "-//W3C//DTD SVG 1.1//EN"
 "http://www.w3.org/Graphics/SVG/1.1/DTD/svg11.dtd">
<!-- Generated by graphviz version 2.40.1 (20161225.0304)
 -->
<!-- Title: src/LEDController.h Pages: 1 -->
<svg width="377pt" height="196pt"
 viewBox="0.00 0.00 376.62 196.00" xmlns="http://www.w3.org/2000/svg" xmlns:xlink="http://www.w3.org/1999/xlink">
<g id="graph0" class="graph" transform="scale(1 1) rotate(0) translate(4 192)">
<title>src/LEDController.h</title>
<polygon fill="#ffffff" stroke="transparent" points="-4,4 -4,-192 372.6246,-192 372.6246,4 -4,4"/>
<!-- Node7 -->
<g id="node1" class="node">
<title>Node7</title>
<polygon fill="#bfbfbf" stroke="#000000" points="228.5,-168.5 228.5,-187.5 331.5,-187.5 331.5,-168.5 228.5,-168.5"/>
<text text-anchor="middle" x="280" y="-175.5" font-family="Helvetica,sans-Serif" font-size="10.00" fill="#000000">src/LEDController.h</text>
</g>
<!-- Node8 -->
<g id="node2" class="node">
<title>Node8</title>
<g id="a_node2"><a xlink:href="FastLEDController_8h_source.html" target="_top" xlink:title="src/FastLEDController.h">
<polygon fill="#ffffff" stroke="#000000" points="169,-112.5 169,-131.5 291,-131.5 291,-112.5 169,-112.5"/>
<text text-anchor="middle" x="230" y="-119.5" font-family="Helvetica,sans-Serif" font-size="10.00" fill="#000000">src/FastLEDController.h</text>
</a>
</g>
</g>
<!-- Node7&#45;&gt;Node8 -->
<g id="edge1" class="edge">
<title>Node7&#45;&gt;Node8</title>
<path fill="none" stroke="#191970" d="M264.3753,-160.5004C255.8727,-150.9775 245.6782,-139.5596 238.6095,-131.6427"/>
<polygon fill="#191970" stroke="#191970" points="262.0197,-163.1172 271.2907,-168.2455 267.2413,-158.4551 262.0197,-163.1172"/>
</g>
<!-- Node10 -->
<g id="node4" class="node">
<title>Node10</title>
<g id="a_node4"><a xlink:href="CorsairLightingProtocol_8h.html" target="_top" xlink:title="src/CorsairLightingProtocol.h">
<polygon fill="#ffffff" stroke="#000000" points="158.5,-.5 158.5,-19.5 301.5,-19.5 301.5,-.5 158.5,-.5"/>
<text text-anchor="middle" x="230" y="-7.5" font-family="Helvetica,sans-Serif" font-size="10.00" fill="#000000">src/CorsairLightingProtocol.h</text>
</a>
</g>
</g>
<!-- Node7&#45;&gt;Node10 -->
<g id="edge7" class="edge">
<title>Node7&#45;&gt;Node10</title>
<path fill="none" stroke="#191970" d="M303.6431,-162.3828C336.1083,-138.9777 387.6059,-93.5411 361,-56 350.5467,-41.2503 307.368,-27.9925 273.403,-19.5423"/>
<polygon fill="#191970" stroke="#191970" points="301.262,-159.7769 295.0716,-168.3752 305.2728,-165.5139 301.262,-159.7769"/>
</g>
<!-- Node9 -->
<g id="node3" class="node">
<title>Node9</title>
<g id="a_node3"><a xlink:href="CorsairLightingNodePRO_8h_source.html" target="_top" xlink:title="src/CorsairLightingNodePRO.h">
<polygon fill="#ffffff" stroke="#000000" points="0,-56.5 0,-75.5 152,-75.5 152,-56.5 0,-56.5"/>
<text text-anchor="middle" x="76" y="-63.5" font-family="Helvetica,sans-Serif" font-size="10.00" fill="#000000">src/CorsairLightingNodePRO.h</text>
</a>
</g>
</g>
<!-- Node8&#45;&gt;Node9 -->
<g id="edge2" class="edge">
<title>Node8&#45;&gt;Node9</title>
<path fill="none" stroke="#191970" d="M194.0386,-108.9231C165.8866,-98.686 127.3945,-84.6889 102.1281,-75.5011"/>
<polygon fill="#191970" stroke="#191970" points="192.9324,-112.245 203.5265,-112.3733 195.3246,-105.6665 192.9324,-112.245"/>
</g>
<!-- Node8&#45;&gt;Node10 -->
<g id="edge4" class="edge">
<title>Node8&#45;&gt;Node10</title>
<path fill="none" stroke="#191970" d="M214.5388,-104.4201C208.4366,-96.3418 202.1409,-86.2808 199,-76 192.6381,-55.1761 208.8189,-32.5408 220.1225,-19.9285"/>
<polygon fill="#191970" stroke="#191970" points="211.9184,-106.7461 220.9259,-112.3243 217.363,-102.3465 211.9184,-106.7461"/>
</g>
<!-- Node11 -->
<g id="node5" class="node">
<title>Node11</title>
<g id="a_node5"><a xlink:href="FastLEDControllerUtils_8h_source.html" target="_top" xlink:title="src/FastLEDControllerUtils.h">
<polygon fill="#ffffff" stroke="#000000" points="208.5,-56.5 208.5,-75.5 351.5,-75.5 351.5,-56.5 208.5,-56.5"/>
<text text-anchor="middle" x="280" y="-63.5" font-family="Helvetica,sans-Serif" font-size="10.00" fill="#000000">src/FastLEDControllerUtils.h</text>
</a>
</g>
</g>
<!-- Node8&#45;&gt;Node11 -->
<g id="edge5" class="edge">
<title>Node8&#45;&gt;Node11</title>
<path fill="none" stroke="#191970" d="M245.6247,-104.5004C254.1273,-94.9775 264.3218,-83.5596 271.3905,-75.6427"/>
<polygon fill="#191970" stroke="#191970" points="242.7587,-102.4551 238.7093,-112.2455 247.9803,-107.1172 242.7587,-102.4551"/>
</g>
<!-- Node9&#45;&gt;Node10 -->
<g id="edge3" class="edge">
<title>Node9&#45;&gt;Node10</title>
<path fill="none" stroke="#191970" d="M111.9614,-52.9231C140.1134,-42.686 178.6055,-28.6889 203.8719,-19.5011"/>
<polygon fill="#191970" stroke="#191970" points="110.6754,-49.6665 102.4735,-56.3733 113.0676,-56.245 110.6754,-49.6665"/>
</g>
<!-- Node11&#45;&gt;Node10 -->
<g id="edge6" class="edge">
<title>Node11&#45;&gt;Node10</title>
<path fill="none" stroke="#191970" d="M264.3753,-48.5004C255.8727,-38.9775 245.6782,-27.5596 238.6095,-19.6427"/>
<polygon fill="#191970" stroke="#191970" points="262.0197,-51.1172 271.2907,-56.2455 267.2413,-46.4551 262.0197,-51.1172"/>
</g>
</g>
</svg>
