<?xml version="1.0" encoding="UTF-8" standalone="no"?>
<!DOCTYPE svg PUBLIC "-//W3C//DTD SVG 1.1//EN"
 "http://www.w3.org/Graphics/SVG/1.1/DTD/svg11.dtd">
<!-- Generated by graphviz version 2.40.1 (20161225.0304)
 -->
<!-- Title: src/LEDController.h Pages: 1 -->
<svg width="312pt" height="140pt"
 viewBox="0.00 0.00 312.00 140.00" xmlns="http://www.w3.org/2000/svg" xmlns:xlink="http://www.w3.org/1999/xlink">
<g id="graph0" class="graph" transform="scale(1 1) rotate(0) translate(4 136)">
<title>src/LEDController.h</title>
<polygon fill="#ffffff" stroke="transparent" points="-4,4 -4,-136 308,-136 308,4 -4,4"/>
<!-- Node7 -->
<g id="node1" class="node">
<title>Node7</title>
<polygon fill="#bfbfbf" stroke="#000000" points="100,-112.5 100,-131.5 203,-131.5 203,-112.5 100,-112.5"/>
<text text-anchor="middle" x="151.5" y="-119.5" font-family="Helvetica,sans-Serif" font-size="10.00" fill="#000000">src/LEDController.h</text>
</g>
<!-- Node8 -->
<g id="node2" class="node">
<title>Node8</title>
<g id="a_node2"><a xlink:href="FastLEDController_8h_source.html" target="_top" xlink:title="src/FastLEDController.h">
<polygon fill="#ffffff" stroke="#000000" points="90.5,-56.5 90.5,-75.5 212.5,-75.5 212.5,-56.5 90.5,-56.5"/>
<text text-anchor="middle" x="151.5" y="-63.5" font-family="Helvetica,sans-Serif" font-size="10.00" fill="#000000">src/FastLEDController.h</text>
</a>
</g>
</g>
<!-- Node7&#45;&gt;Node8 -->
<g id="edge1" class="edge">
<title>Node7&#45;&gt;Node8</title>
<path fill="none" stroke="#191970" d="M151.5,-102.1575C151.5,-93.155 151.5,-82.9199 151.5,-75.6427"/>
<polygon fill="#191970" stroke="#191970" points="148.0001,-102.2455 151.5,-112.2455 155.0001,-102.2456 148.0001,-102.2455"/>
</g>
<!-- Node9 -->
<g id="node3" class="node">
<title>Node9</title>
<g id="a_node3"><a xlink:href="CorsairLightingProtocol_8h.html" target="_top" xlink:title="src/CorsairLightingProtocol.h">
<polygon fill="#ffffff" stroke="#000000" points="0,-.5 0,-19.5 143,-19.5 143,-.5 0,-.5"/>
<text text-anchor="middle" x="71.5" y="-7.5" font-family="Helvetica,sans-Serif" font-size="10.00" fill="#000000">src/CorsairLightingProtocol.h</text>
</a>
</g>
</g>
<!-- Node8&#45;&gt;Node9 -->
<g id="edge2" class="edge">
<title>Node8&#45;&gt;Node9</title>
<path fill="none" stroke="#191970" d="M129.3429,-50.49C115.228,-40.6096 97.3849,-28.1194 85.2752,-19.6427"/>
<polygon fill="#191970" stroke="#191970" points="127.3656,-53.3782 137.5651,-56.2455 131.3799,-47.6436 127.3656,-53.3782"/>
</g>
<!-- Node10 -->
<g id="node4" class="node">
<title>Node10</title>
<g id="a_node4"><a xlink:href="FastLEDControllerUtils_8h_source.html" target="_top" xlink:title="src/FastLEDControllerUtils.h">
<polygon fill="#ffffff" stroke="#000000" points="161,-.5 161,-19.5 304,-19.5 304,-.5 161,-.5"/>
<text text-anchor="middle" x="232.5" y="-7.5" font-family="Helvetica,sans-Serif" font-size="10.00" fill="#000000">src/FastLEDControllerUtils.h</text>
</a>
</g>
</g>
<!-- Node8&#45;&gt;Node10 -->
<g id="edge3" class="edge">
<title>Node8&#45;&gt;Node10</title>
<path fill="none" stroke="#191970" d="M173.934,-50.49C188.2254,-40.6096 206.2916,-28.1194 218.5526,-19.6427"/>
<polygon fill="#191970" stroke="#191970" points="171.8443,-47.6797 165.6091,-56.2455 175.8251,-53.4376 171.8443,-47.6797"/>
</g>
</g>
</svg>
