<?xml version="1.0" encoding="UTF-8" standalone="no"?>
<!DOCTYPE svg PUBLIC "-//W3C//DTD SVG 1.1//EN"
 "http://www.w3.org/Graphics/SVG/1.1/DTD/svg11.dtd">
<!-- Generated by graphviz version 2.40.1 (20161225.0304)
 -->
<!-- Title: src/TemperatureController.h Pages: 1 -->
<svg width="458pt" height="196pt"
 viewBox="0.00 0.00 458.00 196.00" xmlns="http://www.w3.org/2000/svg" xmlns:xlink="http://www.w3.org/1999/xlink">
<g id="graph0" class="graph" transform="scale(1 1) rotate(0) translate(4 192)">
<title>src/TemperatureController.h</title>
<polygon fill="#ffffff" stroke="transparent" points="-4,4 -4,-192 454,-192 454,4 -4,4"/>
<!-- Node0 -->
<g id="node1" class="node">
<title>Node0</title>
<polygon fill="#bfbfbf" stroke="#000000" points="0,-168.5 0,-187.5 138,-187.5 138,-168.5 0,-168.5"/>
<text text-anchor="middle" x="69" y="-175.5" font-family="Helvetica,sans-Serif" font-size="10.00" fill="#000000">src/TemperatureController.h</text>
</g>
<!-- Node1 -->
<g id="node2" class="node">
<title>Node1</title>
<polygon fill="#ffffff" stroke="#bfbfbf" points="90,-.5 90,-19.5 148,-19.5 148,-.5 90,-.5"/>
<text text-anchor="middle" x="119" y="-7.5" font-family="Helvetica,sans-Serif" font-size="10.00" fill="#000000">Arduino.h</text>
</g>
<!-- Node0&#45;&gt;Node1 -->
<g id="edge1" class="edge">
<title>Node0&#45;&gt;Node1</title>
<path fill="none" stroke="#191970" d="M67.2802,-168.3143C63.9499,-146.9836 58.3273,-94.767 75,-56 79.9474,-44.4963 89.1356,-34.164 97.841,-26.22"/>
<polygon fill="#191970" stroke="#191970" points="100.2285,-28.7838 105.5646,-19.6307 95.6853,-23.4584 100.2285,-28.7838"/>
</g>
<!-- Node2 -->
<g id="node3" class="node">
<title>Node2</title>
<g id="a_node3"><a xlink:href="ITemperatureController_8h_source.html" target="_top" xlink:title="ITemperatureController.h">
<polygon fill="#ffffff" stroke="#000000" points="82.5,-112.5 82.5,-131.5 207.5,-131.5 207.5,-112.5 82.5,-112.5"/>
<text text-anchor="middle" x="145" y="-119.5" font-family="Helvetica,sans-Serif" font-size="10.00" fill="#000000">ITemperatureController.h</text>
</a>
</g>
</g>
<!-- Node0&#45;&gt;Node2 -->
<g id="edge2" class="edge">
<title>Node0&#45;&gt;Node2</title>
<path fill="none" stroke="#191970" d="M82.2382,-168.2455C93.681,-159.814 110.4296,-147.4729 123.7475,-137.6598"/>
<polygon fill="#191970" stroke="#191970" points="125.9391,-140.3924 131.9135,-131.6427 121.7867,-134.757 125.9391,-140.3924"/>
</g>
<!-- Node2&#45;&gt;Node1 -->
<g id="edge3" class="edge">
<title>Node2&#45;&gt;Node1</title>
<path fill="none" stroke="#191970" d="M122.234,-112.3999C107.5403,-104.8573 89.6158,-92.8029 81,-76 72.2252,-58.887 85.689,-39.914 98.9532,-26.7191"/>
<polygon fill="#191970" stroke="#191970" points="101.6044,-29.0346 106.5703,-19.6756 96.8519,-23.8951 101.6044,-29.0346"/>
</g>
<!-- Node3 -->
<g id="node4" class="node">
<title>Node3</title>
<g id="a_node4"><a xlink:href="CorsairLightingProtocolConstants_8h_source.html" target="_top" xlink:title="CorsairLightingProtocolConstants.h">
<polygon fill="#ffffff" stroke="#000000" points="90.5,-56.5 90.5,-75.5 261.5,-75.5 261.5,-56.5 90.5,-56.5"/>
<text text-anchor="middle" x="176" y="-63.5" font-family="Helvetica,sans-Serif" font-size="10.00" fill="#000000">CorsairLightingProtocolConstants.h</text>
</a>
</g>
</g>
<!-- Node2&#45;&gt;Node3 -->
<g id="edge4" class="edge">
<title>Node2&#45;&gt;Node3</title>
<path fill="none" stroke="#191970" d="M150.3998,-112.2455C154.6227,-104.617 160.6173,-93.7881 165.7441,-84.5267"/>
<polygon fill="#191970" stroke="#191970" points="168.881,-86.0867 170.6621,-75.6427 162.7568,-82.6965 168.881,-86.0867"/>
</g>
<!-- Node4 -->
<g id="node5" class="node">
<title>Node4</title>
<g id="a_node5"><a xlink:href="CorsairLightingProtocolResponse_8h_source.html" target="_top" xlink:title="CorsairLightingProtocolResponse.h">
<polygon fill="#ffffff" stroke="#000000" points="280,-56.5 280,-75.5 450,-75.5 450,-56.5 280,-56.5"/>
<text text-anchor="middle" x="365" y="-63.5" font-family="Helvetica,sans-Serif" font-size="10.00" fill="#000000">CorsairLightingProtocolResponse.h</text>
</a>
</g>
</g>
<!-- Node2&#45;&gt;Node4 -->
<g id="edge6" class="edge">
<title>Node2&#45;&gt;Node4</title>
<path fill="none" stroke="#191970" d="M182.8193,-112.3733C220.1938,-102.8598 277.4724,-88.2797 317.8071,-78.0127"/>
<polygon fill="#191970" stroke="#191970" points="318.8466,-81.3598 327.6742,-75.5011 317.1198,-74.5761 318.8466,-81.3598"/>
</g>
<!-- Node3&#45;&gt;Node1 -->
<g id="edge5" class="edge">
<title>Node3&#45;&gt;Node1</title>
<path fill="none" stroke="#191970" d="M166.0714,-56.2455C157.8162,-48.1352 145.8791,-36.4075 136.0918,-26.7919"/>
<polygon fill="#191970" stroke="#191970" points="138.4011,-24.1542 128.8149,-19.6427 133.4954,-29.1476 138.4011,-24.1542"/>
</g>
<!-- Node4&#45;&gt;Node1 -->
<g id="edge7" class="edge">
<title>Node4&#45;&gt;Node1</title>
<path fill="none" stroke="#191970" d="M322.9906,-56.4369C276.7768,-45.9167 203.1039,-29.1456 158.088,-18.8981"/>
<polygon fill="#191970" stroke="#191970" points="158.6441,-15.4352 148.1166,-16.6282 157.0903,-22.2606 158.6441,-15.4352"/>
</g>
</g>
</svg>
