<?xml version="1.0" encoding="UTF-8" standalone="no"?>
<!DOCTYPE svg PUBLIC "-//W3C//DTD SVG 1.1//EN"
 "http://www.w3.org/Graphics/SVG/1.1/DTD/svg11.dtd">
<!-- Generated by graphviz version 2.40.1 (20161225.0304)
 -->
<!-- Title: src/TemperatureController.h Pages: 1 -->
<svg width="458pt" height="196pt"
 viewBox="0.00 0.00 457.50 196.00" xmlns="http://www.w3.org/2000/svg" xmlns:xlink="http://www.w3.org/1999/xlink">
<g id="graph0" class="graph" transform="scale(1 1) rotate(0) translate(4 192)">
<title>src/TemperatureController.h</title>
<polygon fill="#ffffff" stroke="transparent" points="-4,4 -4,-192 453.5,-192 453.5,4 -4,4"/>
<!-- Node0 -->
<g id="node1" class="node">
<title>Node0</title>
<polygon fill="#bfbfbf" stroke="#000000" points="0,-168.5 0,-187.5 138,-187.5 138,-168.5 0,-168.5"/>
<text text-anchor="middle" x="69" y="-175.5" font-family="Helvetica,sans-Serif" font-size="10.00" fill="#000000">src/TemperatureController.h</text>
</g>
<!-- Node1 -->
<g id="node2" class="node">
<title>Node1</title>
<polygon fill="#ffffff" stroke="#bfbfbf" points="89,-.5 89,-19.5 147,-19.5 147,-.5 89,-.5"/>
<text text-anchor="middle" x="118" y="-7.5" font-family="Helvetica,sans-Serif" font-size="10.00" fill="#000000">Arduino.h</text>
</g>
<!-- Node0&#45;&gt;Node1 -->
<g id="edge1" class="edge">
<title>Node0&#45;&gt;Node1</title>
<path fill="none" stroke="#191970" d="M67.3133,-168.3285C64.0491,-147.0259 58.5501,-94.8621 75,-56 79.8287,-44.5926 88.8072,-34.2714 97.316,-26.3097"/>
<polygon fill="#191970" stroke="#191970" points="99.6486,-28.9193 104.8655,-19.6979 95.0367,-23.6533 99.6486,-28.9193"/>
</g>
<!-- Node2 -->
<g id="node3" class="node">
<title>Node2</title>
<g id="a_node3"><a xlink:href="ITemperatureController_8h_source.html" target="_top" xlink:title="ITemperatureController.h">
<polygon fill="#ffffff" stroke="#000000" points="82.5,-112.5 82.5,-131.5 207.5,-131.5 207.5,-112.5 82.5,-112.5"/>
<text text-anchor="middle" x="145" y="-119.5" font-family="Helvetica,sans-Serif" font-size="10.00" fill="#000000">ITemperatureController.h</text>
</a>
</g>
</g>
<!-- Node0&#45;&gt;Node2 -->
<g id="edge2" class="edge">
<title>Node0&#45;&gt;Node2</title>
<path fill="none" stroke="#191970" d="M82.2382,-168.2455C93.681,-159.814 110.4296,-147.4729 123.7475,-137.6598"/>
<polygon fill="#191970" stroke="#191970" points="125.9391,-140.3924 131.9135,-131.6427 121.7867,-134.757 125.9391,-140.3924"/>
</g>
<!-- Node2&#45;&gt;Node1 -->
<g id="edge3" class="edge">
<title>Node2&#45;&gt;Node1</title>
<path fill="none" stroke="#191970" d="M122.234,-112.3999C107.5403,-104.8573 89.6158,-92.8029 81,-76 72.2821,-58.998 85.4153,-40.0098 98.3834,-26.7812"/>
<polygon fill="#191970" stroke="#191970" points="100.9855,-29.1371 105.8333,-19.7164 96.1688,-24.0578 100.9855,-29.1371"/>
</g>
<!-- Node3 -->
<g id="node4" class="node">
<title>Node3</title>
<g id="a_node4"><a xlink:href="CorsairLightingProtocolResponse_8h_source.html" target="_top" xlink:title="CorsairLightingProtocolResponse.h">
<polygon fill="#ffffff" stroke="#000000" points="90,-56.5 90,-75.5 260,-75.5 260,-56.5 90,-56.5"/>
<text text-anchor="middle" x="175" y="-63.5" font-family="Helvetica,sans-Serif" font-size="10.00" fill="#000000">CorsairLightingProtocolResponse.h</text>
</a>
</g>
</g>
<!-- Node2&#45;&gt;Node3 -->
<g id="edge4" class="edge">
<title>Node2&#45;&gt;Node3</title>
<path fill="none" stroke="#191970" d="M150.2256,-112.2455C154.3123,-104.617 160.1135,-93.7881 165.075,-84.5267"/>
<polygon fill="#191970" stroke="#191970" points="168.1972,-86.1103 169.8343,-75.6427 162.0268,-82.8047 168.1972,-86.1103"/>
</g>
<!-- Node4 -->
<g id="node5" class="node">
<title>Node4</title>
<g id="a_node5"><a xlink:href="CorsairLightingProtocolConstants_8h_source.html" target="_top" xlink:title="CorsairLightingProtocolConstants.h">
<polygon fill="#ffffff" stroke="#000000" points="278.5,-56.5 278.5,-75.5 449.5,-75.5 449.5,-56.5 278.5,-56.5"/>
<text text-anchor="middle" x="364" y="-63.5" font-family="Helvetica,sans-Serif" font-size="10.00" fill="#000000">CorsairLightingProtocolConstants.h</text>
</a>
</g>
</g>
<!-- Node2&#45;&gt;Node4 -->
<g id="edge6" class="edge">
<title>Node2&#45;&gt;Node4</title>
<path fill="none" stroke="#191970" d="M182.6474,-112.3733C219.852,-102.8598 276.8703,-88.2797 317.0216,-78.0127"/>
<polygon fill="#191970" stroke="#191970" points="318.0227,-81.3695 326.8438,-75.5011 316.2884,-74.5877 318.0227,-81.3695"/>
</g>
<!-- Node3&#45;&gt;Node1 -->
<g id="edge5" class="edge">
<title>Node3&#45;&gt;Node1</title>
<path fill="none" stroke="#191970" d="M165.0714,-56.2455C156.8162,-48.1352 144.8791,-36.4075 135.0918,-26.7919"/>
<polygon fill="#191970" stroke="#191970" points="137.4011,-24.1542 127.8149,-19.6427 132.4954,-29.1476 137.4011,-24.1542"/>
</g>
<!-- Node4&#45;&gt;Node1 -->
<g id="edge7" class="edge">
<title>Node4&#45;&gt;Node1</title>
<path fill="none" stroke="#191970" d="M321.9906,-56.4369C275.7768,-45.9167 202.1039,-29.1456 157.088,-18.8981"/>
<polygon fill="#191970" stroke="#191970" points="157.6441,-15.4352 147.1166,-16.6282 156.0903,-22.2606 157.6441,-15.4352"/>
</g>
</g>
</svg>
