<?xml version="1.0" encoding="UTF-8" standalone="no"?>
<!DOCTYPE svg PUBLIC "-//W3C//DTD SVG 1.1//EN"
 "http://www.w3.org/Graphics/SVG/1.1/DTD/svg11.dtd">
<!-- Generated by graphviz version 2.40.1 (20161225.0304)
 -->
<!-- Title: src/TemperatureController.h Pages: 1 -->
<svg width="743pt" height="207pt"
 viewBox="0.00 0.00 742.50 207.00" xmlns="http://www.w3.org/2000/svg" xmlns:xlink="http://www.w3.org/1999/xlink">
<g id="graph0" class="graph" transform="scale(1 1) rotate(0) translate(4 203)">
<title>src/TemperatureController.h</title>
<polygon fill="#ffffff" stroke="transparent" points="-4,4 -4,-203 738.5,-203 738.5,4 -4,4"/>
<!-- Node5 -->
<g id="node1" class="node">
<title>Node5</title>
<polygon fill="#bfbfbf" stroke="#000000" points="359,-179.5 359,-198.5 497,-198.5 497,-179.5 359,-179.5"/>
<text text-anchor="middle" x="428" y="-186.5" font-family="Helvetica,sans-Serif" font-size="10.00" fill="#000000">src/TemperatureController.h</text>
</g>
<!-- Node6 -->
<g id="node2" class="node">
<title>Node6</title>
<g id="a_node2"><a xlink:href="FastLEDController_8h_source.html" target="_top" xlink:title="src/FastLEDController.h">
<polygon fill="#ffffff" stroke="#000000" points="169,-118 169,-137 291,-137 291,-118 169,-118"/>
<text text-anchor="middle" x="230" y="-125" font-family="Helvetica,sans-Serif" font-size="10.00" fill="#000000">src/FastLEDController.h</text>
</a>
</g>
</g>
<!-- Node5&#45;&gt;Node6 -->
<g id="edge1" class="edge">
<title>Node5&#45;&gt;Node6</title>
<path fill="none" stroke="#191970" d="M387.4343,-176.4001C349.8537,-164.7273 294.7773,-147.6202 260.7203,-137.0419"/>
<polygon fill="#191970" stroke="#191970" points="386.4743,-179.7668 397.0625,-179.3906 388.5508,-173.0818 386.4743,-179.7668"/>
</g>
<!-- Node8 -->
<g id="node4" class="node">
<title>Node8</title>
<g id="a_node4"><a xlink:href="CorsairLightingProtocol_8h.html" target="_top" xlink:title="src/CorsairLightingProtocol.h">
<polygon fill="#ffffff" stroke="#000000" points="158.5,-.5 158.5,-19.5 301.5,-19.5 301.5,-.5 158.5,-.5"/>
<text text-anchor="middle" x="230" y="-7.5" font-family="Helvetica,sans-Serif" font-size="10.00" fill="#000000">src/CorsairLightingProtocol.h</text>
</a>
</g>
</g>
<!-- Node5&#45;&gt;Node8 -->
<g id="edge7" class="edge">
<title>Node5&#45;&gt;Node8</title>
<path fill="none" stroke="#191970" d="M416.2005,-170.8044C410.9854,-162.4703 404.9319,-152.3791 400,-143 380.2785,-105.4951 392.1906,-84.6827 361,-56 340.6845,-37.318 312.3357,-26.1455 287.2038,-19.5022"/>
<polygon fill="#191970" stroke="#191970" points="413.3071,-172.777 421.6278,-179.3357 419.2133,-169.0197 413.3071,-172.777"/>
</g>
<!-- Node10 -->
<g id="node6" class="node">
<title>Node10</title>
<g id="a_node6"><a xlink:href="SimpleFanController_8h_source.html" target="_top" xlink:title="examples/CommanderPRO\l/SimpleFanController.h">
<polygon fill="#ffffff" stroke="#000000" points="408.5,-112.5 408.5,-142.5 545.5,-142.5 545.5,-112.5 408.5,-112.5"/>
<text text-anchor="start" x="416.5" y="-130.5" font-family="Helvetica,sans-Serif" font-size="10.00" fill="#000000">examples/CommanderPRO</text>
<text text-anchor="middle" x="477" y="-119.5" font-family="Helvetica,sans-Serif" font-size="10.00" fill="#000000">/SimpleFanController.h</text>
</a>
</g>
</g>
<!-- Node5&#45;&gt;Node10 -->
<g id="edge8" class="edge">
<title>Node5&#45;&gt;Node10</title>
<path fill="none" stroke="#191970" d="M442.0466,-171.3701C449.3071,-162.2574 458.0752,-151.2525 465.0133,-142.5446"/>
<polygon fill="#191970" stroke="#191970" points="439.1503,-169.3885 435.6563,-179.3906 444.6251,-173.7505 439.1503,-169.3885"/>
</g>
<!-- Node11 -->
<g id="node7" class="node">
<title>Node11</title>
<g id="a_node7"><a xlink:href="ThermistorTemperatureController_8h_source.html" target="_top" xlink:title="examples/CommanderPRO\l/ThermistorTemperatureController.h">
<polygon fill="#ffffff" stroke="#000000" points="563.5,-112.5 563.5,-142.5 734.5,-142.5 734.5,-112.5 563.5,-112.5"/>
<text text-anchor="start" x="571.5" y="-130.5" font-family="Helvetica,sans-Serif" font-size="10.00" fill="#000000">examples/CommanderPRO</text>
<text text-anchor="middle" x="649" y="-119.5" font-family="Helvetica,sans-Serif" font-size="10.00" fill="#000000">/ThermistorTemperatureController.h</text>
</a>
</g>
</g>
<!-- Node5&#45;&gt;Node11 -->
<g id="edge9" class="edge">
<title>Node5&#45;&gt;Node11</title>
<path fill="none" stroke="#191970" d="M472.5502,-176.6025C507.8661,-166.7748 557.3548,-153.0031 594.9373,-142.5446"/>
<polygon fill="#191970" stroke="#191970" points="471.2268,-173.3377 462.5313,-179.3906 473.1035,-180.0815 471.2268,-173.3377"/>
</g>
<!-- Node7 -->
<g id="node3" class="node">
<title>Node7</title>
<g id="a_node3"><a xlink:href="CorsairLightingNodePRO_8h_source.html" target="_top" xlink:title="src/CorsairLightingNodePRO.h">
<polygon fill="#ffffff" stroke="#000000" points="0,-56.5 0,-75.5 152,-75.5 152,-56.5 0,-56.5"/>
<text text-anchor="middle" x="76" y="-63.5" font-family="Helvetica,sans-Serif" font-size="10.00" fill="#000000">src/CorsairLightingNodePRO.h</text>
</a>
</g>
</g>
<!-- Node6&#45;&gt;Node7 -->
<g id="edge2" class="edge">
<title>Node6&#45;&gt;Node7</title>
<path fill="none" stroke="#191970" d="M196.565,-114.1477C167.4041,-102.5023 125.8188,-85.8952 99.8935,-75.5419"/>
<polygon fill="#191970" stroke="#191970" points="195.3526,-117.4323 205.9375,-117.8906 197.9487,-110.9315 195.3526,-117.4323"/>
</g>
<!-- Node6&#45;&gt;Node8 -->
<g id="edge4" class="edge">
<title>Node6&#45;&gt;Node8</title>
<path fill="none" stroke="#191970" d="M214.4976,-109.6321C204.0858,-95.4201 193.2384,-74.8591 199,-56 203.2769,-42.0006 213.4037,-28.4087 220.9259,-19.6757"/>
<polygon fill="#191970" stroke="#191970" points="211.8314,-111.9034 220.7718,-117.5886 217.3281,-107.569 211.8314,-111.9034"/>
</g>
<!-- Node9 -->
<g id="node5" class="node">
<title>Node9</title>
<g id="a_node5"><a xlink:href="FastLEDControllerUtils_8h_source.html" target="_top" xlink:title="src/FastLEDControllerUtils.h">
<polygon fill="#ffffff" stroke="#000000" points="208.5,-56.5 208.5,-75.5 351.5,-75.5 351.5,-56.5 208.5,-56.5"/>
<text text-anchor="middle" x="280" y="-63.5" font-family="Helvetica,sans-Serif" font-size="10.00" fill="#000000">src/FastLEDControllerUtils.h</text>
</a>
</g>
</g>
<!-- Node6&#45;&gt;Node9 -->
<g id="edge5" class="edge">
<title>Node6&#45;&gt;Node9</title>
<path fill="none" stroke="#191970" d="M244.1671,-110.0744C253.21,-98.9517 264.5972,-84.9454 272.0774,-75.7449"/>
<polygon fill="#191970" stroke="#191970" points="241.4051,-107.9235 237.8125,-117.8906 246.8366,-112.3393 241.4051,-107.9235"/>
</g>
<!-- Node7&#45;&gt;Node8 -->
<g id="edge3" class="edge">
<title>Node7&#45;&gt;Node8</title>
<path fill="none" stroke="#191970" d="M111.9614,-52.9231C140.1134,-42.686 178.6055,-28.6889 203.8719,-19.5011"/>
<polygon fill="#191970" stroke="#191970" points="110.6754,-49.6665 102.4735,-56.3733 113.0676,-56.245 110.6754,-49.6665"/>
</g>
<!-- Node9&#45;&gt;Node8 -->
<g id="edge6" class="edge">
<title>Node9&#45;&gt;Node8</title>
<path fill="none" stroke="#191970" d="M264.3753,-48.5004C255.8727,-38.9775 245.6782,-27.5596 238.6095,-19.6427"/>
<polygon fill="#191970" stroke="#191970" points="262.0197,-51.1172 271.2907,-56.2455 267.2413,-46.4551 262.0197,-51.1172"/>
</g>
</g>
</svg>
