<?xml version="1.0" encoding="UTF-8" standalone="no"?>
<!DOCTYPE svg PUBLIC "-//W3C//DTD SVG 1.1//EN"
 "http://www.w3.org/Graphics/SVG/1.1/DTD/svg11.dtd">
<!-- Generated by graphviz version 2.40.1 (20161225.0304)
 -->
<!-- Title: src/TemperatureController.h Pages: 1 -->
<svg width="565pt" height="151pt"
 viewBox="0.00 0.00 565.00 151.00" xmlns="http://www.w3.org/2000/svg" xmlns:xlink="http://www.w3.org/1999/xlink">
<g id="graph0" class="graph" transform="scale(1 1) rotate(0) translate(4 147)">
<title>src/TemperatureController.h</title>
<polygon fill="#ffffff" stroke="transparent" points="-4,4 -4,-147 561,-147 561,4 -4,4"/>
<!-- Node5 -->
<g id="node1" class="node">
<title>Node5</title>
<polygon fill="#bfbfbf" stroke="#000000" points="230.5,-123.5 230.5,-142.5 368.5,-142.5 368.5,-123.5 230.5,-123.5"/>
<text text-anchor="middle" x="299.5" y="-130.5" font-family="Helvetica,sans-Serif" font-size="10.00" fill="#000000">src/TemperatureController.h</text>
</g>
<!-- Node6 -->
<g id="node2" class="node">
<title>Node6</title>
<g id="a_node2"><a xlink:href="FastLEDController_8h_source.html" target="_top" xlink:title="src/FastLEDController.h">
<polygon fill="#ffffff" stroke="#000000" points="90.5,-62 90.5,-81 212.5,-81 212.5,-62 90.5,-62"/>
<text text-anchor="middle" x="151.5" y="-69" font-family="Helvetica,sans-Serif" font-size="10.00" fill="#000000">src/FastLEDController.h</text>
</a>
</g>
</g>
<!-- Node5&#45;&gt;Node6 -->
<g id="edge1" class="edge">
<title>Node5&#45;&gt;Node6</title>
<path fill="none" stroke="#191970" d="M267.0015,-119.4955C238.9956,-107.858 199.2694,-91.3501 174.4626,-81.0419"/>
<polygon fill="#191970" stroke="#191970" points="265.7975,-122.7853 276.375,-123.3906 268.4836,-116.3212 265.7975,-122.7853"/>
</g>
<!-- Node9 -->
<g id="node5" class="node">
<title>Node9</title>
<g id="a_node5"><a xlink:href="SimpleFanController_8h_source.html" target="_top" xlink:title="examples/CommanderPRO\l/SimpleFanController.h">
<polygon fill="#ffffff" stroke="#000000" points="231,-56.5 231,-86.5 368,-86.5 368,-56.5 231,-56.5"/>
<text text-anchor="start" x="239" y="-74.5" font-family="Helvetica,sans-Serif" font-size="10.00" fill="#000000">examples/CommanderPRO</text>
<text text-anchor="middle" x="299.5" y="-63.5" font-family="Helvetica,sans-Serif" font-size="10.00" fill="#000000">/SimpleFanController.h</text>
</a>
</g>
</g>
<!-- Node5&#45;&gt;Node9 -->
<g id="edge4" class="edge">
<title>Node5&#45;&gt;Node9</title>
<path fill="none" stroke="#191970" d="M299.5,-113.3693C299.5,-104.681 299.5,-94.6241 299.5,-86.5446"/>
<polygon fill="#191970" stroke="#191970" points="296.0001,-113.3906 299.5,-123.3906 303.0001,-113.3907 296.0001,-113.3906"/>
</g>
<!-- Node10 -->
<g id="node6" class="node">
<title>Node10</title>
<g id="a_node6"><a xlink:href="ThermistorTemperatureController_8h_source.html" target="_top" xlink:title="examples/CommanderPRO\l/ThermistorTemperatureController.h">
<polygon fill="#ffffff" stroke="#000000" points="386,-56.5 386,-86.5 557,-86.5 557,-56.5 386,-56.5"/>
<text text-anchor="start" x="394" y="-74.5" font-family="Helvetica,sans-Serif" font-size="10.00" fill="#000000">examples/CommanderPRO</text>
<text text-anchor="middle" x="471.5" y="-63.5" font-family="Helvetica,sans-Serif" font-size="10.00" fill="#000000">/ThermistorTemperatureController.h</text>
</a>
</g>
</g>
<!-- Node5&#45;&gt;Node10 -->
<g id="edge5" class="edge">
<title>Node5&#45;&gt;Node10</title>
<path fill="none" stroke="#191970" d="M335.9571,-119.9645C363.307,-110.1853 400.802,-96.7786 429.4241,-86.5446"/>
<polygon fill="#191970" stroke="#191970" points="334.6128,-116.7281 326.375,-123.3906 336.9696,-123.3194 334.6128,-116.7281"/>
</g>
<!-- Node7 -->
<g id="node3" class="node">
<title>Node7</title>
<g id="a_node3"><a xlink:href="CorsairLightingProtocol_8h.html" target="_top" xlink:title="src/CorsairLightingProtocol.h">
<polygon fill="#ffffff" stroke="#000000" points="0,-.5 0,-19.5 143,-19.5 143,-.5 0,-.5"/>
<text text-anchor="middle" x="71.5" y="-7.5" font-family="Helvetica,sans-Serif" font-size="10.00" fill="#000000">src/CorsairLightingProtocol.h</text>
</a>
</g>
</g>
<!-- Node6&#45;&gt;Node7 -->
<g id="edge2" class="edge">
<title>Node6&#45;&gt;Node7</title>
<path fill="none" stroke="#191970" d="M130.881,-55.6491C116.0164,-44.222 96.443,-29.1749 83.9122,-19.5419"/>
<polygon fill="#191970" stroke="#191970" points="128.9387,-58.5707 139,-61.8906 133.2051,-53.021 128.9387,-58.5707"/>
</g>
<!-- Node8 -->
<g id="node4" class="node">
<title>Node8</title>
<g id="a_node4"><a xlink:href="FastLEDControllerUtils_8h_source.html" target="_top" xlink:title="src/FastLEDControllerUtils.h">
<polygon fill="#ffffff" stroke="#000000" points="161,-.5 161,-19.5 304,-19.5 304,-.5 161,-.5"/>
<text text-anchor="middle" x="232.5" y="-7.5" font-family="Helvetica,sans-Serif" font-size="10.00" fill="#000000">src/FastLEDControllerUtils.h</text>
</a>
</g>
</g>
<!-- Node6&#45;&gt;Node8 -->
<g id="edge3" class="edge">
<title>Node6&#45;&gt;Node8</title>
<path fill="none" stroke="#191970" d="M172.3768,-55.6491C187.4271,-44.222 207.2452,-29.1749 219.9326,-19.5419"/>
<polygon fill="#191970" stroke="#191970" points="170.0042,-53.0559 164.1563,-61.8906 174.2372,-58.6311 170.0042,-53.0559"/>
</g>
</g>
</svg>
