<?xml version="1.0" encoding="UTF-8" standalone="no"?>
<!DOCTYPE svg PUBLIC "-//W3C//DTD SVG 1.1//EN"
 "http://www.w3.org/Graphics/SVG/1.1/DTD/svg11.dtd">
<!-- Generated by graphviz version 2.43.0 (0)
 -->
<!-- Title: src/TemperatureController.h Pages: 1 -->
<svg width="494pt" height="196pt"
 viewBox="0.00 0.00 494.00 196.00" xmlns="http://www.w3.org/2000/svg" xmlns:xlink="http://www.w3.org/1999/xlink">
<g id="graph0" class="graph" transform="scale(1 1) rotate(0) translate(4 192)">
<title>src/TemperatureController.h</title>
<polygon fill="white" stroke="transparent" points="-4,4 -4,-192 490,-192 490,4 -4,4"/>
<!-- Node1 -->
<g id="node1" class="node">
<title>Node1</title>
<g id="a_node1"><a xlink:title=" ">
<polygon fill="#bfbfbf" stroke="black" points="0,-168.5 0,-187.5 152,-187.5 152,-168.5 0,-168.5"/>
<text text-anchor="middle" x="76" y="-175.5" font-family="Helvetica,sans-Serif" font-size="10.00">src/TemperatureController.h</text>
</a>
</g>
</g>
<!-- Node2 -->
<g id="node2" class="node">
<title>Node2</title>
<g id="a_node2"><a xlink:title=" ">
<polygon fill="white" stroke="#bfbfbf" points="95.5,-0.5 95.5,-19.5 158.5,-19.5 158.5,-0.5 95.5,-0.5"/>
<text text-anchor="middle" x="127" y="-7.5" font-family="Helvetica,sans-Serif" font-size="10.00">Arduino.h</text>
</a>
</g>
</g>
<!-- Node1&#45;&gt;Node2 -->
<g id="edge1" class="edge">
<title>Node1&#45;&gt;Node2</title>
<path fill="none" stroke="midnightblue" d="M74.03,-168.29C69.81,-147.68 61.64,-94.74 79,-56 84.42,-43.91 94.78,-33.53 104.5,-25.8"/>
<polygon fill="midnightblue" stroke="midnightblue" points="106.77,-28.47 112.73,-19.71 102.61,-22.85 106.77,-28.47"/>
</g>
<!-- Node3 -->
<g id="node3" class="node">
<title>Node3</title>
<g id="a_node3"><a xlink:href="ITemperatureController_8h_source.html" target="_top" xlink:title=" ">
<polygon fill="white" stroke="black" points="87.5,-112.5 87.5,-131.5 224.5,-131.5 224.5,-112.5 87.5,-112.5"/>
<text text-anchor="middle" x="156" y="-119.5" font-family="Helvetica,sans-Serif" font-size="10.00">ITemperatureController.h</text>
</a>
</g>
</g>
<!-- Node1&#45;&gt;Node3 -->
<g id="edge2" class="edge">
<title>Node1&#45;&gt;Node3</title>
<path fill="none" stroke="midnightblue" d="M88.85,-168.32C101.22,-159.98 120.13,-147.21 134.74,-137.35"/>
<polygon fill="midnightblue" stroke="midnightblue" points="136.85,-140.15 143.18,-131.65 132.93,-134.35 136.85,-140.15"/>
</g>
<!-- Node3&#45;&gt;Node2 -->
<g id="edge3" class="edge">
<title>Node3&#45;&gt;Node2</title>
<path fill="none" stroke="midnightblue" d="M130.84,-112.38C114.58,-105.34 94.71,-93.65 85,-76 75.27,-58.32 91.42,-39.01 106.42,-26.07"/>
<polygon fill="midnightblue" stroke="midnightblue" points="108.88,-28.59 114.47,-19.59 104.49,-23.14 108.88,-28.59"/>
</g>
<!-- Node4 -->
<g id="node4" class="node">
<title>Node4</title>
<g id="a_node4"><a xlink:href="CorsairLightingProtocolConstants_8h_source.html" target="_top" xlink:title=" ">
<polygon fill="white" stroke="black" points="94,-56.5 94,-75.5 282,-75.5 282,-56.5 94,-56.5"/>
<text text-anchor="middle" x="188" y="-63.5" font-family="Helvetica,sans-Serif" font-size="10.00">CorsairLightingProtocolConstants.h</text>
</a>
</g>
</g>
<!-- Node3&#45;&gt;Node4 -->
<g id="edge4" class="edge">
<title>Node3&#45;&gt;Node4</title>
<path fill="none" stroke="midnightblue" d="M161.28,-112.08C165.71,-104.61 172.16,-93.72 177.62,-84.52"/>
<polygon fill="midnightblue" stroke="midnightblue" points="180.73,-86.14 182.81,-75.75 174.71,-82.57 180.73,-86.14"/>
</g>
<!-- Node5 -->
<g id="node5" class="node">
<title>Node5</title>
<g id="a_node5"><a xlink:href="CorsairLightingProtocolResponse_8h_source.html" target="_top" xlink:title=" ">
<polygon fill="white" stroke="black" points="300,-56.5 300,-75.5 486,-75.5 486,-56.5 300,-56.5"/>
<text text-anchor="middle" x="393" y="-63.5" font-family="Helvetica,sans-Serif" font-size="10.00">CorsairLightingProtocolResponse.h</text>
</a>
</g>
</g>
<!-- Node3&#45;&gt;Node5 -->
<g id="edge6" class="edge">
<title>Node3&#45;&gt;Node5</title>
<path fill="none" stroke="midnightblue" d="M193.55,-112.44C234.81,-103.04 301.14,-87.93 345.87,-77.74"/>
<polygon fill="midnightblue" stroke="midnightblue" points="346.65,-81.15 355.62,-75.52 345.09,-74.33 346.65,-81.15"/>
</g>
<!-- Node4&#45;&gt;Node2 -->
<g id="edge5" class="edge">
<title>Node4&#45;&gt;Node2</title>
<path fill="none" stroke="midnightblue" d="M178.2,-56.32C169.18,-48.34 155.59,-36.31 144.68,-26.65"/>
<polygon fill="midnightblue" stroke="midnightblue" points="146.79,-23.84 136.98,-19.83 142.15,-29.08 146.79,-23.84"/>
</g>
<!-- Node5&#45;&gt;Node2 -->
<g id="edge7" class="edge">
<title>Node5&#45;&gt;Node2</title>
<path fill="none" stroke="midnightblue" d="M350.85,-56.44C300.93,-46.31 218.3,-29.54 168.62,-19.45"/>
<polygon fill="midnightblue" stroke="midnightblue" points="169.04,-15.96 158.54,-17.4 167.64,-22.82 169.04,-15.96"/>
</g>
</g>
</svg>
