<?xml version="1.0" encoding="UTF-8" standalone="no"?>
<!DOCTYPE svg PUBLIC "-//W3C//DTD SVG 1.1//EN"
 "http://www.w3.org/Graphics/SVG/1.1/DTD/svg11.dtd">
<!-- Generated by graphviz version 2.43.0 (0)
 -->
<!-- Title: src/TemperatureController.h Pages: 1 -->
<svg width="612pt" height="151pt"
 viewBox="0.00 0.00 611.50 151.00" xmlns="http://www.w3.org/2000/svg" xmlns:xlink="http://www.w3.org/1999/xlink">
<g id="graph0" class="graph" transform="scale(1 1) rotate(0) translate(4 147)">
<title>src/TemperatureController.h</title>
<polygon fill="white" stroke="transparent" points="-4,4 -4,-147 607.5,-147 607.5,4 -4,4"/>
<!-- Node1 -->
<g id="node1" class="node">
<title>Node1</title>
<g id="a_node1"><a xlink:title=" ">
<polygon fill="#bfbfbf" stroke="black" points="244,-123.5 244,-142.5 396,-142.5 396,-123.5 244,-123.5"/>
<text text-anchor="middle" x="320" y="-130.5" font-family="Helvetica,sans-Serif" font-size="10.00">src/TemperatureController.h</text>
</a>
</g>
</g>
<!-- Node2 -->
<g id="node2" class="node">
<title>Node2</title>
<g id="a_node2"><a xlink:href="FastLEDController_8h_source.html" target="_top" xlink:title=" ">
<polygon fill="white" stroke="black" points="100,-62 100,-81 228,-81 228,-62 100,-62"/>
<text text-anchor="middle" x="164" y="-69" font-family="Helvetica,sans-Serif" font-size="10.00">src/FastLEDController.h</text>
</a>
</g>
</g>
<!-- Node1&#45;&gt;Node2 -->
<g id="edge1" class="edge">
<title>Node1&#45;&gt;Node2</title>
<path fill="none" stroke="midnightblue" d="M287.97,-119.78C257.65,-108.22 212.93,-91.16 186.31,-81.01"/>
<polygon fill="midnightblue" stroke="midnightblue" points="287.06,-123.18 297.65,-123.48 289.55,-116.64 287.06,-123.18"/>
</g>
<!-- Node5 -->
<g id="node5" class="node">
<title>Node5</title>
<g id="a_node5"><a xlink:href="SimpleFanController_8h_source.html" target="_top" xlink:title=" ">
<polygon fill="white" stroke="black" points="246,-56.5 246,-86.5 394,-86.5 394,-56.5 246,-56.5"/>
<text text-anchor="start" x="254" y="-74.5" font-family="Helvetica,sans-Serif" font-size="10.00">examples/CommanderPRO</text>
<text text-anchor="middle" x="320" y="-63.5" font-family="Helvetica,sans-Serif" font-size="10.00">/SimpleFanController.h</text>
</a>
</g>
</g>
<!-- Node1&#45;&gt;Node5 -->
<g id="edge4" class="edge">
<title>Node1&#45;&gt;Node5</title>
<path fill="none" stroke="midnightblue" d="M320,-113.23C320,-104.59 320,-94.5 320,-86.52"/>
<polygon fill="midnightblue" stroke="midnightblue" points="316.5,-113.48 320,-123.48 323.5,-113.48 316.5,-113.48"/>
</g>
<!-- Node6 -->
<g id="node6" class="node">
<title>Node6</title>
<g id="a_node6"><a xlink:href="ThermistorTemperatureController_8h_source.html" target="_top" xlink:title=" ">
<polygon fill="white" stroke="black" points="412.5,-56.5 412.5,-86.5 603.5,-86.5 603.5,-56.5 412.5,-56.5"/>
<text text-anchor="start" x="420.5" y="-74.5" font-family="Helvetica,sans-Serif" font-size="10.00">examples/CommanderPRO</text>
<text text-anchor="middle" x="508" y="-63.5" font-family="Helvetica,sans-Serif" font-size="10.00">/ThermistorTemperatureController.h</text>
</a>
</g>
</g>
<!-- Node1&#45;&gt;Node6 -->
<g id="edge5" class="edge">
<title>Node1&#45;&gt;Node6</title>
<path fill="none" stroke="midnightblue" d="M356.79,-120.36C387.42,-110.66 431.14,-96.83 463.69,-86.52"/>
<polygon fill="midnightblue" stroke="midnightblue" points="355.41,-117.12 346.94,-123.48 357.53,-123.79 355.41,-117.12"/>
</g>
<!-- Node3 -->
<g id="node3" class="node">
<title>Node3</title>
<g id="a_node3"><a xlink:href="CorsairLightingProtocol_8h.html" target="_top" xlink:title=" ">
<polygon fill="white" stroke="black" points="0,-0.5 0,-19.5 156,-19.5 156,-0.5 0,-0.5"/>
<text text-anchor="middle" x="78" y="-7.5" font-family="Helvetica,sans-Serif" font-size="10.00">src/CorsairLightingProtocol.h</text>
</a>
</g>
</g>
<!-- Node2&#45;&gt;Node3 -->
<g id="edge2" class="edge">
<title>Node2&#45;&gt;Node3</title>
<path fill="none" stroke="midnightblue" d="M143.2,-56.11C126.66,-44.67 104.08,-29.05 90.3,-19.51"/>
<polygon fill="midnightblue" stroke="midnightblue" points="141.46,-59.16 151.68,-61.98 145.45,-53.41 141.46,-59.16"/>
</g>
<!-- Node4 -->
<g id="node4" class="node">
<title>Node4</title>
<g id="a_node4"><a xlink:href="FastLEDControllerUtils_8h_source.html" target="_top" xlink:title=" ">
<polygon fill="white" stroke="black" points="174,-0.5 174,-19.5 326,-19.5 326,-0.5 174,-0.5"/>
<text text-anchor="middle" x="250" y="-7.5" font-family="Helvetica,sans-Serif" font-size="10.00">src/FastLEDControllerUtils.h</text>
</a>
</g>
</g>
<!-- Node2&#45;&gt;Node4 -->
<g id="edge3" class="edge">
<title>Node2&#45;&gt;Node4</title>
<path fill="none" stroke="midnightblue" d="M184.8,-56.11C201.34,-44.67 223.92,-29.05 237.7,-19.51"/>
<polygon fill="midnightblue" stroke="midnightblue" points="182.55,-53.41 176.32,-61.98 186.54,-59.16 182.55,-53.41"/>
</g>
</g>
</svg>
